<?plantuml 1.2026.2?><svg xmlns="http://www.w3.org/2000/svg" xmlns:xlink="http://www.w3.org/1999/xlink" contentStyleType="text/css" data-diagram-type="SEQUENCE" height="880px" preserveAspectRatio="none" style="width:656px;height:880px;background:#FFFFFF;" version="1.1" viewBox="0 0 656 880" width="656px" zoomAndPan="magnify"><defs/><g><rect fill="none" height="506.5721" style="stroke:#000000;stroke-width:1.5;" width="640.4318" x="10" y="87.0679"/><rect fill="none" height="278.63" style="stroke:#000000;stroke-width:1.5;" width="498.22" x="20" y="252.598"/><rect fill="none" height="183.2361" style="stroke:#000000;stroke-width:1.5;" width="478.22" x="30" y="279.304"/><rect fill="none" height="89.118" style="stroke:#000000;stroke-width:1.5;" width="390.7545" x="30" y="607.6401"/><rect fill="none" height="71.412" style="stroke:#000000;stroke-width:1.5;" width="390.7545" x="30" y="710.7581"/><g class="participant-lifeline" data-entity-uid="part1" data-qualified-name="SERVICE" id="part1-lifeline"><g><title>INVENTORY_SERVICE</title><rect fill="#000000" fill-opacity="0.00000" height="729.1022" width="8" x="107.8657" y="70.0679"/><line style="stroke:#181818;stroke-width:0.5;stroke-dasharray:5,5;" x1="111" x2="111" y1="70.0679" y2="799.1701"/></g></g><g class="participant-lifeline" data-entity-uid="part2" data-qualified-name="DB" id="part2-lifeline"><g><title>DATABASE</title><rect fill="#000000" fill-opacity="0.00000" height="729.1022" width="8" x="279.5588" y="70.0679"/><line style="stroke:#181818;stroke-width:0.5;stroke-dasharray:5,5;" x1="282.853" x2="282.853" y1="70.0679" y2="799.1701"/></g></g><g class="participant-lifeline" data-entity-uid="part3" data-qualified-name="K" id="part3-lifeline"><g><title>KAFKA</title><rect fill="#000000" fill-opacity="0.00000" height="729.1022" width="8" x="358.5096" y="70.0679"/><line style="stroke:#181818;stroke-width:0.5;stroke-dasharray:5,5;" x1="362.2647" x2="362.2647" y1="70.0679" y2="799.1701"/></g></g><g class="participant participant-head" data-entity-uid="part1" data-qualified-name="SERVICE" id="part1-head"><text fill="#000000" font-family="sans-serif" font-size="14" lengthAdjust="spacing" textLength="137.7314" x="40" y="65.9659">INVENTORY_SERVICE</text><ellipse cx="111.8657" cy="35" fill="#E2E2F0" rx="12" ry="12" style="stroke:#181818;stroke-width:0.5;"/><polygon fill="#181818" points="107.8657,23,113.8657,18,111.8657,23,113.8657,28,107.8657,23" style="stroke:#181818;stroke-width:1;"/></g><g class="participant participant-tail" data-entity-uid="part1" data-qualified-name="SERVICE" id="part1-tail"><text fill="#000000" font-family="sans-serif" font-size="14" lengthAdjust="spacing" textLength="137.7314" x="40" y="813.1361">INVENTORY_SERVICE</text><ellipse cx="111.8657" cy="833.2381" fill="#E2E2F0" rx="12" ry="12" style="stroke:#181818;stroke-width:0.5;"/><polygon fill="#181818" points="107.8657,821.2381,113.8657,816.2381,111.8657,821.2381,113.8657,826.2381,107.8657,821.2381" style="stroke:#181818;stroke-width:1;"/></g><g class="participant participant-head" data-entity-uid="part2" data-qualified-name="DB" id="part2-head"><text fill="#000000" font-family="sans-serif" font-size="14" lengthAdjust="spacing" textLength="69.4117" x="245.853" y="65.9659">DATABASE</text><path d="M265.5588,15 C265.5588,5 283.5588,5 283.5588,5 C283.5588,5 301.5588,5 301.5588,15 L301.5588,41 C301.5588,51 283.5588,51 283.5588,51 C283.5588,51 265.5588,51 265.5588,41 L265.5588,15" fill="#E2E2F0" style="stroke:#181818;stroke-width:0.5;"/><path d="M265.5588,15 C265.5588,25 283.5588,25 283.5588,25 C283.5588,25 301.5588,25 301.5588,15" fill="none" style="stroke:#181818;stroke-width:0.5;"/></g><g class="participant participant-tail" data-entity-uid="part2" data-qualified-name="DB" id="part2-tail"><text fill="#000000" font-family="sans-serif" font-size="14" lengthAdjust="spacing" textLength="69.4117" x="245.853" y="813.1361">DATABASE</text><path d="M265.5588,827.2381 C265.5588,817.2381 283.5588,817.2381 283.5588,817.2381 C283.5588,817.2381 301.5588,817.2381 301.5588,827.2381 L301.5588,853.2381 C301.5588,863.2381 283.5588,863.2381 283.5588,863.2381 C283.5588,863.2381 265.5588,863.2381 265.5588,853.2381 L265.5588,827.2381" fill="#E2E2F0" style="stroke:#181818;stroke-width:0.5;"/><path d="M265.5588,827.2381 C265.5588,837.2381 283.5588,837.2381 283.5588,837.2381 C283.5588,837.2381 301.5588,837.2381 301.5588,827.2381" fill="none" style="stroke:#181818;stroke-width:0.5;"/></g><g class="participant participant-head" data-entity-uid="part3" data-qualified-name="K" id="part3-head"><path d="M336.2647,41 L388.7545,41 C393.7545,41 393.7545,55.534 393.7545,55.534 C393.7545,55.534 393.7545,70.0679 388.7545,70.0679 L336.2647,70.0679 C331.2647,70.0679 331.2647,55.534 331.2647,55.534 C331.2647,55.534 331.2647,41 336.2647,41" fill="#E2E2F0" style="stroke:#181818;stroke-width:0.5;"/><path d="M388.7545,41 C383.7545,41 383.7545,55.534 383.7545,55.534 C383.7545,70.0679 388.7545,70.0679 388.7545,70.0679" fill="none" style="stroke:#181818;stroke-width:0.5;"/><text fill="#000000" font-family="sans-serif" font-size="14" lengthAdjust="spacing" textLength="42.4899" x="336.2647" y="60.9659">KAFKA</text></g><g class="participant participant-tail" data-entity-uid="part3" data-qualified-name="K" id="part3-tail"><path d="M336.2647,798.1701 L388.7545,798.1701 C393.7545,798.1701 393.7545,812.7041 393.7545,812.7041 C393.7545,812.7041 393.7545,827.2381 388.7545,827.2381 L336.2647,827.2381 C331.2647,827.2381 331.2647,812.7041 331.2647,812.7041 C331.2647,812.7041 331.2647,798.1701 336.2647,798.1701" fill="#E2E2F0" style="stroke:#181818;stroke-width:0.5;"/><path d="M388.7545,798.1701 C383.7545,798.1701 383.7545,812.7041 383.7545,812.7041 C383.7545,827.2381 388.7545,827.2381 388.7545,827.2381" fill="none" style="stroke:#181818;stroke-width:0.5;"/><text fill="#000000" font-family="sans-serif" font-size="14" lengthAdjust="spacing" textLength="42.4899" x="336.2647" y="818.1361">KAFKA</text></g><path d="M10,87.0679 L83.288,87.0679 L83.288,96.7739 L73.288,106.7739 L10,106.7739 L10,87.0679" fill="#EEEEEE" style="stroke:#000000;stroke-width:1.5;"/><rect fill="none" height="506.5721" style="stroke:#000000;stroke-width:1.5;" width="640.4318" x="10" y="87.0679"/><text fill="#000000" font-family="sans-serif" font-size="13" font-weight="bold" lengthAdjust="spacing" textLength="28.288" x="25" y="101.9649">loop</text><path d="M62,111.7739 L62,138.7739 L410,138.7739 L410,121.7739 L400,111.7739 L62,111.7739" fill="#FEFFDD" style="stroke:#181818;stroke-width:0.5;"/><path d="M400,111.7739 L400,121.7739 L410,121.7739 L400,111.7739" fill="#FEFFDD" style="stroke:#181818;stroke-width:0.5;"/><text fill="#000000" font-family="sans-serif" font-size="13" lengthAdjust="spacing" textLength="133.0291" x="116.7752" y="130.6709">N concurrent listener:</text><text fill="#000000" font-family="sans-serif" font-size="13" font-weight="bold" lengthAdjust="spacing" textLength="93.7951" x="253.1843" y="130.6709">1 per partition</text><g class="message" data-entity-1="part1" data-entity-2="part3" id="msg1"><polygon fill="#181818" points="350.5096,164.186,360.5096,168.186,350.5096,172.186,354.5096,168.186" style="stroke:#181818;stroke-width:1;"/><line style="stroke:#181818;stroke-width:1;stroke-dasharray:2,2;" x1="111.8657" x2="356.5096" y1="168.186" y2="168.186"/><text fill="#000000" font-family="sans-serif" font-size="13" lengthAdjust="spacing" textLength="32.994" x="220.6906" y="162.377">listen</text></g><g class="message" data-entity-1="part3" data-entity-2="part1" id="msg2"><polygon fill="#181818" points="122.8657,195.892,112.8657,199.892,122.8657,203.892,118.8657,199.892" style="stroke:#181818;stroke-width:1;"/><line style="stroke:#181818;stroke-width:1;stroke-dasharray:2,2;" x1="116.8657" x2="361.5096" y1="199.892" y2="199.892"/><text fill="#000000" font-family="sans-serif" font-size="13" lengthAdjust="spacing" textLength="99.4891" x="187.4431" y="194.083">consume events</text></g><path d="M62,212.892 L62,239.892 L410,239.892 L410,222.892 L400,212.892 L62,212.892" fill="#FEFFDD" style="stroke:#181818;stroke-width:0.5;"/><path d="M400,212.892 L400,222.892 L410,222.892 L400,212.892" fill="#FEFFDD" style="stroke:#181818;stroke-width:0.5;"/><text fill="#000000" font-family="sans-serif" font-size="13" lengthAdjust="spacing" textLength="121.2771" x="104.0286" y="231.789">check idempotency:</text><text fill="#000000" font-family="sans-serif" font-size="13" font-weight="bold" lengthAdjust="spacing" textLength="131.0401" x="228.6858" y="231.789">only processed once</text><path d="M20,252.598 L82.459,252.598 L82.459,262.304 L72.459,272.304 L20,272.304 L20,252.598" fill="#EEEEEE" style="stroke:#000000;stroke-width:1.5;"/><rect fill="none" height="278.63" style="stroke:#000000;stroke-width:1.5;" width="498.22" x="20" y="252.598"/><text fill="#000000" font-family="sans-serif" font-size="13" font-weight="bold" lengthAdjust="spacing" textLength="17.459" x="35" y="267.495">alt</text><text fill="#000000" font-family="sans-serif" font-size="11" font-weight="bold" lengthAdjust="spacing" textLength="135.827" x="97.459" y="266.3569">[never processed before]</text><path d="M30,279.304 L161.944,279.304 L161.944,289.01 L151.944,299.01 L30,299.01 L30,279.304" fill="#EEEEEE" style="stroke:#000000;stroke-width:1.5;"/><rect fill="none" height="183.2361" style="stroke:#000000;stroke-width:1.5;" width="478.22" x="30" y="279.304"/><text fill="#000000" font-family="sans-serif" font-size="13" font-weight="bold" lengthAdjust="spacing" textLength="86.944" x="45" y="294.201">transactional</text><g class="message" data-entity-1="part1" data-entity-2="part1" id="msg3"><line style="stroke:#181818;stroke-width:1;stroke-dasharray:2,2;" x1="111.8657" x2="153.8657" y1="328.0691" y2="328.0691"/><line style="stroke:#181818;stroke-width:1;stroke-dasharray:2,2;" x1="153.8657" x2="153.8657" y1="328.0691" y2="341.0691"/><line style="stroke:#181818;stroke-width:1;stroke-dasharray:2,2;" x1="112.8657" x2="153.8657" y1="341.0691" y2="341.0691"/><polygon fill="#181818" points="122.8657,337.0691,112.8657,341.0691,122.8657,345.0691,118.8657,341.0691" style="stroke:#181818;stroke-width:1;"/><text fill="#000000" font-family="sans-serif" font-size="13" lengthAdjust="spacing" textLength="84.5651" x="118.8657" y="322.2601">process order</text></g><path d="M214.5651,304.01 L214.5651,349.01 L491.5651,349.01 L491.5651,314.01 L481.5651,304.01 L214.5651,304.01" fill="#FEFFDD" style="stroke:#181818;stroke-width:0.5;"/><path d="M481.5651,304.01 L481.5651,314.01 L491.5651,314.01 L481.5651,304.01" fill="#FEFFDD" style="stroke:#181818;stroke-width:0.5;"/><text fill="#000000" font-family="sans-serif" font-size="13" lengthAdjust="spacing" textLength="256.7892" x="220.5651" y="322.907">for demo: randomly accept or reject order</text><text fill="#000000" font-family="sans-serif" font-size="13" lengthAdjust="spacing" textLength="157.1571" x="220.5651" y="340.6131">(accepted/rejected topics)</text><g class="message" data-entity-1="part1" data-entity-2="part2" id="msg5"><polygon fill="#181818" points="271.5588,374.1281,281.5588,378.1281,271.5588,382.1281,275.5588,378.1281" style="stroke:#181818;stroke-width:1;"/><line style="stroke:#181818;stroke-width:1;stroke-dasharray:2,2;" x1="111.8657" x2="277.5588" y1="378.1281" y2="378.1281"/><text fill="#000000" font-family="sans-serif" font-size="13" lengthAdjust="spacing" textLength="147.6931" x="123.8657" y="372.3191">save event as processed</text></g><g class="message" data-entity-1="part1" data-entity-2="part1" id="msg6"><line style="stroke:#181818;stroke-width:1;stroke-dasharray:2,2;" x1="111.8657" x2="153.8657" y1="409.8341" y2="409.8341"/><line style="stroke:#181818;stroke-width:1;stroke-dasharray:2,2;" x1="153.8657" x2="153.8657" y1="409.8341" y2="422.8341"/><line style="stroke:#181818;stroke-width:1;stroke-dasharray:2,2;" x1="112.8657" x2="153.8657" y1="422.8341" y2="422.8341"/><polygon fill="#181818" points="122.8657,418.8341,112.8657,422.8341,122.8657,426.8341,118.8657,422.8341" style="stroke:#181818;stroke-width:1;"/><text fill="#000000" font-family="sans-serif" font-size="13" lengthAdjust="spacing" textLength="84.9681" x="118.8657" y="404.0251">create outbox</text></g><g class="message" data-entity-1="part1" data-entity-2="part2" id="msg7"><polygon fill="#181818" points="271.5588,450.5401,281.5588,454.5401,271.5588,458.5401,275.5588,454.5401" style="stroke:#181818;stroke-width:1;"/><line style="stroke:#181818;stroke-width:1;stroke-dasharray:2,2;" x1="111.8657" x2="277.5588" y1="454.5401" y2="454.5401"/><text fill="#000000" font-family="sans-serif" font-size="13" lengthAdjust="spacing" textLength="74.1651" x="160.6297" y="448.7311">save outbox</text></g><line style="stroke:#000000;stroke-width:1;stroke-dasharray:2,2;" x1="20" x2="518.22" y1="470.5401" y2="470.5401"/><text fill="#000000" font-family="sans-serif" font-size="11" font-weight="bold" lengthAdjust="spacing" textLength="106.8202" x="25" y="482.299">[already processed]</text><g class="message" data-entity-1="part1" data-entity-2="part1" id="msg8"><line style="stroke:#181818;stroke-width:1;stroke-dasharray:2,2;" x1="111.8657" x2="153.8657" y1="510.228" y2="510.228"/><line style="stroke:#181818;stroke-width:1;stroke-dasharray:2,2;" x1="153.8657" x2="153.8657" y1="510.228" y2="523.228"/><line style="stroke:#181818;stroke-width:1;stroke-dasharray:2,2;" x1="112.8657" x2="153.8657" y1="523.228" y2="523.228"/><polygon fill="#181818" points="122.8657,519.228,112.8657,523.228,122.8657,527.228,118.8657,523.228" style="stroke:#181818;stroke-width:1;"/><text fill="#000000" font-family="sans-serif" font-size="13" lengthAdjust="spacing" textLength="24.518" x="118.8657" y="504.419">skip</text></g><g class="message" data-entity-1="part1" data-entity-2="part3" id="msg9"><polygon fill="#181818" points="350.5096,569.787,360.5096,573.787,350.5096,577.787,354.5096,573.787" style="stroke:#181818;stroke-width:1;"/><line style="stroke:#181818;stroke-width:1;stroke-dasharray:2,2;" x1="111.8657" x2="356.5096" y1="573.787" y2="573.787"/><text fill="#000000" font-family="sans-serif" font-size="13" lengthAdjust="spacing" textLength="24.57" x="224.9026" y="567.978">ACK</text></g><path d="M367,543.228 L367,588.228 L634,588.228 L634,553.228 L624,543.228 L367,543.228" fill="#FEFFDD" style="stroke:#181818;stroke-width:0.5;"/><path d="M624,543.228 L624,553.228 L634,553.228 L624,543.228" fill="#FEFFDD" style="stroke:#181818;stroke-width:0.5;"/><text fill="#000000" font-family="sans-serif" font-size="13" lengthAdjust="spacing" textLength="116.2721" x="373" y="562.125">commit read offset</text><text fill="#000000" font-family="sans-serif" font-size="13" lengthAdjust="spacing" textLength="246.9222" x="373" y="579.831">if it fails idempotency check will ignore it</text><path d="M30,607.6401 L260.7701,607.6401 L260.7701,617.3461 L250.7701,627.3461 L30,627.3461 L30,607.6401" fill="#EEEEEE" style="stroke:#000000;stroke-width:1.5;"/><rect fill="none" height="89.118" style="stroke:#000000;stroke-width:1.5;" width="390.7545" x="30" y="607.6401"/><text fill="#000000" font-family="sans-serif" font-size="13" font-weight="bold" lengthAdjust="spacing" textLength="185.7701" x="45" y="622.5371">listener on `outbox_channel`</text><g class="message" data-entity-1="part1" data-entity-2="part2" id="msg11"><polygon fill="#181818" points="122.8657,647.0521,112.8657,651.0521,122.8657,655.0521,118.8657,651.0521" style="stroke:#181818;stroke-width:1;"/><polygon fill="#181818" points="271.5588,647.0521,281.5588,651.0521,271.5588,655.0521,275.5588,651.0521" style="stroke:#181818;stroke-width:1;"/><line style="stroke:#181818;stroke-width:1;stroke-dasharray:2,2;" x1="116.8657" x2="277.5588" y1="651.0521" y2="651.0521"/><text fill="#000000" font-family="sans-serif" font-size="13" lengthAdjust="spacing" textLength="72.8781" x="161.2732" y="645.2431">listen/notify</text></g><path d="M62,664.0521 L62,691.0521 L410,691.0521 L410,674.0521 L400,664.0521 L62,664.0521" fill="#FEFFDD" style="stroke:#181818;stroke-width:0.5;"/><path d="M400,664.0521 L400,674.0521 L410,674.0521 L400,664.0521" fill="#FEFFDD" style="stroke:#181818;stroke-width:0.5;"/><text fill="#000000" font-family="sans-serif" font-size="13" lengthAdjust="spacing" textLength="151.9701" x="155.8922" y="682.9491">same flow as ORDER_API</text><path d="M30,710.7581 L258.3652,710.7581 L258.3652,720.4641 L248.3652,730.4641 L30,730.4641 L30,710.7581" fill="#EEEEEE" style="stroke:#000000;stroke-width:1.5;"/><rect fill="none" height="71.412" style="stroke:#000000;stroke-width:1.5;" width="390.7545" x="30" y="710.7581"/><text fill="#000000" font-family="sans-serif" font-size="13" font-weight="bold" lengthAdjust="spacing" textLength="183.3652" x="45" y="725.6551">low freq rescue periodic poll</text><g class="message" data-entity-1="part1" data-entity-2="part2" id="msg12"><polygon fill="#181818" points="271.5588,732.4641,281.5588,736.4641,271.5588,740.4641,275.5588,736.4641" style="stroke:#181818;stroke-width:1;"/><line style="stroke:#181818;stroke-width:1;stroke-dasharray:2,2;" x1="111.8657" x2="277.5588" y1="736.4641" y2="736.4641"/></g><path d="M62,749.4641 L62,776.4641 L410,776.4641 L410,759.4641 L400,749.4641 L62,749.4641" fill="#FEFFDD" style="stroke:#181818;stroke-width:0.5;"/><path d="M400,749.4641 L400,759.4641 L410,759.4641 L400,749.4641" fill="#FEFFDD" style="stroke:#181818;stroke-width:0.5;"/><text fill="#000000" font-family="sans-serif" font-size="13" lengthAdjust="spacing" textLength="151.9701" x="155.8922" y="768.3611">same flow as ORDER_API</text><?plantuml-src XLDTQ-Cm47pNhzZ7kq0fVJMbu3Gf1DEqfALmK4WLUPte8cjThTnU_lsjlqAIjiHFPaUQcTqTyTRwIWTT0kDxZTxWFJBhDQREhZqOz163KePy3EHWDd-PpfyV5d-MJzF5o-ns2fgX_rMvZdgb6M6IFgVZzAa59sCbl3L2bjvbQLF9b794bGBvF4K4RG8n9p07aJ5r228Apd94Zo61qUWAAWmWDgEDblnerDuT75nSt42Mz1TQ96jhFPuqh5oN2FWXnFnLrspGRC7cM5PIzcRNQ99tEwW26Ha7vY36iDVLBe8Nhd00hx2WW2tSVEj0TGKnQC_QD9QrssEdrlSsUpQWaCl83u-tReDTRs82eWFYb18GzfnASQcDmIhAFGZu5qti65xzhmx0_BAhYyz8bJNy-qSpat42h3_wMJNRslTulW4JK8jHgkEA_fsNE3c7lfD09mdIJhZotJVgtohprdPv6aXEif7UPkfqa8RAqaPeT82AWZ6-Ubk0b0fj7H_ceK_8ftKEv5N8fkMOQhHKj-aXh18JUElwMfgDzXxTsv6Vws42tOrBCMIBtTT8ifQy5eu-cnKyB2RJnJ9zd1r92bO4V9S6sCZpaXTYARS6Ad93s8x7hWx2T5xdFm00?></g></svg>