<?plantuml 1.2026.2?><svg xmlns="http://www.w3.org/2000/svg" xmlns:xlink="http://www.w3.org/1999/xlink" contentStyleType="text/css" data-diagram-type="SEQUENCE" height="842px" preserveAspectRatio="none" style="width:666px;height:842px;background:#FFFFFF;" version="1.1" viewBox="0 0 666 842" width="666px" zoomAndPan="magnify"><defs/><g><rect fill="none" height="468.8661" style="stroke:#000000;stroke-width:1.5;" width="650.4318" x="10" y="87.0679"/><rect fill="none" height="334.0421" style="stroke:#000000;stroke-width:1.5;" width="630.4318" x="20" y="214.892"/><rect fill="none" height="183.2361" style="stroke:#000000;stroke-width:1.5;" width="478.22" x="30" y="241.598"/><rect fill="none" height="89.118" style="stroke:#000000;stroke-width:1.5;" width="390.7545" x="30" y="569.934"/><rect fill="none" height="71.412" style="stroke:#000000;stroke-width:1.5;" width="390.7545" x="30" y="673.0521"/><g class="participant-lifeline" data-entity-uid="part1" data-qualified-name="SERVICE" id="part1-lifeline"><g><title>INVENTORY_SERVICE</title><rect fill="#000000" fill-opacity="0.00000" height="691.3962" width="8" x="107.8657" y="70.0679"/><line style="stroke:#181818;stroke-width:0.5;stroke-dasharray:5,5;" x1="111" x2="111" y1="70.0679" y2="761.4641"/></g></g><g class="participant-lifeline" data-entity-uid="part2" data-qualified-name="DB" id="part2-lifeline"><g><title>DATABASE</title><rect fill="#000000" fill-opacity="0.00000" height="691.3962" width="8" x="279.5588" y="70.0679"/><line style="stroke:#181818;stroke-width:0.5;stroke-dasharray:5,5;" x1="282.853" x2="282.853" y1="70.0679" y2="761.4641"/></g></g><g class="participant-lifeline" data-entity-uid="part3" data-qualified-name="K" id="part3-lifeline"><g><title>KAFKA</title><rect fill="#000000" fill-opacity="0.00000" height="691.3962" width="8" x="358.5096" y="70.0679"/><line style="stroke:#181818;stroke-width:0.5;stroke-dasharray:5,5;" x1="362.2647" x2="362.2647" y1="70.0679" y2="761.4641"/></g></g><g class="participant participant-head" data-entity-uid="part1" data-qualified-name="SERVICE" id="part1-head"><text fill="#000000" font-family="sans-serif" font-size="14" lengthAdjust="spacing" textLength="137.7314" x="40" y="65.9659">INVENTORY_SERVICE</text><ellipse cx="111.8657" cy="35" fill="#E2E2F0" rx="12" ry="12" style="stroke:#181818;stroke-width:0.5;"/><polygon fill="#181818" points="107.8657,23,113.8657,18,111.8657,23,113.8657,28,107.8657,23" style="stroke:#181818;stroke-width:1;"/></g><g class="participant participant-tail" data-entity-uid="part1" data-qualified-name="SERVICE" id="part1-tail"><text fill="#000000" font-family="sans-serif" font-size="14" lengthAdjust="spacing" textLength="137.7314" x="40" y="775.4301">INVENTORY_SERVICE</text><ellipse cx="111.8657" cy="795.532" fill="#E2E2F0" rx="12" ry="12" style="stroke:#181818;stroke-width:0.5;"/><polygon fill="#181818" points="107.8657,783.532,113.8657,778.532,111.8657,783.532,113.8657,788.532,107.8657,783.532" style="stroke:#181818;stroke-width:1;"/></g><g class="participant participant-head" data-entity-uid="part2" data-qualified-name="DB" id="part2-head"><text fill="#000000" font-family="sans-serif" font-size="14" lengthAdjust="spacing" textLength="69.4117" x="245.853" y="65.9659">DATABASE</text><path d="M265.5588,15 C265.5588,5 283.5588,5 283.5588,5 C283.5588,5 301.5588,5 301.5588,15 L301.5588,41 C301.5588,51 283.5588,51 283.5588,51 C283.5588,51 265.5588,51 265.5588,41 L265.5588,15" fill="#E2E2F0" style="stroke:#181818;stroke-width:0.5;"/><path d="M265.5588,15 C265.5588,25 283.5588,25 283.5588,25 C283.5588,25 301.5588,25 301.5588,15" fill="none" style="stroke:#181818;stroke-width:0.5;"/></g><g class="participant participant-tail" data-entity-uid="part2" data-qualified-name="DB" id="part2-tail"><text fill="#000000" font-family="sans-serif" font-size="14" lengthAdjust="spacing" textLength="69.4117" x="245.853" y="775.4301">DATABASE</text><path d="M265.5588,789.532 C265.5588,779.532 283.5588,779.532 283.5588,779.532 C283.5588,779.532 301.5588,779.532 301.5588,789.532 L301.5588,815.532 C301.5588,825.532 283.5588,825.532 283.5588,825.532 C283.5588,825.532 265.5588,825.532 265.5588,815.532 L265.5588,789.532" fill="#E2E2F0" style="stroke:#181818;stroke-width:0.5;"/><path d="M265.5588,789.532 C265.5588,799.532 283.5588,799.532 283.5588,799.532 C283.5588,799.532 301.5588,799.532 301.5588,789.532" fill="none" style="stroke:#181818;stroke-width:0.5;"/></g><g class="participant participant-head" data-entity-uid="part3" data-qualified-name="K" id="part3-head"><path d="M336.2647,41 L388.7545,41 C393.7545,41 393.7545,55.534 393.7545,55.534 C393.7545,55.534 393.7545,70.0679 388.7545,70.0679 L336.2647,70.0679 C331.2647,70.0679 331.2647,55.534 331.2647,55.534 C331.2647,55.534 331.2647,41 336.2647,41" fill="#E2E2F0" style="stroke:#181818;stroke-width:0.5;"/><path d="M388.7545,41 C383.7545,41 383.7545,55.534 383.7545,55.534 C383.7545,70.0679 388.7545,70.0679 388.7545,70.0679" fill="none" style="stroke:#181818;stroke-width:0.5;"/><text fill="#000000" font-family="sans-serif" font-size="14" lengthAdjust="spacing" textLength="42.4899" x="336.2647" y="60.9659">KAFKA</text></g><g class="participant participant-tail" data-entity-uid="part3" data-qualified-name="K" id="part3-tail"><path d="M336.2647,760.4641 L388.7545,760.4641 C393.7545,760.4641 393.7545,774.9981 393.7545,774.9981 C393.7545,774.9981 393.7545,789.532 388.7545,789.532 L336.2647,789.532 C331.2647,789.532 331.2647,774.9981 331.2647,774.9981 C331.2647,774.9981 331.2647,760.4641 336.2647,760.4641" fill="#E2E2F0" style="stroke:#181818;stroke-width:0.5;"/><path d="M388.7545,760.4641 C383.7545,760.4641 383.7545,774.9981 383.7545,774.9981 C383.7545,789.532 388.7545,789.532 388.7545,789.532" fill="none" style="stroke:#181818;stroke-width:0.5;"/><text fill="#000000" font-family="sans-serif" font-size="14" lengthAdjust="spacing" textLength="42.4899" x="336.2647" y="780.4301">KAFKA</text></g><path d="M10,87.0679 L83.288,87.0679 L83.288,96.7739 L73.288,106.7739 L10,106.7739 L10,87.0679" fill="#EEEEEE" style="stroke:#000000;stroke-width:1.5;"/><rect fill="none" height="468.8661" style="stroke:#000000;stroke-width:1.5;" width="650.4318" x="10" y="87.0679"/><text fill="#000000" font-family="sans-serif" font-size="13" font-weight="bold" lengthAdjust="spacing" textLength="28.288" x="25" y="101.9649">loop</text><g class="message" data-entity-1="part1" data-entity-2="part3" id="msg1"><polygon fill="#181818" points="350.5096,126.4799,360.5096,130.4799,350.5096,134.4799,354.5096,130.4799" style="stroke:#181818;stroke-width:1;"/><line style="stroke:#181818;stroke-width:1;stroke-dasharray:2,2;" x1="111.8657" x2="356.5096" y1="130.4799" y2="130.4799"/><text fill="#000000" font-family="sans-serif" font-size="13" lengthAdjust="spacing" textLength="32.994" x="220.6906" y="124.6709">listen</text></g><g class="message" data-entity-1="part3" data-entity-2="part1" id="msg2"><polygon fill="#181818" points="122.8657,158.186,112.8657,162.186,122.8657,166.186,118.8657,162.186" style="stroke:#181818;stroke-width:1;"/><line style="stroke:#181818;stroke-width:1;stroke-dasharray:2,2;" x1="116.8657" x2="361.5096" y1="162.186" y2="162.186"/><text fill="#000000" font-family="sans-serif" font-size="13" lengthAdjust="spacing" textLength="99.4891" x="187.4431" y="156.377">consume events</text></g><g class="message" data-entity-1="part1" data-entity-2="part2" id="msg3"><polygon fill="#181818" points="271.5588,192.892,281.5588,196.892,271.5588,200.892,275.5588,196.892" style="stroke:#181818;stroke-width:1;"/><line style="stroke:#181818;stroke-width:1;stroke-dasharray:2,2;" x1="111.8657" x2="277.5588" y1="196.892" y2="196.892"/><text fill="#000000" font-family="sans-serif" font-size="13" lengthAdjust="spacing" textLength="117.7931" x="138.8157" y="191.083">check idempotency</text></g><path d="M288,175.186 L288,202.186 L440,202.186 L440,185.186 L430,175.186 L288,175.186" fill="#FEFFDD" style="stroke:#181818;stroke-width:0.5;"/><path d="M430,175.186 L430,185.186 L440,185.186 L430,175.186" fill="#FEFFDD" style="stroke:#181818;stroke-width:0.5;"/><text fill="#000000" font-family="sans-serif" font-size="13" font-weight="bold" lengthAdjust="spacing" textLength="131.0401" x="294" y="194.083">only processed once</text><path d="M20,214.892 L82.459,214.892 L82.459,224.598 L72.459,234.598 L20,234.598 L20,214.892" fill="#EEEEEE" style="stroke:#000000;stroke-width:1.5;"/><rect fill="none" height="334.0421" style="stroke:#000000;stroke-width:1.5;" width="630.4318" x="20" y="214.892"/><text fill="#000000" font-family="sans-serif" font-size="13" font-weight="bold" lengthAdjust="spacing" textLength="17.459" x="35" y="229.789">alt</text><text fill="#000000" font-family="sans-serif" font-size="11" font-weight="bold" lengthAdjust="spacing" textLength="135.827" x="97.459" y="228.6509">[never processed before]</text><path d="M30,241.598 L161.944,241.598 L161.944,251.304 L151.944,261.304 L30,261.304 L30,241.598" fill="#EEEEEE" style="stroke:#000000;stroke-width:1.5;"/><rect fill="none" height="183.2361" style="stroke:#000000;stroke-width:1.5;" width="478.22" x="30" y="241.598"/><text fill="#000000" font-family="sans-serif" font-size="13" font-weight="bold" lengthAdjust="spacing" textLength="86.944" x="45" y="256.495">transactional</text><g class="message" data-entity-1="part1" data-entity-2="part1" id="msg5"><line style="stroke:#181818;stroke-width:1;stroke-dasharray:2,2;" x1="111.8657" x2="153.8657" y1="290.363" y2="290.363"/><line style="stroke:#181818;stroke-width:1;stroke-dasharray:2,2;" x1="153.8657" x2="153.8657" y1="290.363" y2="303.363"/><line style="stroke:#181818;stroke-width:1;stroke-dasharray:2,2;" x1="112.8657" x2="153.8657" y1="303.363" y2="303.363"/><polygon fill="#181818" points="122.8657,299.363,112.8657,303.363,122.8657,307.363,118.8657,303.363" style="stroke:#181818;stroke-width:1;"/><text fill="#000000" font-family="sans-serif" font-size="13" lengthAdjust="spacing" textLength="84.5651" x="118.8657" y="284.554">process order</text></g><path d="M214.5651,266.304 L214.5651,311.304 L491.5651,311.304 L491.5651,276.304 L481.5651,266.304 L214.5651,266.304" fill="#FEFFDD" style="stroke:#181818;stroke-width:0.5;"/><path d="M481.5651,266.304 L481.5651,276.304 L491.5651,276.304 L481.5651,266.304" fill="#FEFFDD" style="stroke:#181818;stroke-width:0.5;"/><text fill="#000000" font-family="sans-serif" font-size="13" lengthAdjust="spacing" textLength="256.7892" x="220.5651" y="285.201">for demo: randomly accept or reject order</text><text fill="#000000" font-family="sans-serif" font-size="13" lengthAdjust="spacing" textLength="157.1571" x="220.5651" y="302.907">(accepted/rejected topics)</text><g class="message" data-entity-1="part1" data-entity-2="part2" id="msg7"><polygon fill="#181818" points="271.5588,336.4221,281.5588,340.4221,271.5588,344.4221,275.5588,340.4221" style="stroke:#181818;stroke-width:1;"/><line style="stroke:#181818;stroke-width:1;stroke-dasharray:2,2;" x1="111.8657" x2="277.5588" y1="340.4221" y2="340.4221"/><text fill="#000000" font-family="sans-serif" font-size="13" lengthAdjust="spacing" textLength="147.6931" x="123.8657" y="334.6131">save event as processed</text></g><g class="message" data-entity-1="part1" data-entity-2="part1" id="msg8"><line style="stroke:#181818;stroke-width:1;stroke-dasharray:2,2;" x1="111.8657" x2="153.8657" y1="372.1281" y2="372.1281"/><line style="stroke:#181818;stroke-width:1;stroke-dasharray:2,2;" x1="153.8657" x2="153.8657" y1="372.1281" y2="385.1281"/><line style="stroke:#181818;stroke-width:1;stroke-dasharray:2,2;" x1="112.8657" x2="153.8657" y1="385.1281" y2="385.1281"/><polygon fill="#181818" points="122.8657,381.1281,112.8657,385.1281,122.8657,389.1281,118.8657,385.1281" style="stroke:#181818;stroke-width:1;"/><text fill="#000000" font-family="sans-serif" font-size="13" lengthAdjust="spacing" textLength="84.9681" x="118.8657" y="366.3191">create outbox</text></g><g class="message" data-entity-1="part1" data-entity-2="part2" id="msg9"><polygon fill="#181818" points="271.5588,412.8341,281.5588,416.8341,271.5588,420.8341,275.5588,416.8341" style="stroke:#181818;stroke-width:1;"/><line style="stroke:#181818;stroke-width:1;stroke-dasharray:2,2;" x1="111.8657" x2="277.5588" y1="416.8341" y2="416.8341"/><text fill="#000000" font-family="sans-serif" font-size="13" lengthAdjust="spacing" textLength="74.1651" x="160.6297" y="411.0251">save outbox</text></g><g class="message" data-entity-1="part1" data-entity-2="part3" id="msg10"><polygon fill="#181818" points="350.5096,463.3931,360.5096,467.3931,350.5096,471.3931,354.5096,467.3931" style="stroke:#181818;stroke-width:1;"/><line style="stroke:#181818;stroke-width:1;stroke-dasharray:2,2;" x1="111.8657" x2="356.5096" y1="467.3931" y2="467.3931"/><text fill="#000000" font-family="sans-serif" font-size="13" lengthAdjust="spacing" textLength="24.57" x="224.9026" y="461.5841">ACK</text></g><path d="M367,436.8341 L367,481.8341 L634,481.8341 L634,446.8341 L624,436.8341 L367,436.8341" fill="#FEFFDD" style="stroke:#181818;stroke-width:0.5;"/><path d="M624,436.8341 L624,446.8341 L634,446.8341 L624,436.8341" fill="#FEFFDD" style="stroke:#181818;stroke-width:0.5;"/><text fill="#000000" font-family="sans-serif" font-size="13" lengthAdjust="spacing" textLength="116.2721" x="373" y="455.7311">commit read offset</text><text fill="#000000" font-family="sans-serif" font-size="13" lengthAdjust="spacing" textLength="246.9222" x="373" y="473.4371">if it fails idempotency check will ignore it</text><line style="stroke:#000000;stroke-width:1;stroke-dasharray:2,2;" x1="20" x2="650.4318" y1="488.2461" y2="488.2461"/><text fill="#000000" font-family="sans-serif" font-size="11" font-weight="bold" lengthAdjust="spacing" textLength="106.8202" x="25" y="500.005">[already processed]</text><g class="message" data-entity-1="part1" data-entity-2="part1" id="msg12"><line style="stroke:#181818;stroke-width:1;stroke-dasharray:2,2;" x1="111.8657" x2="153.8657" y1="527.934" y2="527.934"/><line style="stroke:#181818;stroke-width:1;stroke-dasharray:2,2;" x1="153.8657" x2="153.8657" y1="527.934" y2="540.934"/><line style="stroke:#181818;stroke-width:1;stroke-dasharray:2,2;" x1="112.8657" x2="153.8657" y1="540.934" y2="540.934"/><polygon fill="#181818" points="122.8657,536.934,112.8657,540.934,122.8657,544.934,118.8657,540.934" style="stroke:#181818;stroke-width:1;"/><text fill="#000000" font-family="sans-serif" font-size="13" lengthAdjust="spacing" textLength="24.518" x="118.8657" y="522.125">skip</text></g><path d="M30,569.934 L260.7701,569.934 L260.7701,579.6401 L250.7701,589.6401 L30,589.6401 L30,569.934" fill="#EEEEEE" style="stroke:#000000;stroke-width:1.5;"/><rect fill="none" height="89.118" style="stroke:#000000;stroke-width:1.5;" width="390.7545" x="30" y="569.934"/><text fill="#000000" font-family="sans-serif" font-size="13" font-weight="bold" lengthAdjust="spacing" textLength="185.7701" x="45" y="584.831">listener on `outbox_channel`</text><g class="message" data-entity-1="part1" data-entity-2="part2" id="msg13"><polygon fill="#181818" points="122.8657,609.3461,112.8657,613.3461,122.8657,617.3461,118.8657,613.3461" style="stroke:#181818;stroke-width:1;"/><polygon fill="#181818" points="271.5588,609.3461,281.5588,613.3461,271.5588,617.3461,275.5588,613.3461" style="stroke:#181818;stroke-width:1;"/><line style="stroke:#181818;stroke-width:1;stroke-dasharray:2,2;" x1="116.8657" x2="277.5588" y1="613.3461" y2="613.3461"/><text fill="#000000" font-family="sans-serif" font-size="13" lengthAdjust="spacing" textLength="72.8781" x="161.2732" y="607.5371">listen/notify</text></g><path d="M62,626.3461 L62,653.3461 L410,653.3461 L410,636.3461 L400,626.3461 L62,626.3461" fill="#FEFFDD" style="stroke:#181818;stroke-width:0.5;"/><path d="M400,626.3461 L400,636.3461 L410,636.3461 L400,626.3461" fill="#FEFFDD" style="stroke:#181818;stroke-width:0.5;"/><text fill="#000000" font-family="sans-serif" font-size="13" lengthAdjust="spacing" textLength="151.9701" x="155.8922" y="645.2431">same flow as ORDER_API</text><path d="M30,673.0521 L258.3652,673.0521 L258.3652,682.7581 L248.3652,692.7581 L30,692.7581 L30,673.0521" fill="#EEEEEE" style="stroke:#000000;stroke-width:1.5;"/><rect fill="none" height="71.412" style="stroke:#000000;stroke-width:1.5;" width="390.7545" x="30" y="673.0521"/><text fill="#000000" font-family="sans-serif" font-size="13" font-weight="bold" lengthAdjust="spacing" textLength="183.3652" x="45" y="687.9491">low freq rescue periodic poll</text><g class="message" data-entity-1="part1" data-entity-2="part2" id="msg14"><polygon fill="#181818" points="271.5588,694.7581,281.5588,698.7581,271.5588,702.7581,275.5588,698.7581" style="stroke:#181818;stroke-width:1;"/><line style="stroke:#181818;stroke-width:1;stroke-dasharray:2,2;" x1="111.8657" x2="277.5588" y1="698.7581" y2="698.7581"/></g><path d="M62,711.7581 L62,738.7581 L410,738.7581 L410,721.7581 L400,711.7581 L62,711.7581" fill="#FEFFDD" style="stroke:#181818;stroke-width:0.5;"/><path d="M400,711.7581 L400,721.7581 L410,721.7581 L400,711.7581" fill="#FEFFDD" style="stroke:#181818;stroke-width:0.5;"/><text fill="#000000" font-family="sans-serif" font-size="13" lengthAdjust="spacing" textLength="151.9701" x="155.8922" y="730.6551">same flow as ORDER_API</text><?plantuml-src XLDTQ-Cm47pNhzZ7Ng3qFHm7JfE3OAuzqb8e5DADl4vqaRMg9BVDl-_w8padboC6Wz6kPcTcnt5hdCU05KHwgybf-aKnufeoQzOEDBb4GIdDBWMsCBzxcjqztY-Ubm-pnTFyTWOOeVzK1IPSOIIOPe_P97jeYzE94joQ8Cz-vbbpaYjbcRq2UVOerzS_81-3DJ6HQojvUzRNno04ObqHqBimYl_SdKwaPKDw2wQWohEWw5tRvUGRWbblqXX68tPs1pwm5f5K08lUqQZjGvl02NeOb5TKSg2st3phmBM75D15rCcmGtkedH8w4E_HW4CXHWxRXyna3WXn7eEW5rm9IzIQV99x4EWFwTGXlBYhha35JNSkF1Dxe-Et_v9ft8duthlNxE2WyR807GY5ADTfnP-NHvpqaVixucJPsMskpdcXkQfC4jKe2ohBIEd5cHBag4HZut33_Su_ZBKWSPLbILiBIbPoYBO1sPrHUrPft9ekbGtfvbNTnhjKIZBOmMkdRwatw1pPrwCaVjyxqTsu4LMc7CGGTU0O6wCaoQNbZsOLzulfRB7CVi-FHagj3FGcBaGjFu-dOBWm6ZpRVUYExLS38o_F-G80?></g></svg>