<?plantuml 1.2026.2?><svg xmlns="http://www.w3.org/2000/svg" xmlns:xlink="http://www.w3.org/1999/xlink" contentStyleType="text/css" data-diagram-type="SEQUENCE" height="1751px" preserveAspectRatio="none" style="width:1180px;height:1751px;background:#FFFFFF;" version="1.1" viewBox="0 0 1180 1751" width="1180px" zoomAndPan="magnify"><defs/><g><rect fill="none" height="507.5721" style="stroke:#000000;stroke-width:1.5;" width="1085.1835" x="89" y="87.0679"/><rect fill="none" height="473.8661" style="stroke:#000000;stroke-width:1.5;" width="1065.1835" x="99" y="113.7739"/><rect fill="none" height="364.7481" style="stroke:#000000;stroke-width:1.5;" width="1045.1835" x="109" y="215.892"/><rect fill="none" height="229.924" style="stroke:#000000;stroke-width:1.5;" width="1025.1835" x="119" y="343.716"/><rect fill="none" height="634.8263" style="stroke:#000000;stroke-width:1.5;" width="925.5062" x="9" y="608.6401"/><rect fill="none" height="501.0023" style="stroke:#000000;stroke-width:1.5;" width="815.5062" x="109" y="735.4641"/><rect fill="none" height="429.5902" style="stroke:#000000;stroke-width:1.5;" width="795.5062" x="119" y="799.8762"/><rect fill="none" height="102.118" style="stroke:#000000;stroke-width:1.5;" width="795.5062" x="119" y="1257.4664"/><rect fill="none" height="279.3541" style="stroke:#000000;stroke-width:1.5;" width="970.1404" x="141" y="1373.5844"/><rect fill="none" height="176.2361" style="stroke:#000000;stroke-width:1.5;" width="742.1404" x="359" y="1469.7025"/><g class="participant-lifeline" data-entity-uid="part1" data-qualified-name="SERVICE" id="part1-lifeline"><g><title>INVENTORY_SERVICE</title><rect fill="#000000" fill-opacity="0.00000" height="1599.8707" width="8" x="196.8657" y="70.0679"/><line style="stroke:#181818;stroke-width:0.5;stroke-dasharray:5,5;" x1="200" x2="200" y1="70.0679" y2="1669.9386"/></g></g><g class="participant-lifeline" data-entity-uid="part2" data-qualified-name="DB" id="part2-lifeline"><g><title>DATABASE</title><rect fill="#000000" fill-opacity="0.00000" height="1599.8707" width="8" x="419.2949" y="70.0679"/><line style="stroke:#181818;stroke-width:0.5;stroke-dasharray:5,5;" x1="422.589" x2="422.589" y1="70.0679" y2="1669.9386"/></g></g><g class="participant-lifeline" data-entity-uid="part3" data-qualified-name="Z" id="part3-lifeline"><g><title>DEBEZIUM</title><rect fill="#000000" fill-opacity="0.00000" height="1599.8707" width="8" x="595.876" y="70.0679"/><line style="stroke:#181818;stroke-width:0.5;stroke-dasharray:5,5;" x1="599.5892" x2="599.5892" y1="70.0679" y2="1669.9386"/></g></g><g class="participant-lifeline" data-entity-uid="part4" data-qualified-name="K" id="part4-lifeline"><g><title>KAFKA</title><rect fill="#000000" fill-opacity="0.00000" height="1599.8707" width="8" x="852.2613" y="70.0679"/><line style="stroke:#181818;stroke-width:0.5;stroke-dasharray:5,5;" x1="856.0163" x2="856.0163" y1="70.0679" y2="1669.9386"/></g></g><g class="participant participant-head" data-entity-uid="part1" data-qualified-name="SERVICE" id="part1-head"><text fill="#000000" font-family="sans-serif" font-size="14" lengthAdjust="spacing" textLength="137.7314" x="129" y="65.9659">INVENTORY_SERVICE</text><ellipse cx="200.8657" cy="35" fill="#E2E2F0" rx="12" ry="12" style="stroke:#181818;stroke-width:0.5;"/><polygon fill="#181818" points="196.8657,23,202.8657,18,200.8657,23,202.8657,28,196.8657,23" style="stroke:#181818;stroke-width:1;"/></g><g class="participant participant-tail" data-entity-uid="part1" data-qualified-name="SERVICE" id="part1-tail"><text fill="#000000" font-family="sans-serif" font-size="14" lengthAdjust="spacing" textLength="137.7314" x="129" y="1683.9045">INVENTORY_SERVICE</text><ellipse cx="200.8657" cy="1704.0065" fill="#E2E2F0" rx="12" ry="12" style="stroke:#181818;stroke-width:0.5;"/><polygon fill="#181818" points="196.8657,1692.0065,202.8657,1687.0065,200.8657,1692.0065,202.8657,1697.0065,196.8657,1692.0065" style="stroke:#181818;stroke-width:1;"/></g><g class="participant participant-head" data-entity-uid="part2" data-qualified-name="DB" id="part2-head"><text fill="#000000" font-family="sans-serif" font-size="14" lengthAdjust="spacing" textLength="69.4117" x="385.589" y="65.9659">DATABASE</text><path d="M405.2949,15 C405.2949,5 423.2949,5 423.2949,5 C423.2949,5 441.2949,5 441.2949,15 L441.2949,41 C441.2949,51 423.2949,51 423.2949,51 C423.2949,51 405.2949,51 405.2949,41 L405.2949,15" fill="#E2E2F0" style="stroke:#181818;stroke-width:0.5;"/><path d="M405.2949,15 C405.2949,25 423.2949,25 423.2949,25 C423.2949,25 441.2949,25 441.2949,15" fill="none" style="stroke:#181818;stroke-width:0.5;"/></g><g class="participant participant-tail" data-entity-uid="part2" data-qualified-name="DB" id="part2-tail"><text fill="#000000" font-family="sans-serif" font-size="14" lengthAdjust="spacing" textLength="69.4117" x="385.589" y="1683.9045">DATABASE</text><path d="M405.2949,1698.0065 C405.2949,1688.0065 423.2949,1688.0065 423.2949,1688.0065 C423.2949,1688.0065 441.2949,1688.0065 441.2949,1698.0065 L441.2949,1724.0065 C441.2949,1734.0065 423.2949,1734.0065 423.2949,1734.0065 C423.2949,1734.0065 405.2949,1734.0065 405.2949,1724.0065 L405.2949,1698.0065" fill="#E2E2F0" style="stroke:#181818;stroke-width:0.5;"/><path d="M405.2949,1698.0065 C405.2949,1708.0065 423.2949,1708.0065 423.2949,1708.0065 C423.2949,1708.0065 441.2949,1708.0065 441.2949,1698.0065" fill="none" style="stroke:#181818;stroke-width:0.5;"/></g><g class="participant participant-head" data-entity-uid="part3" data-qualified-name="Z" id="part3-head"><text fill="#000000" font-family="sans-serif" font-size="14" lengthAdjust="spacing" textLength="70.5737" x="561.5892" y="65.9659">DEBEZIUM</text><ellipse cx="599.876" cy="35" fill="#E2E2F0" rx="12" ry="12" style="stroke:#181818;stroke-width:0.5;"/><polygon fill="#181818" points="595.876,23,601.876,18,599.876,23,601.876,28,595.876,23" style="stroke:#181818;stroke-width:1;"/></g><g class="participant participant-tail" data-entity-uid="part3" data-qualified-name="Z" id="part3-tail"><text fill="#000000" font-family="sans-serif" font-size="14" lengthAdjust="spacing" textLength="70.5737" x="561.5892" y="1683.9045">DEBEZIUM</text><ellipse cx="599.876" cy="1704.0065" fill="#E2E2F0" rx="12" ry="12" style="stroke:#181818;stroke-width:0.5;"/><polygon fill="#181818" points="595.876,1692.0065,601.876,1687.0065,599.876,1692.0065,601.876,1697.0065,595.876,1692.0065" style="stroke:#181818;stroke-width:1;"/></g><g class="participant participant-head" data-entity-uid="part4" data-qualified-name="K" id="part4-head"><path d="M830.0163,41 L882.5062,41 C887.5062,41 887.5062,55.534 887.5062,55.534 C887.5062,55.534 887.5062,70.0679 882.5062,70.0679 L830.0163,70.0679 C825.0163,70.0679 825.0163,55.534 825.0163,55.534 C825.0163,55.534 825.0163,41 830.0163,41" fill="#E2E2F0" style="stroke:#181818;stroke-width:0.5;"/><path d="M882.5062,41 C877.5062,41 877.5062,55.534 877.5062,55.534 C877.5062,70.0679 882.5062,70.0679 882.5062,70.0679" fill="none" style="stroke:#181818;stroke-width:0.5;"/><text fill="#000000" font-family="sans-serif" font-size="14" lengthAdjust="spacing" textLength="42.4899" x="830.0163" y="60.9659">KAFKA</text></g><g class="participant participant-tail" data-entity-uid="part4" data-qualified-name="K" id="part4-tail"><path d="M830.0163,1668.9386 L882.5062,1668.9386 C887.5062,1668.9386 887.5062,1683.4726 887.5062,1683.4726 C887.5062,1683.4726 887.5062,1698.0065 882.5062,1698.0065 L830.0163,1698.0065 C825.0163,1698.0065 825.0163,1683.4726 825.0163,1683.4726 C825.0163,1683.4726 825.0163,1668.9386 830.0163,1668.9386" fill="#E2E2F0" style="stroke:#181818;stroke-width:0.5;"/><path d="M882.5062,1668.9386 C877.5062,1668.9386 877.5062,1683.4726 877.5062,1683.4726 C877.5062,1698.0065 882.5062,1698.0065 882.5062,1698.0065" fill="none" style="stroke:#181818;stroke-width:0.5;"/><text fill="#000000" font-family="sans-serif" font-size="14" lengthAdjust="spacing" textLength="42.4899" x="830.0163" y="1688.9045">KAFKA</text></g><path d="M89,87.0679 L198.623,87.0679 L198.623,96.7739 L188.623,106.7739 L89,106.7739 L89,87.0679" fill="#EEEEEE" style="stroke:#000000;stroke-width:1.5;"/><rect fill="none" height="507.5721" style="stroke:#000000;stroke-width:1.5;" width="1085.1835" x="89" y="87.0679"/><text fill="#000000" font-family="sans-serif" font-size="13" font-weight="bold" lengthAdjust="spacing" textLength="64.623" x="104" y="101.9649">consumer</text><path d="M99,113.7739 L172.288,113.7739 L172.288,123.4799 L162.288,133.4799 L99,133.4799 L99,113.7739" fill="#EEEEEE" style="stroke:#000000;stroke-width:1.5;"/><rect fill="none" height="473.8661" style="stroke:#000000;stroke-width:1.5;" width="1065.1835" x="99" y="113.7739"/><text fill="#000000" font-family="sans-serif" font-size="13" font-weight="bold" lengthAdjust="spacing" textLength="28.288" x="114" y="128.6709">loop</text><path d="M151,138.4799 L151,165.4799 L904,165.4799 L904,148.4799 L894,138.4799 L151,138.4799" fill="#FEFFDD" style="stroke:#181818;stroke-width:0.5;"/><path d="M894,138.4799 L894,148.4799 L904,148.4799 L894,138.4799" fill="#FEFFDD" style="stroke:#181818;stroke-width:0.5;"/><text fill="#000000" font-family="sans-serif" font-size="13" lengthAdjust="spacing" textLength="223.9512" x="411.2775" y="157.377">N concurrent listener: 1 per partition</text><g class="message" data-entity-1="part1" data-entity-2="part4" id="msg1"><polygon fill="#181818" points="211.8657,193.892,201.8657,197.892,211.8657,201.892,207.8657,197.892" style="stroke:#181818;stroke-width:1;"/><polygon fill="#181818" points="844.2613,193.892,854.2613,197.892,844.2613,201.892,848.2613,197.892" style="stroke:#181818;stroke-width:1;"/><line style="stroke:#181818;stroke-width:1;" x1="205.8657" x2="850.2613" y1="197.892" y2="197.892"/><text fill="#000000" font-family="sans-serif" font-size="13" lengthAdjust="spacing" textLength="100.7891" x="217.8657" y="192.083">listen/new event</text></g><path d="M861,176.186 L861,203.186 L999,203.186 L999,186.186 L989,176.186 L861,176.186" fill="#FEFFDD" style="stroke:#181818;stroke-width:0.5;"/><path d="M989,176.186 L989,186.186 L999,186.186 L989,176.186" fill="#FEFFDD" style="stroke:#181818;stroke-width:0.5;"/><text fill="#000000" font-family="sans-serif" font-size="13" lengthAdjust="spacing" textLength="117.3771" x="867" y="195.083">orders.placed topic</text><path d="M109,215.892 L240.944,215.892 L240.944,225.598 L230.944,235.598 L109,235.598 L109,215.892" fill="#EEEEEE" style="stroke:#000000;stroke-width:1.5;"/><rect fill="none" height="364.7481" style="stroke:#000000;stroke-width:1.5;" width="1045.1835" x="109" y="215.892"/><text fill="#000000" font-family="sans-serif" font-size="13" font-weight="bold" lengthAdjust="spacing" textLength="86.944" x="124" y="230.789">transactional</text><path d="M151,240.598 L151,267.598 L904,267.598 L904,250.598 L894,240.598 L151,240.598" fill="#FEFFDD" style="stroke:#181818;stroke-width:0.5;"/><path d="M894,240.598 L894,250.598 L904,250.598 L894,240.598" fill="#FEFFDD" style="stroke:#181818;stroke-width:0.5;"/><text fill="#000000" font-family="sans-serif" font-size="13" lengthAdjust="spacing" textLength="250.6532" x="397.9265" y="259.495">idempotency check: only consumed once</text><g class="message" data-entity-1="part1" data-entity-2="part2" id="msg3"><polygon fill="#181818" points="411.2949,293.01,421.2949,297.01,411.2949,301.01,415.2949,297.01" style="stroke:#181818;stroke-width:1;"/><line style="stroke:#181818;stroke-width:1;" x1="200.8657" x2="417.2949" y1="297.01" y2="297.01"/><text fill="#000000" font-family="sans-serif" font-size="13" lengthAdjust="spacing" textLength="107.1331" x="207.8657" y="291.201">dedup by eventId</text></g><g class="message" data-entity-1="part2" data-entity-2="part1" id="msg4"><polygon fill="#181818" points="211.8657,324.716,201.8657,328.716,211.8657,332.716,207.8657,328.716" style="stroke:#181818;stroke-width:1;"/><line style="stroke:#181818;stroke-width:1;stroke-dasharray:2,2;" x1="205.8657" x2="422.2949" y1="328.716" y2="328.716"/><text fill="#000000" font-family="sans-serif" font-size="13" lengthAdjust="spacing" textLength="56.381" x="217.8657" y="322.907">response</text></g><path d="M119,343.716 L181.459,343.716 L181.459,353.4221 L171.459,363.4221 L119,363.4221 L119,343.716" fill="#EEEEEE" style="stroke:#000000;stroke-width:1.5;"/><rect fill="none" height="229.924" style="stroke:#000000;stroke-width:1.5;" width="1025.1835" x="119" y="343.716"/><text fill="#000000" font-family="sans-serif" font-size="13" font-weight="bold" lengthAdjust="spacing" textLength="17.459" x="134" y="358.6131">alt</text><text fill="#000000" font-family="sans-serif" font-size="11" font-weight="bold" lengthAdjust="spacing" textLength="137.158" x="196.459" y="357.475">[never consumed before]</text><g class="message" data-entity-1="part1" data-entity-2="part1" id="msg5"><line style="stroke:#181818;stroke-width:1;" x1="200.8657" x2="242.8657" y1="387.1281" y2="387.1281"/><line style="stroke:#181818;stroke-width:1;" x1="242.8657" x2="242.8657" y1="387.1281" y2="400.1281"/><line style="stroke:#181818;stroke-width:1;" x1="201.8657" x2="242.8657" y1="400.1281" y2="400.1281"/><polygon fill="#181818" points="211.8657,396.1281,201.8657,400.1281,211.8657,404.1281,207.8657,400.1281" style="stroke:#181818;stroke-width:1;"/><text fill="#000000" font-family="sans-serif" font-size="13" lengthAdjust="spacing" textLength="75.7641" x="207.8657" y="381.3191">create inbox</text></g><g class="message" data-entity-1="part1" data-entity-2="part2" id="msg6"><polygon fill="#181818" points="411.2949,430.8341,421.2949,434.8341,411.2949,438.8341,415.2949,434.8341" style="stroke:#181818;stroke-width:1;"/><line style="stroke:#181818;stroke-width:1;" x1="200.8657" x2="417.2949" y1="434.8341" y2="434.8341"/><text fill="#000000" font-family="sans-serif" font-size="13" lengthAdjust="spacing" textLength="64.961" x="207.8657" y="429.0251">save inbox</text></g><path d="M428,413.1281 L428,440.1281 L522,440.1281 L522,423.1281 L512,413.1281 L428,413.1281" fill="#FEFFDD" style="stroke:#181818;stroke-width:0.5;"/><path d="M512,413.1281 L512,423.1281 L522,423.1281 L512,413.1281" fill="#FEFFDD" style="stroke:#181818;stroke-width:0.5;"/><text fill="#000000" font-family="sans-serif" font-size="13" lengthAdjust="spacing" textLength="73.3981" x="434" y="432.0251">dedup table</text><g class="message" data-entity-1="part1" data-entity-2="part4" id="msg8"><polygon fill="#181818" points="844.2613,477.3931,854.2613,481.3931,844.2613,485.3931,848.2613,481.3931" style="stroke:#181818;stroke-width:1;"/><line style="stroke:#181818;stroke-width:1;" x1="200.8657" x2="850.2613" y1="481.3931" y2="481.3931"/><text fill="#000000" font-family="sans-serif" font-size="13" lengthAdjust="spacing" textLength="24.57" x="207.8657" y="475.5841">ACK</text></g><path d="M861,450.8341 L861,495.8341 L1128,495.8341 L1128,460.8341 L1118,450.8341 L861,450.8341" fill="#FEFFDD" style="stroke:#181818;stroke-width:0.5;"/><path d="M1118,450.8341 L1118,460.8341 L1128,460.8341 L1118,450.8341" fill="#FEFFDD" style="stroke:#181818;stroke-width:0.5;"/><text fill="#000000" font-family="sans-serif" font-size="13" lengthAdjust="spacing" textLength="116.2721" x="867" y="469.7311">commit read offset</text><text fill="#000000" font-family="sans-serif" font-size="13" lengthAdjust="spacing" textLength="246.9222" x="867" y="487.4371">if it fails idempotency check will ignore it</text><line style="stroke:#000000;stroke-width:1;stroke-dasharray:2,2;" x1="119" x2="1144.1835" y1="502.2461" y2="502.2461"/><text fill="#000000" font-family="sans-serif" font-size="11" font-weight="bold" lengthAdjust="spacing" textLength="108.1512" x="124" y="514.005">[already consumed]</text><g class="message" data-entity-1="part1" data-entity-2="part4" id="msg10"><polygon fill="#181818" points="844.2613,549.787,854.2613,553.787,844.2613,557.787,848.2613,553.787" style="stroke:#181818;stroke-width:1;"/><line style="stroke:#181818;stroke-width:1;" x1="200.8657" x2="850.2613" y1="553.787" y2="553.787"/><text fill="#000000" font-family="sans-serif" font-size="13" lengthAdjust="spacing" textLength="24.57" x="207.8657" y="547.978">ACK</text></g><path d="M861,523.228 L861,568.228 L1128,568.228 L1128,533.228 L1118,523.228 L861,523.228" fill="#FEFFDD" style="stroke:#181818;stroke-width:0.5;"/><path d="M1118,523.228 L1118,533.228 L1128,533.228 L1118,523.228" fill="#FEFFDD" style="stroke:#181818;stroke-width:0.5;"/><text fill="#000000" font-family="sans-serif" font-size="13" lengthAdjust="spacing" textLength="116.2721" x="867" y="542.125">commit read offset</text><text fill="#000000" font-family="sans-serif" font-size="13" lengthAdjust="spacing" textLength="246.9222" x="867" y="559.831">if it fails idempotency check will ignore it</text><path d="M9,608.6401 L251.7821,608.6401 L251.7821,618.3461 L241.7821,628.3461 L9,628.3461 L9,608.6401" fill="#EEEEEE" style="stroke:#000000;stroke-width:1.5;"/><rect fill="none" height="634.8263" style="stroke:#000000;stroke-width:1.5;" width="925.5062" x="9" y="608.6401"/><text fill="#000000" font-family="sans-serif" font-size="13" font-weight="bold" lengthAdjust="spacing" textLength="197.7821" x="24" y="623.5371">listener on DB `inbox_channel`</text><g class="message" data-entity-1="part1" data-entity-2="part2" id="msg12"><polygon fill="#181818" points="211.8657,671.7581,201.8657,675.7581,211.8657,679.7581,207.8657,675.7581" style="stroke:#181818;stroke-width:1;"/><polygon fill="#181818" points="411.2949,671.7581,421.2949,675.7581,411.2949,679.7581,415.2949,675.7581" style="stroke:#181818;stroke-width:1;"/><line style="stroke:#181818;stroke-width:1;" x1="205.8657" x2="417.2949" y1="675.7581" y2="675.7581"/><text fill="#000000" font-family="sans-serif" font-size="13" lengthAdjust="spacing" textLength="72.8781" x="217.8657" y="669.9491">listen/notify</text></g><path d="M19,633.3461 L19,678.3461 L194,678.3461 L194,643.3461 L184,633.3461 L19,633.3461" fill="#FEFFDD" style="stroke:#181818;stroke-width:0.5;"/><path d="M184,633.3461 L184,643.3461 L194,643.3461 L184,633.3461" fill="#FEFFDD" style="stroke:#181818;stroke-width:0.5;"/><text fill="#000000" font-family="sans-serif" font-size="13" lengthAdjust="spacing" textLength="89.7911" x="25" y="652.2431">listener thread</text><text fill="#000000" font-family="sans-serif" font-size="13" lengthAdjust="spacing" textLength="154.9601" x="25" y="669.9491">separate from hikari pool</text><path d="M428,642.1991 L428,669.1991 L755,669.1991 L755,652.1991 L745,642.1991 L428,642.1991" fill="#FEFFDD" style="stroke:#181818;stroke-width:0.5;"/><path d="M745,642.1991 L745,652.1991 L755,652.1991 L745,642.1991" fill="#FEFFDD" style="stroke:#181818;stroke-width:0.5;"/><text fill="#000000" font-family="sans-serif" font-size="13" lengthAdjust="spacing" textLength="61.3861" x="434" y="661.0961">trigger on</text><text fill="#000000" font-family="sans-serif" font-size="13" font-weight="bold" lengthAdjust="spacing" textLength="78.195" x="498.7661" y="661.0961">inbox.insert</text><text fill="#000000" font-family="sans-serif" font-size="13" lengthAdjust="spacing" textLength="63.1411" x="580.3411" y="661.0961">that notify</text><text fill="#000000" font-family="sans-serif" font-size="13" font-weight="bold" lengthAdjust="spacing" textLength="93.444" x="646.8622" y="661.0961">inbox_channel</text><g class="message" data-entity-1="part1" data-entity-2="part1" id="msg14"><line style="stroke:#181818;stroke-width:1;" x1="200.8657" x2="242.8657" y1="707.4641" y2="707.4641"/><line style="stroke:#181818;stroke-width:1;" x1="242.8657" x2="242.8657" y1="707.4641" y2="720.4641"/><line style="stroke:#181818;stroke-width:1;" x1="201.8657" x2="242.8657" y1="720.4641" y2="720.4641"/><polygon fill="#181818" points="211.8657,716.4641,201.8657,720.4641,211.8657,724.4641,207.8657,720.4641" style="stroke:#181818;stroke-width:1;"/><text fill="#000000" font-family="sans-serif" font-size="13" lengthAdjust="spacing" textLength="138.5801" x="207.8657" y="701.6551">trigger process service</text></g><path d="M109,735.4641 L182.288,735.4641 L182.288,745.1701 L172.288,755.1701 L109,755.1701 L109,735.4641" fill="#EEEEEE" style="stroke:#000000;stroke-width:1.5;"/><rect fill="none" height="501.0023" style="stroke:#000000;stroke-width:1.5;" width="815.5062" x="109" y="735.4641"/><text fill="#000000" font-family="sans-serif" font-size="13" font-weight="bold" lengthAdjust="spacing" textLength="28.288" x="124" y="750.3611">loop</text><text fill="#000000" font-family="sans-serif" font-size="11" font-weight="bold" lengthAdjust="spacing" textLength="221.7034" x="197.288" y="749.223">[until no unprocessed inbox is retrieved]</text><path d="M151,760.1701 L151,787.1701 L904,787.1701 L904,770.1701 L894,760.1701 L151,760.1701" fill="#FEFFDD" style="stroke:#181818;stroke-width:0.5;"/><path d="M894,760.1701 L894,770.1701 L904,770.1701 L894,760.1701" fill="#FEFFDD" style="stroke:#181818;stroke-width:0.5;"/><text fill="#000000" font-family="sans-serif" font-size="13" lengthAdjust="spacing" textLength="458.3283" x="294.0889" y="779.0671">keep processing unprocessed inbox messages until none is left then sleeps</text><path d="M119,799.8762 L250.944,799.8762 L250.944,809.5822 L240.944,819.5822 L119,819.5822 L119,799.8762" fill="#EEEEEE" style="stroke:#000000;stroke-width:1.5;"/><rect fill="none" height="429.5902" style="stroke:#000000;stroke-width:1.5;" width="795.5062" x="119" y="799.8762"/><text fill="#000000" font-family="sans-serif" font-size="13" font-weight="bold" lengthAdjust="spacing" textLength="86.944" x="134" y="814.7732">transactional</text><path d="M151,824.5822 L151,887.5822 L904,887.5822 L904,834.5822 L894,824.5822 L151,824.5822" fill="#FEFFDD" style="stroke:#181818;stroke-width:0.5;"/><path d="M894,824.5822 L894,834.5822 L904,834.5822 L894,824.5822" fill="#FEFFDD" style="stroke:#181818;stroke-width:0.5;"/><text fill="#000000" font-family="sans-serif" font-size="13" lengthAdjust="spacing" textLength="406.1593" x="320.1734" y="843.4792">transaction here to lock current batch in DB in case of concurrency</text><text fill="#000000" font-family="sans-serif" font-size="13" lengthAdjust="spacing" textLength="212.0692" x="320.1734" y="861.1852">any concurrent will pick next batch</text><text fill="#000000" font-family="sans-serif" font-size="13" lengthAdjust="spacing" textLength="246.6622" x="320.1734" y="878.8912">+ make inbox/processing/outbox atomic</text><g class="message" data-entity-1="part1" data-entity-2="part2" id="msg15"><polygon fill="#181818" points="411.2949,933.1123,421.2949,937.1123,411.2949,941.1123,415.2949,937.1123" style="stroke:#181818;stroke-width:1;"/><line style="stroke:#181818;stroke-width:1;" x1="200.8657" x2="417.2949" y1="937.1123" y2="937.1123"/><text fill="#000000" font-family="sans-serif" font-size="13" lengthAdjust="spacing" textLength="177.1902" x="207.8657" y="931.3032">get unprocessed inbox batch</text></g><path d="M428,897.7002 L428,960.7002 L758,960.7002 L758,907.7002 L748,897.7002 L428,897.7002" fill="#FEFFDD" style="stroke:#181818;stroke-width:0.5;"/><path d="M748,897.7002 L748,907.7002 L758,907.7002 L748,897.7002" fill="#FEFFDD" style="stroke:#181818;stroke-width:0.5;"/><text fill="#000000" font-family="sans-serif" font-size="13" font-weight="bold" lengthAdjust="spacing" textLength="126.6331" x="434" y="916.5972">processedAt == null</text><text fill="#000000" font-family="sans-serif" font-size="13" lengthAdjust="spacing" textLength="309.9593" x="434" y="934.3032">will lock current batch in DB in case of concurrency</text><text fill="#000000" font-family="sans-serif" font-size="13" lengthAdjust="spacing" textLength="212.0692" x="434" y="952.0093">any concurrent will pick next batch</text><g class="message" data-entity-1="part2" data-entity-2="part1" id="msg17"><polygon fill="#181818" points="211.8657,985.5243,201.8657,989.5243,211.8657,993.5243,207.8657,989.5243" style="stroke:#181818;stroke-width:1;"/><line style="stroke:#181818;stroke-width:1;stroke-dasharray:2,2;" x1="205.8657" x2="422.2949" y1="989.5243" y2="989.5243"/><text fill="#000000" font-family="sans-serif" font-size="13" lengthAdjust="spacing" textLength="71.7601" x="217.8657" y="983.7153">inbox batch</text></g><g class="message" data-entity-1="part1" data-entity-2="part1" id="msg18"><line style="stroke:#181818;stroke-width:1;" x1="200.8657" x2="242.8657" y1="1035.4363" y2="1035.4363"/><line style="stroke:#181818;stroke-width:1;" x1="242.8657" x2="242.8657" y1="1035.4363" y2="1048.4363"/><line style="stroke:#181818;stroke-width:1;" x1="201.8657" x2="242.8657" y1="1048.4363" y2="1048.4363"/><polygon fill="#181818" points="211.8657,1044.4363,201.8657,1048.4363,211.8657,1052.4363,207.8657,1048.4363" style="stroke:#181818;stroke-width:1;"/><text fill="#000000" font-family="sans-serif" font-size="13" lengthAdjust="spacing" textLength="84.8901" x="207.8657" y="1029.6273">process batch</text></g><path d="M303.8901,1002.5243 L303.8901,1065.5243 L577.8901,1065.5243 L577.8901,1012.5243 L567.8901,1002.5243 L303.8901,1002.5243" fill="#FEFFDD" style="stroke:#181818;stroke-width:0.5;"/><path d="M567.8901,1002.5243 L567.8901,1012.5243 L577.8901,1012.5243 L567.8901,1002.5243" fill="#FEFFDD" style="stroke:#181818;stroke-width:0.5;"/><text fill="#000000" font-family="sans-serif" font-size="13" lengthAdjust="spacing" textLength="117.0651" x="309.8901" y="1021.4213">business logic here</text><text fill="#000000" font-family="sans-serif" font-size="13" lengthAdjust="spacing" textLength="253.3052" x="309.8901" y="1039.1273">for demo randomly accept or reject order</text><text fill="#000000" font-family="sans-serif" font-size="13" lengthAdjust="spacing" textLength="157.9501" x="309.8901" y="1056.8333">(accepted/rejected status)</text><g class="message" data-entity-1="part1" data-entity-2="part2" id="msg20"><polygon fill="#181818" points="411.2949,1093.3484,421.2949,1097.3484,411.2949,1101.3484,415.2949,1097.3484" style="stroke:#181818;stroke-width:1;"/><line style="stroke:#181818;stroke-width:1;" x1="200.8657" x2="417.2949" y1="1097.3484" y2="1097.3484"/><text fill="#000000" font-family="sans-serif" font-size="13" lengthAdjust="spacing" textLength="143.6111" x="207.8657" y="1091.5393">flag batch as processed</text></g><path d="M428,1075.6423 L428,1102.6423 L546,1102.6423 L546,1085.6423 L536,1075.6423 L428,1075.6423" fill="#FEFFDD" style="stroke:#181818;stroke-width:0.5;"/><path d="M536,1075.6423 L536,1085.6423 L546,1085.6423 L536,1075.6423" fill="#FEFFDD" style="stroke:#181818;stroke-width:0.5;"/><text fill="#000000" font-family="sans-serif" font-size="13" lengthAdjust="spacing" textLength="97.2141" x="434" y="1094.5393">set processedAt</text><g class="message" data-entity-1="part1" data-entity-2="part1" id="msg22"><line style="stroke:#181818;stroke-width:1;" x1="200.8657" x2="242.8657" y1="1132.0544" y2="1132.0544"/><line style="stroke:#181818;stroke-width:1;" x1="242.8657" x2="242.8657" y1="1132.0544" y2="1145.0544"/><line style="stroke:#181818;stroke-width:1;" x1="201.8657" x2="242.8657" y1="1145.0544" y2="1145.0544"/><polygon fill="#181818" points="211.8657,1141.0544,201.8657,1145.0544,211.8657,1149.0544,207.8657,1145.0544" style="stroke:#181818;stroke-width:1;"/><text fill="#000000" font-family="sans-serif" font-size="13" lengthAdjust="spacing" textLength="208.4292" x="207.8657" y="1126.2454">create order decided events batch</text></g><g class="message" data-entity-1="part1" data-entity-2="part1" id="msg23"><line style="stroke:#181818;stroke-width:1;" x1="200.8657" x2="242.8657" y1="1176.7604" y2="1176.7604"/><line style="stroke:#181818;stroke-width:1;" x1="242.8657" x2="242.8657" y1="1176.7604" y2="1189.7604"/><line style="stroke:#181818;stroke-width:1;" x1="201.8657" x2="242.8657" y1="1189.7604" y2="1189.7604"/><polygon fill="#181818" points="211.8657,1185.7604,201.8657,1189.7604,211.8657,1193.7604,207.8657,1189.7604" style="stroke:#181818;stroke-width:1;"/><text fill="#000000" font-family="sans-serif" font-size="13" lengthAdjust="spacing" textLength="122.6031" x="207.8657" y="1170.9514">create outbox batch</text></g><path d="M341.6031,1161.5544 L341.6031,1188.5544 L612.6031,1188.5544 L612.6031,1171.5544 L602.6031,1161.5544 L341.6031,1161.5544" fill="#FEFFDD" style="stroke:#181818;stroke-width:0.5;"/><path d="M602.6031,1161.5544 L602.6031,1171.5544 L612.6031,1171.5544 L602.6031,1161.5544" fill="#FEFFDD" style="stroke:#181818;stroke-width:0.5;"/><text fill="#000000" font-family="sans-serif" font-size="13" lengthAdjust="spacing" textLength="250.6532" x="347.6031" y="1180.4514">accepted/rejected status determine topic</text><g class="message" data-entity-1="part1" data-entity-2="part2" id="msg25"><polygon fill="#181818" points="411.2949,1217.4664,421.2949,1221.4664,411.2949,1225.4664,415.2949,1221.4664" style="stroke:#181818;stroke-width:1;"/><line style="stroke:#181818;stroke-width:1;" x1="200.8657" x2="417.2949" y1="1221.4664" y2="1221.4664"/><text fill="#000000" font-family="sans-serif" font-size="13" lengthAdjust="spacing" textLength="111.8001" x="207.8657" y="1215.6574">save outbox batch</text></g><path d="M119,1257.4664 L347.3652,1257.4664 L347.3652,1267.1724 L337.3652,1277.1724 L119,1277.1724 L119,1257.4664" fill="#EEEEEE" style="stroke:#000000;stroke-width:1.5;"/><rect fill="none" height="102.118" style="stroke:#000000;stroke-width:1.5;" width="795.5062" x="119" y="1257.4664"/><text fill="#000000" font-family="sans-serif" font-size="13" font-weight="bold" lengthAdjust="spacing" textLength="183.3652" x="134" y="1272.3634">low freq rescue periodic poll</text><path d="M151,1282.1724 L151,1309.1724 L904,1309.1724 L904,1292.1724 L894,1282.1724 L151,1282.1724" fill="#FEFFDD" style="stroke:#181818;stroke-width:0.5;"/><path d="M894,1282.1724 L894,1292.1724 L904,1292.1724 L894,1282.1724" fill="#FEFFDD" style="stroke:#181818;stroke-width:0.5;"/><text fill="#000000" font-family="sans-serif" font-size="13" lengthAdjust="spacing" textLength="162.9291" x="441.7885" y="1301.0694">rescue in case listener fails</text><g class="message" data-entity-1="part1" data-entity-2="part1" id="msg26"><line style="stroke:#181818;stroke-width:1;" x1="200.8657" x2="242.8657" y1="1338.5844" y2="1338.5844"/><line style="stroke:#181818;stroke-width:1;" x1="242.8657" x2="242.8657" y1="1338.5844" y2="1351.5844"/><line style="stroke:#181818;stroke-width:1;" x1="201.8657" x2="242.8657" y1="1351.5844" y2="1351.5844"/><polygon fill="#181818" points="211.8657,1347.5844,201.8657,1351.5844,211.8657,1355.5844,207.8657,1351.5844" style="stroke:#181818;stroke-width:1;"/><text fill="#000000" font-family="sans-serif" font-size="13" lengthAdjust="spacing" textLength="138.5801" x="207.8657" y="1332.7754">trigger process service</text></g><path d="M141,1373.5844 L249.44,1373.5844 L249.44,1383.2905 L239.44,1393.2905 L141,1393.2905 L141,1373.5844" fill="#EEEEEE" style="stroke:#000000;stroke-width:1.5;"/><rect fill="none" height="279.3541" style="stroke:#000000;stroke-width:1.5;" width="970.1404" x="141" y="1373.5844"/><text fill="#000000" font-family="sans-serif" font-size="13" font-weight="bold" lengthAdjust="spacing" textLength="63.44" x="156" y="1388.4815">debezium</text><path d="M151,1398.2905 L151,1425.2905 L904,1425.2905 L904,1408.2905 L894,1398.2905 L151,1398.2905" fill="#FEFFDD" style="stroke:#181818;stroke-width:0.5;"/><path d="M894,1398.2905 L894,1408.2905 L904,1408.2905 L894,1398.2905" fill="#FEFFDD" style="stroke:#181818;stroke-width:0.5;"/><text fill="#000000" font-family="sans-serif" font-size="13" lengthAdjust="spacing" textLength="212.7062" x="416.9" y="1417.1875">automatic CDC and outbox publish</text><g class="message" data-entity-1="part3" data-entity-2="part2" id="msg27"><polygon fill="#181818" points="434.2949,1450.7025,424.2949,1454.7025,434.2949,1458.7025,430.2949,1454.7025" style="stroke:#181818;stroke-width:1;"/><line style="stroke:#181818;stroke-width:1;" x1="428.2949" x2="598.876" y1="1454.7025" y2="1454.7025"/><text fill="#000000" font-family="sans-serif" font-size="13" lengthAdjust="spacing" textLength="36.478" x="440.2949" y="1448.8935">watch</text></g><path d="M359,1469.7025 L432.288,1469.7025 L432.288,1479.4085 L422.288,1489.4085 L359,1489.4085 L359,1469.7025" fill="#EEEEEE" style="stroke:#000000;stroke-width:1.5;"/><rect fill="none" height="176.2361" style="stroke:#000000;stroke-width:1.5;" width="742.1404" x="359" y="1469.7025"/><text fill="#000000" font-family="sans-serif" font-size="13" font-weight="bold" lengthAdjust="spacing" textLength="28.288" x="374" y="1484.5995">loop</text><g class="message" data-entity-1="part2" data-entity-2="part3" id="msg28"><polygon fill="#181818" points="587.876,1509.1145,597.876,1513.1145,587.876,1517.1145,591.876,1513.1145" style="stroke:#181818;stroke-width:1;"/><line style="stroke:#181818;stroke-width:1;" x1="423.2949" x2="593.876" y1="1513.1145" y2="1513.1145"/><text fill="#000000" font-family="sans-serif" font-size="13" lengthAdjust="spacing" textLength="152.5811" x="430.2949" y="1507.3055">outbox table inserts WAL</text></g><g class="message" data-entity-1="part3" data-entity-2="part3" id="msg29"><line style="stroke:#181818;stroke-width:1;" x1="599.876" x2="641.876" y1="1550.1736" y2="1550.1736"/><line style="stroke:#181818;stroke-width:1;" x1="641.876" x2="641.876" y1="1550.1736" y2="1563.1736"/><line style="stroke:#181818;stroke-width:1;" x1="600.876" x2="641.876" y1="1563.1736" y2="1563.1736"/><polygon fill="#181818" points="610.876,1559.1736,600.876,1563.1736,610.876,1567.1736,606.876,1563.1736" style="stroke:#181818;stroke-width:1;"/><text fill="#000000" font-family="sans-serif" font-size="13" lengthAdjust="spacing" textLength="242.3852" x="606.876" y="1544.3646">extract payload + route by topic column</text></g><path d="M369,1526.1145 L369,1571.1145 L593,1571.1145 L593,1536.1145 L583,1526.1145 L369,1526.1145" fill="#FEFFDD" style="stroke:#181818;stroke-width:0.5;"/><path d="M583,1526.1145 L583,1536.1145 L593,1536.1145 L583,1526.1145" fill="#FEFFDD" style="stroke:#181818;stroke-width:0.5;"/><text fill="#000000" font-family="sans-serif" font-size="13" lengthAdjust="spacing" textLength="122.7461" x="375" y="1545.0115">outbox event router</text><text fill="#000000" font-family="sans-serif" font-size="13" lengthAdjust="spacing" textLength="203.9702" x="375" y="1562.7176">row already carries topic decision</text><g class="message" data-entity-1="part3" data-entity-2="part4" id="msg31"><polygon fill="#181818" points="844.2613,1599.2326,854.2613,1603.2326,844.2613,1607.2326,848.2613,1603.2326" style="stroke:#181818;stroke-width:1;"/><line style="stroke:#181818;stroke-width:1;" x1="599.876" x2="850.2613" y1="1603.2326" y2="1603.2326"/><text fill="#000000" font-family="sans-serif" font-size="13" lengthAdjust="spacing" textLength="44.9931" x="606.876" y="1597.4236">publish</text></g><path d="M861,1581.5266 L861,1608.5266 L1085,1608.5266 L1085,1591.5266 L1075,1581.5266 L861,1581.5266" fill="#FEFFDD" style="stroke:#181818;stroke-width:0.5;"/><path d="M1075,1581.5266 L1075,1591.5266 L1085,1591.5266 L1075,1581.5266" fill="#FEFFDD" style="stroke:#181818;stroke-width:0.5;"/><text fill="#000000" font-family="sans-serif" font-size="13" lengthAdjust="spacing" textLength="203.8792" x="867" y="1600.4236">orders.[accepted|rejected] topics</text><g class="message" data-entity-1="part3" data-entity-2="part2" id="msg33"><polygon fill="#181818" points="434.2949,1633.9386,424.2949,1637.9386,434.2949,1641.9386,430.2949,1637.9386" style="stroke:#181818;stroke-width:1;"/><line style="stroke:#181818;stroke-width:1;" x1="428.2949" x2="598.876" y1="1637.9386" y2="1637.9386"/><text fill="#000000" font-family="sans-serif" font-size="13" lengthAdjust="spacing" textLength="115.4921" x="440.2949" y="1632.1296">commit WAL offset</text></g><?plantuml-src pLPTRzis57tNhxYFcuiswAkn5h1Z3mZSPa3RTPZhegMfAvirHQeabTJ5VlmE9L6M4zle1WoOWSGoTU-vt-TIMXESrNHp-tv---wtDtz-UZj_y_xcUax2K_UOvIA8jV1CiycxoNJojdavcsQoKvxDf_FbpU-lu_4o-rfppRIO_BgOn8D5bcsShIk2jAzBTXdXewsjceVuCJOm2UcizsEwZOAoTevD8AryOCDkJC-fOaULS445PKslczpzvUbBMemxXIl3zyHtG3YsuTHc6yPaNSxEFwkqa9nJi9MIlLphQt32U26Z9Q7xTuzyLJcN5GwCt9FSijm1s-Xz2ZN7Byb7wibTU3kRZYdd7DRM-zRPc_n8TZQbfv3hLCRas5S0FWOKEf21jZiONNDXtR7K0zCzf7Gi48yoQ_ljaaBqrOkxSvB3vBOXeM7qHHTGgydruYAIj6Mf0i8MI6HHU0uhemh2KI6Kze-pJ_TAQr8RW_0XTWJE6lqhT0GxrET_vQ0vk9EUutVywoOeJGFQAZR7vwOOd-HM6CFwS_Pm76BHqZpOe8fzrWUWkGZZ0rxOnXXMw2qCM6o8mjcIjceddABAMfqz33tWUzDwCXerVZnJK7TXD0AQ2DHQJ2-JawDHTguL4sBbh6Jl2M1tgfkUo1PKcw0qSF7GoQ3N6tHI7aK00EOWFyqgE-OgGIkpEO5HueVOiE_j68wuCLE8Y0rv3Gp_xuXY84PRHl63HL1eY4HqQn7a5fx4kkA_Z6nhYmCLoltA2BCVScFJIw2k7UR_MuUmCa-e5BjkJgyE0L_PEiGeHR3bWErEZFc6mudiDEZPkK4OZNhvIQ0NByZK6hLUcSR7_oBGYqHvpkLJRPVQxNA0wnf9Z6BQRfHiIhWoO5cmNMa9nSrj2TuNKd8Li5_GZbzOXdRJhCnFxGlEhzfpfDK74Mh_ywLA55fikdnXZ_OPFkia-8S6TSX-aFmR7n6815tbxIBoFvYyXD3srkKKdai1B0Ts9TBxO1EVMq4dhPrZJ7iFBkElSNTAt4fmXr0sHmKhgmUabiQqaqfzsVDZG-V_cBa6VkIyvk-gBX-R53KcKWIuT3sx9ZHIYg-grx3VHhXC2RZlWpwwGCK1U4dBST9jjY-rXEpfZychNdBP2MAG7FW85wgzjbXVJmX-mYrSHPegOFvqNPfZCcstHcUZQPHM2ntkaEX-kme7AlOTK6miFxonBRljEWpmp0tjGsgQlrBJV6nH_J5QJ4stZ15ijuk7_V0t?></g></svg>