<?plantuml 1.2026.2?><svg xmlns="http://www.w3.org/2000/svg" xmlns:xlink="http://www.w3.org/1999/xlink" contentStyleType="text/css" data-diagram-type="SEQUENCE" height="1731px" preserveAspectRatio="none" style="width:1190px;height:1731px;background:#FFFFFF;" version="1.1" viewBox="0 0 1190 1731" width="1190px" zoomAndPan="magnify"><defs/><g><rect fill="none" height="493.5721" style="stroke:#000000;stroke-width:1.5;" width="1165.1406" x="19" y="87.0679"/><rect fill="none" height="358.7481" style="stroke:#000000;stroke-width:1.5;" width="1145.1406" x="29" y="214.892"/><rect fill="none" height="223.924" style="stroke:#000000;stroke-width:1.5;" width="1125.1406" x="39" y="342.716"/><rect fill="none" height="617.1203" style="stroke:#000000;stroke-width:1.5;" width="945.4633" x="9" y="594.6401"/><rect fill="none" height="501.0023" style="stroke:#000000;stroke-width:1.5;" width="915.4633" x="29" y="703.7581"/><rect fill="none" height="429.5902" style="stroke:#000000;stroke-width:1.5;" width="895.4633" x="39" y="768.1701"/><rect fill="none" height="291.0602" style="stroke:#000000;stroke-width:1.5;" width="873.4633" x="61" y="1225.7604"/><rect fill="none" height="187.9421" style="stroke:#000000;stroke-width:1.5;" width="620.4633" x="297" y="1321.8784"/><rect fill="none" height="102.118" style="stroke:#000000;stroke-width:1.5;" width="895.4633" x="39" y="1530.8205"/><g class="participant-lifeline" data-entity-uid="part1" data-qualified-name="SERVICE" id="part1-lifeline"><g><title>INVENTORY_SERVICE</title><rect fill="#000000" fill-opacity="0.00000" height="1579.8707" width="8" x="116.8657" y="70.0679"/><line style="stroke:#181818;stroke-width:0.5;stroke-dasharray:5,5;" x1="120" x2="120" y1="70.0679" y2="1649.9386"/></g></g><g class="participant-lifeline" data-entity-uid="part2" data-qualified-name="DB" id="part2-lifeline"><g><title>DATABASE</title><rect fill="#000000" fill-opacity="0.00000" height="1579.8707" width="8" x="346.7699" y="70.0679"/><line style="stroke:#181818;stroke-width:0.5;stroke-dasharray:5,5;" x1="350.064" x2="350.064" y1="70.0679" y2="1649.9386"/></g></g><g class="participant-lifeline" data-entity-uid="part3" data-qualified-name="Z" id="part3-lifeline"><g><title>DEBEZIUM</title><rect fill="#000000" fill-opacity="0.00000" height="1579.8707" width="8" x="613.4152" y="70.0679"/><line style="stroke:#181818;stroke-width:0.5;stroke-dasharray:5,5;" x1="617.1283" x2="617.1283" y1="70.0679" y2="1649.9386"/></g></g><g class="participant-lifeline" data-entity-uid="part4" data-qualified-name="K" id="part4-lifeline"><g><title>KAFKA</title><rect fill="#000000" fill-opacity="0.00000" height="1579.8707" width="8" x="872.2184" y="70.0679"/><line style="stroke:#181818;stroke-width:0.5;stroke-dasharray:5,5;" x1="875.9734" x2="875.9734" y1="70.0679" y2="1649.9386"/></g></g><g class="participant participant-head" data-entity-uid="part1" data-qualified-name="SERVICE" id="part1-head"><text fill="#000000" font-family="sans-serif" font-size="14" lengthAdjust="spacing" textLength="137.7314" x="49" y="65.9659">INVENTORY_SERVICE</text><ellipse cx="120.8657" cy="35" fill="#E2E2F0" rx="12" ry="12" style="stroke:#181818;stroke-width:0.5;"/><polygon fill="#181818" points="116.8657,23,122.8657,18,120.8657,23,122.8657,28,116.8657,23" style="stroke:#181818;stroke-width:1;"/></g><g class="participant participant-tail" data-entity-uid="part1" data-qualified-name="SERVICE" id="part1-tail"><text fill="#000000" font-family="sans-serif" font-size="14" lengthAdjust="spacing" textLength="137.7314" x="49" y="1663.9045">INVENTORY_SERVICE</text><ellipse cx="120.8657" cy="1684.0065" fill="#E2E2F0" rx="12" ry="12" style="stroke:#181818;stroke-width:0.5;"/><polygon fill="#181818" points="116.8657,1672.0065,122.8657,1667.0065,120.8657,1672.0065,122.8657,1677.0065,116.8657,1672.0065" style="stroke:#181818;stroke-width:1;"/></g><g class="participant participant-head" data-entity-uid="part2" data-qualified-name="DB" id="part2-head"><text fill="#000000" font-family="sans-serif" font-size="14" lengthAdjust="spacing" textLength="69.4117" x="313.064" y="65.9659">DATABASE</text><path d="M332.7699,15 C332.7699,5 350.7699,5 350.7699,5 C350.7699,5 368.7699,5 368.7699,15 L368.7699,41 C368.7699,51 350.7699,51 350.7699,51 C350.7699,51 332.7699,51 332.7699,41 L332.7699,15" fill="#E2E2F0" style="stroke:#181818;stroke-width:0.5;"/><path d="M332.7699,15 C332.7699,25 350.7699,25 350.7699,25 C350.7699,25 368.7699,25 368.7699,15" fill="none" style="stroke:#181818;stroke-width:0.5;"/></g><g class="participant participant-tail" data-entity-uid="part2" data-qualified-name="DB" id="part2-tail"><text fill="#000000" font-family="sans-serif" font-size="14" lengthAdjust="spacing" textLength="69.4117" x="313.064" y="1663.9045">DATABASE</text><path d="M332.7699,1678.0065 C332.7699,1668.0065 350.7699,1668.0065 350.7699,1668.0065 C350.7699,1668.0065 368.7699,1668.0065 368.7699,1678.0065 L368.7699,1704.0065 C368.7699,1714.0065 350.7699,1714.0065 350.7699,1714.0065 C350.7699,1714.0065 332.7699,1714.0065 332.7699,1704.0065 L332.7699,1678.0065" fill="#E2E2F0" style="stroke:#181818;stroke-width:0.5;"/><path d="M332.7699,1678.0065 C332.7699,1688.0065 350.7699,1688.0065 350.7699,1688.0065 C350.7699,1688.0065 368.7699,1688.0065 368.7699,1678.0065" fill="none" style="stroke:#181818;stroke-width:0.5;"/></g><g class="participant participant-head" data-entity-uid="part3" data-qualified-name="Z" id="part3-head"><text fill="#000000" font-family="sans-serif" font-size="14" lengthAdjust="spacing" textLength="70.5737" x="579.1283" y="65.9659">DEBEZIUM</text><ellipse cx="617.4152" cy="35" fill="#E2E2F0" rx="12" ry="12" style="stroke:#181818;stroke-width:0.5;"/><polygon fill="#181818" points="613.4152,23,619.4152,18,617.4152,23,619.4152,28,613.4152,23" style="stroke:#181818;stroke-width:1;"/></g><g class="participant participant-tail" data-entity-uid="part3" data-qualified-name="Z" id="part3-tail"><text fill="#000000" font-family="sans-serif" font-size="14" lengthAdjust="spacing" textLength="70.5737" x="579.1283" y="1663.9045">DEBEZIUM</text><ellipse cx="617.4152" cy="1684.0065" fill="#E2E2F0" rx="12" ry="12" style="stroke:#181818;stroke-width:0.5;"/><polygon fill="#181818" points="613.4152,1672.0065,619.4152,1667.0065,617.4152,1672.0065,619.4152,1677.0065,613.4152,1672.0065" style="stroke:#181818;stroke-width:1;"/></g><g class="participant participant-head" data-entity-uid="part4" data-qualified-name="K" id="part4-head"><path d="M849.9734,41 L902.4633,41 C907.4633,41 907.4633,55.534 907.4633,55.534 C907.4633,55.534 907.4633,70.0679 902.4633,70.0679 L849.9734,70.0679 C844.9734,70.0679 844.9734,55.534 844.9734,55.534 C844.9734,55.534 844.9734,41 849.9734,41" fill="#E2E2F0" style="stroke:#181818;stroke-width:0.5;"/><path d="M902.4633,41 C897.4633,41 897.4633,55.534 897.4633,55.534 C897.4633,70.0679 902.4633,70.0679 902.4633,70.0679" fill="none" style="stroke:#181818;stroke-width:0.5;"/><text fill="#000000" font-family="sans-serif" font-size="14" lengthAdjust="spacing" textLength="42.4899" x="849.9734" y="60.9659">KAFKA</text></g><g class="participant participant-tail" data-entity-uid="part4" data-qualified-name="K" id="part4-tail"><path d="M849.9734,1648.9386 L902.4633,1648.9386 C907.4633,1648.9386 907.4633,1663.4726 907.4633,1663.4726 C907.4633,1663.4726 907.4633,1678.0065 902.4633,1678.0065 L849.9734,1678.0065 C844.9734,1678.0065 844.9734,1663.4726 844.9734,1663.4726 C844.9734,1663.4726 844.9734,1648.9386 849.9734,1648.9386" fill="#E2E2F0" style="stroke:#181818;stroke-width:0.5;"/><path d="M902.4633,1648.9386 C897.4633,1648.9386 897.4633,1663.4726 897.4633,1663.4726 C897.4633,1678.0065 902.4633,1678.0065 902.4633,1678.0065" fill="none" style="stroke:#181818;stroke-width:0.5;"/><text fill="#000000" font-family="sans-serif" font-size="14" lengthAdjust="spacing" textLength="42.4899" x="849.9734" y="1668.9045">KAFKA</text></g><path d="M19,87.0679 L92.288,87.0679 L92.288,96.7739 L82.288,106.7739 L19,106.7739 L19,87.0679" fill="#EEEEEE" style="stroke:#000000;stroke-width:1.5;"/><rect fill="none" height="493.5721" style="stroke:#000000;stroke-width:1.5;" width="1165.1406" x="19" y="87.0679"/><text fill="#000000" font-family="sans-serif" font-size="13" font-weight="bold" lengthAdjust="spacing" textLength="28.288" x="34" y="101.9649">loop</text><path d="M71,111.7739 L71,138.7739 L924,138.7739 L924,121.7739 L914,111.7739 L71,111.7739" fill="#FEFFDD" style="stroke:#181818;stroke-width:0.5;"/><path d="M914,111.7739 L914,121.7739 L924,121.7739 L914,111.7739" fill="#FEFFDD" style="stroke:#181818;stroke-width:0.5;"/><text fill="#000000" font-family="sans-serif" font-size="13" lengthAdjust="spacing" textLength="133.0291" x="378.1295" y="130.6709">N concurrent listener:</text><text fill="#000000" font-family="sans-serif" font-size="13" font-weight="bold" lengthAdjust="spacing" textLength="93.7951" x="514.5387" y="130.6709">1 per partition</text><g class="message" data-entity-1="part1" data-entity-2="part4" id="msg1"><polygon fill="#181818" points="864.2184,164.186,874.2184,168.186,864.2184,172.186,868.2184,168.186" style="stroke:#181818;stroke-width:1;"/><line style="stroke:#181818;stroke-width:1;stroke-dasharray:2,2;" x1="120.8657" x2="870.2184" y1="168.186" y2="168.186"/><text fill="#000000" font-family="sans-serif" font-size="13" lengthAdjust="spacing" textLength="32.994" x="482.045" y="162.377">listen</text></g><g class="message" data-entity-1="part4" data-entity-2="part1" id="msg2"><polygon fill="#181818" points="131.8657,195.892,121.8657,199.892,131.8657,203.892,127.8657,199.892" style="stroke:#181818;stroke-width:1;"/><line style="stroke:#181818;stroke-width:1;stroke-dasharray:2,2;" x1="125.8657" x2="875.2184" y1="199.892" y2="199.892"/><text fill="#000000" font-family="sans-serif" font-size="13" lengthAdjust="spacing" textLength="93.2621" x="451.911" y="194.083">consume event</text></g><path d="M29,214.892 L160.944,214.892 L160.944,224.598 L150.944,234.598 L29,234.598 L29,214.892" fill="#EEEEEE" style="stroke:#000000;stroke-width:1.5;"/><rect fill="none" height="358.7481" style="stroke:#000000;stroke-width:1.5;" width="1145.1406" x="29" y="214.892"/><text fill="#000000" font-family="sans-serif" font-size="13" font-weight="bold" lengthAdjust="spacing" textLength="86.944" x="44" y="229.789">transactional</text><path d="M71,239.598 L71,266.598 L924,266.598 L924,249.598 L914,239.598 L71,239.598" fill="#FEFFDD" style="stroke:#181818;stroke-width:0.5;"/><path d="M914,239.598 L914,249.598 L924,249.598 L914,239.598" fill="#FEFFDD" style="stroke:#181818;stroke-width:0.5;"/><text fill="#000000" font-family="sans-serif" font-size="13" lengthAdjust="spacing" textLength="121.2771" x="364.5965" y="258.495">idempotency check:</text><text fill="#000000" font-family="sans-serif" font-size="13" font-weight="bold" lengthAdjust="spacing" textLength="132.6131" x="489.2537" y="258.495">only consumed once</text><g class="message" data-entity-1="part1" data-entity-2="part2" id="msg3"><polygon fill="#181818" points="338.7699,292.01,348.7699,296.01,338.7699,300.01,342.7699,296.01" style="stroke:#181818;stroke-width:1;"/><line style="stroke:#181818;stroke-width:1;stroke-dasharray:2,2;" x1="120.8657" x2="344.7699" y1="296.01" y2="296.01"/><text fill="#000000" font-family="sans-serif" font-size="13" lengthAdjust="spacing" textLength="107.1331" x="182.2513" y="290.201">dedup by eventId</text></g><g class="message" data-entity-1="part2" data-entity-2="part1" id="msg4"><polygon fill="#181818" points="131.8657,323.716,121.8657,327.716,131.8657,331.716,127.8657,327.716" style="stroke:#181818;stroke-width:1;"/><line style="stroke:#181818;stroke-width:1;stroke-dasharray:2,2;" x1="125.8657" x2="349.7699" y1="327.716" y2="327.716"/><text fill="#000000" font-family="sans-serif" font-size="13" lengthAdjust="spacing" textLength="56.381" x="207.6273" y="321.907">response</text></g><path d="M39,342.716 L101.459,342.716 L101.459,352.4221 L91.459,362.4221 L39,362.4221 L39,342.716" fill="#EEEEEE" style="stroke:#000000;stroke-width:1.5;"/><rect fill="none" height="223.924" style="stroke:#000000;stroke-width:1.5;" width="1125.1406" x="39" y="342.716"/><text fill="#000000" font-family="sans-serif" font-size="13" font-weight="bold" lengthAdjust="spacing" textLength="17.459" x="54" y="357.6131">alt</text><text fill="#000000" font-family="sans-serif" font-size="11" font-weight="bold" lengthAdjust="spacing" textLength="137.158" x="116.459" y="356.475">[never consumed before]</text><g class="message" data-entity-1="part1" data-entity-2="part1" id="msg5"><line style="stroke:#181818;stroke-width:1;stroke-dasharray:2,2;" x1="120.8657" x2="162.8657" y1="386.1281" y2="386.1281"/><line style="stroke:#181818;stroke-width:1;stroke-dasharray:2,2;" x1="162.8657" x2="162.8657" y1="386.1281" y2="399.1281"/><line style="stroke:#181818;stroke-width:1;stroke-dasharray:2,2;" x1="121.8657" x2="162.8657" y1="399.1281" y2="399.1281"/><polygon fill="#181818" points="131.8657,395.1281,121.8657,399.1281,131.8657,403.1281,127.8657,399.1281" style="stroke:#181818;stroke-width:1;"/><text fill="#000000" font-family="sans-serif" font-size="13" lengthAdjust="spacing" textLength="75.7641" x="127.8657" y="380.3191">create inbox</text></g><g class="message" data-entity-1="part1" data-entity-2="part2" id="msg6"><polygon fill="#181818" points="338.7699,426.8341,348.7699,430.8341,338.7699,434.8341,342.7699,430.8341" style="stroke:#181818;stroke-width:1;"/><line style="stroke:#181818;stroke-width:1;stroke-dasharray:2,2;" x1="120.8657" x2="344.7699" y1="430.8341" y2="430.8341"/><text fill="#000000" font-family="sans-serif" font-size="13" lengthAdjust="spacing" textLength="64.961" x="203.3373" y="425.0251">save inbox</text></g><g class="message" data-entity-1="part1" data-entity-2="part4" id="msg7"><polygon fill="#181818" points="864.2184,470.3931,874.2184,474.3931,864.2184,478.3931,868.2184,474.3931" style="stroke:#181818;stroke-width:1;"/><line style="stroke:#181818;stroke-width:1;stroke-dasharray:2,2;" x1="120.8657" x2="870.2184" y1="474.3931" y2="474.3931"/><text fill="#000000" font-family="sans-serif" font-size="13" lengthAdjust="spacing" textLength="24.57" x="486.257" y="468.5841">ACK</text></g><path d="M881,443.8341 L881,488.8341 L1148,488.8341 L1148,453.8341 L1138,443.8341 L881,443.8341" fill="#FEFFDD" style="stroke:#181818;stroke-width:0.5;"/><path d="M1138,443.8341 L1138,453.8341 L1148,453.8341 L1138,443.8341" fill="#FEFFDD" style="stroke:#181818;stroke-width:0.5;"/><text fill="#000000" font-family="sans-serif" font-size="13" lengthAdjust="spacing" textLength="116.2721" x="887" y="462.7311">commit read offset</text><text fill="#000000" font-family="sans-serif" font-size="13" lengthAdjust="spacing" textLength="246.9222" x="887" y="480.4371">if it fails idempotency check will ignore it</text><line style="stroke:#000000;stroke-width:1;stroke-dasharray:2,2;" x1="39" x2="1164.1406" y1="495.2461" y2="495.2461"/><text fill="#000000" font-family="sans-serif" font-size="11" font-weight="bold" lengthAdjust="spacing" textLength="108.1512" x="44" y="507.005">[already consumed]</text><g class="message" data-entity-1="part1" data-entity-2="part4" id="msg9"><polygon fill="#181818" points="864.2184,542.787,874.2184,546.787,864.2184,550.787,868.2184,546.787" style="stroke:#181818;stroke-width:1;"/><line style="stroke:#181818;stroke-width:1;stroke-dasharray:2,2;" x1="120.8657" x2="870.2184" y1="546.787" y2="546.787"/><text fill="#000000" font-family="sans-serif" font-size="13" lengthAdjust="spacing" textLength="24.57" x="486.257" y="540.978">ACK</text></g><path d="M881,516.228 L881,561.228 L1148,561.228 L1148,526.228 L1138,516.228 L881,516.228" fill="#FEFFDD" style="stroke:#181818;stroke-width:0.5;"/><path d="M1138,516.228 L1138,526.228 L1148,526.228 L1138,516.228" fill="#FEFFDD" style="stroke:#181818;stroke-width:0.5;"/><text fill="#000000" font-family="sans-serif" font-size="13" lengthAdjust="spacing" textLength="116.2721" x="887" y="535.125">commit read offset</text><text fill="#000000" font-family="sans-serif" font-size="13" lengthAdjust="spacing" textLength="246.9222" x="887" y="552.831">if it fails idempotency check will ignore it</text><path d="M9,594.6401 L251.7821,594.6401 L251.7821,604.3461 L241.7821,614.3461 L9,614.3461 L9,594.6401" fill="#EEEEEE" style="stroke:#000000;stroke-width:1.5;"/><rect fill="none" height="617.1203" style="stroke:#000000;stroke-width:1.5;" width="945.4633" x="9" y="594.6401"/><text fill="#000000" font-family="sans-serif" font-size="13" font-weight="bold" lengthAdjust="spacing" textLength="197.7821" x="24" y="609.5371">listener on DB `inbox_channel`</text><g class="message" data-entity-1="part1" data-entity-2="part2" id="msg11"><polygon fill="#181818" points="131.8657,640.0521,121.8657,644.0521,131.8657,648.0521,127.8657,644.0521" style="stroke:#181818;stroke-width:1;"/><polygon fill="#181818" points="338.7699,640.0521,348.7699,644.0521,338.7699,648.0521,342.7699,644.0521" style="stroke:#181818;stroke-width:1;"/><line style="stroke:#181818;stroke-width:1;stroke-dasharray:2,2;" x1="125.8657" x2="344.7699" y1="644.0521" y2="644.0521"/><text fill="#000000" font-family="sans-serif" font-size="13" lengthAdjust="spacing" textLength="72.8781" x="199.3788" y="638.2431">listen/notify</text></g><path d="M19,619.3461 L19,646.3461 L115,646.3461 L115,629.3461 L105,619.3461 L19,619.3461" fill="#FEFFDD" style="stroke:#181818;stroke-width:0.5;"/><path d="M105,619.3461 L105,629.3461 L115,629.3461 L105,619.3461" fill="#FEFFDD" style="stroke:#181818;stroke-width:0.5;"/><text fill="#000000" font-family="sans-serif" font-size="13" lengthAdjust="spacing" textLength="75.4651" x="25" y="638.2431">manual CDC</text><path d="M355,619.3461 L355,646.3461 L682,646.3461 L682,629.3461 L672,619.3461 L355,619.3461" fill="#FEFFDD" style="stroke:#181818;stroke-width:0.5;"/><path d="M672,619.3461 L672,629.3461 L682,629.3461 L672,619.3461" fill="#FEFFDD" style="stroke:#181818;stroke-width:0.5;"/><text fill="#000000" font-family="sans-serif" font-size="13" lengthAdjust="spacing" textLength="61.3861" x="361" y="638.2431">trigger on</text><text fill="#000000" font-family="sans-serif" font-size="13" font-weight="bold" lengthAdjust="spacing" textLength="78.195" x="425.7661" y="638.2431">inbox.insert</text><text fill="#000000" font-family="sans-serif" font-size="13" lengthAdjust="spacing" textLength="63.1411" x="507.3411" y="638.2431">that notify</text><text fill="#000000" font-family="sans-serif" font-size="13" font-weight="bold" lengthAdjust="spacing" textLength="93.444" x="573.8622" y="638.2431">inbox_channel</text><g class="message" data-entity-1="part1" data-entity-2="part1" id="msg13"><line style="stroke:#181818;stroke-width:1;stroke-dasharray:2,2;" x1="120.8657" x2="162.8657" y1="675.7581" y2="675.7581"/><line style="stroke:#181818;stroke-width:1;stroke-dasharray:2,2;" x1="162.8657" x2="162.8657" y1="675.7581" y2="688.7581"/><line style="stroke:#181818;stroke-width:1;stroke-dasharray:2,2;" x1="121.8657" x2="162.8657" y1="688.7581" y2="688.7581"/><polygon fill="#181818" points="131.8657,684.7581,121.8657,688.7581,131.8657,692.7581,127.8657,688.7581" style="stroke:#181818;stroke-width:1;"/><text fill="#000000" font-family="sans-serif" font-size="13" lengthAdjust="spacing" textLength="138.5801" x="127.8657" y="669.9491">trigger process service</text></g><path d="M29,703.7581 L102.288,703.7581 L102.288,713.4641 L92.288,723.4641 L29,723.4641 L29,703.7581" fill="#EEEEEE" style="stroke:#000000;stroke-width:1.5;"/><rect fill="none" height="501.0023" style="stroke:#000000;stroke-width:1.5;" width="915.4633" x="29" y="703.7581"/><text fill="#000000" font-family="sans-serif" font-size="13" font-weight="bold" lengthAdjust="spacing" textLength="28.288" x="44" y="718.6551">loop</text><text fill="#000000" font-family="sans-serif" font-size="11" font-weight="bold" lengthAdjust="spacing" textLength="221.7034" x="117.288" y="717.517">[until no unprocessed inbox is retrieved]</text><path d="M71,728.4641 L71,755.4641 L924,755.4641 L924,738.4641 L914,728.4641 L71,728.4641" fill="#FEFFDD" style="stroke:#181818;stroke-width:0.5;"/><path d="M914,728.4641 L914,738.4641 L924,738.4641 L914,728.4641" fill="#FEFFDD" style="stroke:#181818;stroke-width:0.5;"/><text fill="#000000" font-family="sans-serif" font-size="13" lengthAdjust="spacing" textLength="458.3283" x="264.0675" y="747.3611">keep processing unprocessed inbox messages until none is left then sleeps</text><path d="M39,768.1701 L170.944,768.1701 L170.944,777.8762 L160.944,787.8762 L39,787.8762 L39,768.1701" fill="#EEEEEE" style="stroke:#000000;stroke-width:1.5;"/><rect fill="none" height="429.5902" style="stroke:#000000;stroke-width:1.5;" width="895.4633" x="39" y="768.1701"/><text fill="#000000" font-family="sans-serif" font-size="13" font-weight="bold" lengthAdjust="spacing" textLength="86.944" x="54" y="783.0671">transactional</text><path d="M71,792.8762 L71,855.8762 L924,855.8762 L924,802.8762 L914,792.8762 L71,792.8762" fill="#FEFFDD" style="stroke:#181818;stroke-width:0.5;"/><path d="M914,792.8762 L914,802.8762 L924,802.8762 L914,792.8762" fill="#FEFFDD" style="stroke:#181818;stroke-width:0.5;"/><text fill="#000000" font-family="sans-serif" font-size="13" lengthAdjust="spacing" textLength="406.1593" x="290.152" y="811.7732">transaction here to lock current batch in DB in case of concurrency</text><text fill="#000000" font-family="sans-serif" font-size="13" lengthAdjust="spacing" textLength="212.0692" x="290.152" y="829.4792">any concurrent will pick next batch</text><text fill="#000000" font-family="sans-serif" font-size="13" lengthAdjust="spacing" textLength="262.5482" x="290.152" y="847.1852">and make inbox/processing/outbox atomic</text><g class="message" data-entity-1="part1" data-entity-2="part2" id="msg14"><polygon fill="#181818" points="338.7699,901.4062,348.7699,905.4062,338.7699,909.4062,342.7699,905.4062" style="stroke:#181818;stroke-width:1;"/><line style="stroke:#181818;stroke-width:1;stroke-dasharray:2,2;" x1="120.8657" x2="344.7699" y1="905.4062" y2="905.4062"/><text fill="#000000" font-family="sans-serif" font-size="13" lengthAdjust="spacing" textLength="177.1902" x="147.2227" y="899.5972">get unprocessed inbox batch</text></g><path d="M355,865.9942 L355,928.9942 L685,928.9942 L685,875.9942 L675,865.9942 L355,865.9942" fill="#FEFFDD" style="stroke:#181818;stroke-width:0.5;"/><path d="M675,865.9942 L675,875.9942 L685,875.9942 L675,865.9942" fill="#FEFFDD" style="stroke:#181818;stroke-width:0.5;"/><text fill="#000000" font-family="sans-serif" font-size="13" font-weight="bold" lengthAdjust="spacing" textLength="126.6331" x="361" y="884.8912">processedAt == null</text><text fill="#000000" font-family="sans-serif" font-size="13" lengthAdjust="spacing" textLength="309.9593" x="361" y="902.5972">will lock current batch in DB in case of concurrency</text><text fill="#000000" font-family="sans-serif" font-size="13" lengthAdjust="spacing" textLength="212.0692" x="361" y="920.3032">any concurrent will pick next batch</text><g class="message" data-entity-1="part2" data-entity-2="part1" id="msg16"><polygon fill="#181818" points="131.8657,953.8183,121.8657,957.8183,131.8657,961.8183,127.8657,957.8183" style="stroke:#181818;stroke-width:1;"/><line style="stroke:#181818;stroke-width:1;stroke-dasharray:2,2;" x1="125.8657" x2="349.7699" y1="957.8183" y2="957.8183"/><text fill="#000000" font-family="sans-serif" font-size="13" lengthAdjust="spacing" textLength="71.7601" x="199.9378" y="952.0093">inbox batch</text></g><g class="message" data-entity-1="part1" data-entity-2="part1" id="msg17"><line style="stroke:#181818;stroke-width:1;stroke-dasharray:2,2;" x1="120.8657" x2="162.8657" y1="1003.7303" y2="1003.7303"/><line style="stroke:#181818;stroke-width:1;stroke-dasharray:2,2;" x1="162.8657" x2="162.8657" y1="1003.7303" y2="1016.7303"/><line style="stroke:#181818;stroke-width:1;stroke-dasharray:2,2;" x1="121.8657" x2="162.8657" y1="1016.7303" y2="1016.7303"/><polygon fill="#181818" points="131.8657,1012.7303,121.8657,1016.7303,131.8657,1020.7303,127.8657,1016.7303" style="stroke:#181818;stroke-width:1;"/><text fill="#000000" font-family="sans-serif" font-size="13" lengthAdjust="spacing" textLength="84.8901" x="127.8657" y="997.9213">process batch</text></g><path d="M223.8901,970.8183 L223.8901,1033.8183 L500.8901,1033.8183 L500.8901,980.8183 L490.8901,970.8183 L223.8901,970.8183" fill="#FEFFDD" style="stroke:#181818;stroke-width:0.5;"/><path d="M490.8901,970.8183 L490.8901,980.8183 L500.8901,980.8183 L490.8901,970.8183" fill="#FEFFDD" style="stroke:#181818;stroke-width:0.5;"/><text fill="#000000" font-family="sans-serif" font-size="13" font-weight="bold" lengthAdjust="spacing" textLength="123.7991" x="229.8901" y="989.7153">business logic here</text><text fill="#000000" font-family="sans-serif" font-size="13" lengthAdjust="spacing" textLength="256.7892" x="229.8901" y="1007.4213">for demo: randomly accept or reject order</text><text fill="#000000" font-family="sans-serif" font-size="13" lengthAdjust="spacing" textLength="157.9501" x="229.8901" y="1025.1273">(accepted/rejected status)</text><g class="message" data-entity-1="part1" data-entity-2="part2" id="msg19"><polygon fill="#181818" points="338.7699,1061.6423,348.7699,1065.6423,338.7699,1069.6423,342.7699,1065.6423" style="stroke:#181818;stroke-width:1;"/><line style="stroke:#181818;stroke-width:1;stroke-dasharray:2,2;" x1="120.8657" x2="344.7699" y1="1065.6423" y2="1065.6423"/><text fill="#000000" font-family="sans-serif" font-size="13" lengthAdjust="spacing" textLength="143.6111" x="164.0123" y="1059.8333">flag batch as processed</text></g><path d="M355,1043.9363 L355,1070.9363 L473,1070.9363 L473,1053.9363 L463,1043.9363 L355,1043.9363" fill="#FEFFDD" style="stroke:#181818;stroke-width:0.5;"/><path d="M463,1043.9363 L463,1053.9363 L473,1053.9363 L463,1043.9363" fill="#FEFFDD" style="stroke:#181818;stroke-width:0.5;"/><text fill="#000000" font-family="sans-serif" font-size="13" lengthAdjust="spacing" textLength="97.2141" x="361" y="1062.8333">set processedAt</text><g class="message" data-entity-1="part1" data-entity-2="part1" id="msg21"><line style="stroke:#181818;stroke-width:1;stroke-dasharray:2,2;" x1="120.8657" x2="162.8657" y1="1100.3484" y2="1100.3484"/><line style="stroke:#181818;stroke-width:1;stroke-dasharray:2,2;" x1="162.8657" x2="162.8657" y1="1100.3484" y2="1113.3484"/><line style="stroke:#181818;stroke-width:1;stroke-dasharray:2,2;" x1="121.8657" x2="162.8657" y1="1113.3484" y2="1113.3484"/><polygon fill="#181818" points="131.8657,1109.3484,121.8657,1113.3484,131.8657,1117.3484,127.8657,1113.3484" style="stroke:#181818;stroke-width:1;"/><text fill="#000000" font-family="sans-serif" font-size="13" lengthAdjust="spacing" textLength="38.259" x="127.8657" y="1094.5393">create</text><text fill="#000000" font-family="sans-serif" font-size="13" font-weight="bold" lengthAdjust="spacing" textLength="136.6301" x="169.5047" y="1094.5393">order decided events</text><text fill="#000000" font-family="sans-serif" font-size="13" lengthAdjust="spacing" textLength="34.255" x="309.5149" y="1094.5393">batch</text></g><g class="message" data-entity-1="part1" data-entity-2="part1" id="msg22"><line style="stroke:#181818;stroke-width:1;stroke-dasharray:2,2;" x1="120.8657" x2="162.8657" y1="1145.0544" y2="1145.0544"/><line style="stroke:#181818;stroke-width:1;stroke-dasharray:2,2;" x1="162.8657" x2="162.8657" y1="1145.0544" y2="1158.0544"/><line style="stroke:#181818;stroke-width:1;stroke-dasharray:2,2;" x1="121.8657" x2="162.8657" y1="1158.0544" y2="1158.0544"/><polygon fill="#181818" points="131.8657,1154.0544,121.8657,1158.0544,131.8657,1162.0544,127.8657,1158.0544" style="stroke:#181818;stroke-width:1;"/><text fill="#000000" font-family="sans-serif" font-size="13" lengthAdjust="spacing" textLength="122.6031" x="127.8657" y="1139.2454">create outbox batch</text></g><path d="M261.6031,1129.8484 L261.6031,1156.8484 L581.6031,1156.8484 L581.6031,1139.8484 L571.6031,1129.8484 L261.6031,1129.8484" fill="#FEFFDD" style="stroke:#181818;stroke-width:0.5;"/><path d="M571.6031,1129.8484 L571.6031,1139.8484 L581.6031,1139.8484 L571.6031,1129.8484" fill="#FEFFDD" style="stroke:#181818;stroke-width:0.5;"/><text fill="#000000" font-family="sans-serif" font-size="13" lengthAdjust="spacing" textLength="299.7153" x="267.6031" y="1148.7454">accepted/rejected status determine topic column</text><g class="message" data-entity-1="part1" data-entity-2="part2" id="msg24"><polygon fill="#181818" points="338.7699,1185.7604,348.7699,1189.7604,338.7699,1193.7604,342.7699,1189.7604" style="stroke:#181818;stroke-width:1;"/><line style="stroke:#181818;stroke-width:1;stroke-dasharray:2,2;" x1="120.8657" x2="344.7699" y1="1189.7604" y2="1189.7604"/><text fill="#000000" font-family="sans-serif" font-size="13" lengthAdjust="spacing" textLength="115.8301" x="177.9028" y="1183.9514">store outbox batch</text></g><path d="M61,1225.7604 L169.44,1225.7604 L169.44,1235.4664 L159.44,1245.4664 L61,1245.4664 L61,1225.7604" fill="#EEEEEE" style="stroke:#000000;stroke-width:1.5;"/><rect fill="none" height="291.0602" style="stroke:#000000;stroke-width:1.5;" width="873.4633" x="61" y="1225.7604"/><text fill="#000000" font-family="sans-serif" font-size="13" font-weight="bold" lengthAdjust="spacing" textLength="63.44" x="76" y="1240.6574">debezium</text><path d="M71,1250.4664 L71,1277.4664 L924,1277.4664 L924,1260.4664 L914,1250.4664 L71,1250.4664" fill="#FEFFDD" style="stroke:#181818;stroke-width:0.5;"/><path d="M914,1250.4664 L914,1260.4664 L924,1260.4664 L914,1250.4664" fill="#FEFFDD" style="stroke:#181818;stroke-width:0.5;"/><text fill="#000000" font-family="sans-serif" font-size="13" lengthAdjust="spacing" textLength="90.9221" x="447.7706" y="1269.3634">automatic CDC</text><g class="message" data-entity-1="part3" data-entity-2="part2" id="msg25"><polygon fill="#181818" points="361.7699,1302.8784,351.7699,1306.8784,361.7699,1310.8784,357.7699,1306.8784" style="stroke:#181818;stroke-width:1;"/><line style="stroke:#181818;stroke-width:1;stroke-dasharray:2,2;" x1="355.7699" x2="616.4152" y1="1306.8784" y2="1306.8784"/><text fill="#000000" font-family="sans-serif" font-size="13" lengthAdjust="spacing" textLength="125.0081" x="421.5885" y="1301.0694">open replication slot</text></g><path d="M297,1321.8784 L370.288,1321.8784 L370.288,1331.5844 L360.288,1341.5844 L297,1341.5844 L297,1321.8784" fill="#EEEEEE" style="stroke:#000000;stroke-width:1.5;"/><rect fill="none" height="187.9421" style="stroke:#000000;stroke-width:1.5;" width="620.4633" x="297" y="1321.8784"/><text fill="#000000" font-family="sans-serif" font-size="13" font-weight="bold" lengthAdjust="spacing" textLength="28.288" x="312" y="1336.7754">loop</text><g class="message" data-entity-1="part2" data-entity-2="part3" id="msg26"><polygon fill="#181818" points="605.4152,1361.2905,615.4152,1365.2905,605.4152,1369.2905,609.4152,1365.2905" style="stroke:#181818;stroke-width:1;"/><line style="stroke:#181818;stroke-width:1;stroke-dasharray:2,2;" x1="350.7699" x2="611.4152" y1="1365.2905" y2="1365.2905"/><text fill="#000000" font-family="sans-serif" font-size="13" lengthAdjust="spacing" textLength="242.6452" x="362.7699" y="1359.4815">stream committed outbox inserts (WAL)</text></g><g class="message" data-entity-1="part3" data-entity-2="part3" id="msg27"><line style="stroke:#181818;stroke-width:1;stroke-dasharray:2,2;" x1="617.4152" x2="659.4152" y1="1411.2025" y2="1411.2025"/><line style="stroke:#181818;stroke-width:1;stroke-dasharray:2,2;" x1="659.4152" x2="659.4152" y1="1411.2025" y2="1424.2025"/><line style="stroke:#181818;stroke-width:1;stroke-dasharray:2,2;" x1="618.4152" x2="659.4152" y1="1424.2025" y2="1424.2025"/><polygon fill="#181818" points="628.4152,1420.2025,618.4152,1424.2025,628.4152,1428.2025,624.4152,1424.2025" style="stroke:#181818;stroke-width:1;"/><text fill="#000000" font-family="sans-serif" font-size="13" lengthAdjust="spacing" textLength="159.7961" x="624.4152" y="1405.3935">extract payload + route by</text><text fill="#000000" font-family="sans-serif" font-size="13" font-weight="bold" lengthAdjust="spacing" textLength="32.565" x="787.5913" y="1405.3935">topic</text><text fill="#000000" font-family="sans-serif" font-size="13" lengthAdjust="spacing" textLength="45.6821" x="823.5363" y="1405.3935">column</text></g><path d="M307,1378.2905 L307,1441.2905 L611,1441.2905 L611,1388.2905 L601,1378.2905 L307,1378.2905" fill="#FEFFDD" style="stroke:#181818;stroke-width:0.5;"/><path d="M601,1378.2905 L601,1388.2905 L611,1388.2905 L601,1378.2905" fill="#FEFFDD" style="stroke:#181818;stroke-width:0.5;"/><text fill="#000000" font-family="sans-serif" font-size="13" lengthAdjust="spacing" textLength="122.7461" x="313" y="1397.1875">outbox event router</text><text fill="#000000" font-family="sans-serif" font-size="13" lengthAdjust="spacing" textLength="283.4261" x="313" y="1414.8935">row already carries accepted/rejected decision</text><text fill="#000000" font-family="sans-serif" font-size="13" lengthAdjust="spacing" textLength="179.6472" x="313" y="1432.5995">(topic + payload from service)</text><g class="message" data-entity-1="part3" data-entity-2="part4" id="msg29"><polygon fill="#181818" points="864.2184,1466.1145,874.2184,1470.1145,864.2184,1474.1145,868.2184,1470.1145" style="stroke:#181818;stroke-width:1;"/><line style="stroke:#181818;stroke-width:1;stroke-dasharray:2,2;" x1="617.4152" x2="870.2184" y1="1470.1145" y2="1470.1145"/><text fill="#000000" font-family="sans-serif" font-size="13" lengthAdjust="spacing" textLength="140.9462" x="676.3437" y="1464.3055">publish to correct topic</text></g><g class="message" data-entity-1="part3" data-entity-2="part2" id="msg30"><polygon fill="#181818" points="361.7699,1497.8205,351.7699,1501.8205,361.7699,1505.8205,357.7699,1501.8205" style="stroke:#181818;stroke-width:1;"/><line style="stroke:#181818;stroke-width:1;stroke-dasharray:2,2;" x1="355.7699" x2="616.4152" y1="1501.8205" y2="1501.8205"/><text fill="#000000" font-family="sans-serif" font-size="13" lengthAdjust="spacing" textLength="115.4921" x="426.3465" y="1496.0115">commit WAL offset</text></g><path d="M39,1530.8205 L267.3652,1530.8205 L267.3652,1540.5266 L257.3652,1550.5266 L39,1550.5266 L39,1530.8205" fill="#EEEEEE" style="stroke:#000000;stroke-width:1.5;"/><rect fill="none" height="102.118" style="stroke:#000000;stroke-width:1.5;" width="895.4633" x="39" y="1530.8205"/><text fill="#000000" font-family="sans-serif" font-size="13" font-weight="bold" lengthAdjust="spacing" textLength="183.3652" x="54" y="1545.7176">low freq rescue periodic poll</text><path d="M71,1555.5266 L71,1582.5266 L924,1582.5266 L924,1565.5266 L914,1555.5266 L71,1555.5266" fill="#FEFFDD" style="stroke:#181818;stroke-width:0.5;"/><path d="M914,1555.5266 L914,1565.5266 L924,1565.5266 L914,1555.5266" fill="#FEFFDD" style="stroke:#181818;stroke-width:0.5;"/><text fill="#000000" font-family="sans-serif" font-size="13" lengthAdjust="spacing" textLength="162.9291" x="411.7671" y="1574.4236">rescue in case listener fails</text><g class="message" data-entity-1="part1" data-entity-2="part1" id="msg31"><line style="stroke:#181818;stroke-width:1;stroke-dasharray:2,2;" x1="120.8657" x2="162.8657" y1="1611.9386" y2="1611.9386"/><line style="stroke:#181818;stroke-width:1;stroke-dasharray:2,2;" x1="162.8657" x2="162.8657" y1="1611.9386" y2="1624.9386"/><line style="stroke:#181818;stroke-width:1;stroke-dasharray:2,2;" x1="121.8657" x2="162.8657" y1="1624.9386" y2="1624.9386"/><polygon fill="#181818" points="131.8657,1620.9386,121.8657,1624.9386,131.8657,1628.9386,127.8657,1624.9386" style="stroke:#181818;stroke-width:1;"/><text fill="#000000" font-family="sans-serif" font-size="13" lengthAdjust="spacing" textLength="138.5801" x="127.8657" y="1606.1296">trigger process service</text></g><?plantuml-src nLRRZjis47ttLynZgY1TzDLe2iXh1rYusG99cgB60Wb5ZMHsAL8XgKtShyyXTV6kRqaVWXgmBP33cJDdXcVaxvLfXHCDUVxKiP7ychqNDUTQrOOacy1kDfFM16SrtTo-Nzs---FDtn_UhjwylxbUaV0qFCvA4KGXFDCoVvSlyhTfSxcO3YzNYzNcvi_NSNapGxIEQPs_MkTnOJsRQMlR6U5ZR60IqbdlvtHBE2yxvm25jFA13RivPTalrB8ZW0ygA6koB9qTSRruyHkjvyE1jBDEQyF-F7hrNSF43t2S36fdkvQ24yOB6LqAdTQF8AcIcnOBHkv8RbdUHpZMwDtej2H0vW7H8QhbOaubbmXLxFheD-Lak5myHUdOj_39au7GWGnEkNsiWYlhzXQ7yVOPEnR8Gfd2VZbh7T5vyV0jCr2RNw-VR2UAdAgt8PBRD2e0lG0LLUKvt1bL4POgeRG_Pf0-Awq9BOTCO3OvPer-4ZewshFx_wCoFORu7x-pldN6xaJrOo4_9We_oAqmXlN79-tvwyXrV-OAC5MrstU_vWg06s4weUbwUJqxp2NWl-v3PLaAzBD2dxYGPHIs8b3lSTmSKPou9LD_Z2vRPoL408hW7fJi6olUJUfCK1gEyJ3OeFkIUr8UjC81EhCyVMdkcTlHjJBr2HzDhpn-YcCu-erK82Ksv3Ly-CdzfVjw5FwH6MqPvGmMIQ74exGK8iWjaCJAuLT68RFLNdpaxiu8itkiHgaxMWKdXhyC7g9HYSBT3pVeQf_obUr2p5C4soXvyGRM74uGb0ASxUuic-ppG2zVakaqwdrd4imVaUiJA8VATGxooTORM-vR6HOTY8o6sjPAfaB63A5_aDJ6GY_1lcsWn49ARWDXm_4_BEDJoUxEFEitkBpgrq6k3o9q_gUB1Qcqg0VQCAmceiz2XRRGet9yjpXZZaISo4P2ZSf-FdZSwUyaSd0pTDfbEiynWU0O-Ws8nYL1oT46kclCvP4HeaIU37j6B4ik-5_LDSSJNtIu828Wy2XycocERQ43Zbkjf4XtsMiR9eKw7AER20oCD8Fqnnm7ZBrOUdhsL_xxllIRyHXwt44jy7gnqnRZuZa1D30MKL4JAwZ90I-FX7i8aghNdqJhEVjvFyg4WrZw4pM8bVV83AtQi_zy0b4vsuogV8WPew_j2aoJRLGsQN5h0JzvEB2CD0wJ4BaFW_3aE0FUol6d-18YyQw6rorbIo1ghTR7PHkiHZsPXc6QhVzzwW38Lm00?></g></svg>