<?plantuml 1.2026.2?><svg xmlns="http://www.w3.org/2000/svg" xmlns:xlink="http://www.w3.org/1999/xlink" contentStyleType="text/css" data-diagram-type="SEQUENCE" height="824px" preserveAspectRatio="none" style="width:666px;height:824px;background:#FFFFFF;" version="1.1" viewBox="0 0 666 824" width="666px" zoomAndPan="magnify"><defs/><g><rect fill="none" height="468.8661" style="stroke:#000000;stroke-width:1.5;" width="650.4318" x="10" y="87.0679"/><rect fill="none" height="334.0421" style="stroke:#000000;stroke-width:1.5;" width="630.4318" x="20" y="214.892"/><rect fill="none" height="183.2361" style="stroke:#000000;stroke-width:1.5;" width="478.22" x="30" y="241.598"/><rect fill="none" height="71.412" style="stroke:#000000;stroke-width:1.5;" width="390.7545" x="30" y="569.934"/><rect fill="none" height="71.412" style="stroke:#000000;stroke-width:1.5;" width="390.7545" x="30" y="655.3461"/><g class="participant-lifeline" data-entity-uid="part1" data-qualified-name="SERVICE" id="part1-lifeline"><g><title>INVENTORY_SERVICE</title><rect fill="#000000" fill-opacity="0.00000" height="673.6902" width="8" x="107.8657" y="70.0679"/><line style="stroke:#181818;stroke-width:0.5;stroke-dasharray:5,5;" x1="111" x2="111" y1="70.0679" y2="743.7581"/></g></g><g class="participant-lifeline" data-entity-uid="part2" data-qualified-name="DB" id="part2-lifeline"><g><title>DATABASE</title><rect fill="#000000" fill-opacity="0.00000" height="673.6902" width="8" x="279.5588" y="70.0679"/><line style="stroke:#181818;stroke-width:0.5;stroke-dasharray:5,5;" x1="282.853" x2="282.853" y1="70.0679" y2="743.7581"/></g></g><g class="participant-lifeline" data-entity-uid="part3" data-qualified-name="K" id="part3-lifeline"><g><title>KAFKA</title><rect fill="#000000" fill-opacity="0.00000" height="673.6902" width="8" x="358.5096" y="70.0679"/><line style="stroke:#181818;stroke-width:0.5;stroke-dasharray:5,5;" x1="362.2647" x2="362.2647" y1="70.0679" y2="743.7581"/></g></g><g class="participant participant-head" data-entity-uid="part1" data-qualified-name="SERVICE" id="part1-head"><text fill="#000000" font-family="sans-serif" font-size="14" lengthAdjust="spacing" textLength="137.7314" x="40" y="65.9659">INVENTORY_SERVICE</text><ellipse cx="111.8657" cy="35" fill="#E2E2F0" rx="12" ry="12" style="stroke:#181818;stroke-width:0.5;"/><polygon fill="#181818" points="107.8657,23,113.8657,18,111.8657,23,113.8657,28,107.8657,23" style="stroke:#181818;stroke-width:1;"/></g><g class="participant participant-tail" data-entity-uid="part1" data-qualified-name="SERVICE" id="part1-tail"><text fill="#000000" font-family="sans-serif" font-size="14" lengthAdjust="spacing" textLength="137.7314" x="40" y="757.724">INVENTORY_SERVICE</text><ellipse cx="111.8657" cy="777.826" fill="#E2E2F0" rx="12" ry="12" style="stroke:#181818;stroke-width:0.5;"/><polygon fill="#181818" points="107.8657,765.826,113.8657,760.826,111.8657,765.826,113.8657,770.826,107.8657,765.826" style="stroke:#181818;stroke-width:1;"/></g><g class="participant participant-head" data-entity-uid="part2" data-qualified-name="DB" id="part2-head"><text fill="#000000" font-family="sans-serif" font-size="14" lengthAdjust="spacing" textLength="69.4117" x="245.853" y="65.9659">DATABASE</text><path d="M265.5588,15 C265.5588,5 283.5588,5 283.5588,5 C283.5588,5 301.5588,5 301.5588,15 L301.5588,41 C301.5588,51 283.5588,51 283.5588,51 C283.5588,51 265.5588,51 265.5588,41 L265.5588,15" fill="#E2E2F0" style="stroke:#181818;stroke-width:0.5;"/><path d="M265.5588,15 C265.5588,25 283.5588,25 283.5588,25 C283.5588,25 301.5588,25 301.5588,15" fill="none" style="stroke:#181818;stroke-width:0.5;"/></g><g class="participant participant-tail" data-entity-uid="part2" data-qualified-name="DB" id="part2-tail"><text fill="#000000" font-family="sans-serif" font-size="14" lengthAdjust="spacing" textLength="69.4117" x="245.853" y="757.724">DATABASE</text><path d="M265.5588,771.826 C265.5588,761.826 283.5588,761.826 283.5588,761.826 C283.5588,761.826 301.5588,761.826 301.5588,771.826 L301.5588,797.826 C301.5588,807.826 283.5588,807.826 283.5588,807.826 C283.5588,807.826 265.5588,807.826 265.5588,797.826 L265.5588,771.826" fill="#E2E2F0" style="stroke:#181818;stroke-width:0.5;"/><path d="M265.5588,771.826 C265.5588,781.826 283.5588,781.826 283.5588,781.826 C283.5588,781.826 301.5588,781.826 301.5588,771.826" fill="none" style="stroke:#181818;stroke-width:0.5;"/></g><g class="participant participant-head" data-entity-uid="part3" data-qualified-name="K" id="part3-head"><path d="M336.2647,41 L388.7545,41 C393.7545,41 393.7545,55.534 393.7545,55.534 C393.7545,55.534 393.7545,70.0679 388.7545,70.0679 L336.2647,70.0679 C331.2647,70.0679 331.2647,55.534 331.2647,55.534 C331.2647,55.534 331.2647,41 336.2647,41" fill="#E2E2F0" style="stroke:#181818;stroke-width:0.5;"/><path d="M388.7545,41 C383.7545,41 383.7545,55.534 383.7545,55.534 C383.7545,70.0679 388.7545,70.0679 388.7545,70.0679" fill="none" style="stroke:#181818;stroke-width:0.5;"/><text fill="#000000" font-family="sans-serif" font-size="14" lengthAdjust="spacing" textLength="42.4899" x="336.2647" y="60.9659">KAFKA</text></g><g class="participant participant-tail" data-entity-uid="part3" data-qualified-name="K" id="part3-tail"><path d="M336.2647,742.7581 L388.7545,742.7581 C393.7545,742.7581 393.7545,757.2921 393.7545,757.2921 C393.7545,757.2921 393.7545,771.826 388.7545,771.826 L336.2647,771.826 C331.2647,771.826 331.2647,757.2921 331.2647,757.2921 C331.2647,757.2921 331.2647,742.7581 336.2647,742.7581" fill="#E2E2F0" style="stroke:#181818;stroke-width:0.5;"/><path d="M388.7545,742.7581 C383.7545,742.7581 383.7545,757.2921 383.7545,757.2921 C383.7545,771.826 388.7545,771.826 388.7545,771.826" fill="none" style="stroke:#181818;stroke-width:0.5;"/><text fill="#000000" font-family="sans-serif" font-size="14" lengthAdjust="spacing" textLength="42.4899" x="336.2647" y="762.724">KAFKA</text></g><path d="M10,87.0679 L83.288,87.0679 L83.288,96.7739 L73.288,106.7739 L10,106.7739 L10,87.0679" fill="#EEEEEE" style="stroke:#000000;stroke-width:1.5;"/><rect fill="none" height="468.8661" style="stroke:#000000;stroke-width:1.5;" width="650.4318" x="10" y="87.0679"/><text fill="#000000" font-family="sans-serif" font-size="13" font-weight="bold" lengthAdjust="spacing" textLength="28.288" x="25" y="101.9649">loop</text><g class="message" data-entity-1="part1" data-entity-2="part3" id="msg1"><polygon fill="#181818" points="350.5096,126.4799,360.5096,130.4799,350.5096,134.4799,354.5096,130.4799" style="stroke:#181818;stroke-width:1;"/><line style="stroke:#181818;stroke-width:1;stroke-dasharray:2,2;" x1="111.8657" x2="356.5096" y1="130.4799" y2="130.4799"/><text fill="#000000" font-family="sans-serif" font-size="13" lengthAdjust="spacing" textLength="32.994" x="220.6906" y="124.6709">listen</text></g><g class="message" data-entity-1="part3" data-entity-2="part1" id="msg2"><polygon fill="#181818" points="122.8657,158.186,112.8657,162.186,122.8657,166.186,118.8657,162.186" style="stroke:#181818;stroke-width:1;"/><line style="stroke:#181818;stroke-width:1;stroke-dasharray:2,2;" x1="116.8657" x2="361.5096" y1="162.186" y2="162.186"/><text fill="#000000" font-family="sans-serif" font-size="13" lengthAdjust="spacing" textLength="99.4891" x="187.4431" y="156.377">consume events</text></g><g class="message" data-entity-1="part1" data-entity-2="part2" id="msg3"><polygon fill="#181818" points="271.5588,192.892,281.5588,196.892,271.5588,200.892,275.5588,196.892" style="stroke:#181818;stroke-width:1;"/><line style="stroke:#181818;stroke-width:1;stroke-dasharray:2,2;" x1="111.8657" x2="277.5588" y1="196.892" y2="196.892"/><text fill="#000000" font-family="sans-serif" font-size="13" lengthAdjust="spacing" textLength="117.7931" x="138.8157" y="191.083">check idempotency</text></g><path d="M288,175.186 L288,202.186 L440,202.186 L440,185.186 L430,175.186 L288,175.186" fill="#FEFFDD" style="stroke:#181818;stroke-width:0.5;"/><path d="M430,175.186 L430,185.186 L440,185.186 L430,175.186" fill="#FEFFDD" style="stroke:#181818;stroke-width:0.5;"/><text fill="#000000" font-family="sans-serif" font-size="13" font-weight="bold" lengthAdjust="spacing" textLength="131.0401" x="294" y="194.083">only processed once</text><path d="M20,214.892 L82.459,214.892 L82.459,224.598 L72.459,234.598 L20,234.598 L20,214.892" fill="#EEEEEE" style="stroke:#000000;stroke-width:1.5;"/><rect fill="none" height="334.0421" style="stroke:#000000;stroke-width:1.5;" width="630.4318" x="20" y="214.892"/><text fill="#000000" font-family="sans-serif" font-size="13" font-weight="bold" lengthAdjust="spacing" textLength="17.459" x="35" y="229.789">alt</text><text fill="#000000" font-family="sans-serif" font-size="11" font-weight="bold" lengthAdjust="spacing" textLength="135.827" x="97.459" y="228.6509">[never processed before]</text><path d="M30,241.598 L161.944,241.598 L161.944,251.304 L151.944,261.304 L30,261.304 L30,241.598" fill="#EEEEEE" style="stroke:#000000;stroke-width:1.5;"/><rect fill="none" height="183.2361" style="stroke:#000000;stroke-width:1.5;" width="478.22" x="30" y="241.598"/><text fill="#000000" font-family="sans-serif" font-size="13" font-weight="bold" lengthAdjust="spacing" textLength="86.944" x="45" y="256.495">transactional</text><g class="message" data-entity-1="part1" data-entity-2="part2" id="msg5"><polygon fill="#181818" points="271.5588,281.01,281.5588,285.01,271.5588,289.01,275.5588,285.01" style="stroke:#181818;stroke-width:1;"/><line style="stroke:#181818;stroke-width:1;stroke-dasharray:2,2;" x1="111.8657" x2="277.5588" y1="285.01" y2="285.01"/><text fill="#000000" font-family="sans-serif" font-size="13" lengthAdjust="spacing" textLength="147.6931" x="123.8657" y="279.201">save event as processed</text></g><g class="message" data-entity-1="part1" data-entity-2="part1" id="msg6"><line style="stroke:#181818;stroke-width:1;stroke-dasharray:2,2;" x1="111.8657" x2="153.8657" y1="322.0691" y2="322.0691"/><line style="stroke:#181818;stroke-width:1;stroke-dasharray:2,2;" x1="153.8657" x2="153.8657" y1="322.0691" y2="335.0691"/><line style="stroke:#181818;stroke-width:1;stroke-dasharray:2,2;" x1="112.8657" x2="153.8657" y1="335.0691" y2="335.0691"/><polygon fill="#181818" points="122.8657,331.0691,112.8657,335.0691,122.8657,339.0691,118.8657,335.0691" style="stroke:#181818;stroke-width:1;"/><text fill="#000000" font-family="sans-serif" font-size="13" lengthAdjust="spacing" textLength="84.5651" x="118.8657" y="316.2601">process order</text></g><path d="M214.5651,298.01 L214.5651,343.01 L491.5651,343.01 L491.5651,308.01 L481.5651,298.01 L214.5651,298.01" fill="#FEFFDD" style="stroke:#181818;stroke-width:0.5;"/><path d="M481.5651,298.01 L481.5651,308.01 L491.5651,308.01 L481.5651,298.01" fill="#FEFFDD" style="stroke:#181818;stroke-width:0.5;"/><text fill="#000000" font-family="sans-serif" font-size="13" lengthAdjust="spacing" textLength="256.7892" x="220.5651" y="316.907">for demo: randomly accept or reject order</text><text fill="#000000" font-family="sans-serif" font-size="13" lengthAdjust="spacing" textLength="157.1571" x="220.5651" y="334.6131">(accepted/rejected topics)</text><g class="message" data-entity-1="part1" data-entity-2="part1" id="msg8"><line style="stroke:#181818;stroke-width:1;stroke-dasharray:2,2;" x1="111.8657" x2="153.8657" y1="372.1281" y2="372.1281"/><line style="stroke:#181818;stroke-width:1;stroke-dasharray:2,2;" x1="153.8657" x2="153.8657" y1="372.1281" y2="385.1281"/><line style="stroke:#181818;stroke-width:1;stroke-dasharray:2,2;" x1="112.8657" x2="153.8657" y1="385.1281" y2="385.1281"/><polygon fill="#181818" points="122.8657,381.1281,112.8657,385.1281,122.8657,389.1281,118.8657,385.1281" style="stroke:#181818;stroke-width:1;"/><text fill="#000000" font-family="sans-serif" font-size="13" lengthAdjust="spacing" textLength="84.9681" x="118.8657" y="366.3191">create outbox</text></g><g class="message" data-entity-1="part1" data-entity-2="part2" id="msg9"><polygon fill="#181818" points="271.5588,412.8341,281.5588,416.8341,271.5588,420.8341,275.5588,416.8341" style="stroke:#181818;stroke-width:1;"/><line style="stroke:#181818;stroke-width:1;stroke-dasharray:2,2;" x1="111.8657" x2="277.5588" y1="416.8341" y2="416.8341"/><text fill="#000000" font-family="sans-serif" font-size="13" lengthAdjust="spacing" textLength="74.1651" x="160.6297" y="411.0251">save outbox</text></g><g class="message" data-entity-1="part1" data-entity-2="part3" id="msg10"><polygon fill="#181818" points="350.5096,463.3931,360.5096,467.3931,350.5096,471.3931,354.5096,467.3931" style="stroke:#181818;stroke-width:1;"/><line style="stroke:#181818;stroke-width:1;stroke-dasharray:2,2;" x1="111.8657" x2="356.5096" y1="467.3931" y2="467.3931"/><text fill="#000000" font-family="sans-serif" font-size="13" lengthAdjust="spacing" textLength="24.57" x="224.9026" y="461.5841">ACK</text></g><path d="M367,436.8341 L367,481.8341 L634,481.8341 L634,446.8341 L624,436.8341 L367,436.8341" fill="#FEFFDD" style="stroke:#181818;stroke-width:0.5;"/><path d="M624,436.8341 L624,446.8341 L634,446.8341 L624,436.8341" fill="#FEFFDD" style="stroke:#181818;stroke-width:0.5;"/><text fill="#000000" font-family="sans-serif" font-size="13" lengthAdjust="spacing" textLength="84.9031" x="373" y="455.7311">commit offset</text><text fill="#000000" font-family="sans-serif" font-size="13" lengthAdjust="spacing" textLength="246.9222" x="373" y="473.4371">if it fails idempotency check will ignore it</text><line style="stroke:#000000;stroke-width:1;stroke-dasharray:2,2;" x1="20" x2="650.4318" y1="488.2461" y2="488.2461"/><text fill="#000000" font-family="sans-serif" font-size="11" font-weight="bold" lengthAdjust="spacing" textLength="106.8202" x="25" y="500.005">[already processed]</text><g class="message" data-entity-1="part1" data-entity-2="part1" id="msg12"><line style="stroke:#181818;stroke-width:1;stroke-dasharray:2,2;" x1="111.8657" x2="153.8657" y1="527.934" y2="527.934"/><line style="stroke:#181818;stroke-width:1;stroke-dasharray:2,2;" x1="153.8657" x2="153.8657" y1="527.934" y2="540.934"/><line style="stroke:#181818;stroke-width:1;stroke-dasharray:2,2;" x1="112.8657" x2="153.8657" y1="540.934" y2="540.934"/><polygon fill="#181818" points="122.8657,536.934,112.8657,540.934,122.8657,544.934,118.8657,540.934" style="stroke:#181818;stroke-width:1;"/><text fill="#000000" font-family="sans-serif" font-size="13" lengthAdjust="spacing" textLength="24.518" x="118.8657" y="522.125">skip</text></g><path d="M30,569.934 L304.3071,569.934 L304.3071,579.6401 L294.3071,589.6401 L30,589.6401 L30,569.934" fill="#EEEEEE" style="stroke:#000000;stroke-width:1.5;"/><rect fill="none" height="71.412" style="stroke:#000000;stroke-width:1.5;" width="390.7545" x="30" y="569.934"/><text fill="#000000" font-family="sans-serif" font-size="13" font-weight="bold" lengthAdjust="spacing" textLength="229.3071" x="45" y="584.831">listener on `outbox_insert_channel`</text><g class="message" data-entity-1="part1" data-entity-2="part2" id="msg13"><polygon fill="#181818" points="122.8657,591.6401,112.8657,595.6401,122.8657,599.6401,118.8657,595.6401" style="stroke:#181818;stroke-width:1;"/><polygon fill="#181818" points="271.5588,591.6401,281.5588,595.6401,271.5588,599.6401,275.5588,595.6401" style="stroke:#181818;stroke-width:1;"/><line style="stroke:#181818;stroke-width:1;stroke-dasharray:2,2;" x1="116.8657" x2="277.5588" y1="595.6401" y2="595.6401"/></g><path d="M62,608.6401 L62,635.6401 L410,635.6401 L410,618.6401 L400,608.6401 L62,608.6401" fill="#FEFFDD" style="stroke:#181818;stroke-width:0.5;"/><path d="M400,608.6401 L400,618.6401 L410,618.6401 L400,608.6401" fill="#FEFFDD" style="stroke:#181818;stroke-width:0.5;"/><text fill="#000000" font-family="sans-serif" font-size="13" lengthAdjust="spacing" textLength="151.9701" x="155.8922" y="627.5371">same flow as ORDER_API</text><path d="M30,655.3461 L258.3652,655.3461 L258.3652,665.0521 L248.3652,675.0521 L30,675.0521 L30,655.3461" fill="#EEEEEE" style="stroke:#000000;stroke-width:1.5;"/><rect fill="none" height="71.412" style="stroke:#000000;stroke-width:1.5;" width="390.7545" x="30" y="655.3461"/><text fill="#000000" font-family="sans-serif" font-size="13" font-weight="bold" lengthAdjust="spacing" textLength="183.3652" x="45" y="670.2431">low freq rescue periodic poll</text><g class="message" data-entity-1="part1" data-entity-2="part2" id="msg14"><polygon fill="#181818" points="271.5588,677.0521,281.5588,681.0521,271.5588,685.0521,275.5588,681.0521" style="stroke:#181818;stroke-width:1;"/><line style="stroke:#181818;stroke-width:1;stroke-dasharray:2,2;" x1="111.8657" x2="277.5588" y1="681.0521" y2="681.0521"/></g><path d="M62,694.0521 L62,721.0521 L410,721.0521 L410,704.0521 L400,694.0521 L62,694.0521" fill="#FEFFDD" style="stroke:#181818;stroke-width:0.5;"/><path d="M400,694.0521 L400,704.0521 L410,704.0521 L400,694.0521" fill="#FEFFDD" style="stroke:#181818;stroke-width:0.5;"/><text fill="#000000" font-family="sans-serif" font-size="13" lengthAdjust="spacing" textLength="151.9701" x="155.8922" y="712.9491">same flow as ORDER_API</text><?plantuml-src XLDTQzj047o_Nx6FhI7qtPI27BjWH9FYX40Xu9nFA_lgqwvoUqhgVz_LHnmvTV61GBhPcvlP7SdUKssZhK3mkK5o-0D5x1QpuBS43YbXDCOnfSW1bZSFYvlxszMlzTrYzR2yNe0L65vDOPFTM46OP_VPBBlhmFdCA6-3a6VVywpToOq9pBK1NMyiLrVV89z2y9AGEYJlzWPy2Yf0cWe1NrIH_7DsFjEI7Rez-0AhcfN57RegqdU8VhjBKvXCcC81wiXEJM81h7udawxEXWIax744Rx3aY1tShctafeOKBObroJFPSCJE2HBxCWXkRHzf_tlcQ7Oe1Ow5DdzSFdQZsa3DyXHKKS6LEhFEOPtq74JyZIxr38_qgGUm-DBlgxV4jNVo-R8O5z7gfToa3V-vxFT37TAxtm_3pgvpSywNuwhoAhqi1TCZ-HBqgxG-o7YumxXVVGYWITKvQLd7Xq4ZQ8FABWvdkdxMfEnz7yXMR_kOVjXz83KKJF3KMrjx4enfxNQM2CFJIHQ_zhruJvvraKNQtcXuoy2lRHHkL_F5QftzN9vSfLWPyLb79qx_bngZvy8xg3cyvUoqusRKkylt_0K0?></g></svg>