<?plantuml 1.2026.2?><svg xmlns="http://www.w3.org/2000/svg" xmlns:xlink="http://www.w3.org/1999/xlink" contentStyleType="text/css" data-diagram-type="SEQUENCE" height="1765px" preserveAspectRatio="none" style="width:1101px;height:1765px;background:#FFFFFF;" version="1.1" viewBox="0 0 1101 1765" width="1101px" zoomAndPan="magnify"><defs/><g><rect fill="none" height="539.2782" style="stroke:#000000;stroke-width:1.5;" width="1085.1835" x="10" y="87.0679"/><rect fill="none" height="505.5721" style="stroke:#000000;stroke-width:1.5;" width="1065.1835" x="20" y="113.7739"/><rect fill="none" height="364.7481" style="stroke:#000000;stroke-width:1.5;" width="1045.1835" x="30" y="247.598"/><rect fill="none" height="229.924" style="stroke:#000000;stroke-width:1.5;" width="1025.1835" x="40" y="375.4221"/><rect fill="none" height="617.1203" style="stroke:#000000;stroke-width:1.5;" width="845.5062" x="10" y="640.3461"/><rect fill="none" height="501.0023" style="stroke:#000000;stroke-width:1.5;" width="815.5062" x="30" y="749.4641"/><rect fill="none" height="429.5902" style="stroke:#000000;stroke-width:1.5;" width="795.5062" x="40" y="813.8762"/><rect fill="none" height="102.118" style="stroke:#000000;stroke-width:1.5;" width="795.5062" x="40" y="1271.4664"/><rect fill="none" height="279.3541" style="stroke:#000000;stroke-width:1.5;" width="963.9134" x="62" y="1387.5844"/><rect fill="none" height="176.2361" style="stroke:#000000;stroke-width:1.5;" width="735.9134" x="280" y="1483.7025"/><g class="participant-lifeline" data-entity-uid="part1" data-qualified-name="SERVICE" id="part1-lifeline"><g><title>INVENTORY_SERVICE</title><rect fill="#000000" fill-opacity="0.00000" height="1613.8707" width="8" x="117.8657" y="70.0679"/><line style="stroke:#181818;stroke-width:0.5;stroke-dasharray:5,5;" x1="121" x2="121" y1="70.0679" y2="1683.9386"/></g></g><g class="participant-lifeline" data-entity-uid="part2" data-qualified-name="DB" id="part2-lifeline"><g><title>DATABASE</title><rect fill="#000000" fill-opacity="0.00000" height="1613.8707" width="8" x="340.2949" y="70.0679"/><line style="stroke:#181818;stroke-width:0.5;stroke-dasharray:5,5;" x1="343.589" x2="343.589" y1="70.0679" y2="1683.9386"/></g></g><g class="participant-lifeline" data-entity-uid="part3" data-qualified-name="Z" id="part3-lifeline"><g><title>DEBEZIUM</title><rect fill="#000000" fill-opacity="0.00000" height="1613.8707" width="8" x="516.876" y="70.0679"/><line style="stroke:#181818;stroke-width:0.5;stroke-dasharray:5,5;" x1="520.5892" x2="520.5892" y1="70.0679" y2="1683.9386"/></g></g><g class="participant-lifeline" data-entity-uid="part4" data-qualified-name="K" id="part4-lifeline"><g><title>KAFKA</title><rect fill="#000000" fill-opacity="0.00000" height="1613.8707" width="8" x="773.2613" y="70.0679"/><line style="stroke:#181818;stroke-width:0.5;stroke-dasharray:5,5;" x1="777.0163" x2="777.0163" y1="70.0679" y2="1683.9386"/></g></g><g class="participant participant-head" data-entity-uid="part1" data-qualified-name="SERVICE" id="part1-head"><text fill="#000000" font-family="sans-serif" font-size="14" lengthAdjust="spacing" textLength="137.7314" x="50" y="65.9659">INVENTORY_SERVICE</text><ellipse cx="121.8657" cy="35" fill="#E2E2F0" rx="12" ry="12" style="stroke:#181818;stroke-width:0.5;"/><polygon fill="#181818" points="117.8657,23,123.8657,18,121.8657,23,123.8657,28,117.8657,23" style="stroke:#181818;stroke-width:1;"/></g><g class="participant participant-tail" data-entity-uid="part1" data-qualified-name="SERVICE" id="part1-tail"><text fill="#000000" font-family="sans-serif" font-size="14" lengthAdjust="spacing" textLength="137.7314" x="50" y="1697.9045">INVENTORY_SERVICE</text><ellipse cx="121.8657" cy="1718.0065" fill="#E2E2F0" rx="12" ry="12" style="stroke:#181818;stroke-width:0.5;"/><polygon fill="#181818" points="117.8657,1706.0065,123.8657,1701.0065,121.8657,1706.0065,123.8657,1711.0065,117.8657,1706.0065" style="stroke:#181818;stroke-width:1;"/></g><g class="participant participant-head" data-entity-uid="part2" data-qualified-name="DB" id="part2-head"><text fill="#000000" font-family="sans-serif" font-size="14" lengthAdjust="spacing" textLength="69.4117" x="306.589" y="65.9659">DATABASE</text><path d="M326.2949,15 C326.2949,5 344.2949,5 344.2949,5 C344.2949,5 362.2949,5 362.2949,15 L362.2949,41 C362.2949,51 344.2949,51 344.2949,51 C344.2949,51 326.2949,51 326.2949,41 L326.2949,15" fill="#E2E2F0" style="stroke:#181818;stroke-width:0.5;"/><path d="M326.2949,15 C326.2949,25 344.2949,25 344.2949,25 C344.2949,25 362.2949,25 362.2949,15" fill="none" style="stroke:#181818;stroke-width:0.5;"/></g><g class="participant participant-tail" data-entity-uid="part2" data-qualified-name="DB" id="part2-tail"><text fill="#000000" font-family="sans-serif" font-size="14" lengthAdjust="spacing" textLength="69.4117" x="306.589" y="1697.9045">DATABASE</text><path d="M326.2949,1712.0065 C326.2949,1702.0065 344.2949,1702.0065 344.2949,1702.0065 C344.2949,1702.0065 362.2949,1702.0065 362.2949,1712.0065 L362.2949,1738.0065 C362.2949,1748.0065 344.2949,1748.0065 344.2949,1748.0065 C344.2949,1748.0065 326.2949,1748.0065 326.2949,1738.0065 L326.2949,1712.0065" fill="#E2E2F0" style="stroke:#181818;stroke-width:0.5;"/><path d="M326.2949,1712.0065 C326.2949,1722.0065 344.2949,1722.0065 344.2949,1722.0065 C344.2949,1722.0065 362.2949,1722.0065 362.2949,1712.0065" fill="none" style="stroke:#181818;stroke-width:0.5;"/></g><g class="participant participant-head" data-entity-uid="part3" data-qualified-name="Z" id="part3-head"><text fill="#000000" font-family="sans-serif" font-size="14" lengthAdjust="spacing" textLength="70.5737" x="482.5892" y="65.9659">DEBEZIUM</text><ellipse cx="520.876" cy="35" fill="#E2E2F0" rx="12" ry="12" style="stroke:#181818;stroke-width:0.5;"/><polygon fill="#181818" points="516.876,23,522.876,18,520.876,23,522.876,28,516.876,23" style="stroke:#181818;stroke-width:1;"/></g><g class="participant participant-tail" data-entity-uid="part3" data-qualified-name="Z" id="part3-tail"><text fill="#000000" font-family="sans-serif" font-size="14" lengthAdjust="spacing" textLength="70.5737" x="482.5892" y="1697.9045">DEBEZIUM</text><ellipse cx="520.876" cy="1718.0065" fill="#E2E2F0" rx="12" ry="12" style="stroke:#181818;stroke-width:0.5;"/><polygon fill="#181818" points="516.876,1706.0065,522.876,1701.0065,520.876,1706.0065,522.876,1711.0065,516.876,1706.0065" style="stroke:#181818;stroke-width:1;"/></g><g class="participant participant-head" data-entity-uid="part4" data-qualified-name="K" id="part4-head"><path d="M751.0163,41 L803.5062,41 C808.5062,41 808.5062,55.534 808.5062,55.534 C808.5062,55.534 808.5062,70.0679 803.5062,70.0679 L751.0163,70.0679 C746.0163,70.0679 746.0163,55.534 746.0163,55.534 C746.0163,55.534 746.0163,41 751.0163,41" fill="#E2E2F0" style="stroke:#181818;stroke-width:0.5;"/><path d="M803.5062,41 C798.5062,41 798.5062,55.534 798.5062,55.534 C798.5062,70.0679 803.5062,70.0679 803.5062,70.0679" fill="none" style="stroke:#181818;stroke-width:0.5;"/><text fill="#000000" font-family="sans-serif" font-size="14" lengthAdjust="spacing" textLength="42.4899" x="751.0163" y="60.9659">KAFKA</text></g><g class="participant participant-tail" data-entity-uid="part4" data-qualified-name="K" id="part4-tail"><path d="M751.0163,1682.9386 L803.5062,1682.9386 C808.5062,1682.9386 808.5062,1697.4726 808.5062,1697.4726 C808.5062,1697.4726 808.5062,1712.0065 803.5062,1712.0065 L751.0163,1712.0065 C746.0163,1712.0065 746.0163,1697.4726 746.0163,1697.4726 C746.0163,1697.4726 746.0163,1682.9386 751.0163,1682.9386" fill="#E2E2F0" style="stroke:#181818;stroke-width:0.5;"/><path d="M803.5062,1682.9386 C798.5062,1682.9386 798.5062,1697.4726 798.5062,1697.4726 C798.5062,1712.0065 803.5062,1712.0065 803.5062,1712.0065" fill="none" style="stroke:#181818;stroke-width:0.5;"/><text fill="#000000" font-family="sans-serif" font-size="14" lengthAdjust="spacing" textLength="42.4899" x="751.0163" y="1702.9045">KAFKA</text></g><path d="M10,87.0679 L119.623,87.0679 L119.623,96.7739 L109.623,106.7739 L10,106.7739 L10,87.0679" fill="#EEEEEE" style="stroke:#000000;stroke-width:1.5;"/><rect fill="none" height="539.2782" style="stroke:#000000;stroke-width:1.5;" width="1085.1835" x="10" y="87.0679"/><text fill="#000000" font-family="sans-serif" font-size="13" font-weight="bold" lengthAdjust="spacing" textLength="64.623" x="25" y="101.9649">consumer</text><path d="M20,113.7739 L93.288,113.7739 L93.288,123.4799 L83.288,133.4799 L20,133.4799 L20,113.7739" fill="#EEEEEE" style="stroke:#000000;stroke-width:1.5;"/><rect fill="none" height="505.5721" style="stroke:#000000;stroke-width:1.5;" width="1065.1835" x="20" y="113.7739"/><text fill="#000000" font-family="sans-serif" font-size="13" font-weight="bold" lengthAdjust="spacing" textLength="28.288" x="35" y="128.6709">loop</text><path d="M72,138.4799 L72,165.4799 L825,165.4799 L825,148.4799 L815,138.4799 L72,138.4799" fill="#FEFFDD" style="stroke:#181818;stroke-width:0.5;"/><path d="M815,138.4799 L815,148.4799 L825,148.4799 L815,138.4799" fill="#FEFFDD" style="stroke:#181818;stroke-width:0.5;"/><text fill="#000000" font-family="sans-serif" font-size="13" lengthAdjust="spacing" textLength="223.9512" x="332.2775" y="157.377">N concurrent listener: 1 per partition</text><g class="message" data-entity-1="part1" data-entity-2="part4" id="msg1"><polygon fill="#181818" points="765.2613,193.892,775.2613,197.892,765.2613,201.892,769.2613,197.892" style="stroke:#181818;stroke-width:1;"/><line style="stroke:#181818;stroke-width:1;stroke-dasharray:2,2;" x1="121.8657" x2="771.2613" y1="197.892" y2="197.892"/><text fill="#000000" font-family="sans-serif" font-size="13" lengthAdjust="spacing" textLength="32.994" x="433.0665" y="192.083">listen</text></g><path d="M782,176.186 L782,203.186 L914,203.186 L914,186.186 L904,176.186 L782,176.186" fill="#FEFFDD" style="stroke:#181818;stroke-width:0.5;"/><path d="M904,176.186 L904,186.186 L914,186.186 L904,176.186" fill="#FEFFDD" style="stroke:#181818;stroke-width:0.5;"/><text fill="#000000" font-family="sans-serif" font-size="13" lengthAdjust="spacing" textLength="111.1501" x="788" y="195.083">order.placed topic</text><g class="message" data-entity-1="part4" data-entity-2="part1" id="msg3"><polygon fill="#181818" points="132.8657,228.598,122.8657,232.598,132.8657,236.598,128.8657,232.598" style="stroke:#181818;stroke-width:1;"/><line style="stroke:#181818;stroke-width:1;stroke-dasharray:2,2;" x1="126.8657" x2="776.2613" y1="232.598" y2="232.598"/><text fill="#000000" font-family="sans-serif" font-size="13" lengthAdjust="spacing" textLength="93.2621" x="402.9324" y="226.789">consume event</text></g><path d="M30,247.598 L161.944,247.598 L161.944,257.304 L151.944,267.304 L30,267.304 L30,247.598" fill="#EEEEEE" style="stroke:#000000;stroke-width:1.5;"/><rect fill="none" height="364.7481" style="stroke:#000000;stroke-width:1.5;" width="1045.1835" x="30" y="247.598"/><text fill="#000000" font-family="sans-serif" font-size="13" font-weight="bold" lengthAdjust="spacing" textLength="86.944" x="45" y="262.495">transactional</text><path d="M72,272.304 L72,299.304 L825,299.304 L825,282.304 L815,272.304 L72,272.304" fill="#FEFFDD" style="stroke:#181818;stroke-width:0.5;"/><path d="M815,272.304 L815,282.304 L825,282.304 L815,272.304" fill="#FEFFDD" style="stroke:#181818;stroke-width:0.5;"/><text fill="#000000" font-family="sans-serif" font-size="13" lengthAdjust="spacing" textLength="250.6532" x="318.9265" y="291.201">idempotency check: only consumed once</text><g class="message" data-entity-1="part1" data-entity-2="part2" id="msg4"><polygon fill="#181818" points="332.2949,324.716,342.2949,328.716,332.2949,332.716,336.2949,328.716" style="stroke:#181818;stroke-width:1;"/><line style="stroke:#181818;stroke-width:1;stroke-dasharray:2,2;" x1="121.8657" x2="338.2949" y1="328.716" y2="328.716"/><text fill="#000000" font-family="sans-serif" font-size="13" lengthAdjust="spacing" textLength="107.1331" x="179.5137" y="322.907">dedup by eventId</text></g><g class="message" data-entity-1="part2" data-entity-2="part1" id="msg5"><polygon fill="#181818" points="132.8657,356.4221,122.8657,360.4221,132.8657,364.4221,128.8657,360.4221" style="stroke:#181818;stroke-width:1;"/><line style="stroke:#181818;stroke-width:1;stroke-dasharray:2,2;" x1="126.8657" x2="343.2949" y1="360.4221" y2="360.4221"/><text fill="#000000" font-family="sans-serif" font-size="13" lengthAdjust="spacing" textLength="56.381" x="204.8898" y="354.6131">response</text></g><path d="M40,375.4221 L102.459,375.4221 L102.459,385.1281 L92.459,395.1281 L40,395.1281 L40,375.4221" fill="#EEEEEE" style="stroke:#000000;stroke-width:1.5;"/><rect fill="none" height="229.924" style="stroke:#000000;stroke-width:1.5;" width="1025.1835" x="40" y="375.4221"/><text fill="#000000" font-family="sans-serif" font-size="13" font-weight="bold" lengthAdjust="spacing" textLength="17.459" x="55" y="390.3191">alt</text><text fill="#000000" font-family="sans-serif" font-size="11" font-weight="bold" lengthAdjust="spacing" textLength="137.158" x="117.459" y="389.181">[never consumed before]</text><g class="message" data-entity-1="part1" data-entity-2="part1" id="msg6"><line style="stroke:#181818;stroke-width:1;stroke-dasharray:2,2;" x1="121.8657" x2="163.8657" y1="418.8341" y2="418.8341"/><line style="stroke:#181818;stroke-width:1;stroke-dasharray:2,2;" x1="163.8657" x2="163.8657" y1="418.8341" y2="431.8341"/><line style="stroke:#181818;stroke-width:1;stroke-dasharray:2,2;" x1="122.8657" x2="163.8657" y1="431.8341" y2="431.8341"/><polygon fill="#181818" points="132.8657,427.8341,122.8657,431.8341,132.8657,435.8341,128.8657,431.8341" style="stroke:#181818;stroke-width:1;"/><text fill="#000000" font-family="sans-serif" font-size="13" lengthAdjust="spacing" textLength="75.7641" x="128.8657" y="413.0251">create inbox</text></g><g class="message" data-entity-1="part1" data-entity-2="part2" id="msg7"><polygon fill="#181818" points="332.2949,462.5401,342.2949,466.5401,332.2949,470.5401,336.2949,466.5401" style="stroke:#181818;stroke-width:1;"/><line style="stroke:#181818;stroke-width:1;stroke-dasharray:2,2;" x1="121.8657" x2="338.2949" y1="466.5401" y2="466.5401"/><text fill="#000000" font-family="sans-serif" font-size="13" lengthAdjust="spacing" textLength="64.961" x="200.5998" y="460.7311">save inbox</text></g><path d="M349,444.8341 L349,471.8341 L443,471.8341 L443,454.8341 L433,444.8341 L349,444.8341" fill="#FEFFDD" style="stroke:#181818;stroke-width:0.5;"/><path d="M433,444.8341 L433,454.8341 L443,454.8341 L433,444.8341" fill="#FEFFDD" style="stroke:#181818;stroke-width:0.5;"/><text fill="#000000" font-family="sans-serif" font-size="13" lengthAdjust="spacing" textLength="73.3981" x="355" y="463.7311">dedup table</text><g class="message" data-entity-1="part1" data-entity-2="part4" id="msg9"><polygon fill="#181818" points="765.2613,509.0991,775.2613,513.0991,765.2613,517.0991,769.2613,513.0991" style="stroke:#181818;stroke-width:1;"/><line style="stroke:#181818;stroke-width:1;stroke-dasharray:2,2;" x1="121.8657" x2="771.2613" y1="513.0991" y2="513.0991"/><text fill="#000000" font-family="sans-serif" font-size="13" lengthAdjust="spacing" textLength="24.57" x="437.2785" y="507.2901">ACK</text></g><path d="M782,482.5401 L782,527.5401 L1049,527.5401 L1049,492.5401 L1039,482.5401 L782,482.5401" fill="#FEFFDD" style="stroke:#181818;stroke-width:0.5;"/><path d="M1039,482.5401 L1039,492.5401 L1049,492.5401 L1039,482.5401" fill="#FEFFDD" style="stroke:#181818;stroke-width:0.5;"/><text fill="#000000" font-family="sans-serif" font-size="13" lengthAdjust="spacing" textLength="116.2721" x="788" y="501.4371">commit read offset</text><text fill="#000000" font-family="sans-serif" font-size="13" lengthAdjust="spacing" textLength="246.9222" x="788" y="519.1431">if it fails idempotency check will ignore it</text><line style="stroke:#000000;stroke-width:1;stroke-dasharray:2,2;" x1="40" x2="1065.1835" y1="533.9521" y2="533.9521"/><text fill="#000000" font-family="sans-serif" font-size="11" font-weight="bold" lengthAdjust="spacing" textLength="108.1512" x="45" y="545.7111">[already consumed]</text><g class="message" data-entity-1="part1" data-entity-2="part4" id="msg11"><polygon fill="#181818" points="765.2613,581.4931,775.2613,585.4931,765.2613,589.4931,769.2613,585.4931" style="stroke:#181818;stroke-width:1;"/><line style="stroke:#181818;stroke-width:1;stroke-dasharray:2,2;" x1="121.8657" x2="771.2613" y1="585.4931" y2="585.4931"/><text fill="#000000" font-family="sans-serif" font-size="13" lengthAdjust="spacing" textLength="24.57" x="437.2785" y="579.6841">ACK</text></g><path d="M782,554.934 L782,599.934 L1049,599.934 L1049,564.934 L1039,554.934 L782,554.934" fill="#FEFFDD" style="stroke:#181818;stroke-width:0.5;"/><path d="M1039,554.934 L1039,564.934 L1049,564.934 L1039,554.934" fill="#FEFFDD" style="stroke:#181818;stroke-width:0.5;"/><text fill="#000000" font-family="sans-serif" font-size="13" lengthAdjust="spacing" textLength="116.2721" x="788" y="573.831">commit read offset</text><text fill="#000000" font-family="sans-serif" font-size="13" lengthAdjust="spacing" textLength="246.9222" x="788" y="591.5371">if it fails idempotency check will ignore it</text><path d="M10,640.3461 L252.7821,640.3461 L252.7821,650.0521 L242.7821,660.0521 L10,660.0521 L10,640.3461" fill="#EEEEEE" style="stroke:#000000;stroke-width:1.5;"/><rect fill="none" height="617.1203" style="stroke:#000000;stroke-width:1.5;" width="845.5062" x="10" y="640.3461"/><text fill="#000000" font-family="sans-serif" font-size="13" font-weight="bold" lengthAdjust="spacing" textLength="197.7821" x="25" y="655.2431">listener on DB `inbox_channel`</text><g class="message" data-entity-1="part1" data-entity-2="part2" id="msg13"><polygon fill="#181818" points="132.8657,685.7581,122.8657,689.7581,132.8657,693.7581,128.8657,689.7581" style="stroke:#181818;stroke-width:1;"/><polygon fill="#181818" points="332.2949,685.7581,342.2949,689.7581,332.2949,693.7581,336.2949,689.7581" style="stroke:#181818;stroke-width:1;"/><line style="stroke:#181818;stroke-width:1;stroke-dasharray:2,2;" x1="126.8657" x2="338.2949" y1="689.7581" y2="689.7581"/><text fill="#000000" font-family="sans-serif" font-size="13" lengthAdjust="spacing" textLength="72.8781" x="196.6413" y="683.9491">listen/notify</text></g><path d="M20,665.0521 L20,692.0521 L116,692.0521 L116,675.0521 L106,665.0521 L20,665.0521" fill="#FEFFDD" style="stroke:#181818;stroke-width:0.5;"/><path d="M106,665.0521 L106,675.0521 L116,675.0521 L106,665.0521" fill="#FEFFDD" style="stroke:#181818;stroke-width:0.5;"/><text fill="#000000" font-family="sans-serif" font-size="13" lengthAdjust="spacing" textLength="75.4651" x="26" y="683.9491">manual CDC</text><path d="M349,665.0521 L349,692.0521 L676,692.0521 L676,675.0521 L666,665.0521 L349,665.0521" fill="#FEFFDD" style="stroke:#181818;stroke-width:0.5;"/><path d="M666,665.0521 L666,675.0521 L676,675.0521 L666,665.0521" fill="#FEFFDD" style="stroke:#181818;stroke-width:0.5;"/><text fill="#000000" font-family="sans-serif" font-size="13" lengthAdjust="spacing" textLength="61.3861" x="355" y="683.9491">trigger on</text><text fill="#000000" font-family="sans-serif" font-size="13" font-weight="bold" lengthAdjust="spacing" textLength="78.195" x="419.7661" y="683.9491">inbox.insert</text><text fill="#000000" font-family="sans-serif" font-size="13" lengthAdjust="spacing" textLength="63.1411" x="501.3411" y="683.9491">that notify</text><text fill="#000000" font-family="sans-serif" font-size="13" font-weight="bold" lengthAdjust="spacing" textLength="93.444" x="567.8622" y="683.9491">inbox_channel</text><g class="message" data-entity-1="part1" data-entity-2="part1" id="msg15"><line style="stroke:#181818;stroke-width:1;stroke-dasharray:2,2;" x1="121.8657" x2="163.8657" y1="721.4641" y2="721.4641"/><line style="stroke:#181818;stroke-width:1;stroke-dasharray:2,2;" x1="163.8657" x2="163.8657" y1="721.4641" y2="734.4641"/><line style="stroke:#181818;stroke-width:1;stroke-dasharray:2,2;" x1="122.8657" x2="163.8657" y1="734.4641" y2="734.4641"/><polygon fill="#181818" points="132.8657,730.4641,122.8657,734.4641,132.8657,738.4641,128.8657,734.4641" style="stroke:#181818;stroke-width:1;"/><text fill="#000000" font-family="sans-serif" font-size="13" lengthAdjust="spacing" textLength="138.5801" x="128.8657" y="715.6551">trigger process service</text></g><path d="M30,749.4641 L103.288,749.4641 L103.288,759.1701 L93.288,769.1701 L30,769.1701 L30,749.4641" fill="#EEEEEE" style="stroke:#000000;stroke-width:1.5;"/><rect fill="none" height="501.0023" style="stroke:#000000;stroke-width:1.5;" width="815.5062" x="30" y="749.4641"/><text fill="#000000" font-family="sans-serif" font-size="13" font-weight="bold" lengthAdjust="spacing" textLength="28.288" x="45" y="764.3611">loop</text><text fill="#000000" font-family="sans-serif" font-size="11" font-weight="bold" lengthAdjust="spacing" textLength="221.7034" x="118.288" y="763.223">[until no unprocessed inbox is retrieved]</text><path d="M72,774.1701 L72,801.1701 L825,801.1701 L825,784.1701 L815,774.1701 L72,774.1701" fill="#FEFFDD" style="stroke:#181818;stroke-width:0.5;"/><path d="M815,774.1701 L815,784.1701 L825,784.1701 L815,774.1701" fill="#FEFFDD" style="stroke:#181818;stroke-width:0.5;"/><text fill="#000000" font-family="sans-serif" font-size="13" lengthAdjust="spacing" textLength="458.3283" x="215.0889" y="793.0671">keep processing unprocessed inbox messages until none is left then sleeps</text><path d="M40,813.8762 L171.944,813.8762 L171.944,823.5822 L161.944,833.5822 L40,833.5822 L40,813.8762" fill="#EEEEEE" style="stroke:#000000;stroke-width:1.5;"/><rect fill="none" height="429.5902" style="stroke:#000000;stroke-width:1.5;" width="795.5062" x="40" y="813.8762"/><text fill="#000000" font-family="sans-serif" font-size="13" font-weight="bold" lengthAdjust="spacing" textLength="86.944" x="55" y="828.7732">transactional</text><path d="M72,838.5822 L72,901.5822 L825,901.5822 L825,848.5822 L815,838.5822 L72,838.5822" fill="#FEFFDD" style="stroke:#181818;stroke-width:0.5;"/><path d="M815,838.5822 L815,848.5822 L825,848.5822 L815,838.5822" fill="#FEFFDD" style="stroke:#181818;stroke-width:0.5;"/><text fill="#000000" font-family="sans-serif" font-size="13" lengthAdjust="spacing" textLength="406.1593" x="241.1734" y="857.4792">transaction here to lock current batch in DB in case of concurrency</text><text fill="#000000" font-family="sans-serif" font-size="13" lengthAdjust="spacing" textLength="212.0692" x="241.1734" y="875.1852">any concurrent will pick next batch</text><text fill="#000000" font-family="sans-serif" font-size="13" lengthAdjust="spacing" textLength="246.6622" x="241.1734" y="892.8912">+ make inbox/processing/outbox atomic</text><g class="message" data-entity-1="part1" data-entity-2="part2" id="msg16"><polygon fill="#181818" points="332.2949,947.1123,342.2949,951.1123,332.2949,955.1123,336.2949,951.1123" style="stroke:#181818;stroke-width:1;"/><line style="stroke:#181818;stroke-width:1;stroke-dasharray:2,2;" x1="121.8657" x2="338.2949" y1="951.1123" y2="951.1123"/><text fill="#000000" font-family="sans-serif" font-size="13" lengthAdjust="spacing" textLength="177.1902" x="144.4852" y="945.3032">get unprocessed inbox batch</text></g><path d="M349,911.7002 L349,974.7002 L679,974.7002 L679,921.7002 L669,911.7002 L349,911.7002" fill="#FEFFDD" style="stroke:#181818;stroke-width:0.5;"/><path d="M669,911.7002 L669,921.7002 L679,921.7002 L669,911.7002" fill="#FEFFDD" style="stroke:#181818;stroke-width:0.5;"/><text fill="#000000" font-family="sans-serif" font-size="13" font-weight="bold" lengthAdjust="spacing" textLength="126.6331" x="355" y="930.5972">processedAt == null</text><text fill="#000000" font-family="sans-serif" font-size="13" lengthAdjust="spacing" textLength="309.9593" x="355" y="948.3032">will lock current batch in DB in case of concurrency</text><text fill="#000000" font-family="sans-serif" font-size="13" lengthAdjust="spacing" textLength="212.0692" x="355" y="966.0093">any concurrent will pick next batch</text><g class="message" data-entity-1="part2" data-entity-2="part1" id="msg18"><polygon fill="#181818" points="132.8657,999.5243,122.8657,1003.5243,132.8657,1007.5243,128.8657,1003.5243" style="stroke:#181818;stroke-width:1;"/><line style="stroke:#181818;stroke-width:1;stroke-dasharray:2,2;" x1="126.8657" x2="343.2949" y1="1003.5243" y2="1003.5243"/><text fill="#000000" font-family="sans-serif" font-size="13" lengthAdjust="spacing" textLength="71.7601" x="197.2003" y="997.7153">inbox batch</text></g><g class="message" data-entity-1="part1" data-entity-2="part1" id="msg19"><line style="stroke:#181818;stroke-width:1;stroke-dasharray:2,2;" x1="121.8657" x2="163.8657" y1="1049.4363" y2="1049.4363"/><line style="stroke:#181818;stroke-width:1;stroke-dasharray:2,2;" x1="163.8657" x2="163.8657" y1="1049.4363" y2="1062.4363"/><line style="stroke:#181818;stroke-width:1;stroke-dasharray:2,2;" x1="122.8657" x2="163.8657" y1="1062.4363" y2="1062.4363"/><polygon fill="#181818" points="132.8657,1058.4363,122.8657,1062.4363,132.8657,1066.4363,128.8657,1062.4363" style="stroke:#181818;stroke-width:1;"/><text fill="#000000" font-family="sans-serif" font-size="13" lengthAdjust="spacing" textLength="84.8901" x="128.8657" y="1043.6273">process batch</text></g><path d="M224.8901,1016.5243 L224.8901,1079.5243 L498.8901,1079.5243 L498.8901,1026.5243 L488.8901,1016.5243 L224.8901,1016.5243" fill="#FEFFDD" style="stroke:#181818;stroke-width:0.5;"/><path d="M488.8901,1016.5243 L488.8901,1026.5243 L498.8901,1026.5243 L488.8901,1016.5243" fill="#FEFFDD" style="stroke:#181818;stroke-width:0.5;"/><text fill="#000000" font-family="sans-serif" font-size="13" lengthAdjust="spacing" textLength="117.0651" x="230.8901" y="1035.4213">business logic here</text><text fill="#000000" font-family="sans-serif" font-size="13" lengthAdjust="spacing" textLength="253.3052" x="230.8901" y="1053.1273">for demo randomly accept or reject order</text><text fill="#000000" font-family="sans-serif" font-size="13" lengthAdjust="spacing" textLength="157.9501" x="230.8901" y="1070.8333">(accepted/rejected status)</text><g class="message" data-entity-1="part1" data-entity-2="part2" id="msg21"><polygon fill="#181818" points="332.2949,1107.3484,342.2949,1111.3484,332.2949,1115.3484,336.2949,1111.3484" style="stroke:#181818;stroke-width:1;"/><line style="stroke:#181818;stroke-width:1;stroke-dasharray:2,2;" x1="121.8657" x2="338.2949" y1="1111.3484" y2="1111.3484"/><text fill="#000000" font-family="sans-serif" font-size="13" lengthAdjust="spacing" textLength="143.6111" x="161.2747" y="1105.5393">flag batch as processed</text></g><path d="M349,1089.6423 L349,1116.6423 L467,1116.6423 L467,1099.6423 L457,1089.6423 L349,1089.6423" fill="#FEFFDD" style="stroke:#181818;stroke-width:0.5;"/><path d="M457,1089.6423 L457,1099.6423 L467,1099.6423 L457,1089.6423" fill="#FEFFDD" style="stroke:#181818;stroke-width:0.5;"/><text fill="#000000" font-family="sans-serif" font-size="13" lengthAdjust="spacing" textLength="97.2141" x="355" y="1108.5393">set processedAt</text><g class="message" data-entity-1="part1" data-entity-2="part1" id="msg23"><line style="stroke:#181818;stroke-width:1;stroke-dasharray:2,2;" x1="121.8657" x2="163.8657" y1="1146.0544" y2="1146.0544"/><line style="stroke:#181818;stroke-width:1;stroke-dasharray:2,2;" x1="163.8657" x2="163.8657" y1="1146.0544" y2="1159.0544"/><line style="stroke:#181818;stroke-width:1;stroke-dasharray:2,2;" x1="122.8657" x2="163.8657" y1="1159.0544" y2="1159.0544"/><polygon fill="#181818" points="132.8657,1155.0544,122.8657,1159.0544,132.8657,1163.0544,128.8657,1159.0544" style="stroke:#181818;stroke-width:1;"/><text fill="#000000" font-family="sans-serif" font-size="13" lengthAdjust="spacing" textLength="208.4292" x="128.8657" y="1140.2454">create order decided events batch</text></g><g class="message" data-entity-1="part1" data-entity-2="part1" id="msg24"><line style="stroke:#181818;stroke-width:1;stroke-dasharray:2,2;" x1="121.8657" x2="163.8657" y1="1190.7604" y2="1190.7604"/><line style="stroke:#181818;stroke-width:1;stroke-dasharray:2,2;" x1="163.8657" x2="163.8657" y1="1190.7604" y2="1203.7604"/><line style="stroke:#181818;stroke-width:1;stroke-dasharray:2,2;" x1="122.8657" x2="163.8657" y1="1203.7604" y2="1203.7604"/><polygon fill="#181818" points="132.8657,1199.7604,122.8657,1203.7604,132.8657,1207.7604,128.8657,1203.7604" style="stroke:#181818;stroke-width:1;"/><text fill="#000000" font-family="sans-serif" font-size="13" lengthAdjust="spacing" textLength="122.6031" x="128.8657" y="1184.9514">create outbox batch</text></g><path d="M262.6031,1175.5544 L262.6031,1202.5544 L533.6031,1202.5544 L533.6031,1185.5544 L523.6031,1175.5544 L262.6031,1175.5544" fill="#FEFFDD" style="stroke:#181818;stroke-width:0.5;"/><path d="M523.6031,1175.5544 L523.6031,1185.5544 L533.6031,1185.5544 L523.6031,1175.5544" fill="#FEFFDD" style="stroke:#181818;stroke-width:0.5;"/><text fill="#000000" font-family="sans-serif" font-size="13" lengthAdjust="spacing" textLength="250.6532" x="268.6031" y="1194.4514">accepted/rejected status determine topic</text><g class="message" data-entity-1="part1" data-entity-2="part2" id="msg26"><polygon fill="#181818" points="332.2949,1231.4664,342.2949,1235.4664,332.2949,1239.4664,336.2949,1235.4664" style="stroke:#181818;stroke-width:1;"/><line style="stroke:#181818;stroke-width:1;stroke-dasharray:2,2;" x1="121.8657" x2="338.2949" y1="1235.4664" y2="1235.4664"/><text fill="#000000" font-family="sans-serif" font-size="13" lengthAdjust="spacing" textLength="111.8001" x="177.1803" y="1229.6574">save outbox batch</text></g><path d="M40,1271.4664 L268.3652,1271.4664 L268.3652,1281.1724 L258.3652,1291.1724 L40,1291.1724 L40,1271.4664" fill="#EEEEEE" style="stroke:#000000;stroke-width:1.5;"/><rect fill="none" height="102.118" style="stroke:#000000;stroke-width:1.5;" width="795.5062" x="40" y="1271.4664"/><text fill="#000000" font-family="sans-serif" font-size="13" font-weight="bold" lengthAdjust="spacing" textLength="183.3652" x="55" y="1286.3634">low freq rescue periodic poll</text><path d="M72,1296.1724 L72,1323.1724 L825,1323.1724 L825,1306.1724 L815,1296.1724 L72,1296.1724" fill="#FEFFDD" style="stroke:#181818;stroke-width:0.5;"/><path d="M815,1296.1724 L815,1306.1724 L825,1306.1724 L815,1296.1724" fill="#FEFFDD" style="stroke:#181818;stroke-width:0.5;"/><text fill="#000000" font-family="sans-serif" font-size="13" lengthAdjust="spacing" textLength="162.9291" x="362.7885" y="1315.0694">rescue in case listener fails</text><g class="message" data-entity-1="part1" data-entity-2="part1" id="msg27"><line style="stroke:#181818;stroke-width:1;stroke-dasharray:2,2;" x1="121.8657" x2="163.8657" y1="1352.5844" y2="1352.5844"/><line style="stroke:#181818;stroke-width:1;stroke-dasharray:2,2;" x1="163.8657" x2="163.8657" y1="1352.5844" y2="1365.5844"/><line style="stroke:#181818;stroke-width:1;stroke-dasharray:2,2;" x1="122.8657" x2="163.8657" y1="1365.5844" y2="1365.5844"/><polygon fill="#181818" points="132.8657,1361.5844,122.8657,1365.5844,132.8657,1369.5844,128.8657,1365.5844" style="stroke:#181818;stroke-width:1;"/><text fill="#000000" font-family="sans-serif" font-size="13" lengthAdjust="spacing" textLength="138.5801" x="128.8657" y="1346.7754">trigger process service</text></g><path d="M62,1387.5844 L170.44,1387.5844 L170.44,1397.2905 L160.44,1407.2905 L62,1407.2905 L62,1387.5844" fill="#EEEEEE" style="stroke:#000000;stroke-width:1.5;"/><rect fill="none" height="279.3541" style="stroke:#000000;stroke-width:1.5;" width="963.9134" x="62" y="1387.5844"/><text fill="#000000" font-family="sans-serif" font-size="13" font-weight="bold" lengthAdjust="spacing" textLength="63.44" x="77" y="1402.4815">debezium</text><path d="M72,1412.2905 L72,1439.2905 L825,1439.2905 L825,1422.2905 L815,1412.2905 L72,1412.2905" fill="#FEFFDD" style="stroke:#181818;stroke-width:0.5;"/><path d="M815,1412.2905 L815,1422.2905 L825,1422.2905 L815,1412.2905" fill="#FEFFDD" style="stroke:#181818;stroke-width:0.5;"/><text fill="#000000" font-family="sans-serif" font-size="13" lengthAdjust="spacing" textLength="212.7062" x="337.9" y="1431.1875">automatic CDC and outbox publish</text><g class="message" data-entity-1="part3" data-entity-2="part2" id="msg28"><polygon fill="#181818" points="355.2949,1464.7025,345.2949,1468.7025,355.2949,1472.7025,351.2949,1468.7025" style="stroke:#181818;stroke-width:1;"/><line style="stroke:#181818;stroke-width:1;stroke-dasharray:2,2;" x1="349.2949" x2="519.876" y1="1468.7025" y2="1468.7025"/><text fill="#000000" font-family="sans-serif" font-size="13" lengthAdjust="spacing" textLength="36.478" x="414.3464" y="1462.8935">watch</text></g><path d="M280,1483.7025 L353.288,1483.7025 L353.288,1493.4085 L343.288,1503.4085 L280,1503.4085 L280,1483.7025" fill="#EEEEEE" style="stroke:#000000;stroke-width:1.5;"/><rect fill="none" height="176.2361" style="stroke:#000000;stroke-width:1.5;" width="735.9134" x="280" y="1483.7025"/><text fill="#000000" font-family="sans-serif" font-size="13" font-weight="bold" lengthAdjust="spacing" textLength="28.288" x="295" y="1498.5995">loop</text><g class="message" data-entity-1="part2" data-entity-2="part3" id="msg29"><polygon fill="#181818" points="508.876,1523.1145,518.876,1527.1145,508.876,1531.1145,512.876,1527.1145" style="stroke:#181818;stroke-width:1;"/><line style="stroke:#181818;stroke-width:1;stroke-dasharray:2,2;" x1="344.2949" x2="514.876" y1="1527.1145" y2="1527.1145"/><text fill="#000000" font-family="sans-serif" font-size="13" lengthAdjust="spacing" textLength="152.5811" x="356.2949" y="1521.3055">outbox table inserts WAL</text></g><g class="message" data-entity-1="part3" data-entity-2="part3" id="msg30"><line style="stroke:#181818;stroke-width:1;stroke-dasharray:2,2;" x1="520.876" x2="562.876" y1="1564.1736" y2="1564.1736"/><line style="stroke:#181818;stroke-width:1;stroke-dasharray:2,2;" x1="562.876" x2="562.876" y1="1564.1736" y2="1577.1736"/><line style="stroke:#181818;stroke-width:1;stroke-dasharray:2,2;" x1="521.876" x2="562.876" y1="1577.1736" y2="1577.1736"/><polygon fill="#181818" points="531.876,1573.1736,521.876,1577.1736,531.876,1581.1736,527.876,1577.1736" style="stroke:#181818;stroke-width:1;"/><text fill="#000000" font-family="sans-serif" font-size="13" lengthAdjust="spacing" textLength="242.3852" x="527.876" y="1558.3646">extract payload + route by topic column</text></g><path d="M290,1540.1145 L290,1585.1145 L514,1585.1145 L514,1550.1145 L504,1540.1145 L290,1540.1145" fill="#FEFFDD" style="stroke:#181818;stroke-width:0.5;"/><path d="M504,1540.1145 L504,1550.1145 L514,1550.1145 L504,1540.1145" fill="#FEFFDD" style="stroke:#181818;stroke-width:0.5;"/><text fill="#000000" font-family="sans-serif" font-size="13" lengthAdjust="spacing" textLength="122.7461" x="296" y="1559.0115">outbox event router</text><text fill="#000000" font-family="sans-serif" font-size="13" lengthAdjust="spacing" textLength="203.9702" x="296" y="1576.7176">row already carries topic decision</text><g class="message" data-entity-1="part3" data-entity-2="part4" id="msg32"><polygon fill="#181818" points="765.2613,1613.2326,775.2613,1617.2326,765.2613,1621.2326,769.2613,1617.2326" style="stroke:#181818;stroke-width:1;"/><line style="stroke:#181818;stroke-width:1;stroke-dasharray:2,2;" x1="520.876" x2="771.2613" y1="1617.2326" y2="1617.2326"/><text fill="#000000" font-family="sans-serif" font-size="13" lengthAdjust="spacing" textLength="44.9931" x="626.5721" y="1611.4236">publish</text></g><path d="M782,1595.5266 L782,1622.5266 L1000,1622.5266 L1000,1605.5266 L990,1595.5266 L782,1595.5266" fill="#FEFFDD" style="stroke:#181818;stroke-width:0.5;"/><path d="M990,1595.5266 L990,1605.5266 L1000,1605.5266 L990,1595.5266" fill="#FEFFDD" style="stroke:#181818;stroke-width:0.5;"/><text fill="#000000" font-family="sans-serif" font-size="13" lengthAdjust="spacing" textLength="197.6522" x="788" y="1614.4236">order.[accepted|rejected] topics</text><g class="message" data-entity-1="part3" data-entity-2="part2" id="msg34"><polygon fill="#181818" points="355.2949,1647.9386,345.2949,1651.9386,355.2949,1655.9386,351.2949,1651.9386" style="stroke:#181818;stroke-width:1;"/><line style="stroke:#181818;stroke-width:1;stroke-dasharray:2,2;" x1="349.2949" x2="519.876" y1="1651.9386" y2="1651.9386"/><text fill="#000000" font-family="sans-serif" font-size="13" lengthAdjust="spacing" textLength="115.4921" x="374.8394" y="1646.1296">commit WAL offset</text></g><?plantuml-src pLPTZzis47pNhzZ7ra5owAlH5B3FBd1mSmMID4KT1mbDhMpM5AcGr5qSzCTtA8coxBEDj4216l1PHordPpyuIxzJfX9EbEJvSyr6yYlsNcnuejN6a6GJs6MPj2Oug-dk_jty_kslh__u-6R--jtTxPo4f-unoqKGQ-6PPfEta-daJVDoDkqtp-RJ-VBkjrTnUPd1MysqcFoycCI5HPPjdAqhWhMlIpWbVBIrLVCGFyO69Y6TzNvCzz5Griw18Mdb0njsO_g1AdQ4Y88Aoff-RwBx_FbFj1Xt6uwHdTfimvYiozczgBIGd5EmbPAzsQBPta6D4rFY1t3eZTeeWXF62nav2Ds_UnA5ohcii63adkIMvGx-ZTudw1p_IJxQFWnaDXrJpZdShVSjYxlyo7WsFMRis5T0FaOKEf31RdVmkkR2kcEhKz-7B3WMY4YPjVroTKTawyN39TDX3TgWq4twEWbKSdAxk0ebRLcgWCW5abaKdiFAg8AmL0Yb_TCAqAFIcj3yo03CZi1Pexk5Zc276ls_69e3d_GSV-EtEs3fiA2tOeDyQihnKMw5CQm_PSC8VanrQ_VSWBOgzbaVWUO20PJ2r4BJxUmsEuqju7VJkXgD6aSl5FhFXT68mbO4QX7JoyHYDCekzbk2h9oLa2hebdjGtI69Sa6r2Ke360-T3JgwWIVbaMO0eDlpyxAoOwuIj3ARCnXbgu--zsCuuiPK82Gsv3Km_B_JWu4PRHdb3HP1eUH9wTOYo2sOnChXhunoQuk35ihzoWYp7ufZqosGiHrE-PSEOMMUeMoxxYpU70A-iNM8KOfWou7odJlB6mvdqjF0PvTwVJJgxIU1NhuaKsjKUsKQalz5f5Vry1BbiusN6kvwXEiQQOncscwKR8guCb1JQ5ff2UNDRGc15r9o5J1iq91_iWpjs5cPxzeNdD-qwyYh3oBK_lkhjIYqs7GPmopjStoH9KI61fN8lbNb6vO8HKAKydRa-6_DNu9e6-nw5Yzb0Qvn7ocHuPFHV77Od7LtIHdj8nMEFySvAN4vmLL2sHnLhApMsPF3sbcbvknrjP7jVovW0o8vh_chgikdFaMDWoa2E45k2TsK0gpgDGYq8Ixx53psOH_TfBfpi1odtSsefLQQFVq--QKtNIPBd2W7PSBTQgyjHjKp0bKmmzMZAGKEegxBapjLEo0w9qsxjBlGwGx9xaUfS11btm75zlB3ozioZT9XaEVlRUzJv_oLEkT3Y-fFq69skicBSBl1EsoAlm40?></g></svg>