<?plantuml 1.2026.2?><svg xmlns="http://www.w3.org/2000/svg" xmlns:xlink="http://www.w3.org/1999/xlink" contentStyleType="text/css" data-diagram-type="SEQUENCE" height="1287px" preserveAspectRatio="none" style="width:722px;height:1287px;background:#FFFFFF;" version="1.1" viewBox="0 0 722 1287" width="722px" zoomAndPan="magnify"><defs/><g><rect fill="none" height="493.5721" style="stroke:#000000;stroke-width:1.5;" width="689.9289" x="27" y="87.0679"/><rect fill="none" height="358.7481" style="stroke:#000000;stroke-width:1.5;" width="669.9289" x="37" y="214.892"/><rect fill="none" height="223.924" style="stroke:#000000;stroke-width:1.5;" width="649.9289" x="47" y="342.716"/><rect fill="none" height="478.2963" style="stroke:#000000;stroke-width:1.5;" width="692.0152" x="9" y="594.6401"/><rect fill="none" height="362.1782" style="stroke:#000000;stroke-width:1.5;" width="672.0152" x="19" y="703.7581"/><rect fill="none" height="290.7662" style="stroke:#000000;stroke-width:1.5;" width="636.0152" x="45" y="768.1701"/><rect fill="none" height="102.118" style="stroke:#000000;stroke-width:1.5;" width="420.2516" x="47" y="1086.9363"/><g class="participant-lifeline" data-entity-uid="part1" data-qualified-name="SERVICE" id="part1-lifeline"><g><title>INVENTORY_SERVICE</title><rect fill="#000000" fill-opacity="0.00000" height="1135.9865" width="8" x="124.8657" y="70.0679"/><line style="stroke:#181818;stroke-width:0.5;stroke-dasharray:5,5;" x1="128" x2="128" y1="70.0679" y2="1206.0544"/></g></g><g class="participant-lifeline" data-entity-uid="part2" data-qualified-name="DB" id="part2-lifeline"><g><title>DATABASE</title><rect fill="#000000" fill-opacity="0.00000" height="1135.9865" width="8" x="326.0559" y="70.0679"/><line style="stroke:#181818;stroke-width:0.5;stroke-dasharray:5,5;" x1="329.35" x2="329.35" y1="70.0679" y2="1206.0544"/></g></g><g class="participant-lifeline" data-entity-uid="part3" data-qualified-name="K" id="part3-lifeline"><g><title>KAFKA</title><rect fill="#000000" fill-opacity="0.00000" height="1135.9865" width="8" x="405.0067" y="70.0679"/><line style="stroke:#181818;stroke-width:0.5;stroke-dasharray:5,5;" x1="408.7617" x2="408.7617" y1="70.0679" y2="1206.0544"/></g></g><g class="participant participant-head" data-entity-uid="part1" data-qualified-name="SERVICE" id="part1-head"><text fill="#000000" font-family="sans-serif" font-size="14" lengthAdjust="spacing" textLength="137.7314" x="57" y="65.9659">INVENTORY_SERVICE</text><ellipse cx="128.8657" cy="35" fill="#E2E2F0" rx="12" ry="12" style="stroke:#181818;stroke-width:0.5;"/><polygon fill="#181818" points="124.8657,23,130.8657,18,128.8657,23,130.8657,28,124.8657,23" style="stroke:#181818;stroke-width:1;"/></g><g class="participant participant-tail" data-entity-uid="part1" data-qualified-name="SERVICE" id="part1-tail"><text fill="#000000" font-family="sans-serif" font-size="14" lengthAdjust="spacing" textLength="137.7314" x="57" y="1220.0203">INVENTORY_SERVICE</text><ellipse cx="128.8657" cy="1240.1223" fill="#E2E2F0" rx="12" ry="12" style="stroke:#181818;stroke-width:0.5;"/><polygon fill="#181818" points="124.8657,1228.1223,130.8657,1223.1223,128.8657,1228.1223,130.8657,1233.1223,124.8657,1228.1223" style="stroke:#181818;stroke-width:1;"/></g><g class="participant participant-head" data-entity-uid="part2" data-qualified-name="DB" id="part2-head"><text fill="#000000" font-family="sans-serif" font-size="14" lengthAdjust="spacing" textLength="69.4117" x="292.35" y="65.9659">DATABASE</text><path d="M312.0559,15 C312.0559,5 330.0559,5 330.0559,5 C330.0559,5 348.0559,5 348.0559,15 L348.0559,41 C348.0559,51 330.0559,51 330.0559,51 C330.0559,51 312.0559,51 312.0559,41 L312.0559,15" fill="#E2E2F0" style="stroke:#181818;stroke-width:0.5;"/><path d="M312.0559,15 C312.0559,25 330.0559,25 330.0559,25 C330.0559,25 348.0559,25 348.0559,15" fill="none" style="stroke:#181818;stroke-width:0.5;"/></g><g class="participant participant-tail" data-entity-uid="part2" data-qualified-name="DB" id="part2-tail"><text fill="#000000" font-family="sans-serif" font-size="14" lengthAdjust="spacing" textLength="69.4117" x="292.35" y="1220.0203">DATABASE</text><path d="M312.0559,1234.1223 C312.0559,1224.1223 330.0559,1224.1223 330.0559,1224.1223 C330.0559,1224.1223 348.0559,1224.1223 348.0559,1234.1223 L348.0559,1260.1223 C348.0559,1270.1223 330.0559,1270.1223 330.0559,1270.1223 C330.0559,1270.1223 312.0559,1270.1223 312.0559,1260.1223 L312.0559,1234.1223" fill="#E2E2F0" style="stroke:#181818;stroke-width:0.5;"/><path d="M312.0559,1234.1223 C312.0559,1244.1223 330.0559,1244.1223 330.0559,1244.1223 C330.0559,1244.1223 348.0559,1244.1223 348.0559,1234.1223" fill="none" style="stroke:#181818;stroke-width:0.5;"/></g><g class="participant participant-head" data-entity-uid="part3" data-qualified-name="K" id="part3-head"><path d="M382.7617,41 L435.2516,41 C440.2516,41 440.2516,55.534 440.2516,55.534 C440.2516,55.534 440.2516,70.0679 435.2516,70.0679 L382.7617,70.0679 C377.7617,70.0679 377.7617,55.534 377.7617,55.534 C377.7617,55.534 377.7617,41 382.7617,41" fill="#E2E2F0" style="stroke:#181818;stroke-width:0.5;"/><path d="M435.2516,41 C430.2516,41 430.2516,55.534 430.2516,55.534 C430.2516,70.0679 435.2516,70.0679 435.2516,70.0679" fill="none" style="stroke:#181818;stroke-width:0.5;"/><text fill="#000000" font-family="sans-serif" font-size="14" lengthAdjust="spacing" textLength="42.4899" x="382.7617" y="60.9659">KAFKA</text></g><g class="participant participant-tail" data-entity-uid="part3" data-qualified-name="K" id="part3-tail"><path d="M382.7617,1205.0544 L435.2516,1205.0544 C440.2516,1205.0544 440.2516,1219.5883 440.2516,1219.5883 C440.2516,1219.5883 440.2516,1234.1223 435.2516,1234.1223 L382.7617,1234.1223 C377.7617,1234.1223 377.7617,1219.5883 377.7617,1219.5883 C377.7617,1219.5883 377.7617,1205.0544 382.7617,1205.0544" fill="#E2E2F0" style="stroke:#181818;stroke-width:0.5;"/><path d="M435.2516,1205.0544 C430.2516,1205.0544 430.2516,1219.5883 430.2516,1219.5883 C430.2516,1234.1223 435.2516,1234.1223 435.2516,1234.1223" fill="none" style="stroke:#181818;stroke-width:0.5;"/><text fill="#000000" font-family="sans-serif" font-size="14" lengthAdjust="spacing" textLength="42.4899" x="382.7617" y="1225.0203">KAFKA</text></g><path d="M27,87.0679 L100.288,87.0679 L100.288,96.7739 L90.288,106.7739 L27,106.7739 L27,87.0679" fill="#EEEEEE" style="stroke:#000000;stroke-width:1.5;"/><rect fill="none" height="493.5721" style="stroke:#000000;stroke-width:1.5;" width="689.9289" x="27" y="87.0679"/><text fill="#000000" font-family="sans-serif" font-size="13" font-weight="bold" lengthAdjust="spacing" textLength="28.288" x="42" y="101.9649">loop</text><path d="M79,111.7739 L79,138.7739 L457,138.7739 L457,121.7739 L447,111.7739 L79,111.7739" fill="#FEFFDD" style="stroke:#181818;stroke-width:0.5;"/><path d="M447,111.7739 L447,121.7739 L457,121.7739 L447,111.7739" fill="#FEFFDD" style="stroke:#181818;stroke-width:0.5;"/><text fill="#000000" font-family="sans-serif" font-size="13" lengthAdjust="spacing" textLength="133.0291" x="148.5237" y="130.6709">N concurrent listener:</text><text fill="#000000" font-family="sans-serif" font-size="13" font-weight="bold" lengthAdjust="spacing" textLength="93.7951" x="284.9328" y="130.6709">1 per partition</text><g class="message" data-entity-1="part1" data-entity-2="part3" id="msg1"><polygon fill="#181818" points="397.0067,164.186,407.0067,168.186,397.0067,172.186,401.0067,168.186" style="stroke:#181818;stroke-width:1;"/><line style="stroke:#181818;stroke-width:1;stroke-dasharray:2,2;" x1="128.8657" x2="403.0067" y1="168.186" y2="168.186"/><text fill="#000000" font-family="sans-serif" font-size="13" lengthAdjust="spacing" textLength="32.994" x="252.4392" y="162.377">listen</text></g><g class="message" data-entity-1="part3" data-entity-2="part1" id="msg2"><polygon fill="#181818" points="139.8657,195.892,129.8657,199.892,139.8657,203.892,135.8657,199.892" style="stroke:#181818;stroke-width:1;"/><line style="stroke:#181818;stroke-width:1;stroke-dasharray:2,2;" x1="133.8657" x2="408.0067" y1="199.892" y2="199.892"/><text fill="#000000" font-family="sans-serif" font-size="13" lengthAdjust="spacing" textLength="93.2621" x="222.3052" y="194.083">consume event</text></g><path d="M37,214.892 L168.944,214.892 L168.944,224.598 L158.944,234.598 L37,234.598 L37,214.892" fill="#EEEEEE" style="stroke:#000000;stroke-width:1.5;"/><rect fill="none" height="358.7481" style="stroke:#000000;stroke-width:1.5;" width="669.9289" x="37" y="214.892"/><text fill="#000000" font-family="sans-serif" font-size="13" font-weight="bold" lengthAdjust="spacing" textLength="86.944" x="52" y="229.789">transactional</text><path d="M79,239.598 L79,266.598 L457,266.598 L457,249.598 L447,239.598 L79,239.598" fill="#FEFFDD" style="stroke:#181818;stroke-width:0.5;"/><path d="M447,239.598 L447,249.598 L457,249.598 L447,239.598" fill="#FEFFDD" style="stroke:#181818;stroke-width:0.5;"/><text fill="#000000" font-family="sans-serif" font-size="13" lengthAdjust="spacing" textLength="121.2771" x="134.9907" y="258.495">idempotency check:</text><text fill="#000000" font-family="sans-serif" font-size="13" font-weight="bold" lengthAdjust="spacing" textLength="132.6131" x="259.6478" y="258.495">only consumed once</text><g class="message" data-entity-1="part1" data-entity-2="part2" id="msg3"><polygon fill="#181818" points="318.0559,292.01,328.0559,296.01,318.0559,300.01,322.0559,296.01" style="stroke:#181818;stroke-width:1;"/><line style="stroke:#181818;stroke-width:1;stroke-dasharray:2,2;" x1="128.8657" x2="324.0559" y1="296.01" y2="296.01"/><text fill="#000000" font-family="sans-serif" font-size="13" lengthAdjust="spacing" textLength="107.1331" x="175.8942" y="290.201">dedup by eventId</text></g><g class="message" data-entity-1="part2" data-entity-2="part1" id="msg4"><polygon fill="#181818" points="139.8657,323.716,129.8657,327.716,139.8657,331.716,135.8657,327.716" style="stroke:#181818;stroke-width:1;"/><line style="stroke:#181818;stroke-width:1;stroke-dasharray:2,2;" x1="133.8657" x2="329.0559" y1="327.716" y2="327.716"/><text fill="#000000" font-family="sans-serif" font-size="13" lengthAdjust="spacing" textLength="56.381" x="201.2703" y="321.907">response</text></g><path d="M47,342.716 L109.459,342.716 L109.459,352.4221 L99.459,362.4221 L47,362.4221 L47,342.716" fill="#EEEEEE" style="stroke:#000000;stroke-width:1.5;"/><rect fill="none" height="223.924" style="stroke:#000000;stroke-width:1.5;" width="649.9289" x="47" y="342.716"/><text fill="#000000" font-family="sans-serif" font-size="13" font-weight="bold" lengthAdjust="spacing" textLength="17.459" x="62" y="357.6131">alt</text><text fill="#000000" font-family="sans-serif" font-size="11" font-weight="bold" lengthAdjust="spacing" textLength="137.158" x="124.459" y="356.475">[never consumed before]</text><g class="message" data-entity-1="part1" data-entity-2="part1" id="msg5"><line style="stroke:#181818;stroke-width:1;stroke-dasharray:2,2;" x1="128.8657" x2="170.8657" y1="386.1281" y2="386.1281"/><line style="stroke:#181818;stroke-width:1;stroke-dasharray:2,2;" x1="170.8657" x2="170.8657" y1="386.1281" y2="399.1281"/><line style="stroke:#181818;stroke-width:1;stroke-dasharray:2,2;" x1="129.8657" x2="170.8657" y1="399.1281" y2="399.1281"/><polygon fill="#181818" points="139.8657,395.1281,129.8657,399.1281,139.8657,403.1281,135.8657,399.1281" style="stroke:#181818;stroke-width:1;"/><text fill="#000000" font-family="sans-serif" font-size="13" lengthAdjust="spacing" textLength="75.7641" x="135.8657" y="380.3191">create inbox</text></g><g class="message" data-entity-1="part1" data-entity-2="part2" id="msg6"><polygon fill="#181818" points="318.0559,426.8341,328.0559,430.8341,318.0559,434.8341,322.0559,430.8341" style="stroke:#181818;stroke-width:1;"/><line style="stroke:#181818;stroke-width:1;stroke-dasharray:2,2;" x1="128.8657" x2="324.0559" y1="430.8341" y2="430.8341"/><text fill="#000000" font-family="sans-serif" font-size="13" lengthAdjust="spacing" textLength="64.961" x="196.9803" y="425.0251">save inbox</text></g><g class="message" data-entity-1="part1" data-entity-2="part3" id="msg7"><polygon fill="#181818" points="397.0067,470.3931,407.0067,474.3931,397.0067,478.3931,401.0067,474.3931" style="stroke:#181818;stroke-width:1;"/><line style="stroke:#181818;stroke-width:1;stroke-dasharray:2,2;" x1="128.8657" x2="403.0067" y1="474.3931" y2="474.3931"/><text fill="#000000" font-family="sans-serif" font-size="13" lengthAdjust="spacing" textLength="24.57" x="256.6512" y="468.5841">ACK</text></g><path d="M414,443.8341 L414,488.8341 L681,488.8341 L681,453.8341 L671,443.8341 L414,443.8341" fill="#FEFFDD" style="stroke:#181818;stroke-width:0.5;"/><path d="M671,443.8341 L671,453.8341 L681,453.8341 L671,443.8341" fill="#FEFFDD" style="stroke:#181818;stroke-width:0.5;"/><text fill="#000000" font-family="sans-serif" font-size="13" lengthAdjust="spacing" textLength="116.2721" x="420" y="462.7311">commit read offset</text><text fill="#000000" font-family="sans-serif" font-size="13" lengthAdjust="spacing" textLength="246.9222" x="420" y="480.4371">if it fails idempotency check will ignore it</text><line style="stroke:#000000;stroke-width:1;stroke-dasharray:2,2;" x1="47" x2="696.9289" y1="495.2461" y2="495.2461"/><text fill="#000000" font-family="sans-serif" font-size="11" font-weight="bold" lengthAdjust="spacing" textLength="108.1512" x="52" y="507.005">[already consumed]</text><g class="message" data-entity-1="part1" data-entity-2="part3" id="msg9"><polygon fill="#181818" points="397.0067,542.787,407.0067,546.787,397.0067,550.787,401.0067,546.787" style="stroke:#181818;stroke-width:1;"/><line style="stroke:#181818;stroke-width:1;stroke-dasharray:2,2;" x1="128.8657" x2="403.0067" y1="546.787" y2="546.787"/><text fill="#000000" font-family="sans-serif" font-size="13" lengthAdjust="spacing" textLength="24.57" x="256.6512" y="540.978">ACK</text></g><path d="M414,516.228 L414,561.228 L681,561.228 L681,526.228 L671,516.228 L414,516.228" fill="#FEFFDD" style="stroke:#181818;stroke-width:0.5;"/><path d="M671,516.228 L671,526.228 L681,526.228 L671,516.228" fill="#FEFFDD" style="stroke:#181818;stroke-width:0.5;"/><text fill="#000000" font-family="sans-serif" font-size="13" lengthAdjust="spacing" textLength="116.2721" x="420" y="535.125">commit read offset</text><text fill="#000000" font-family="sans-serif" font-size="13" lengthAdjust="spacing" textLength="246.9222" x="420" y="552.831">if it fails idempotency check will ignore it</text><path d="M9,594.6401 L251.7821,594.6401 L251.7821,604.3461 L241.7821,614.3461 L9,614.3461 L9,594.6401" fill="#EEEEEE" style="stroke:#000000;stroke-width:1.5;"/><rect fill="none" height="478.2963" style="stroke:#000000;stroke-width:1.5;" width="692.0152" x="9" y="594.6401"/><text fill="#000000" font-family="sans-serif" font-size="13" font-weight="bold" lengthAdjust="spacing" textLength="197.7821" x="24" y="609.5371">listener on DB `inbox_channel`</text><g class="message" data-entity-1="part1" data-entity-2="part2" id="msg11"><polygon fill="#181818" points="139.8657,640.0521,129.8657,644.0521,139.8657,648.0521,135.8657,644.0521" style="stroke:#181818;stroke-width:1;"/><polygon fill="#181818" points="318.0559,640.0521,328.0559,644.0521,318.0559,648.0521,322.0559,644.0521" style="stroke:#181818;stroke-width:1;"/><line style="stroke:#181818;stroke-width:1;stroke-dasharray:2,2;" x1="133.8657" x2="324.0559" y1="644.0521" y2="644.0521"/><text fill="#000000" font-family="sans-serif" font-size="13" lengthAdjust="spacing" textLength="72.8781" x="193.0218" y="638.2431">listen/notify</text></g><path d="M27,619.3461 L27,646.3461 L123,646.3461 L123,629.3461 L113,619.3461 L27,619.3461" fill="#FEFFDD" style="stroke:#181818;stroke-width:0.5;"/><path d="M113,619.3461 L113,629.3461 L123,629.3461 L113,619.3461" fill="#FEFFDD" style="stroke:#181818;stroke-width:0.5;"/><text fill="#000000" font-family="sans-serif" font-size="13" lengthAdjust="spacing" textLength="75.4651" x="33" y="638.2431">manual CDC</text><path d="M335,619.3461 L335,646.3461 L619,646.3461 L619,629.3461 L609,619.3461 L335,619.3461" fill="#FEFFDD" style="stroke:#181818;stroke-width:0.5;"/><path d="M609,619.3461 L609,629.3461 L619,629.3461 L609,619.3461" fill="#FEFFDD" style="stroke:#181818;stroke-width:0.5;"/><text fill="#000000" font-family="sans-serif" font-size="13" lengthAdjust="spacing" textLength="166.2962" x="341" y="638.2431">trigger on insert that notify</text><text fill="#000000" font-family="sans-serif" font-size="13" font-weight="bold" lengthAdjust="spacing" textLength="93.444" x="510.6762" y="638.2431">inbox_channel</text><g class="message" data-entity-1="part1" data-entity-2="part1" id="msg13"><line style="stroke:#181818;stroke-width:1;stroke-dasharray:2,2;" x1="128.8657" x2="170.8657" y1="675.7581" y2="675.7581"/><line style="stroke:#181818;stroke-width:1;stroke-dasharray:2,2;" x1="170.8657" x2="170.8657" y1="675.7581" y2="688.7581"/><line style="stroke:#181818;stroke-width:1;stroke-dasharray:2,2;" x1="129.8657" x2="170.8657" y1="688.7581" y2="688.7581"/><polygon fill="#181818" points="139.8657,684.7581,129.8657,688.7581,139.8657,692.7581,135.8657,688.7581" style="stroke:#181818;stroke-width:1;"/><text fill="#000000" font-family="sans-serif" font-size="13" lengthAdjust="spacing" textLength="138.5801" x="135.8657" y="669.9491">trigger process service</text></g><path d="M19,703.7581 L92.288,703.7581 L92.288,713.4641 L82.288,723.4641 L19,723.4641 L19,703.7581" fill="#EEEEEE" style="stroke:#000000;stroke-width:1.5;"/><rect fill="none" height="362.1782" style="stroke:#000000;stroke-width:1.5;" width="672.0152" x="19" y="703.7581"/><text fill="#000000" font-family="sans-serif" font-size="13" font-weight="bold" lengthAdjust="spacing" textLength="28.288" x="34" y="718.6551">loop</text><text fill="#000000" font-family="sans-serif" font-size="11" font-weight="bold" lengthAdjust="spacing" textLength="221.7034" x="107.288" y="717.517">[until no unprocessed inbox is retrieved]</text><path d="M29,728.4641 L29,755.4641 L508,755.4641 L508,738.4641 L498,728.4641 L29,728.4641" fill="#FEFFDD" style="stroke:#181818;stroke-width:0.5;"/><path d="M498,728.4641 L498,738.4641 L508,738.4641 L498,728.4641" fill="#FEFFDD" style="stroke:#181818;stroke-width:0.5;"/><text fill="#000000" font-family="sans-serif" font-size="13" lengthAdjust="spacing" textLength="458.3283" x="35" y="747.3611">keep processing unprocessed inbox messages until none is left then sleeps</text><path d="M45,768.1701 L176.944,768.1701 L176.944,777.8762 L166.944,787.8762 L45,787.8762 L45,768.1701" fill="#EEEEEE" style="stroke:#000000;stroke-width:1.5;"/><rect fill="none" height="290.7662" style="stroke:#000000;stroke-width:1.5;" width="636.0152" x="45" y="768.1701"/><text fill="#000000" font-family="sans-serif" font-size="13" font-weight="bold" lengthAdjust="spacing" textLength="86.944" x="60" y="783.0671">transactional</text><path d="M55,792.8762 L55,837.8762 L482,837.8762 L482,802.8762 L472,792.8762 L55,792.8762" fill="#FEFFDD" style="stroke:#181818;stroke-width:0.5;"/><path d="M472,792.8762 L472,802.8762 L482,802.8762 L472,792.8762" fill="#FEFFDD" style="stroke:#181818;stroke-width:0.5;"/><text fill="#000000" font-family="sans-serif" font-size="13" lengthAdjust="spacing" textLength="406.1593" x="61" y="811.7732">transaction here to lock current batch in DB in case of concurrency</text><text fill="#000000" font-family="sans-serif" font-size="13" lengthAdjust="spacing" textLength="212.0692" x="61" y="829.4792">any concurrent will pick next batch</text><g class="message" data-entity-1="part1" data-entity-2="part2" id="msg14"><polygon fill="#181818" points="318.0559,883.7002,328.0559,887.7002,318.0559,891.7002,322.0559,887.7002" style="stroke:#181818;stroke-width:1;"/><line style="stroke:#181818;stroke-width:1;stroke-dasharray:2,2;" x1="128.8657" x2="324.0559" y1="887.7002" y2="887.7002"/><text fill="#000000" font-family="sans-serif" font-size="13" lengthAdjust="spacing" textLength="177.1902" x="140.8657" y="881.8912">get unprocessed inbox batch</text></g><path d="M335,848.2882 L335,911.2882 L665,911.2882 L665,858.2882 L655,848.2882 L335,848.2882" fill="#FEFFDD" style="stroke:#181818;stroke-width:0.5;"/><path d="M655,848.2882 L655,858.2882 L665,858.2882 L655,848.2882" fill="#FEFFDD" style="stroke:#181818;stroke-width:0.5;"/><text fill="#000000" font-family="sans-serif" font-size="13" font-weight="bold" lengthAdjust="spacing" textLength="126.6331" x="341" y="867.1852">processedAt == null</text><text fill="#000000" font-family="sans-serif" font-size="13" lengthAdjust="spacing" textLength="309.9593" x="341" y="884.8912">will lock current batch in DB in case of concurrency</text><text fill="#000000" font-family="sans-serif" font-size="13" lengthAdjust="spacing" textLength="212.0692" x="341" y="902.5972">any concurrent will pick next batch</text><g class="message" data-entity-1="part2" data-entity-2="part1" id="msg16"><polygon fill="#181818" points="139.8657,936.1123,129.8657,940.1123,139.8657,944.1123,135.8657,940.1123" style="stroke:#181818;stroke-width:1;"/><line style="stroke:#181818;stroke-width:1;stroke-dasharray:2,2;" x1="133.8657" x2="329.0559" y1="940.1123" y2="940.1123"/><text fill="#000000" font-family="sans-serif" font-size="13" lengthAdjust="spacing" textLength="71.7601" x="193.5808" y="934.3032">inbox batch</text></g><g class="message" data-entity-1="part1" data-entity-2="part1" id="msg17"><line style="stroke:#181818;stroke-width:1;stroke-dasharray:2,2;" x1="128.8657" x2="170.8657" y1="986.0243" y2="986.0243"/><line style="stroke:#181818;stroke-width:1;stroke-dasharray:2,2;" x1="170.8657" x2="170.8657" y1="986.0243" y2="999.0243"/><line style="stroke:#181818;stroke-width:1;stroke-dasharray:2,2;" x1="129.8657" x2="170.8657" y1="999.0243" y2="999.0243"/><polygon fill="#181818" points="139.8657,995.0243,129.8657,999.0243,139.8657,1003.0243,135.8657,999.0243" style="stroke:#181818;stroke-width:1;"/><text fill="#000000" font-family="sans-serif" font-size="13" lengthAdjust="spacing" textLength="84.8901" x="135.8657" y="980.2153">process batch</text></g><path d="M231.8901,953.1123 L231.8901,1016.1123 L508.8901,1016.1123 L508.8901,963.1123 L498.8901,953.1123 L231.8901,953.1123" fill="#FEFFDD" style="stroke:#181818;stroke-width:0.5;"/><path d="M498.8901,953.1123 L498.8901,963.1123 L508.8901,963.1123 L498.8901,953.1123" fill="#FEFFDD" style="stroke:#181818;stroke-width:0.5;"/><text fill="#000000" font-family="sans-serif" font-size="13" font-weight="bold" lengthAdjust="spacing" textLength="123.7991" x="237.8901" y="972.0093">business logic here</text><text fill="#000000" font-family="sans-serif" font-size="13" lengthAdjust="spacing" textLength="256.7892" x="237.8901" y="989.7153">for demo: randomly accept or reject order</text><text fill="#000000" font-family="sans-serif" font-size="13" lengthAdjust="spacing" textLength="157.9501" x="237.8901" y="1007.4213">(accepted/rejected status)</text><g class="message" data-entity-1="part1" data-entity-2="part2" id="msg19"><polygon fill="#181818" points="318.0559,1043.9363,328.0559,1047.9363,318.0559,1051.9363,322.0559,1047.9363" style="stroke:#181818;stroke-width:1;"/><line style="stroke:#181818;stroke-width:1;stroke-dasharray:2,2;" x1="128.8657" x2="324.0559" y1="1047.9363" y2="1047.9363"/><text fill="#000000" font-family="sans-serif" font-size="13" lengthAdjust="spacing" textLength="143.6111" x="157.6552" y="1042.1273">flag batch as processed</text></g><path d="M335,1026.2303 L335,1053.2303 L453,1053.2303 L453,1036.2303 L443,1026.2303 L335,1026.2303" fill="#FEFFDD" style="stroke:#181818;stroke-width:0.5;"/><path d="M443,1026.2303 L443,1036.2303 L453,1036.2303 L443,1026.2303" fill="#FEFFDD" style="stroke:#181818;stroke-width:0.5;"/><text fill="#000000" font-family="sans-serif" font-size="13" lengthAdjust="spacing" textLength="97.2141" x="341" y="1045.1273">set processedAt</text><path d="M47,1086.9363 L275.3652,1086.9363 L275.3652,1096.6423 L265.3652,1106.6423 L47,1106.6423 L47,1086.9363" fill="#EEEEEE" style="stroke:#000000;stroke-width:1.5;"/><rect fill="none" height="102.118" style="stroke:#000000;stroke-width:1.5;" width="420.2516" x="47" y="1086.9363"/><text fill="#000000" font-family="sans-serif" font-size="13" font-weight="bold" lengthAdjust="spacing" textLength="183.3652" x="62" y="1101.8333">low freq rescue periodic poll</text><path d="M79,1111.6423 L79,1138.6423 L457,1138.6423 L457,1121.6423 L447,1111.6423 L79,1111.6423" fill="#FEFFDD" style="stroke:#181818;stroke-width:0.5;"/><path d="M447,1111.6423 L447,1121.6423 L457,1121.6423 L447,1111.6423" fill="#FEFFDD" style="stroke:#181818;stroke-width:0.5;"/><text fill="#000000" font-family="sans-serif" font-size="13" lengthAdjust="spacing" textLength="162.9291" x="182.1612" y="1130.5393">rescue in case listener fails</text><g class="message" data-entity-1="part1" data-entity-2="part1" id="msg21"><line style="stroke:#181818;stroke-width:1;stroke-dasharray:2,2;" x1="128.8657" x2="170.8657" y1="1168.0544" y2="1168.0544"/><line style="stroke:#181818;stroke-width:1;stroke-dasharray:2,2;" x1="170.8657" x2="170.8657" y1="1168.0544" y2="1181.0544"/><line style="stroke:#181818;stroke-width:1;stroke-dasharray:2,2;" x1="129.8657" x2="170.8657" y1="1181.0544" y2="1181.0544"/><polygon fill="#181818" points="139.8657,1177.0544,129.8657,1181.0544,139.8657,1185.0544,135.8657,1181.0544" style="stroke:#181818;stroke-width:1;"/><text fill="#000000" font-family="sans-serif" font-size="13" lengthAdjust="spacing" textLength="138.5801" x="135.8657" y="1162.2454">trigger process service</text></g><?plantuml-src nLNlQzim4Ftkl-8-Re5IzZMi0oVf88Hrq9R28D0gyjdHAakk9BVDVxyd_qhIf2dxC1PmRAJJktTtxqx-KPbAE56IvwUQZUGVxBqeEDMgC2JP17P98gq9pcgQNzrTNjt-lFvrVtDvVJUVNfBmr7qccGXY9JpJBBrD9-bDipcR9C2jcHRfzqKQLnP9egsj4iBFsC0afBFUZ-cAu4RMpi4fQUK36tPZ6es-KCMEG3EeeAmPZPgpFOEpis-q67S7cfr5izRjZoEghqicVWPmOr0uMrSKd31Uo0WfTBD-G4bbN5POC793SitoCTAnHczwq8n0cJj6RrdD9cFAE8EhrQRrFiy6mzbadwLZNm6J1mEX0ncSSbjVAywjsrgyzRUDsB505CgixEkxrf6T5yyVcI6rwNInjzsaoAbY7M9oor85i1T8HPvx3akZSi9IBfJsXnca5wKrGLo816O3C6ieH-W8jCtk_sTbMWxn7P-abKwlJbG_5lAXIU6zN0jZM3_ioVDhd-lsp3begdopLR_c78HBOMgXQJgR9czZ2NWNhIi5VRX0OIq2jJYGuvxl8xqngA87gfoLQ79ql7jMifLJx4YgJL0QmFZeRA2v1fwKHp8103rcnrlbaRdgePKfZc2KxMJnWn_34JSc026n8Q-1uGVuKrrwu7x7ZDQC8WQBe53OVg2iH91hC8drmh-CWyhcsv4ZDqiZp6Pt1ZMQg1H03Bzs22VQYSPKS3WI-E71tVgEHeDz6kZYWaojKSUbQTp_ynZsvn1YU8_p4Kt1kXVJHp6kQgWY6cfRADcKACQ8UOOHMLhCFs4oMsAo2Ycv2eGDnxzPng-CtT9yQZSuEs_NaLuVHAZzvzCroRKekipXzXbo_IvN30lQgSY7ey2-KExuAGvmYNiELvMo6KAihDQ7brndrLTl62JDNFhxtWMHFm00?></g></svg>