<?plantuml 1.2026.2?><svg xmlns="http://www.w3.org/2000/svg" xmlns:xlink="http://www.w3.org/1999/xlink" contentStyleType="text/css" data-diagram-type="SEQUENCE" height="1782px" preserveAspectRatio="none" style="width:1235px;height:1782px;background:#FFFFFF;" version="1.1" viewBox="0 0 1235 1782" width="1235px" zoomAndPan="magnify"><defs/><g><rect fill="none" height="539.2782" style="stroke:#000000;stroke-width:1.5;" width="1085.1835" x="144" y="87.0679"/><rect fill="none" height="505.5721" style="stroke:#000000;stroke-width:1.5;" width="1065.1835" x="154" y="113.7739"/><rect fill="none" height="364.7481" style="stroke:#000000;stroke-width:1.5;" width="1045.1835" x="164" y="247.598"/><rect fill="none" height="229.924" style="stroke:#000000;stroke-width:1.5;" width="1025.1835" x="174" y="375.4221"/><rect fill="none" height="634.8263" style="stroke:#000000;stroke-width:1.5;" width="980.5062" x="9" y="640.3461"/><rect fill="none" height="501.0023" style="stroke:#000000;stroke-width:1.5;" width="815.5062" x="164" y="767.1701"/><rect fill="none" height="429.5902" style="stroke:#000000;stroke-width:1.5;" width="795.5062" x="174" y="831.5822"/><rect fill="none" height="102.118" style="stroke:#000000;stroke-width:1.5;" width="795.5062" x="174" y="1289.1724"/><rect fill="none" height="279.3541" style="stroke:#000000;stroke-width:1.5;" width="963.9134" x="196" y="1405.2905"/><rect fill="none" height="176.2361" style="stroke:#000000;stroke-width:1.5;" width="735.9134" x="414" y="1501.4085"/><g class="participant-lifeline" data-entity-uid="part1" data-qualified-name="SERVICE" id="part1-lifeline"><g><title>INVENTORY_SERVICE</title><rect fill="#000000" fill-opacity="0.00000" height="1631.5767" width="8" x="251.8657" y="70.0679"/><line style="stroke:#181818;stroke-width:0.5;stroke-dasharray:5,5;" x1="255" x2="255" y1="70.0679" y2="1701.6446"/></g></g><g class="participant-lifeline" data-entity-uid="part2" data-qualified-name="DB" id="part2-lifeline"><g><title>DATABASE</title><rect fill="#000000" fill-opacity="0.00000" height="1631.5767" width="8" x="474.2949" y="70.0679"/><line style="stroke:#181818;stroke-width:0.5;stroke-dasharray:5,5;" x1="477.589" x2="477.589" y1="70.0679" y2="1701.6446"/></g></g><g class="participant-lifeline" data-entity-uid="part3" data-qualified-name="Z" id="part3-lifeline"><g><title>DEBEZIUM</title><rect fill="#000000" fill-opacity="0.00000" height="1631.5767" width="8" x="650.876" y="70.0679"/><line style="stroke:#181818;stroke-width:0.5;stroke-dasharray:5,5;" x1="654.5892" x2="654.5892" y1="70.0679" y2="1701.6446"/></g></g><g class="participant-lifeline" data-entity-uid="part4" data-qualified-name="K" id="part4-lifeline"><g><title>KAFKA</title><rect fill="#000000" fill-opacity="0.00000" height="1631.5767" width="8" x="907.2613" y="70.0679"/><line style="stroke:#181818;stroke-width:0.5;stroke-dasharray:5,5;" x1="911.0163" x2="911.0163" y1="70.0679" y2="1701.6446"/></g></g><g class="participant participant-head" data-entity-uid="part1" data-qualified-name="SERVICE" id="part1-head"><text fill="#000000" font-family="sans-serif" font-size="14" lengthAdjust="spacing" textLength="137.7314" x="184" y="65.9659">INVENTORY_SERVICE</text><ellipse cx="255.8657" cy="35" fill="#E2E2F0" rx="12" ry="12" style="stroke:#181818;stroke-width:0.5;"/><polygon fill="#181818" points="251.8657,23,257.8657,18,255.8657,23,257.8657,28,251.8657,23" style="stroke:#181818;stroke-width:1;"/></g><g class="participant participant-tail" data-entity-uid="part1" data-qualified-name="SERVICE" id="part1-tail"><text fill="#000000" font-family="sans-serif" font-size="14" lengthAdjust="spacing" textLength="137.7314" x="184" y="1715.6105">INVENTORY_SERVICE</text><ellipse cx="255.8657" cy="1735.7125" fill="#E2E2F0" rx="12" ry="12" style="stroke:#181818;stroke-width:0.5;"/><polygon fill="#181818" points="251.8657,1723.7125,257.8657,1718.7125,255.8657,1723.7125,257.8657,1728.7125,251.8657,1723.7125" style="stroke:#181818;stroke-width:1;"/></g><g class="participant participant-head" data-entity-uid="part2" data-qualified-name="DB" id="part2-head"><text fill="#000000" font-family="sans-serif" font-size="14" lengthAdjust="spacing" textLength="69.4117" x="440.589" y="65.9659">DATABASE</text><path d="M460.2949,15 C460.2949,5 478.2949,5 478.2949,5 C478.2949,5 496.2949,5 496.2949,15 L496.2949,41 C496.2949,51 478.2949,51 478.2949,51 C478.2949,51 460.2949,51 460.2949,41 L460.2949,15" fill="#E2E2F0" style="stroke:#181818;stroke-width:0.5;"/><path d="M460.2949,15 C460.2949,25 478.2949,25 478.2949,25 C478.2949,25 496.2949,25 496.2949,15" fill="none" style="stroke:#181818;stroke-width:0.5;"/></g><g class="participant participant-tail" data-entity-uid="part2" data-qualified-name="DB" id="part2-tail"><text fill="#000000" font-family="sans-serif" font-size="14" lengthAdjust="spacing" textLength="69.4117" x="440.589" y="1715.6105">DATABASE</text><path d="M460.2949,1729.7125 C460.2949,1719.7125 478.2949,1719.7125 478.2949,1719.7125 C478.2949,1719.7125 496.2949,1719.7125 496.2949,1729.7125 L496.2949,1755.7125 C496.2949,1765.7125 478.2949,1765.7125 478.2949,1765.7125 C478.2949,1765.7125 460.2949,1765.7125 460.2949,1755.7125 L460.2949,1729.7125" fill="#E2E2F0" style="stroke:#181818;stroke-width:0.5;"/><path d="M460.2949,1729.7125 C460.2949,1739.7125 478.2949,1739.7125 478.2949,1739.7125 C478.2949,1739.7125 496.2949,1739.7125 496.2949,1729.7125" fill="none" style="stroke:#181818;stroke-width:0.5;"/></g><g class="participant participant-head" data-entity-uid="part3" data-qualified-name="Z" id="part3-head"><text fill="#000000" font-family="sans-serif" font-size="14" lengthAdjust="spacing" textLength="70.5737" x="616.5892" y="65.9659">DEBEZIUM</text><ellipse cx="654.876" cy="35" fill="#E2E2F0" rx="12" ry="12" style="stroke:#181818;stroke-width:0.5;"/><polygon fill="#181818" points="650.876,23,656.876,18,654.876,23,656.876,28,650.876,23" style="stroke:#181818;stroke-width:1;"/></g><g class="participant participant-tail" data-entity-uid="part3" data-qualified-name="Z" id="part3-tail"><text fill="#000000" font-family="sans-serif" font-size="14" lengthAdjust="spacing" textLength="70.5737" x="616.5892" y="1715.6105">DEBEZIUM</text><ellipse cx="654.876" cy="1735.7125" fill="#E2E2F0" rx="12" ry="12" style="stroke:#181818;stroke-width:0.5;"/><polygon fill="#181818" points="650.876,1723.7125,656.876,1718.7125,654.876,1723.7125,656.876,1728.7125,650.876,1723.7125" style="stroke:#181818;stroke-width:1;"/></g><g class="participant participant-head" data-entity-uid="part4" data-qualified-name="K" id="part4-head"><path d="M885.0163,41 L937.5062,41 C942.5062,41 942.5062,55.534 942.5062,55.534 C942.5062,55.534 942.5062,70.0679 937.5062,70.0679 L885.0163,70.0679 C880.0163,70.0679 880.0163,55.534 880.0163,55.534 C880.0163,55.534 880.0163,41 885.0163,41" fill="#E2E2F0" style="stroke:#181818;stroke-width:0.5;"/><path d="M937.5062,41 C932.5062,41 932.5062,55.534 932.5062,55.534 C932.5062,70.0679 937.5062,70.0679 937.5062,70.0679" fill="none" style="stroke:#181818;stroke-width:0.5;"/><text fill="#000000" font-family="sans-serif" font-size="14" lengthAdjust="spacing" textLength="42.4899" x="885.0163" y="60.9659">KAFKA</text></g><g class="participant participant-tail" data-entity-uid="part4" data-qualified-name="K" id="part4-tail"><path d="M885.0163,1700.6446 L937.5062,1700.6446 C942.5062,1700.6446 942.5062,1715.1786 942.5062,1715.1786 C942.5062,1715.1786 942.5062,1729.7125 937.5062,1729.7125 L885.0163,1729.7125 C880.0163,1729.7125 880.0163,1715.1786 880.0163,1715.1786 C880.0163,1715.1786 880.0163,1700.6446 885.0163,1700.6446" fill="#E2E2F0" style="stroke:#181818;stroke-width:0.5;"/><path d="M937.5062,1700.6446 C932.5062,1700.6446 932.5062,1715.1786 932.5062,1715.1786 C932.5062,1729.7125 937.5062,1729.7125 937.5062,1729.7125" fill="none" style="stroke:#181818;stroke-width:0.5;"/><text fill="#000000" font-family="sans-serif" font-size="14" lengthAdjust="spacing" textLength="42.4899" x="885.0163" y="1720.6105">KAFKA</text></g><path d="M144,87.0679 L253.623,87.0679 L253.623,96.7739 L243.623,106.7739 L144,106.7739 L144,87.0679" fill="#EEEEEE" style="stroke:#000000;stroke-width:1.5;"/><rect fill="none" height="539.2782" style="stroke:#000000;stroke-width:1.5;" width="1085.1835" x="144" y="87.0679"/><text fill="#000000" font-family="sans-serif" font-size="13" font-weight="bold" lengthAdjust="spacing" textLength="64.623" x="159" y="101.9649">consumer</text><path d="M154,113.7739 L227.288,113.7739 L227.288,123.4799 L217.288,133.4799 L154,133.4799 L154,113.7739" fill="#EEEEEE" style="stroke:#000000;stroke-width:1.5;"/><rect fill="none" height="505.5721" style="stroke:#000000;stroke-width:1.5;" width="1065.1835" x="154" y="113.7739"/><text fill="#000000" font-family="sans-serif" font-size="13" font-weight="bold" lengthAdjust="spacing" textLength="28.288" x="169" y="128.6709">loop</text><path d="M206,138.4799 L206,165.4799 L959,165.4799 L959,148.4799 L949,138.4799 L206,138.4799" fill="#FEFFDD" style="stroke:#181818;stroke-width:0.5;"/><path d="M949,138.4799 L949,148.4799 L959,148.4799 L949,138.4799" fill="#FEFFDD" style="stroke:#181818;stroke-width:0.5;"/><text fill="#000000" font-family="sans-serif" font-size="13" lengthAdjust="spacing" textLength="223.9512" x="466.2775" y="157.377">N concurrent listener: 1 per partition</text><g class="message" data-entity-1="part1" data-entity-2="part4" id="msg1"><polygon fill="#181818" points="899.2613,193.892,909.2613,197.892,899.2613,201.892,903.2613,197.892" style="stroke:#181818;stroke-width:1;"/><line style="stroke:#181818;stroke-width:1;stroke-dasharray:2,2;" x1="255.8657" x2="905.2613" y1="197.892" y2="197.892"/><text fill="#000000" font-family="sans-serif" font-size="13" lengthAdjust="spacing" textLength="32.994" x="262.8657" y="192.083">listen</text></g><path d="M916,176.186 L916,203.186 L1048,203.186 L1048,186.186 L1038,176.186 L916,176.186" fill="#FEFFDD" style="stroke:#181818;stroke-width:0.5;"/><path d="M1038,176.186 L1038,186.186 L1048,186.186 L1038,176.186" fill="#FEFFDD" style="stroke:#181818;stroke-width:0.5;"/><text fill="#000000" font-family="sans-serif" font-size="13" lengthAdjust="spacing" textLength="111.1501" x="922" y="195.083">order.placed topic</text><g class="message" data-entity-1="part4" data-entity-2="part1" id="msg3"><polygon fill="#181818" points="266.8657,228.598,256.8657,232.598,266.8657,236.598,262.8657,232.598" style="stroke:#181818;stroke-width:1;"/><line style="stroke:#181818;stroke-width:1;stroke-dasharray:2,2;" x1="260.8657" x2="910.2613" y1="232.598" y2="232.598"/><text fill="#000000" font-family="sans-serif" font-size="13" lengthAdjust="spacing" textLength="93.2621" x="272.8657" y="226.789">consume event</text></g><path d="M164,247.598 L295.944,247.598 L295.944,257.304 L285.944,267.304 L164,267.304 L164,247.598" fill="#EEEEEE" style="stroke:#000000;stroke-width:1.5;"/><rect fill="none" height="364.7481" style="stroke:#000000;stroke-width:1.5;" width="1045.1835" x="164" y="247.598"/><text fill="#000000" font-family="sans-serif" font-size="13" font-weight="bold" lengthAdjust="spacing" textLength="86.944" x="179" y="262.495">transactional</text><path d="M206,272.304 L206,299.304 L959,299.304 L959,282.304 L949,272.304 L206,272.304" fill="#FEFFDD" style="stroke:#181818;stroke-width:0.5;"/><path d="M949,272.304 L949,282.304 L959,282.304 L949,272.304" fill="#FEFFDD" style="stroke:#181818;stroke-width:0.5;"/><text fill="#000000" font-family="sans-serif" font-size="13" lengthAdjust="spacing" textLength="250.6532" x="452.9265" y="291.201">idempotency check: only consumed once</text><g class="message" data-entity-1="part1" data-entity-2="part2" id="msg4"><polygon fill="#181818" points="466.2949,324.716,476.2949,328.716,466.2949,332.716,470.2949,328.716" style="stroke:#181818;stroke-width:1;"/><line style="stroke:#181818;stroke-width:1;stroke-dasharray:2,2;" x1="255.8657" x2="472.2949" y1="328.716" y2="328.716"/><text fill="#000000" font-family="sans-serif" font-size="13" lengthAdjust="spacing" textLength="107.1331" x="262.8657" y="322.907">dedup by eventId</text></g><g class="message" data-entity-1="part2" data-entity-2="part1" id="msg5"><polygon fill="#181818" points="266.8657,356.4221,256.8657,360.4221,266.8657,364.4221,262.8657,360.4221" style="stroke:#181818;stroke-width:1;"/><line style="stroke:#181818;stroke-width:1;stroke-dasharray:2,2;" x1="260.8657" x2="477.2949" y1="360.4221" y2="360.4221"/><text fill="#000000" font-family="sans-serif" font-size="13" lengthAdjust="spacing" textLength="56.381" x="272.8657" y="354.6131">response</text></g><path d="M174,375.4221 L236.459,375.4221 L236.459,385.1281 L226.459,395.1281 L174,395.1281 L174,375.4221" fill="#EEEEEE" style="stroke:#000000;stroke-width:1.5;"/><rect fill="none" height="229.924" style="stroke:#000000;stroke-width:1.5;" width="1025.1835" x="174" y="375.4221"/><text fill="#000000" font-family="sans-serif" font-size="13" font-weight="bold" lengthAdjust="spacing" textLength="17.459" x="189" y="390.3191">alt</text><text fill="#000000" font-family="sans-serif" font-size="11" font-weight="bold" lengthAdjust="spacing" textLength="137.158" x="251.459" y="389.181">[never consumed before]</text><g class="message" data-entity-1="part1" data-entity-2="part1" id="msg6"><line style="stroke:#181818;stroke-width:1;stroke-dasharray:2,2;" x1="255.8657" x2="297.8657" y1="418.8341" y2="418.8341"/><line style="stroke:#181818;stroke-width:1;stroke-dasharray:2,2;" x1="297.8657" x2="297.8657" y1="418.8341" y2="431.8341"/><line style="stroke:#181818;stroke-width:1;stroke-dasharray:2,2;" x1="256.8657" x2="297.8657" y1="431.8341" y2="431.8341"/><polygon fill="#181818" points="266.8657,427.8341,256.8657,431.8341,266.8657,435.8341,262.8657,431.8341" style="stroke:#181818;stroke-width:1;"/><text fill="#000000" font-family="sans-serif" font-size="13" lengthAdjust="spacing" textLength="75.7641" x="262.8657" y="413.0251">create inbox</text></g><g class="message" data-entity-1="part1" data-entity-2="part2" id="msg7"><polygon fill="#181818" points="466.2949,462.5401,476.2949,466.5401,466.2949,470.5401,470.2949,466.5401" style="stroke:#181818;stroke-width:1;"/><line style="stroke:#181818;stroke-width:1;stroke-dasharray:2,2;" x1="255.8657" x2="472.2949" y1="466.5401" y2="466.5401"/><text fill="#000000" font-family="sans-serif" font-size="13" lengthAdjust="spacing" textLength="64.961" x="262.8657" y="460.7311">save inbox</text></g><path d="M483,444.8341 L483,471.8341 L577,471.8341 L577,454.8341 L567,444.8341 L483,444.8341" fill="#FEFFDD" style="stroke:#181818;stroke-width:0.5;"/><path d="M567,444.8341 L567,454.8341 L577,454.8341 L567,444.8341" fill="#FEFFDD" style="stroke:#181818;stroke-width:0.5;"/><text fill="#000000" font-family="sans-serif" font-size="13" lengthAdjust="spacing" textLength="73.3981" x="489" y="463.7311">dedup table</text><g class="message" data-entity-1="part1" data-entity-2="part4" id="msg9"><polygon fill="#181818" points="899.2613,509.0991,909.2613,513.0991,899.2613,517.0991,903.2613,513.0991" style="stroke:#181818;stroke-width:1;"/><line style="stroke:#181818;stroke-width:1;stroke-dasharray:2,2;" x1="255.8657" x2="905.2613" y1="513.0991" y2="513.0991"/><text fill="#000000" font-family="sans-serif" font-size="13" lengthAdjust="spacing" textLength="24.57" x="262.8657" y="507.2901">ACK</text></g><path d="M916,482.5401 L916,527.5401 L1183,527.5401 L1183,492.5401 L1173,482.5401 L916,482.5401" fill="#FEFFDD" style="stroke:#181818;stroke-width:0.5;"/><path d="M1173,482.5401 L1173,492.5401 L1183,492.5401 L1173,482.5401" fill="#FEFFDD" style="stroke:#181818;stroke-width:0.5;"/><text fill="#000000" font-family="sans-serif" font-size="13" lengthAdjust="spacing" textLength="116.2721" x="922" y="501.4371">commit read offset</text><text fill="#000000" font-family="sans-serif" font-size="13" lengthAdjust="spacing" textLength="246.9222" x="922" y="519.1431">if it fails idempotency check will ignore it</text><line style="stroke:#000000;stroke-width:1;stroke-dasharray:2,2;" x1="174" x2="1199.1835" y1="533.9521" y2="533.9521"/><text fill="#000000" font-family="sans-serif" font-size="11" font-weight="bold" lengthAdjust="spacing" textLength="108.1512" x="179" y="545.7111">[already consumed]</text><g class="message" data-entity-1="part1" data-entity-2="part4" id="msg11"><polygon fill="#181818" points="899.2613,581.4931,909.2613,585.4931,899.2613,589.4931,903.2613,585.4931" style="stroke:#181818;stroke-width:1;"/><line style="stroke:#181818;stroke-width:1;stroke-dasharray:2,2;" x1="255.8657" x2="905.2613" y1="585.4931" y2="585.4931"/><text fill="#000000" font-family="sans-serif" font-size="13" lengthAdjust="spacing" textLength="24.57" x="262.8657" y="579.6841">ACK</text></g><path d="M916,554.934 L916,599.934 L1183,599.934 L1183,564.934 L1173,554.934 L916,554.934" fill="#FEFFDD" style="stroke:#181818;stroke-width:0.5;"/><path d="M1173,554.934 L1173,564.934 L1183,564.934 L1173,554.934" fill="#FEFFDD" style="stroke:#181818;stroke-width:0.5;"/><text fill="#000000" font-family="sans-serif" font-size="13" lengthAdjust="spacing" textLength="116.2721" x="922" y="573.831">commit read offset</text><text fill="#000000" font-family="sans-serif" font-size="13" lengthAdjust="spacing" textLength="246.9222" x="922" y="591.5371">if it fails idempotency check will ignore it</text><path d="M9,640.3461 L251.7821,640.3461 L251.7821,650.0521 L241.7821,660.0521 L9,660.0521 L9,640.3461" fill="#EEEEEE" style="stroke:#000000;stroke-width:1.5;"/><rect fill="none" height="634.8263" style="stroke:#000000;stroke-width:1.5;" width="980.5062" x="9" y="640.3461"/><text fill="#000000" font-family="sans-serif" font-size="13" font-weight="bold" lengthAdjust="spacing" textLength="197.7821" x="24" y="655.2431">listener on DB `inbox_channel`</text><g class="message" data-entity-1="part1" data-entity-2="part2" id="msg13"><polygon fill="#181818" points="266.8657,703.4641,256.8657,707.4641,266.8657,711.4641,262.8657,707.4641" style="stroke:#181818;stroke-width:1;"/><polygon fill="#181818" points="466.2949,703.4641,476.2949,707.4641,466.2949,711.4641,470.2949,707.4641" style="stroke:#181818;stroke-width:1;"/><line style="stroke:#181818;stroke-width:1;stroke-dasharray:2,2;" x1="260.8657" x2="472.2949" y1="707.4641" y2="707.4641"/><text fill="#000000" font-family="sans-serif" font-size="13" lengthAdjust="spacing" textLength="72.8781" x="272.8657" y="701.6551">listen/notify</text></g><path d="M19,665.0521 L19,710.0521 L249,710.0521 L249,675.0521 L239,665.0521 L19,665.0521" fill="#FEFFDD" style="stroke:#181818;stroke-width:0.5;"/><path d="M239,665.0521 L239,675.0521 L249,675.0521 L239,665.0521" fill="#FEFFDD" style="stroke:#181818;stroke-width:0.5;"/><text fill="#000000" font-family="sans-serif" font-size="13" lengthAdjust="spacing" textLength="75.4651" x="25" y="683.9491">manual CDC</text><text fill="#000000" font-family="sans-serif" font-size="13" lengthAdjust="spacing" textLength="209.8722" x="25" y="701.6551">1 thread separate from hikari pool</text><path d="M483,673.9051 L483,700.9051 L810,700.9051 L810,683.9051 L800,673.9051 L483,673.9051" fill="#FEFFDD" style="stroke:#181818;stroke-width:0.5;"/><path d="M800,673.9051 L800,683.9051 L810,683.9051 L800,673.9051" fill="#FEFFDD" style="stroke:#181818;stroke-width:0.5;"/><text fill="#000000" font-family="sans-serif" font-size="13" lengthAdjust="spacing" textLength="61.3861" x="489" y="692.8021">trigger on</text><text fill="#000000" font-family="sans-serif" font-size="13" font-weight="bold" lengthAdjust="spacing" textLength="78.195" x="553.7661" y="692.8021">inbox.insert</text><text fill="#000000" font-family="sans-serif" font-size="13" lengthAdjust="spacing" textLength="63.1411" x="635.3411" y="692.8021">that notify</text><text fill="#000000" font-family="sans-serif" font-size="13" font-weight="bold" lengthAdjust="spacing" textLength="93.444" x="701.8622" y="692.8021">inbox_channel</text><g class="message" data-entity-1="part1" data-entity-2="part1" id="msg15"><line style="stroke:#181818;stroke-width:1;stroke-dasharray:2,2;" x1="255.8657" x2="297.8657" y1="739.1701" y2="739.1701"/><line style="stroke:#181818;stroke-width:1;stroke-dasharray:2,2;" x1="297.8657" x2="297.8657" y1="739.1701" y2="752.1701"/><line style="stroke:#181818;stroke-width:1;stroke-dasharray:2,2;" x1="256.8657" x2="297.8657" y1="752.1701" y2="752.1701"/><polygon fill="#181818" points="266.8657,748.1701,256.8657,752.1701,266.8657,756.1701,262.8657,752.1701" style="stroke:#181818;stroke-width:1;"/><text fill="#000000" font-family="sans-serif" font-size="13" lengthAdjust="spacing" textLength="138.5801" x="262.8657" y="733.3611">trigger process service</text></g><path d="M164,767.1701 L237.288,767.1701 L237.288,776.8762 L227.288,786.8762 L164,786.8762 L164,767.1701" fill="#EEEEEE" style="stroke:#000000;stroke-width:1.5;"/><rect fill="none" height="501.0023" style="stroke:#000000;stroke-width:1.5;" width="815.5062" x="164" y="767.1701"/><text fill="#000000" font-family="sans-serif" font-size="13" font-weight="bold" lengthAdjust="spacing" textLength="28.288" x="179" y="782.0671">loop</text><text fill="#000000" font-family="sans-serif" font-size="11" font-weight="bold" lengthAdjust="spacing" textLength="221.7034" x="252.288" y="780.929">[until no unprocessed inbox is retrieved]</text><path d="M206,791.8762 L206,818.8762 L959,818.8762 L959,801.8762 L949,791.8762 L206,791.8762" fill="#FEFFDD" style="stroke:#181818;stroke-width:0.5;"/><path d="M949,791.8762 L949,801.8762 L959,801.8762 L949,791.8762" fill="#FEFFDD" style="stroke:#181818;stroke-width:0.5;"/><text fill="#000000" font-family="sans-serif" font-size="13" lengthAdjust="spacing" textLength="458.3283" x="349.0889" y="810.7732">keep processing unprocessed inbox messages until none is left then sleeps</text><path d="M174,831.5822 L305.944,831.5822 L305.944,841.2882 L295.944,851.2882 L174,851.2882 L174,831.5822" fill="#EEEEEE" style="stroke:#000000;stroke-width:1.5;"/><rect fill="none" height="429.5902" style="stroke:#000000;stroke-width:1.5;" width="795.5062" x="174" y="831.5822"/><text fill="#000000" font-family="sans-serif" font-size="13" font-weight="bold" lengthAdjust="spacing" textLength="86.944" x="189" y="846.4792">transactional</text><path d="M206,856.2882 L206,919.2882 L959,919.2882 L959,866.2882 L949,856.2882 L206,856.2882" fill="#FEFFDD" style="stroke:#181818;stroke-width:0.5;"/><path d="M949,856.2882 L949,866.2882 L959,866.2882 L949,856.2882" fill="#FEFFDD" style="stroke:#181818;stroke-width:0.5;"/><text fill="#000000" font-family="sans-serif" font-size="13" lengthAdjust="spacing" textLength="406.1593" x="375.1734" y="875.1852">transaction here to lock current batch in DB in case of concurrency</text><text fill="#000000" font-family="sans-serif" font-size="13" lengthAdjust="spacing" textLength="212.0692" x="375.1734" y="892.8912">any concurrent will pick next batch</text><text fill="#000000" font-family="sans-serif" font-size="13" lengthAdjust="spacing" textLength="246.6622" x="375.1734" y="910.5972">+ make inbox/processing/outbox atomic</text><g class="message" data-entity-1="part1" data-entity-2="part2" id="msg16"><polygon fill="#181818" points="466.2949,964.8183,476.2949,968.8183,466.2949,972.8183,470.2949,968.8183" style="stroke:#181818;stroke-width:1;"/><line style="stroke:#181818;stroke-width:1;stroke-dasharray:2,2;" x1="255.8657" x2="472.2949" y1="968.8183" y2="968.8183"/><text fill="#000000" font-family="sans-serif" font-size="13" lengthAdjust="spacing" textLength="177.1902" x="262.8657" y="963.0093">get unprocessed inbox batch</text></g><path d="M483,929.4062 L483,992.4062 L813,992.4062 L813,939.4062 L803,929.4062 L483,929.4062" fill="#FEFFDD" style="stroke:#181818;stroke-width:0.5;"/><path d="M803,929.4062 L803,939.4062 L813,939.4062 L803,929.4062" fill="#FEFFDD" style="stroke:#181818;stroke-width:0.5;"/><text fill="#000000" font-family="sans-serif" font-size="13" font-weight="bold" lengthAdjust="spacing" textLength="126.6331" x="489" y="948.3032">processedAt == null</text><text fill="#000000" font-family="sans-serif" font-size="13" lengthAdjust="spacing" textLength="309.9593" x="489" y="966.0093">will lock current batch in DB in case of concurrency</text><text fill="#000000" font-family="sans-serif" font-size="13" lengthAdjust="spacing" textLength="212.0692" x="489" y="983.7153">any concurrent will pick next batch</text><g class="message" data-entity-1="part2" data-entity-2="part1" id="msg18"><polygon fill="#181818" points="266.8657,1017.2303,256.8657,1021.2303,266.8657,1025.2303,262.8657,1021.2303" style="stroke:#181818;stroke-width:1;"/><line style="stroke:#181818;stroke-width:1;stroke-dasharray:2,2;" x1="260.8657" x2="477.2949" y1="1021.2303" y2="1021.2303"/><text fill="#000000" font-family="sans-serif" font-size="13" lengthAdjust="spacing" textLength="71.7601" x="272.8657" y="1015.4213">inbox batch</text></g><g class="message" data-entity-1="part1" data-entity-2="part1" id="msg19"><line style="stroke:#181818;stroke-width:1;stroke-dasharray:2,2;" x1="255.8657" x2="297.8657" y1="1067.1423" y2="1067.1423"/><line style="stroke:#181818;stroke-width:1;stroke-dasharray:2,2;" x1="297.8657" x2="297.8657" y1="1067.1423" y2="1080.1423"/><line style="stroke:#181818;stroke-width:1;stroke-dasharray:2,2;" x1="256.8657" x2="297.8657" y1="1080.1423" y2="1080.1423"/><polygon fill="#181818" points="266.8657,1076.1423,256.8657,1080.1423,266.8657,1084.1423,262.8657,1080.1423" style="stroke:#181818;stroke-width:1;"/><text fill="#000000" font-family="sans-serif" font-size="13" lengthAdjust="spacing" textLength="84.8901" x="262.8657" y="1061.3333">process batch</text></g><path d="M358.8901,1034.2303 L358.8901,1097.2303 L632.8901,1097.2303 L632.8901,1044.2303 L622.8901,1034.2303 L358.8901,1034.2303" fill="#FEFFDD" style="stroke:#181818;stroke-width:0.5;"/><path d="M622.8901,1034.2303 L622.8901,1044.2303 L632.8901,1044.2303 L622.8901,1034.2303" fill="#FEFFDD" style="stroke:#181818;stroke-width:0.5;"/><text fill="#000000" font-family="sans-serif" font-size="13" lengthAdjust="spacing" textLength="117.0651" x="364.8901" y="1053.1273">business logic here</text><text fill="#000000" font-family="sans-serif" font-size="13" lengthAdjust="spacing" textLength="253.3052" x="364.8901" y="1070.8333">for demo randomly accept or reject order</text><text fill="#000000" font-family="sans-serif" font-size="13" lengthAdjust="spacing" textLength="157.9501" x="364.8901" y="1088.5393">(accepted/rejected status)</text><g class="message" data-entity-1="part1" data-entity-2="part2" id="msg21"><polygon fill="#181818" points="466.2949,1125.0544,476.2949,1129.0544,466.2949,1133.0544,470.2949,1129.0544" style="stroke:#181818;stroke-width:1;"/><line style="stroke:#181818;stroke-width:1;stroke-dasharray:2,2;" x1="255.8657" x2="472.2949" y1="1129.0544" y2="1129.0544"/><text fill="#000000" font-family="sans-serif" font-size="13" lengthAdjust="spacing" textLength="143.6111" x="262.8657" y="1123.2454">flag batch as processed</text></g><path d="M483,1107.3484 L483,1134.3484 L601,1134.3484 L601,1117.3484 L591,1107.3484 L483,1107.3484" fill="#FEFFDD" style="stroke:#181818;stroke-width:0.5;"/><path d="M591,1107.3484 L591,1117.3484 L601,1117.3484 L591,1107.3484" fill="#FEFFDD" style="stroke:#181818;stroke-width:0.5;"/><text fill="#000000" font-family="sans-serif" font-size="13" lengthAdjust="spacing" textLength="97.2141" x="489" y="1126.2454">set processedAt</text><g class="message" data-entity-1="part1" data-entity-2="part1" id="msg23"><line style="stroke:#181818;stroke-width:1;stroke-dasharray:2,2;" x1="255.8657" x2="297.8657" y1="1163.7604" y2="1163.7604"/><line style="stroke:#181818;stroke-width:1;stroke-dasharray:2,2;" x1="297.8657" x2="297.8657" y1="1163.7604" y2="1176.7604"/><line style="stroke:#181818;stroke-width:1;stroke-dasharray:2,2;" x1="256.8657" x2="297.8657" y1="1176.7604" y2="1176.7604"/><polygon fill="#181818" points="266.8657,1172.7604,256.8657,1176.7604,266.8657,1180.7604,262.8657,1176.7604" style="stroke:#181818;stroke-width:1;"/><text fill="#000000" font-family="sans-serif" font-size="13" lengthAdjust="spacing" textLength="208.4292" x="262.8657" y="1157.9514">create order decided events batch</text></g><g class="message" data-entity-1="part1" data-entity-2="part1" id="msg24"><line style="stroke:#181818;stroke-width:1;stroke-dasharray:2,2;" x1="255.8657" x2="297.8657" y1="1208.4664" y2="1208.4664"/><line style="stroke:#181818;stroke-width:1;stroke-dasharray:2,2;" x1="297.8657" x2="297.8657" y1="1208.4664" y2="1221.4664"/><line style="stroke:#181818;stroke-width:1;stroke-dasharray:2,2;" x1="256.8657" x2="297.8657" y1="1221.4664" y2="1221.4664"/><polygon fill="#181818" points="266.8657,1217.4664,256.8657,1221.4664,266.8657,1225.4664,262.8657,1221.4664" style="stroke:#181818;stroke-width:1;"/><text fill="#000000" font-family="sans-serif" font-size="13" lengthAdjust="spacing" textLength="122.6031" x="262.8657" y="1202.6574">create outbox batch</text></g><path d="M396.6031,1193.2604 L396.6031,1220.2604 L667.6031,1220.2604 L667.6031,1203.2604 L657.6031,1193.2604 L396.6031,1193.2604" fill="#FEFFDD" style="stroke:#181818;stroke-width:0.5;"/><path d="M657.6031,1193.2604 L657.6031,1203.2604 L667.6031,1203.2604 L657.6031,1193.2604" fill="#FEFFDD" style="stroke:#181818;stroke-width:0.5;"/><text fill="#000000" font-family="sans-serif" font-size="13" lengthAdjust="spacing" textLength="250.6532" x="402.6031" y="1212.1574">accepted/rejected status determine topic</text><g class="message" data-entity-1="part1" data-entity-2="part2" id="msg26"><polygon fill="#181818" points="466.2949,1249.1724,476.2949,1253.1724,466.2949,1257.1724,470.2949,1253.1724" style="stroke:#181818;stroke-width:1;"/><line style="stroke:#181818;stroke-width:1;stroke-dasharray:2,2;" x1="255.8657" x2="472.2949" y1="1253.1724" y2="1253.1724"/><text fill="#000000" font-family="sans-serif" font-size="13" lengthAdjust="spacing" textLength="111.8001" x="262.8657" y="1247.3634">save outbox batch</text></g><path d="M174,1289.1724 L402.3652,1289.1724 L402.3652,1298.8784 L392.3652,1308.8784 L174,1308.8784 L174,1289.1724" fill="#EEEEEE" style="stroke:#000000;stroke-width:1.5;"/><rect fill="none" height="102.118" style="stroke:#000000;stroke-width:1.5;" width="795.5062" x="174" y="1289.1724"/><text fill="#000000" font-family="sans-serif" font-size="13" font-weight="bold" lengthAdjust="spacing" textLength="183.3652" x="189" y="1304.0694">low freq rescue periodic poll</text><path d="M206,1313.8784 L206,1340.8784 L959,1340.8784 L959,1323.8784 L949,1313.8784 L206,1313.8784" fill="#FEFFDD" style="stroke:#181818;stroke-width:0.5;"/><path d="M949,1313.8784 L949,1323.8784 L959,1323.8784 L949,1313.8784" fill="#FEFFDD" style="stroke:#181818;stroke-width:0.5;"/><text fill="#000000" font-family="sans-serif" font-size="13" lengthAdjust="spacing" textLength="162.9291" x="496.7885" y="1332.7754">rescue in case listener fails</text><g class="message" data-entity-1="part1" data-entity-2="part1" id="msg27"><line style="stroke:#181818;stroke-width:1;stroke-dasharray:2,2;" x1="255.8657" x2="297.8657" y1="1370.2905" y2="1370.2905"/><line style="stroke:#181818;stroke-width:1;stroke-dasharray:2,2;" x1="297.8657" x2="297.8657" y1="1370.2905" y2="1383.2905"/><line style="stroke:#181818;stroke-width:1;stroke-dasharray:2,2;" x1="256.8657" x2="297.8657" y1="1383.2905" y2="1383.2905"/><polygon fill="#181818" points="266.8657,1379.2905,256.8657,1383.2905,266.8657,1387.2905,262.8657,1383.2905" style="stroke:#181818;stroke-width:1;"/><text fill="#000000" font-family="sans-serif" font-size="13" lengthAdjust="spacing" textLength="138.5801" x="262.8657" y="1364.4815">trigger process service</text></g><path d="M196,1405.2905 L304.44,1405.2905 L304.44,1414.9965 L294.44,1424.9965 L196,1424.9965 L196,1405.2905" fill="#EEEEEE" style="stroke:#000000;stroke-width:1.5;"/><rect fill="none" height="279.3541" style="stroke:#000000;stroke-width:1.5;" width="963.9134" x="196" y="1405.2905"/><text fill="#000000" font-family="sans-serif" font-size="13" font-weight="bold" lengthAdjust="spacing" textLength="63.44" x="211" y="1420.1875">debezium</text><path d="M206,1429.9965 L206,1456.9965 L959,1456.9965 L959,1439.9965 L949,1429.9965 L206,1429.9965" fill="#FEFFDD" style="stroke:#181818;stroke-width:0.5;"/><path d="M949,1429.9965 L949,1439.9965 L959,1439.9965 L949,1429.9965" fill="#FEFFDD" style="stroke:#181818;stroke-width:0.5;"/><text fill="#000000" font-family="sans-serif" font-size="13" lengthAdjust="spacing" textLength="212.7062" x="471.9" y="1448.8935">automatic CDC and outbox publish</text><g class="message" data-entity-1="part3" data-entity-2="part2" id="msg28"><polygon fill="#181818" points="489.2949,1482.4085,479.2949,1486.4085,489.2949,1490.4085,485.2949,1486.4085" style="stroke:#181818;stroke-width:1;"/><line style="stroke:#181818;stroke-width:1;stroke-dasharray:2,2;" x1="483.2949" x2="653.876" y1="1486.4085" y2="1486.4085"/><text fill="#000000" font-family="sans-serif" font-size="13" lengthAdjust="spacing" textLength="36.478" x="495.2949" y="1480.5995">watch</text></g><path d="M414,1501.4085 L487.288,1501.4085 L487.288,1511.1145 L477.288,1521.1145 L414,1521.1145 L414,1501.4085" fill="#EEEEEE" style="stroke:#000000;stroke-width:1.5;"/><rect fill="none" height="176.2361" style="stroke:#000000;stroke-width:1.5;" width="735.9134" x="414" y="1501.4085"/><text fill="#000000" font-family="sans-serif" font-size="13" font-weight="bold" lengthAdjust="spacing" textLength="28.288" x="429" y="1516.3055">loop</text><g class="message" data-entity-1="part2" data-entity-2="part3" id="msg29"><polygon fill="#181818" points="642.876,1540.8205,652.876,1544.8205,642.876,1548.8205,646.876,1544.8205" style="stroke:#181818;stroke-width:1;"/><line style="stroke:#181818;stroke-width:1;stroke-dasharray:2,2;" x1="478.2949" x2="648.876" y1="1544.8205" y2="1544.8205"/><text fill="#000000" font-family="sans-serif" font-size="13" lengthAdjust="spacing" textLength="152.5811" x="485.2949" y="1539.0115">outbox table inserts WAL</text></g><g class="message" data-entity-1="part3" data-entity-2="part3" id="msg30"><line style="stroke:#181818;stroke-width:1;stroke-dasharray:2,2;" x1="654.876" x2="696.876" y1="1581.8796" y2="1581.8796"/><line style="stroke:#181818;stroke-width:1;stroke-dasharray:2,2;" x1="696.876" x2="696.876" y1="1581.8796" y2="1594.8796"/><line style="stroke:#181818;stroke-width:1;stroke-dasharray:2,2;" x1="655.876" x2="696.876" y1="1594.8796" y2="1594.8796"/><polygon fill="#181818" points="665.876,1590.8796,655.876,1594.8796,665.876,1598.8796,661.876,1594.8796" style="stroke:#181818;stroke-width:1;"/><text fill="#000000" font-family="sans-serif" font-size="13" lengthAdjust="spacing" textLength="242.3852" x="661.876" y="1576.0706">extract payload + route by topic column</text></g><path d="M424,1557.8205 L424,1602.8205 L648,1602.8205 L648,1567.8205 L638,1557.8205 L424,1557.8205" fill="#FEFFDD" style="stroke:#181818;stroke-width:0.5;"/><path d="M638,1557.8205 L638,1567.8205 L648,1567.8205 L638,1557.8205" fill="#FEFFDD" style="stroke:#181818;stroke-width:0.5;"/><text fill="#000000" font-family="sans-serif" font-size="13" lengthAdjust="spacing" textLength="122.7461" x="430" y="1576.7176">outbox event router</text><text fill="#000000" font-family="sans-serif" font-size="13" lengthAdjust="spacing" textLength="203.9702" x="430" y="1594.4236">row already carries topic decision</text><g class="message" data-entity-1="part3" data-entity-2="part4" id="msg32"><polygon fill="#181818" points="899.2613,1630.9386,909.2613,1634.9386,899.2613,1638.9386,903.2613,1634.9386" style="stroke:#181818;stroke-width:1;"/><line style="stroke:#181818;stroke-width:1;stroke-dasharray:2,2;" x1="654.876" x2="905.2613" y1="1634.9386" y2="1634.9386"/><text fill="#000000" font-family="sans-serif" font-size="13" lengthAdjust="spacing" textLength="44.9931" x="661.876" y="1629.1296">publish</text></g><path d="M916,1613.2326 L916,1640.2326 L1134,1640.2326 L1134,1623.2326 L1124,1613.2326 L916,1613.2326" fill="#FEFFDD" style="stroke:#181818;stroke-width:0.5;"/><path d="M1124,1613.2326 L1124,1623.2326 L1134,1623.2326 L1124,1613.2326" fill="#FEFFDD" style="stroke:#181818;stroke-width:0.5;"/><text fill="#000000" font-family="sans-serif" font-size="13" lengthAdjust="spacing" textLength="197.6522" x="922" y="1632.1296">order.[accepted|rejected] topics</text><g class="message" data-entity-1="part3" data-entity-2="part2" id="msg34"><polygon fill="#181818" points="489.2949,1665.6446,479.2949,1669.6446,489.2949,1673.6446,485.2949,1669.6446" style="stroke:#181818;stroke-width:1;"/><line style="stroke:#181818;stroke-width:1;stroke-dasharray:2,2;" x1="483.2949" x2="653.876" y1="1669.6446" y2="1669.6446"/><text fill="#000000" font-family="sans-serif" font-size="13" lengthAdjust="spacing" textLength="115.4921" x="495.2949" y="1663.8356">commit WAL offset</text></g><?plantuml-src pLPTZzis47pNhzZ7ra5ooAlH5B3FBd1mUmMID4KT1mbDhMpM5AcGr5qSzCTtA8coxBEDj4216hYpJ2sNC_inIsbDS5RJtVsx-VtRNr__yV7D_FMxkziv2K_TOvQB8DR2CyqcRoVJoPlcvMoQoMxpR3wTB-z--oKkBxFFDTTCYybFYqbSM6JPnjcw8bZxkcIN4JxQsgfvY1zZ0vEGpde_fljeA6lds0JIoWSsxCRqaYfsL0aNL53Mz7iJtEVFVwJ5kDjmxDcfpJQCoRgStOjA2yav1LifsPijcksTgt52Ilm03BrHoo8uORoG4OFG_RidB5JEPOK58_SajontED_eVNATuvVae-r38hFfc7BESTnwtwAuou-CPzDZn8vz1S_77eKEPB3R7KvTSs7TiTNfsOSeE1PWfCpQVhcw8wBruk6IwJ07BIbKaxuE0fcSt2wkkfAsB5K0Su5W5eNdi3Ag82mLGcd_D0FqgBGcjJ680CoEdBD6TGiTdHrozFz2Q0vuqdFyZdzTWwLcGMt50ldKfEEZt0fZM7_AXWn-I7bhzzm0jYhsMSz0Sm42fJ2rq7GxkrsPbnIs3HFFQC9O68Mp9MtLJZX5bRKwE-KVyBrfuOn63PWN2ZNgmcW4Po9GUsfwcP2EHjd5camkAsSbUmymxa5rZHGbXMeJb8PZF7GsgFh6FIcFLC01EY8_BpqxvYgvLcPpnaU97sB3lZ_7SFGRmmLARCXh-F3_JZC6PhHbb42m88MoI6gu5a5kWIHc5_zbb6HR7FHIxbT6cFrGG9kAWjJje0HVEWyhymoftNNzUdCWV6Fh45cAOCk1Efxhzms7C-5ft6UN-c4qwkqdWLwz8bDhP7jb6f3_1TEhcda9yjd2ImLtdU6wHXYZcROR9PiahWmK5xfNMa9wSrjY20WfkGeOI2Z8Frc6TZIjp7Vj2yvlsdN4rGSHQl_zrLmKMcowY67UzZ6-Y192H8DCPDyw2HgKe28XN7axblotnY-vQ0liUXGlHG571tOb8dmolYyEfBF7NL9F-mX9uyznbafSO73TK3P75Ykh1zgMchMpIiNPQsyZxVzSm0P0SbxpLrMNJyyKDHfJ162291EgAH6iwZK0j1INVGWUUzf7jwsk3vRZjBiPnzHAiwVV9p_tfijaYOvoK2RSl_RQOWWy8q05CbnFcbIW4NLTdjoxsY7I7TAKIxiBbUuGx7xS2WTHzfsZM5v-UC5Rfd4x97d-RlS-LSvVgN8-j5xzYRSOdMuwWsutd8T5yJS0?></g></svg>