<?plantuml 1.2026.2?><svg xmlns="http://www.w3.org/2000/svg" xmlns:xlink="http://www.w3.org/1999/xlink" contentStyleType="text/css" data-diagram-type="SEQUENCE" height="1719px" preserveAspectRatio="none" style="width:1072px;height:1719px;background:#FFFFFF;" version="1.1" viewBox="0 0 1072 1719" width="1072px" zoomAndPan="magnify"><defs/><g><rect fill="none" height="493.5721" style="stroke:#000000;stroke-width:1.5;" width="1047.5035" x="19" y="87.0679"/><rect fill="none" height="358.7481" style="stroke:#000000;stroke-width:1.5;" width="1027.5035" x="29" y="214.892"/><rect fill="none" height="223.924" style="stroke:#000000;stroke-width:1.5;" width="1007.5035" x="39" y="342.716"/><rect fill="none" height="617.1203" style="stroke:#000000;stroke-width:1.5;" width="827.8262" x="9" y="594.6401"/><rect fill="none" height="501.0023" style="stroke:#000000;stroke-width:1.5;" width="797.8262" x="29" y="703.7581"/><rect fill="none" height="429.5902" style="stroke:#000000;stroke-width:1.5;" width="777.8262" x="39" y="768.1701"/><rect fill="none" height="279.3541" style="stroke:#000000;stroke-width:1.5;" width="940.0064" x="61" y="1225.7604"/><rect fill="none" height="176.2361" style="stroke:#000000;stroke-width:1.5;" width="762.0064" x="229" y="1321.8784"/><rect fill="none" height="102.118" style="stroke:#000000;stroke-width:1.5;" width="777.8262" x="39" y="1519.1145"/><g class="participant-lifeline" data-entity-uid="part1" data-qualified-name="SERVICE" id="part1-lifeline"><g><title>INVENTORY_SERVICE</title><rect fill="#000000" fill-opacity="0.00000" height="1568.1647" width="8" x="116.8657" y="70.0679"/><line style="stroke:#181818;stroke-width:0.5;stroke-dasharray:5,5;" x1="120" x2="120" y1="70.0679" y2="1638.2326"/></g></g><g class="participant-lifeline" data-entity-uid="part2" data-qualified-name="DB" id="part2-lifeline"><g><title>DATABASE</title><rect fill="#000000" fill-opacity="0.00000" height="1568.1647" width="8" x="346.7699" y="70.0679"/><line style="stroke:#181818;stroke-width:0.5;stroke-dasharray:5,5;" x1="350.064" x2="350.064" y1="70.0679" y2="1638.2326"/></g></g><g class="participant-lifeline" data-entity-uid="part3" data-qualified-name="Z" id="part3-lifeline"><g><title>DEBEZIUM</title><rect fill="#000000" fill-opacity="0.00000" height="1568.1647" width="8" x="495.778" y="70.0679"/><line style="stroke:#181818;stroke-width:0.5;stroke-dasharray:5,5;" x1="499.4912" x2="499.4912" y1="70.0679" y2="1638.2326"/></g></g><g class="participant-lifeline" data-entity-uid="part4" data-qualified-name="K" id="part4-lifeline"><g><title>KAFKA</title><rect fill="#000000" fill-opacity="0.00000" height="1568.1647" width="8" x="754.5812" y="70.0679"/><line style="stroke:#181818;stroke-width:0.5;stroke-dasharray:5,5;" x1="758.3363" x2="758.3363" y1="70.0679" y2="1638.2326"/></g></g><g class="participant participant-head" data-entity-uid="part1" data-qualified-name="SERVICE" id="part1-head"><text fill="#000000" font-family="sans-serif" font-size="14" lengthAdjust="spacing" textLength="137.7314" x="49" y="65.9659">INVENTORY_SERVICE</text><ellipse cx="120.8657" cy="35" fill="#E2E2F0" rx="12" ry="12" style="stroke:#181818;stroke-width:0.5;"/><polygon fill="#181818" points="116.8657,23,122.8657,18,120.8657,23,122.8657,28,116.8657,23" style="stroke:#181818;stroke-width:1;"/></g><g class="participant participant-tail" data-entity-uid="part1" data-qualified-name="SERVICE" id="part1-tail"><text fill="#000000" font-family="sans-serif" font-size="14" lengthAdjust="spacing" textLength="137.7314" x="49" y="1652.1985">INVENTORY_SERVICE</text><ellipse cx="120.8657" cy="1672.3005" fill="#E2E2F0" rx="12" ry="12" style="stroke:#181818;stroke-width:0.5;"/><polygon fill="#181818" points="116.8657,1660.3005,122.8657,1655.3005,120.8657,1660.3005,122.8657,1665.3005,116.8657,1660.3005" style="stroke:#181818;stroke-width:1;"/></g><g class="participant participant-head" data-entity-uid="part2" data-qualified-name="DB" id="part2-head"><text fill="#000000" font-family="sans-serif" font-size="14" lengthAdjust="spacing" textLength="69.4117" x="313.064" y="65.9659">DATABASE</text><path d="M332.7699,15 C332.7699,5 350.7699,5 350.7699,5 C350.7699,5 368.7699,5 368.7699,15 L368.7699,41 C368.7699,51 350.7699,51 350.7699,51 C350.7699,51 332.7699,51 332.7699,41 L332.7699,15" fill="#E2E2F0" style="stroke:#181818;stroke-width:0.5;"/><path d="M332.7699,15 C332.7699,25 350.7699,25 350.7699,25 C350.7699,25 368.7699,25 368.7699,15" fill="none" style="stroke:#181818;stroke-width:0.5;"/></g><g class="participant participant-tail" data-entity-uid="part2" data-qualified-name="DB" id="part2-tail"><text fill="#000000" font-family="sans-serif" font-size="14" lengthAdjust="spacing" textLength="69.4117" x="313.064" y="1652.1985">DATABASE</text><path d="M332.7699,1666.3005 C332.7699,1656.3005 350.7699,1656.3005 350.7699,1656.3005 C350.7699,1656.3005 368.7699,1656.3005 368.7699,1666.3005 L368.7699,1692.3005 C368.7699,1702.3005 350.7699,1702.3005 350.7699,1702.3005 C350.7699,1702.3005 332.7699,1702.3005 332.7699,1692.3005 L332.7699,1666.3005" fill="#E2E2F0" style="stroke:#181818;stroke-width:0.5;"/><path d="M332.7699,1666.3005 C332.7699,1676.3005 350.7699,1676.3005 350.7699,1676.3005 C350.7699,1676.3005 368.7699,1676.3005 368.7699,1666.3005" fill="none" style="stroke:#181818;stroke-width:0.5;"/></g><g class="participant participant-head" data-entity-uid="part3" data-qualified-name="Z" id="part3-head"><text fill="#000000" font-family="sans-serif" font-size="14" lengthAdjust="spacing" textLength="70.5737" x="461.4912" y="65.9659">DEBEZIUM</text><ellipse cx="499.778" cy="35" fill="#E2E2F0" rx="12" ry="12" style="stroke:#181818;stroke-width:0.5;"/><polygon fill="#181818" points="495.778,23,501.778,18,499.778,23,501.778,28,495.778,23" style="stroke:#181818;stroke-width:1;"/></g><g class="participant participant-tail" data-entity-uid="part3" data-qualified-name="Z" id="part3-tail"><text fill="#000000" font-family="sans-serif" font-size="14" lengthAdjust="spacing" textLength="70.5737" x="461.4912" y="1652.1985">DEBEZIUM</text><ellipse cx="499.778" cy="1672.3005" fill="#E2E2F0" rx="12" ry="12" style="stroke:#181818;stroke-width:0.5;"/><polygon fill="#181818" points="495.778,1660.3005,501.778,1655.3005,499.778,1660.3005,501.778,1665.3005,495.778,1660.3005" style="stroke:#181818;stroke-width:1;"/></g><g class="participant participant-head" data-entity-uid="part4" data-qualified-name="K" id="part4-head"><path d="M732.3363,41 L784.8262,41 C789.8262,41 789.8262,55.534 789.8262,55.534 C789.8262,55.534 789.8262,70.0679 784.8262,70.0679 L732.3363,70.0679 C727.3363,70.0679 727.3363,55.534 727.3363,55.534 C727.3363,55.534 727.3363,41 732.3363,41" fill="#E2E2F0" style="stroke:#181818;stroke-width:0.5;"/><path d="M784.8262,41 C779.8262,41 779.8262,55.534 779.8262,55.534 C779.8262,70.0679 784.8262,70.0679 784.8262,70.0679" fill="none" style="stroke:#181818;stroke-width:0.5;"/><text fill="#000000" font-family="sans-serif" font-size="14" lengthAdjust="spacing" textLength="42.4899" x="732.3363" y="60.9659">KAFKA</text></g><g class="participant participant-tail" data-entity-uid="part4" data-qualified-name="K" id="part4-tail"><path d="M732.3363,1637.2326 L784.8262,1637.2326 C789.8262,1637.2326 789.8262,1651.7665 789.8262,1651.7665 C789.8262,1651.7665 789.8262,1666.3005 784.8262,1666.3005 L732.3363,1666.3005 C727.3363,1666.3005 727.3363,1651.7665 727.3363,1651.7665 C727.3363,1651.7665 727.3363,1637.2326 732.3363,1637.2326" fill="#E2E2F0" style="stroke:#181818;stroke-width:0.5;"/><path d="M784.8262,1637.2326 C779.8262,1637.2326 779.8262,1651.7665 779.8262,1651.7665 C779.8262,1666.3005 784.8262,1666.3005 784.8262,1666.3005" fill="none" style="stroke:#181818;stroke-width:0.5;"/><text fill="#000000" font-family="sans-serif" font-size="14" lengthAdjust="spacing" textLength="42.4899" x="732.3363" y="1657.1985">KAFKA</text></g><path d="M19,87.0679 L92.288,87.0679 L92.288,96.7739 L82.288,106.7739 L19,106.7739 L19,87.0679" fill="#EEEEEE" style="stroke:#000000;stroke-width:1.5;"/><rect fill="none" height="493.5721" style="stroke:#000000;stroke-width:1.5;" width="1047.5035" x="19" y="87.0679"/><text fill="#000000" font-family="sans-serif" font-size="13" font-weight="bold" lengthAdjust="spacing" textLength="28.288" x="34" y="101.9649">loop</text><path d="M71,111.7739 L71,138.7739 L806,138.7739 L806,121.7739 L796,111.7739 L71,111.7739" fill="#FEFFDD" style="stroke:#181818;stroke-width:0.5;"/><path d="M796,111.7739 L796,121.7739 L806,121.7739 L796,111.7739" fill="#FEFFDD" style="stroke:#181818;stroke-width:0.5;"/><text fill="#000000" font-family="sans-serif" font-size="13" lengthAdjust="spacing" textLength="133.0291" x="319.311" y="130.6709">N concurrent listener:</text><text fill="#000000" font-family="sans-serif" font-size="13" font-weight="bold" lengthAdjust="spacing" textLength="93.7951" x="455.7201" y="130.6709">1 per partition</text><g class="message" data-entity-1="part1" data-entity-2="part4" id="msg1"><polygon fill="#181818" points="746.5812,164.186,756.5812,168.186,746.5812,172.186,750.5812,168.186" style="stroke:#181818;stroke-width:1;"/><line style="stroke:#181818;stroke-width:1;stroke-dasharray:2,2;" x1="120.8657" x2="752.5812" y1="168.186" y2="168.186"/><text fill="#000000" font-family="sans-serif" font-size="13" lengthAdjust="spacing" textLength="32.994" x="423.2265" y="162.377">listen</text></g><g class="message" data-entity-1="part4" data-entity-2="part1" id="msg2"><polygon fill="#181818" points="131.8657,195.892,121.8657,199.892,131.8657,203.892,127.8657,199.892" style="stroke:#181818;stroke-width:1;"/><line style="stroke:#181818;stroke-width:1;stroke-dasharray:2,2;" x1="125.8657" x2="757.5812" y1="199.892" y2="199.892"/><text fill="#000000" font-family="sans-serif" font-size="13" lengthAdjust="spacing" textLength="93.2621" x="393.0924" y="194.083">consume event</text></g><path d="M29,214.892 L160.944,214.892 L160.944,224.598 L150.944,234.598 L29,234.598 L29,214.892" fill="#EEEEEE" style="stroke:#000000;stroke-width:1.5;"/><rect fill="none" height="358.7481" style="stroke:#000000;stroke-width:1.5;" width="1027.5035" x="29" y="214.892"/><text fill="#000000" font-family="sans-serif" font-size="13" font-weight="bold" lengthAdjust="spacing" textLength="86.944" x="44" y="229.789">transactional</text><path d="M71,239.598 L71,266.598 L806,266.598 L806,249.598 L796,239.598 L71,239.598" fill="#FEFFDD" style="stroke:#181818;stroke-width:0.5;"/><path d="M796,239.598 L796,249.598 L806,249.598 L796,239.598" fill="#FEFFDD" style="stroke:#181818;stroke-width:0.5;"/><text fill="#000000" font-family="sans-serif" font-size="13" lengthAdjust="spacing" textLength="121.2771" x="305.778" y="258.495">idempotency check:</text><text fill="#000000" font-family="sans-serif" font-size="13" font-weight="bold" lengthAdjust="spacing" textLength="132.6131" x="430.4351" y="258.495">only consumed once</text><g class="message" data-entity-1="part1" data-entity-2="part2" id="msg3"><polygon fill="#181818" points="338.7699,292.01,348.7699,296.01,338.7699,300.01,342.7699,296.01" style="stroke:#181818;stroke-width:1;"/><line style="stroke:#181818;stroke-width:1;stroke-dasharray:2,2;" x1="120.8657" x2="344.7699" y1="296.01" y2="296.01"/><text fill="#000000" font-family="sans-serif" font-size="13" lengthAdjust="spacing" textLength="107.1331" x="182.2513" y="290.201">dedup by eventId</text></g><g class="message" data-entity-1="part2" data-entity-2="part1" id="msg4"><polygon fill="#181818" points="131.8657,323.716,121.8657,327.716,131.8657,331.716,127.8657,327.716" style="stroke:#181818;stroke-width:1;"/><line style="stroke:#181818;stroke-width:1;stroke-dasharray:2,2;" x1="125.8657" x2="349.7699" y1="327.716" y2="327.716"/><text fill="#000000" font-family="sans-serif" font-size="13" lengthAdjust="spacing" textLength="56.381" x="207.6273" y="321.907">response</text></g><path d="M39,342.716 L101.459,342.716 L101.459,352.4221 L91.459,362.4221 L39,362.4221 L39,342.716" fill="#EEEEEE" style="stroke:#000000;stroke-width:1.5;"/><rect fill="none" height="223.924" style="stroke:#000000;stroke-width:1.5;" width="1007.5035" x="39" y="342.716"/><text fill="#000000" font-family="sans-serif" font-size="13" font-weight="bold" lengthAdjust="spacing" textLength="17.459" x="54" y="357.6131">alt</text><text fill="#000000" font-family="sans-serif" font-size="11" font-weight="bold" lengthAdjust="spacing" textLength="137.158" x="116.459" y="356.475">[never consumed before]</text><g class="message" data-entity-1="part1" data-entity-2="part1" id="msg5"><line style="stroke:#181818;stroke-width:1;stroke-dasharray:2,2;" x1="120.8657" x2="162.8657" y1="386.1281" y2="386.1281"/><line style="stroke:#181818;stroke-width:1;stroke-dasharray:2,2;" x1="162.8657" x2="162.8657" y1="386.1281" y2="399.1281"/><line style="stroke:#181818;stroke-width:1;stroke-dasharray:2,2;" x1="121.8657" x2="162.8657" y1="399.1281" y2="399.1281"/><polygon fill="#181818" points="131.8657,395.1281,121.8657,399.1281,131.8657,403.1281,127.8657,399.1281" style="stroke:#181818;stroke-width:1;"/><text fill="#000000" font-family="sans-serif" font-size="13" lengthAdjust="spacing" textLength="75.7641" x="127.8657" y="380.3191">create inbox</text></g><g class="message" data-entity-1="part1" data-entity-2="part2" id="msg6"><polygon fill="#181818" points="338.7699,426.8341,348.7699,430.8341,338.7699,434.8341,342.7699,430.8341" style="stroke:#181818;stroke-width:1;"/><line style="stroke:#181818;stroke-width:1;stroke-dasharray:2,2;" x1="120.8657" x2="344.7699" y1="430.8341" y2="430.8341"/><text fill="#000000" font-family="sans-serif" font-size="13" lengthAdjust="spacing" textLength="64.961" x="203.3373" y="425.0251">save inbox</text></g><g class="message" data-entity-1="part1" data-entity-2="part4" id="msg7"><polygon fill="#181818" points="746.5812,470.3931,756.5812,474.3931,746.5812,478.3931,750.5812,474.3931" style="stroke:#181818;stroke-width:1;"/><line style="stroke:#181818;stroke-width:1;stroke-dasharray:2,2;" x1="120.8657" x2="752.5812" y1="474.3931" y2="474.3931"/><text fill="#000000" font-family="sans-serif" font-size="13" lengthAdjust="spacing" textLength="24.57" x="427.4385" y="468.5841">ACK</text></g><path d="M763,443.8341 L763,488.8341 L1030,488.8341 L1030,453.8341 L1020,443.8341 L763,443.8341" fill="#FEFFDD" style="stroke:#181818;stroke-width:0.5;"/><path d="M1020,443.8341 L1020,453.8341 L1030,453.8341 L1020,443.8341" fill="#FEFFDD" style="stroke:#181818;stroke-width:0.5;"/><text fill="#000000" font-family="sans-serif" font-size="13" lengthAdjust="spacing" textLength="116.2721" x="769" y="462.7311">commit read offset</text><text fill="#000000" font-family="sans-serif" font-size="13" lengthAdjust="spacing" textLength="246.9222" x="769" y="480.4371">if it fails idempotency check will ignore it</text><line style="stroke:#000000;stroke-width:1;stroke-dasharray:2,2;" x1="39" x2="1046.5035" y1="495.2461" y2="495.2461"/><text fill="#000000" font-family="sans-serif" font-size="11" font-weight="bold" lengthAdjust="spacing" textLength="108.1512" x="44" y="507.005">[already consumed]</text><g class="message" data-entity-1="part1" data-entity-2="part4" id="msg9"><polygon fill="#181818" points="746.5812,542.787,756.5812,546.787,746.5812,550.787,750.5812,546.787" style="stroke:#181818;stroke-width:1;"/><line style="stroke:#181818;stroke-width:1;stroke-dasharray:2,2;" x1="120.8657" x2="752.5812" y1="546.787" y2="546.787"/><text fill="#000000" font-family="sans-serif" font-size="13" lengthAdjust="spacing" textLength="24.57" x="427.4385" y="540.978">ACK</text></g><path d="M763,516.228 L763,561.228 L1030,561.228 L1030,526.228 L1020,516.228 L763,516.228" fill="#FEFFDD" style="stroke:#181818;stroke-width:0.5;"/><path d="M1020,516.228 L1020,526.228 L1030,526.228 L1020,516.228" fill="#FEFFDD" style="stroke:#181818;stroke-width:0.5;"/><text fill="#000000" font-family="sans-serif" font-size="13" lengthAdjust="spacing" textLength="116.2721" x="769" y="535.125">commit read offset</text><text fill="#000000" font-family="sans-serif" font-size="13" lengthAdjust="spacing" textLength="246.9222" x="769" y="552.831">if it fails idempotency check will ignore it</text><path d="M9,594.6401 L251.7821,594.6401 L251.7821,604.3461 L241.7821,614.3461 L9,614.3461 L9,594.6401" fill="#EEEEEE" style="stroke:#000000;stroke-width:1.5;"/><rect fill="none" height="617.1203" style="stroke:#000000;stroke-width:1.5;" width="827.8262" x="9" y="594.6401"/><text fill="#000000" font-family="sans-serif" font-size="13" font-weight="bold" lengthAdjust="spacing" textLength="197.7821" x="24" y="609.5371">listener on DB `inbox_channel`</text><g class="message" data-entity-1="part1" data-entity-2="part2" id="msg11"><polygon fill="#181818" points="131.8657,640.0521,121.8657,644.0521,131.8657,648.0521,127.8657,644.0521" style="stroke:#181818;stroke-width:1;"/><polygon fill="#181818" points="338.7699,640.0521,348.7699,644.0521,338.7699,648.0521,342.7699,644.0521" style="stroke:#181818;stroke-width:1;"/><line style="stroke:#181818;stroke-width:1;stroke-dasharray:2,2;" x1="125.8657" x2="344.7699" y1="644.0521" y2="644.0521"/><text fill="#000000" font-family="sans-serif" font-size="13" lengthAdjust="spacing" textLength="72.8781" x="199.3788" y="638.2431">listen/notify</text></g><path d="M19,619.3461 L19,646.3461 L115,646.3461 L115,629.3461 L105,619.3461 L19,619.3461" fill="#FEFFDD" style="stroke:#181818;stroke-width:0.5;"/><path d="M105,619.3461 L105,629.3461 L115,629.3461 L105,619.3461" fill="#FEFFDD" style="stroke:#181818;stroke-width:0.5;"/><text fill="#000000" font-family="sans-serif" font-size="13" lengthAdjust="spacing" textLength="75.4651" x="25" y="638.2431">manual CDC</text><path d="M355,619.3461 L355,646.3461 L682,646.3461 L682,629.3461 L672,619.3461 L355,619.3461" fill="#FEFFDD" style="stroke:#181818;stroke-width:0.5;"/><path d="M672,619.3461 L672,629.3461 L682,629.3461 L672,619.3461" fill="#FEFFDD" style="stroke:#181818;stroke-width:0.5;"/><text fill="#000000" font-family="sans-serif" font-size="13" lengthAdjust="spacing" textLength="61.3861" x="361" y="638.2431">trigger on</text><text fill="#000000" font-family="sans-serif" font-size="13" font-weight="bold" lengthAdjust="spacing" textLength="78.195" x="425.7661" y="638.2431">inbox.insert</text><text fill="#000000" font-family="sans-serif" font-size="13" lengthAdjust="spacing" textLength="63.1411" x="507.3411" y="638.2431">that notify</text><text fill="#000000" font-family="sans-serif" font-size="13" font-weight="bold" lengthAdjust="spacing" textLength="93.444" x="573.8622" y="638.2431">inbox_channel</text><g class="message" data-entity-1="part1" data-entity-2="part1" id="msg13"><line style="stroke:#181818;stroke-width:1;stroke-dasharray:2,2;" x1="120.8657" x2="162.8657" y1="675.7581" y2="675.7581"/><line style="stroke:#181818;stroke-width:1;stroke-dasharray:2,2;" x1="162.8657" x2="162.8657" y1="675.7581" y2="688.7581"/><line style="stroke:#181818;stroke-width:1;stroke-dasharray:2,2;" x1="121.8657" x2="162.8657" y1="688.7581" y2="688.7581"/><polygon fill="#181818" points="131.8657,684.7581,121.8657,688.7581,131.8657,692.7581,127.8657,688.7581" style="stroke:#181818;stroke-width:1;"/><text fill="#000000" font-family="sans-serif" font-size="13" lengthAdjust="spacing" textLength="138.5801" x="127.8657" y="669.9491">trigger process service</text></g><path d="M29,703.7581 L102.288,703.7581 L102.288,713.4641 L92.288,723.4641 L29,723.4641 L29,703.7581" fill="#EEEEEE" style="stroke:#000000;stroke-width:1.5;"/><rect fill="none" height="501.0023" style="stroke:#000000;stroke-width:1.5;" width="797.8262" x="29" y="703.7581"/><text fill="#000000" font-family="sans-serif" font-size="13" font-weight="bold" lengthAdjust="spacing" textLength="28.288" x="44" y="718.6551">loop</text><text fill="#000000" font-family="sans-serif" font-size="11" font-weight="bold" lengthAdjust="spacing" textLength="221.7034" x="117.288" y="717.517">[until no unprocessed inbox is retrieved]</text><path d="M71,728.4641 L71,755.4641 L806,755.4641 L806,738.4641 L796,728.4641 L71,728.4641" fill="#FEFFDD" style="stroke:#181818;stroke-width:0.5;"/><path d="M796,728.4641 L796,738.4641 L806,738.4641 L796,728.4641" fill="#FEFFDD" style="stroke:#181818;stroke-width:0.5;"/><text fill="#000000" font-family="sans-serif" font-size="13" lengthAdjust="spacing" textLength="458.3283" x="205.2489" y="747.3611">keep processing unprocessed inbox messages until none is left then sleeps</text><path d="M39,768.1701 L170.944,768.1701 L170.944,777.8762 L160.944,787.8762 L39,787.8762 L39,768.1701" fill="#EEEEEE" style="stroke:#000000;stroke-width:1.5;"/><rect fill="none" height="429.5902" style="stroke:#000000;stroke-width:1.5;" width="777.8262" x="39" y="768.1701"/><text fill="#000000" font-family="sans-serif" font-size="13" font-weight="bold" lengthAdjust="spacing" textLength="86.944" x="54" y="783.0671">transactional</text><path d="M71,792.8762 L71,855.8762 L806,855.8762 L806,802.8762 L796,792.8762 L71,792.8762" fill="#FEFFDD" style="stroke:#181818;stroke-width:0.5;"/><path d="M796,792.8762 L796,802.8762 L806,802.8762 L796,792.8762" fill="#FEFFDD" style="stroke:#181818;stroke-width:0.5;"/><text fill="#000000" font-family="sans-serif" font-size="13" lengthAdjust="spacing" textLength="406.1593" x="231.3334" y="811.7732">transaction here to lock current batch in DB in case of concurrency</text><text fill="#000000" font-family="sans-serif" font-size="13" lengthAdjust="spacing" textLength="212.0692" x="231.3334" y="829.4792">any concurrent will pick next batch</text><text fill="#000000" font-family="sans-serif" font-size="13" lengthAdjust="spacing" textLength="262.5482" x="231.3334" y="847.1852">and make inbox/processing/outbox atomic</text><g class="message" data-entity-1="part1" data-entity-2="part2" id="msg14"><polygon fill="#181818" points="338.7699,901.4062,348.7699,905.4062,338.7699,909.4062,342.7699,905.4062" style="stroke:#181818;stroke-width:1;"/><line style="stroke:#181818;stroke-width:1;stroke-dasharray:2,2;" x1="120.8657" x2="344.7699" y1="905.4062" y2="905.4062"/><text fill="#000000" font-family="sans-serif" font-size="13" lengthAdjust="spacing" textLength="177.1902" x="147.2227" y="899.5972">get unprocessed inbox batch</text></g><path d="M355,865.9942 L355,928.9942 L685,928.9942 L685,875.9942 L675,865.9942 L355,865.9942" fill="#FEFFDD" style="stroke:#181818;stroke-width:0.5;"/><path d="M675,865.9942 L675,875.9942 L685,875.9942 L675,865.9942" fill="#FEFFDD" style="stroke:#181818;stroke-width:0.5;"/><text fill="#000000" font-family="sans-serif" font-size="13" font-weight="bold" lengthAdjust="spacing" textLength="126.6331" x="361" y="884.8912">processedAt == null</text><text fill="#000000" font-family="sans-serif" font-size="13" lengthAdjust="spacing" textLength="309.9593" x="361" y="902.5972">will lock current batch in DB in case of concurrency</text><text fill="#000000" font-family="sans-serif" font-size="13" lengthAdjust="spacing" textLength="212.0692" x="361" y="920.3032">any concurrent will pick next batch</text><g class="message" data-entity-1="part2" data-entity-2="part1" id="msg16"><polygon fill="#181818" points="131.8657,953.8183,121.8657,957.8183,131.8657,961.8183,127.8657,957.8183" style="stroke:#181818;stroke-width:1;"/><line style="stroke:#181818;stroke-width:1;stroke-dasharray:2,2;" x1="125.8657" x2="349.7699" y1="957.8183" y2="957.8183"/><text fill="#000000" font-family="sans-serif" font-size="13" lengthAdjust="spacing" textLength="71.7601" x="199.9378" y="952.0093">inbox batch</text></g><g class="message" data-entity-1="part1" data-entity-2="part1" id="msg17"><line style="stroke:#181818;stroke-width:1;stroke-dasharray:2,2;" x1="120.8657" x2="162.8657" y1="1003.7303" y2="1003.7303"/><line style="stroke:#181818;stroke-width:1;stroke-dasharray:2,2;" x1="162.8657" x2="162.8657" y1="1003.7303" y2="1016.7303"/><line style="stroke:#181818;stroke-width:1;stroke-dasharray:2,2;" x1="121.8657" x2="162.8657" y1="1016.7303" y2="1016.7303"/><polygon fill="#181818" points="131.8657,1012.7303,121.8657,1016.7303,131.8657,1020.7303,127.8657,1016.7303" style="stroke:#181818;stroke-width:1;"/><text fill="#000000" font-family="sans-serif" font-size="13" lengthAdjust="spacing" textLength="84.8901" x="127.8657" y="997.9213">process batch</text></g><path d="M223.8901,970.8183 L223.8901,1033.8183 L500.8901,1033.8183 L500.8901,980.8183 L490.8901,970.8183 L223.8901,970.8183" fill="#FEFFDD" style="stroke:#181818;stroke-width:0.5;"/><path d="M490.8901,970.8183 L490.8901,980.8183 L500.8901,980.8183 L490.8901,970.8183" fill="#FEFFDD" style="stroke:#181818;stroke-width:0.5;"/><text fill="#000000" font-family="sans-serif" font-size="13" font-weight="bold" lengthAdjust="spacing" textLength="123.7991" x="229.8901" y="989.7153">business logic here</text><text fill="#000000" font-family="sans-serif" font-size="13" lengthAdjust="spacing" textLength="256.7892" x="229.8901" y="1007.4213">for demo: randomly accept or reject order</text><text fill="#000000" font-family="sans-serif" font-size="13" lengthAdjust="spacing" textLength="157.9501" x="229.8901" y="1025.1273">(accepted/rejected status)</text><g class="message" data-entity-1="part1" data-entity-2="part2" id="msg19"><polygon fill="#181818" points="338.7699,1061.6423,348.7699,1065.6423,338.7699,1069.6423,342.7699,1065.6423" style="stroke:#181818;stroke-width:1;"/><line style="stroke:#181818;stroke-width:1;stroke-dasharray:2,2;" x1="120.8657" x2="344.7699" y1="1065.6423" y2="1065.6423"/><text fill="#000000" font-family="sans-serif" font-size="13" lengthAdjust="spacing" textLength="143.6111" x="164.0123" y="1059.8333">flag batch as processed</text></g><path d="M355,1043.9363 L355,1070.9363 L473,1070.9363 L473,1053.9363 L463,1043.9363 L355,1043.9363" fill="#FEFFDD" style="stroke:#181818;stroke-width:0.5;"/><path d="M463,1043.9363 L463,1053.9363 L473,1053.9363 L463,1043.9363" fill="#FEFFDD" style="stroke:#181818;stroke-width:0.5;"/><text fill="#000000" font-family="sans-serif" font-size="13" lengthAdjust="spacing" textLength="97.2141" x="361" y="1062.8333">set processedAt</text><g class="message" data-entity-1="part1" data-entity-2="part1" id="msg21"><line style="stroke:#181818;stroke-width:1;stroke-dasharray:2,2;" x1="120.8657" x2="162.8657" y1="1100.3484" y2="1100.3484"/><line style="stroke:#181818;stroke-width:1;stroke-dasharray:2,2;" x1="162.8657" x2="162.8657" y1="1100.3484" y2="1113.3484"/><line style="stroke:#181818;stroke-width:1;stroke-dasharray:2,2;" x1="121.8657" x2="162.8657" y1="1113.3484" y2="1113.3484"/><polygon fill="#181818" points="131.8657,1109.3484,121.8657,1113.3484,131.8657,1117.3484,127.8657,1113.3484" style="stroke:#181818;stroke-width:1;"/><text fill="#000000" font-family="sans-serif" font-size="13" lengthAdjust="spacing" textLength="38.259" x="127.8657" y="1094.5393">create</text><text fill="#000000" font-family="sans-serif" font-size="13" font-weight="bold" lengthAdjust="spacing" textLength="136.6301" x="169.5047" y="1094.5393">order decided events</text><text fill="#000000" font-family="sans-serif" font-size="13" lengthAdjust="spacing" textLength="34.255" x="309.5149" y="1094.5393">batch</text></g><g class="message" data-entity-1="part1" data-entity-2="part1" id="msg22"><line style="stroke:#181818;stroke-width:1;stroke-dasharray:2,2;" x1="120.8657" x2="162.8657" y1="1145.0544" y2="1145.0544"/><line style="stroke:#181818;stroke-width:1;stroke-dasharray:2,2;" x1="162.8657" x2="162.8657" y1="1145.0544" y2="1158.0544"/><line style="stroke:#181818;stroke-width:1;stroke-dasharray:2,2;" x1="121.8657" x2="162.8657" y1="1158.0544" y2="1158.0544"/><polygon fill="#181818" points="131.8657,1154.0544,121.8657,1158.0544,131.8657,1162.0544,127.8657,1158.0544" style="stroke:#181818;stroke-width:1;"/><text fill="#000000" font-family="sans-serif" font-size="13" lengthAdjust="spacing" textLength="122.6031" x="127.8657" y="1139.2454">create outbox batch</text></g><path d="M261.6031,1129.8484 L261.6031,1156.8484 L532.6031,1156.8484 L532.6031,1139.8484 L522.6031,1129.8484 L261.6031,1129.8484" fill="#FEFFDD" style="stroke:#181818;stroke-width:0.5;"/><path d="M522.6031,1129.8484 L522.6031,1139.8484 L532.6031,1139.8484 L522.6031,1129.8484" fill="#FEFFDD" style="stroke:#181818;stroke-width:0.5;"/><text fill="#000000" font-family="sans-serif" font-size="13" lengthAdjust="spacing" textLength="250.6532" x="267.6031" y="1148.7454">accepted/rejected status determine topic</text><g class="message" data-entity-1="part1" data-entity-2="part2" id="msg24"><polygon fill="#181818" points="338.7699,1185.7604,348.7699,1189.7604,338.7699,1193.7604,342.7699,1189.7604" style="stroke:#181818;stroke-width:1;"/><line style="stroke:#181818;stroke-width:1;stroke-dasharray:2,2;" x1="120.8657" x2="344.7699" y1="1189.7604" y2="1189.7604"/><text fill="#000000" font-family="sans-serif" font-size="13" lengthAdjust="spacing" textLength="115.8301" x="177.9028" y="1183.9514">store outbox batch</text></g><path d="M61,1225.7604 L169.44,1225.7604 L169.44,1235.4664 L159.44,1245.4664 L61,1245.4664 L61,1225.7604" fill="#EEEEEE" style="stroke:#000000;stroke-width:1.5;"/><rect fill="none" height="279.3541" style="stroke:#000000;stroke-width:1.5;" width="940.0064" x="61" y="1225.7604"/><text fill="#000000" font-family="sans-serif" font-size="13" font-weight="bold" lengthAdjust="spacing" textLength="63.44" x="76" y="1240.6574">debezium</text><path d="M71,1250.4664 L71,1277.4664 L806,1277.4664 L806,1260.4664 L796,1250.4664 L71,1250.4664" fill="#FEFFDD" style="stroke:#181818;stroke-width:0.5;"/><path d="M796,1250.4664 L796,1260.4664 L806,1260.4664 L796,1250.4664" fill="#FEFFDD" style="stroke:#181818;stroke-width:0.5;"/><text fill="#000000" font-family="sans-serif" font-size="13" lengthAdjust="spacing" textLength="212.7062" x="328.06" y="1269.3634">automatic CDC and outbox publish</text><g class="message" data-entity-1="part3" data-entity-2="part2" id="msg25"><polygon fill="#181818" points="361.7699,1302.8784,351.7699,1306.8784,361.7699,1310.8784,357.7699,1306.8784" style="stroke:#181818;stroke-width:1;"/><line style="stroke:#181818;stroke-width:1;stroke-dasharray:2,2;" x1="355.7699" x2="498.778" y1="1306.8784" y2="1306.8784"/><text fill="#000000" font-family="sans-serif" font-size="13" lengthAdjust="spacing" textLength="125.0081" x="362.7699" y="1301.0694">open replication slot</text></g><path d="M229,1321.8784 L302.288,1321.8784 L302.288,1331.5844 L292.288,1341.5844 L229,1341.5844 L229,1321.8784" fill="#EEEEEE" style="stroke:#000000;stroke-width:1.5;"/><rect fill="none" height="176.2361" style="stroke:#000000;stroke-width:1.5;" width="762.0064" x="229" y="1321.8784"/><text fill="#000000" font-family="sans-serif" font-size="13" font-weight="bold" lengthAdjust="spacing" textLength="28.288" x="244" y="1336.7754">loop</text><g class="message" data-entity-1="part2" data-entity-2="part3" id="msg26"><polygon fill="#181818" points="487.778,1361.2905,497.778,1365.2905,487.778,1369.2905,491.778,1365.2905" style="stroke:#181818;stroke-width:1;"/><line style="stroke:#181818;stroke-width:1;stroke-dasharray:2,2;" x1="350.7699" x2="493.778" y1="1365.2905" y2="1365.2905"/><text fill="#000000" font-family="sans-serif" font-size="13" lengthAdjust="spacing" textLength="118.5341" x="366.0069" y="1359.4815">outbox inserts WAL</text></g><g class="message" data-entity-1="part3" data-entity-2="part3" id="msg27"><line style="stroke:#181818;stroke-width:1;stroke-dasharray:2,2;" x1="499.778" x2="541.778" y1="1402.3495" y2="1402.3495"/><line style="stroke:#181818;stroke-width:1;stroke-dasharray:2,2;" x1="541.778" x2="541.778" y1="1402.3495" y2="1415.3495"/><line style="stroke:#181818;stroke-width:1;stroke-dasharray:2,2;" x1="500.778" x2="541.778" y1="1415.3495" y2="1415.3495"/><polygon fill="#181818" points="510.778,1411.3495,500.778,1415.3495,510.778,1419.3495,506.778,1415.3495" style="stroke:#181818;stroke-width:1;"/><text fill="#000000" font-family="sans-serif" font-size="13" lengthAdjust="spacing" textLength="159.7961" x="506.778" y="1396.5405">extract payload + route by</text><text fill="#000000" font-family="sans-serif" font-size="13" font-weight="bold" lengthAdjust="spacing" textLength="32.565" x="669.9542" y="1396.5405">topic</text><text fill="#000000" font-family="sans-serif" font-size="13" lengthAdjust="spacing" textLength="45.6821" x="705.8992" y="1396.5405">column</text></g><path d="M239,1378.2905 L239,1423.2905 L494,1423.2905 L494,1388.2905 L484,1378.2905 L239,1378.2905" fill="#FEFFDD" style="stroke:#181818;stroke-width:0.5;"/><path d="M484,1378.2905 L484,1388.2905 L494,1388.2905 L484,1378.2905" fill="#FEFFDD" style="stroke:#181818;stroke-width:0.5;"/><text fill="#000000" font-family="sans-serif" font-size="13" lengthAdjust="spacing" textLength="122.7461" x="245" y="1397.1875">outbox event router</text><text fill="#000000" font-family="sans-serif" font-size="13" lengthAdjust="spacing" textLength="234.4032" x="245" y="1414.8935">row carries topic decision from service</text><g class="message" data-entity-1="part3" data-entity-2="part4" id="msg29"><polygon fill="#181818" points="746.5812,1451.4085,756.5812,1455.4085,746.5812,1459.4085,750.5812,1455.4085" style="stroke:#181818;stroke-width:1;"/><line style="stroke:#181818;stroke-width:1;stroke-dasharray:2,2;" x1="499.778" x2="752.5812" y1="1455.4085" y2="1455.4085"/><text fill="#000000" font-family="sans-serif" font-size="13" lengthAdjust="spacing" textLength="44.9931" x="606.6831" y="1449.5995">publish</text></g><path d="M763,1433.7025 L763,1460.7025 L975,1460.7025 L975,1443.7025 L965,1433.7025 L763,1433.7025" fill="#FEFFDD" style="stroke:#181818;stroke-width:0.5;"/><path d="M965,1433.7025 L965,1443.7025 L975,1443.7025 L965,1433.7025" fill="#FEFFDD" style="stroke:#181818;stroke-width:0.5;"/><text fill="#000000" font-family="sans-serif" font-size="13" lengthAdjust="spacing" textLength="191.4252" x="769" y="1452.5995">order.[accepted|rejected] topic</text><g class="message" data-entity-1="part3" data-entity-2="part2" id="msg31"><polygon fill="#181818" points="361.7699,1486.1145,351.7699,1490.1145,361.7699,1494.1145,357.7699,1490.1145" style="stroke:#181818;stroke-width:1;"/><line style="stroke:#181818;stroke-width:1;stroke-dasharray:2,2;" x1="355.7699" x2="498.778" y1="1490.1145" y2="1490.1145"/><text fill="#000000" font-family="sans-serif" font-size="13" lengthAdjust="spacing" textLength="115.4921" x="367.5279" y="1484.3055">commit WAL offset</text></g><path d="M39,1519.1145 L267.3652,1519.1145 L267.3652,1528.8205 L257.3652,1538.8205 L39,1538.8205 L39,1519.1145" fill="#EEEEEE" style="stroke:#000000;stroke-width:1.5;"/><rect fill="none" height="102.118" style="stroke:#000000;stroke-width:1.5;" width="777.8262" x="39" y="1519.1145"/><text fill="#000000" font-family="sans-serif" font-size="13" font-weight="bold" lengthAdjust="spacing" textLength="183.3652" x="54" y="1534.0115">low freq rescue periodic poll</text><path d="M71,1543.8205 L71,1570.8205 L806,1570.8205 L806,1553.8205 L796,1543.8205 L71,1543.8205" fill="#FEFFDD" style="stroke:#181818;stroke-width:0.5;"/><path d="M796,1543.8205 L796,1553.8205 L806,1553.8205 L796,1543.8205" fill="#FEFFDD" style="stroke:#181818;stroke-width:0.5;"/><text fill="#000000" font-family="sans-serif" font-size="13" lengthAdjust="spacing" textLength="162.9291" x="352.9485" y="1562.7176">rescue in case listener fails</text><g class="message" data-entity-1="part1" data-entity-2="part1" id="msg32"><line style="stroke:#181818;stroke-width:1;stroke-dasharray:2,2;" x1="120.8657" x2="162.8657" y1="1600.2326" y2="1600.2326"/><line style="stroke:#181818;stroke-width:1;stroke-dasharray:2,2;" x1="162.8657" x2="162.8657" y1="1600.2326" y2="1613.2326"/><line style="stroke:#181818;stroke-width:1;stroke-dasharray:2,2;" x1="121.8657" x2="162.8657" y1="1613.2326" y2="1613.2326"/><polygon fill="#181818" points="131.8657,1609.2326,121.8657,1613.2326,131.8657,1617.2326,127.8657,1613.2326" style="stroke:#181818;stroke-width:1;"/><text fill="#000000" font-family="sans-serif" font-size="13" lengthAdjust="spacing" textLength="138.5801" x="127.8657" y="1594.4236">trigger process service</text></g><?plantuml-src nLRRZjis47tNLynZgo9PvDLe2jXh5rYusG99cg3E1WbDZMnsAL8XgKqSvEDxIDtMjztqeOW1sm8vF7FcmZFojyhKmecAF7zgs4X-mTwB3K-rsXYIR0AxB9FM16SrNLs_MLo__lFbtnzUBLw-kRfSaF3KFMQ5268jFDDy-dewcxvAc_FPS7Y-c2rMLt-zYCkh3DuQfkNqz-KqBYopJ5jRPuIFiO59I6Uzdz0ruRnid0CLqie7DkmcbEVFg6P781zKKDRaUJhRythov3TQJhe3QMUPrhhzIKJrJSN4Tm1E1Xjdcvg24yOB6I65Jkj7b5J1LOq58tSajonl8nrhzAu7BGYKkMDqo6e-cr311LojTwttgs8mdC_sMJhsDJ1vC10waC4fD_fQSsdTQ77eRupOiK0KogpjbxFMaPqNTu-P8RNJo-NUTagHKvjjYCcjAXN0NY0LPUavt1XL4fPAeRG_pY1zLbeJMWwHm6m0Per-4Ze2ZTdzyQnCoo7-ns_MjaxVdQX-BEJ7bC8FSYkCOVrnhpr_xNFTdha0JLNknkxNN89m9KmZD5tEBxF3M0B-DwshF4-EdYhqYGjvJc4h0hM8_MRFuiGj6VgZXwoTbH01A8AxKx9jh7WtgJ51QG3ZeRD1zoLuKXvf1G0wipXzQMwPwnvQcSq9ZAfL7Z_uCHnnOoeG4Xlo6XX-W7_elXwvlsT6MqOvWqLGA74lBMiHv1PCOkNmAwEGsN8K7xcxCSBixgjHwevQ0SJmbmuX6XKet6rtWox6a2zi4sAS8jXAoGTlu8R3YGGb1sUxEyy7-scWvy_9D1hrlZ69vlyHwnwLG-KwH_baw_KjzrY4wmQ9Z8RQRfHCXOmHGlyWgPM5NYBxje8I2ocv3eGDn_-mZ4y5knlpKxl1nKMxZkJw84BZVtwm8AKMcovj65P3eizIXRRGlN9yjpXZZaIUY4P2ZOfsFdZSwUzCP0VJTTh3wJoN2JZ7qA-GQ5oI-f5EzI5guqb_PrIou3L_LKrrFEf5WviX0WeBnQDuZphSkbb39rlarU3Qrj04nxLMKgHxxRKDWreTZjJLf4ThTTBJs-aVWz6gjq5pEyW4tYjssc9E_48W3OxhAAKf7IY6jBgfpBxEjOhTkKXbQq-YvvpzZ3lce8w-pMWghu-KIsUhFQ4ToM2OtO_xi7gfJvw-wuluhI_Y-uEYZVdgnX_2xgRVoHa6hgNZJ_7DG-853UzOoXQWN5kjZqlMMVKYCap0D53_-wW1aNy1?></g></svg>