<?plantuml 1.2026.2?><svg xmlns="http://www.w3.org/2000/svg" xmlns:xlink="http://www.w3.org/1999/xlink" contentStyleType="text/css" data-diagram-type="DESCRIPTION" height="605px" preserveAspectRatio="none" style="width:1307px;height:605px;background:#FFFFFF;" version="1.1" viewBox="0 0 1307 605" width="1307px" zoomAndPan="magnify"><defs/><g><!--cluster isolation--><g class="cluster" data-qualified-name="isolation" data-source-line="7" id="ent0002"><path d="M270.3453,51.0453 C289.4417,20.5235 315.8584,23.1569 336.1821,49.6276 C360.2487,16.7913 388.4443,7.6487 414.357,47.6461 C432.4987,18.5838 459.0725,13.4652 477.9179,46.9308 C497.0566,12.8303 527.37,19.1346 543.6913,49.7923 C568.8841,15.5977 596.2166,18.3193 618.3048,53.1483 C637.4776,15.4946 662.8263,17.4111 687.6592,47.3397 C708.0249,9.6918 744.7956,10.8051 763.7549,48.7554 C781.4744,18.5058 810.1083,10.1972 833.0593,43.0056 C860.3491,13.0272 883.3821,12.6497 901.5755,51.996 C921.2161,20.893 939.3181,27.0785 960.3248,50.5247 C980.3939,10.7114 1018.0944,12.5058 1042.2824,45.9143 C1060.9366,18.1798 1086.4514,22.0994 1101.6215,49.6538 C1125.0576,10.5619 1156.4686,6 1180.8631,48.7256 C1203.8592,20.4459 1224.2003,20.709 1245.5,50.6103 C1248.2237,51.4357 1248.7142,53.2529 1246.5537,55.1997 C1292.4699,74.7927 1294.9131,114.3414 1255.9084,142.984 C1292.0818,165.1479 1292.2549,187.1657 1259.2987,212.6917 C1300.857,236.4537 1298.6735,269.3336 1260.4679,294.2392 C1300.5659,324.4748 1294.7023,352.8676 1257.0975,380.0512 C1296.9296,411.2369 1290.0642,441.4386 1251.4629,467.575 C1281.849,492.4289 1272.6075,529.7516 1238.5,543.6103 C1243.5369,541.9136 1246.4614,542.6917 1246.6535,548.7223 C1226.9988,581.6752 1195.453,579.2937 1179.0253,545.455 C1164.6242,584.9186 1131.1272,586.2287 1105.171,558.0761 C1083.4528,593.7332 1057.4261,595.0717 1035.6213,558.159 C1005.5769,587.8981 983.0149,587.0367 961.358,548.9724 C947.7771,586.8627 919.7604,588.6075 893.9946,561.6252 C874.2531,589.6838 850.0429,593.9462 831.9295,559.9956 C809.1526,598.1974 777.6032,595.5647 755.1134,559.6979 C733.5119,587.5626 709.7548,584.7609 691.6398,555.8033 C666.0465,590.2202 637.4354,597.1947 612.6927,554.9276 C599.276,580.0187 572.9894,585.1321 554.9494,560.2722 C531.2706,585.5999 498.4749,580.6631 485.1674,547.8289 C459.9877,583.0141 432.147,582.9984 407.4362,547.3146 C390.2411,576.2983 371.7587,580.9955 346.1264,557.0963 C307.8711,594.2936 276.3419,583.3993 257.5,536.6103 C262.5105,532.7776 267.6217,535.1968 268.1348,541.3839 C236.0922,520.8931 233.5426,489.739 264.7431,466.3881 C220.4127,443.4498 229.8899,409.9516 262.3263,384.7411 C213.7841,359.891 217.2312,330.7854 255.427,298.9591 C219.2287,276.8244 220.9835,240.7113 258.3995,221.3977 C216.9849,190.9396 222.9747,161.4366 265.7886,138.4848 C222.3046,112.7943 218.1846,70.5205 264.5,43.6103 C269.575,42.9528 272.4121,46.088 270.3453,51.0453" fill="none" style="stroke:#181818;stroke-width:1;"/><text fill="#000000" font-family="sans-serif" font-size="14" font-weight="bold" lengthAdjust="spacing" textLength="60.8298" x="721.0851" y="63.5762">isolation</text></g><!--cluster N1--><g class="cluster" data-qualified-name="isolation.N1" data-source-line="8" id="ent0003"><rect fill="none" height="211" rx="2.5" ry="2.5" style="stroke:#181818;stroke-width:1;" width="466" x="518.5" y="316.6103"/><text fill="#000000" font-family="sans-serif" font-size="14" font-weight="bold" lengthAdjust="spacing" textLength="46.6478" x="728.1761" y="333.5762">node 1</text><text fill="#000000" font-family="sans-serif" font-size="14" font-weight="bold" lengthAdjust="spacing" textLength="147.8254" x="677.5873" y="352.6441">&lt;controller + broker&gt;</text></g><!--cluster T1N1--><g class="cluster" data-qualified-name="isolation.N1.T1N1" data-source-line="9" id="ent0004"><rect fill="none" height="122" rx="2.5" ry="2.5" style="stroke:#181818;stroke-width:1;" width="418" x="542.5" y="381.6103"/><text fill="#000000" font-family="sans-serif" font-size="14" font-weight="bold" lengthAdjust="spacing" textLength="48.0478" x="727.4761" y="398.5762">topic X</text></g><!--cluster N2--><g class="cluster" data-qualified-name="isolation.N2" data-source-line="16" id="ent0008"><rect fill="none" height="211" rx="2.5" ry="2.5" style="stroke:#181818;stroke-width:1;" width="466" x="763.5" y="81.6103"/><text fill="#000000" font-family="sans-serif" font-size="14" font-weight="bold" lengthAdjust="spacing" textLength="46.6478" x="973.1761" y="98.5762">node 2</text><text fill="#000000" font-family="sans-serif" font-size="14" font-weight="bold" lengthAdjust="spacing" textLength="147.8254" x="922.5873" y="117.6441">&lt;controller + broker&gt;</text></g><!--cluster T1N2--><g class="cluster" data-qualified-name="isolation.N2.T1N2" data-source-line="17" id="ent0009"><rect fill="none" height="122" rx="2.5" ry="2.5" style="stroke:#181818;stroke-width:1;" width="418" x="787.5" y="146.6103"/><text fill="#000000" font-family="sans-serif" font-size="14" font-weight="bold" lengthAdjust="spacing" textLength="48.0478" x="972.4761" y="163.5762">topic X</text></g><!--cluster N3--><g class="cluster" data-qualified-name="isolation.N3" data-source-line="24" id="ent0013"><rect fill="none" height="211" rx="2.5" ry="2.5" style="stroke:#181818;stroke-width:1;" width="466" x="273.5" y="81.6103"/><text fill="#000000" font-family="sans-serif" font-size="14" font-weight="bold" lengthAdjust="spacing" textLength="46.6478" x="483.1761" y="98.5762">node 3</text><text fill="#000000" font-family="sans-serif" font-size="14" font-weight="bold" lengthAdjust="spacing" textLength="147.8254" x="432.5873" y="117.6441">&lt;controller + broker&gt;</text></g><!--cluster T1N3--><g class="cluster" data-qualified-name="isolation.N3.T1N3" data-source-line="25" id="ent0014"><rect fill="none" height="122" rx="2.5" ry="2.5" style="stroke:#181818;stroke-width:1;" width="418" x="297.5" y="146.6103"/><text fill="#000000" font-family="sans-serif" font-size="14" font-weight="bold" lengthAdjust="spacing" textLength="48.0478" x="482.4761" y="163.5762">topic X</text></g><!--entity N1P1--><g class="entity" data-qualified-name="isolation.N1.T1N1.N1P1" data-source-line="10" id="ent0005"><rect fill="#008000" height="68.1358" rx="2.5" ry="2.5" style="stroke:#181818;stroke-width:0.5;" width="104.7078" x="699" y="419.6103"/><rect fill="#008000" height="10" style="stroke:#181818;stroke-width:0.5;" width="15" x="783.7078" y="424.6103"/><rect fill="#008000" height="2" style="stroke:#181818;stroke-width:0.5;" width="4" x="781.7078" y="426.6103"/><rect fill="#008000" height="2" style="stroke:#181818;stroke-width:0.5;" width="4" x="781.7078" y="430.6103"/><text fill="#000000" font-family="sans-serif" font-size="14" font-style="italic" lengthAdjust="spacing" textLength="52.5698" x="720.069" y="454.5762">&#171;leader&#187;</text><text fill="#000000" font-family="sans-serif" font-size="14" lengthAdjust="spacing" textLength="64.7078" x="714" y="473.6441">partition1</text></g><!--entity N1P2--><g class="entity" data-qualified-name="isolation.N1.T1N1.N1P2" data-source-line="11" id="ent0006"><rect fill="#F1F1F1" height="68.1358" rx="2.5" ry="2.5" style="stroke:#181818;stroke-width:0.5;" width="104.7078" x="839" y="419.6103"/><rect fill="#F1F1F1" height="10" style="stroke:#181818;stroke-width:0.5;" width="15" x="923.7078" y="424.6103"/><rect fill="#F1F1F1" height="2" style="stroke:#181818;stroke-width:0.5;" width="4" x="921.7078" y="426.6103"/><rect fill="#F1F1F1" height="2" style="stroke:#181818;stroke-width:0.5;" width="4" x="921.7078" y="430.6103"/><text fill="#000000" font-family="sans-serif" font-size="14" font-style="italic" lengthAdjust="spacing" textLength="55.5378" x="858.585" y="454.5762">&#171;replica&#187;</text><text fill="#000000" font-family="sans-serif" font-size="14" lengthAdjust="spacing" textLength="64.7078" x="854" y="473.6441">partition2</text></g><!--entity N1P3--><g class="entity" data-qualified-name="isolation.N1.T1N1.N1P3" data-source-line="12" id="ent0007"><rect fill="#F1F1F1" height="68.1358" rx="2.5" ry="2.5" style="stroke:#181818;stroke-width:0.5;" width="104.7078" x="559" y="419.6103"/><rect fill="#F1F1F1" height="10" style="stroke:#181818;stroke-width:0.5;" width="15" x="643.7078" y="424.6103"/><rect fill="#F1F1F1" height="2" style="stroke:#181818;stroke-width:0.5;" width="4" x="641.7078" y="426.6103"/><rect fill="#F1F1F1" height="2" style="stroke:#181818;stroke-width:0.5;" width="4" x="641.7078" y="430.6103"/><text fill="#000000" font-family="sans-serif" font-size="14" font-style="italic" lengthAdjust="spacing" textLength="55.5378" x="578.585" y="454.5762">&#171;replica&#187;</text><text fill="#000000" font-family="sans-serif" font-size="14" lengthAdjust="spacing" textLength="64.7078" x="574" y="473.6441">partition3</text></g><!--entity N2P1--><g class="entity" data-qualified-name="isolation.N2.T1N2.N2P1" data-source-line="18" id="ent0010"><rect fill="#F1F1F1" height="68.1358" rx="2.5" ry="2.5" style="stroke:#181818;stroke-width:0.5;" width="104.7078" x="944" y="184.6103"/><rect fill="#F1F1F1" height="10" style="stroke:#181818;stroke-width:0.5;" width="15" x="1028.7078" y="189.6103"/><rect fill="#F1F1F1" height="2" style="stroke:#181818;stroke-width:0.5;" width="4" x="1026.7078" y="191.6103"/><rect fill="#F1F1F1" height="2" style="stroke:#181818;stroke-width:0.5;" width="4" x="1026.7078" y="195.6103"/><text fill="#000000" font-family="sans-serif" font-size="14" font-style="italic" lengthAdjust="spacing" textLength="55.5378" x="963.585" y="219.5762">&#171;replica&#187;</text><text fill="#000000" font-family="sans-serif" font-size="14" lengthAdjust="spacing" textLength="64.7078" x="959" y="238.6441">partition1</text></g><!--entity N2P2--><g class="entity" data-qualified-name="isolation.N2.T1N2.N2P2" data-source-line="19" id="ent0011"><rect fill="#008000" height="68.1358" rx="2.5" ry="2.5" style="stroke:#181818;stroke-width:0.5;" width="104.7078" x="1084" y="184.6103"/><rect fill="#008000" height="10" style="stroke:#181818;stroke-width:0.5;" width="15" x="1168.7078" y="189.6103"/><rect fill="#008000" height="2" style="stroke:#181818;stroke-width:0.5;" width="4" x="1166.7078" y="191.6103"/><rect fill="#008000" height="2" style="stroke:#181818;stroke-width:0.5;" width="4" x="1166.7078" y="195.6103"/><text fill="#000000" font-family="sans-serif" font-size="14" font-style="italic" lengthAdjust="spacing" textLength="52.5698" x="1105.069" y="219.5762">&#171;leader&#187;</text><text fill="#000000" font-family="sans-serif" font-size="14" lengthAdjust="spacing" textLength="64.7078" x="1099" y="238.6441">partition2</text></g><!--entity N2P3--><g class="entity" data-qualified-name="isolation.N2.T1N2.N2P3" data-source-line="20" id="ent0012"><rect fill="#F1F1F1" height="68.1358" rx="2.5" ry="2.5" style="stroke:#181818;stroke-width:0.5;" width="104.7078" x="804" y="184.6103"/><rect fill="#F1F1F1" height="10" style="stroke:#181818;stroke-width:0.5;" width="15" x="888.7078" y="189.6103"/><rect fill="#F1F1F1" height="2" style="stroke:#181818;stroke-width:0.5;" width="4" x="886.7078" y="191.6103"/><rect fill="#F1F1F1" height="2" style="stroke:#181818;stroke-width:0.5;" width="4" x="886.7078" y="195.6103"/><text fill="#000000" font-family="sans-serif" font-size="14" font-style="italic" lengthAdjust="spacing" textLength="55.5378" x="823.585" y="219.5762">&#171;replica&#187;</text><text fill="#000000" font-family="sans-serif" font-size="14" lengthAdjust="spacing" textLength="64.7078" x="819" y="238.6441">partition3</text></g><!--entity N3P1--><g class="entity" data-qualified-name="isolation.N3.T1N3.N3P1" data-source-line="26" id="ent0015"><rect fill="#F1F1F1" height="68.1358" rx="2.5" ry="2.5" style="stroke:#181818;stroke-width:0.5;" width="104.7078" x="454" y="184.6103"/><rect fill="#F1F1F1" height="10" style="stroke:#181818;stroke-width:0.5;" width="15" x="538.7078" y="189.6103"/><rect fill="#F1F1F1" height="2" style="stroke:#181818;stroke-width:0.5;" width="4" x="536.7078" y="191.6103"/><rect fill="#F1F1F1" height="2" style="stroke:#181818;stroke-width:0.5;" width="4" x="536.7078" y="195.6103"/><text fill="#000000" font-family="sans-serif" font-size="14" font-style="italic" lengthAdjust="spacing" textLength="55.5378" x="473.585" y="219.5762">&#171;replica&#187;</text><text fill="#000000" font-family="sans-serif" font-size="14" lengthAdjust="spacing" textLength="64.7078" x="469" y="238.6441">partition1</text></g><!--entity N3P2--><g class="entity" data-qualified-name="isolation.N3.T1N3.N3P2" data-source-line="27" id="ent0016"><rect fill="#F1F1F1" height="68.1358" rx="2.5" ry="2.5" style="stroke:#181818;stroke-width:0.5;" width="104.7078" x="594" y="184.6103"/><rect fill="#F1F1F1" height="10" style="stroke:#181818;stroke-width:0.5;" width="15" x="678.7078" y="189.6103"/><rect fill="#F1F1F1" height="2" style="stroke:#181818;stroke-width:0.5;" width="4" x="676.7078" y="191.6103"/><rect fill="#F1F1F1" height="2" style="stroke:#181818;stroke-width:0.5;" width="4" x="676.7078" y="195.6103"/><text fill="#000000" font-family="sans-serif" font-size="14" font-style="italic" lengthAdjust="spacing" textLength="55.5378" x="613.585" y="219.5762">&#171;replica&#187;</text><text fill="#000000" font-family="sans-serif" font-size="14" lengthAdjust="spacing" textLength="64.7078" x="609" y="238.6441">partition2</text></g><!--entity N3P3--><g class="entity" data-qualified-name="isolation.N3.T1N3.N3P3" data-source-line="28" id="ent0017"><rect fill="#008000" height="68.1358" rx="2.5" ry="2.5" style="stroke:#181818;stroke-width:0.5;" width="104.7078" x="314" y="184.6103"/><rect fill="#008000" height="10" style="stroke:#181818;stroke-width:0.5;" width="15" x="398.7078" y="189.6103"/><rect fill="#008000" height="2" style="stroke:#181818;stroke-width:0.5;" width="4" x="396.7078" y="191.6103"/><rect fill="#008000" height="2" style="stroke:#181818;stroke-width:0.5;" width="4" x="396.7078" y="195.6103"/><text fill="#000000" font-family="sans-serif" font-size="14" font-style="italic" lengthAdjust="spacing" textLength="52.5698" x="335.069" y="219.5762">&#171;leader&#187;</text><text fill="#000000" font-family="sans-serif" font-size="14" lengthAdjust="spacing" textLength="64.7078" x="329" y="238.6441">partition3</text></g><g class="entity" data-qualified-name="GMN24" data-source-line="43" id="ent0025"><path d="M6,151.6103 L6,285.5524 A0,0 0 0 0 6,285.5524 L233.3232,285.5524 A0,0 0 0 0 233.3232,285.5524 L233.3232,222.6103 L313.73,218.6103 L233.3232,214.6103 L233.3232,161.6103 L223.3232,151.6103 L6,151.6103 A0,0 0 0 0 6,151.6103" fill="#FEFFDD" style="stroke:#181818;stroke-width:0.5;"/><path d="M223.3232,151.6103 L223.3232,161.6103 L233.3232,161.6103 L223.3232,151.6103" fill="#FEFFDD" style="stroke:#181818;stroke-width:0.5;"/><text fill="#000000" font-family="sans-serif" font-size="13" font-weight="bold" lengthAdjust="spacing" textLength="173.5111" x="12" y="170.5073">KRaft cluster with 3 nodes:</text><text fill="#000000" font-family="sans-serif" font-size="13" lengthAdjust="spacing" textLength="206.3232" x="12" y="188.2133">- every node is controller + broker</text><text fill="#000000" font-family="sans-serif" font-size="13" lengthAdjust="spacing" textLength="133.3931" x="12" y="205.9193">- replication factor = 3</text><text fill="#000000" font-family="sans-serif" font-size="13" lengthAdjust="spacing" textLength="145.6781" x="12" y="223.6254">- partitions per topic = 3</text><text fill="#000000" font-family="sans-serif" font-size="13" lengthAdjust="spacing" textLength="148.5641" x="12" y="241.3314">- min in sync replicas = 2</text><text fill="#000000" font-family="sans-serif" font-size="13" lengthAdjust="spacing" textLength="137.1631" x="12" y="259.0374">- 1 leader per partition</text><text fill="#000000" font-family="sans-serif" font-size="13" lengthAdjust="spacing" textLength="168.9742" x="12" y="276.7434">- all nodes in same isolation</text></g><!--link N1P1 to N2P1--><g class="link" data-entity-1="ent0005" data-entity-2="ent0010" data-link-type="dependency" data-source-line="32" id="lnk18"><path d="M769,419.1703 C769,398.2803 769,375.6103 769,375.6103 C769,375.6103 996.5,375.6103 996.5,375.6103 C996.5,375.6103 996.5,304.8503 996.5,258.6803" fill="none" id="N1P1-to-N2P1" style="stroke:#181818;stroke-width:1;stroke-dasharray:7,7;"/><polygon fill="#181818" points="996.5,252.6803,992.5,261.6803,996.5,257.6803,1000.5,261.6803,996.5,252.6803" style="stroke:#181818;stroke-width:1;"/><text fill="#000000" font-family="sans-serif" font-size="13" lengthAdjust="spacing" textLength="64.8831" x="857.44" y="371.5073">replication</text></g><!--link N1P1 to N3P1--><g class="link" data-entity-1="ent0005" data-entity-2="ent0015" data-link-type="dependency" data-source-line="33" id="lnk19"><path d="M734,419.3503 C734,382.9503 734,330.6103 734,330.6103 C734,330.6103 506.5,330.6103 506.5,330.6103 C506.5,330.6103 506.5,291.7603 506.5,258.8203" fill="none" id="N1P1-to-N3P1" style="stroke:#181818;stroke-width:1;stroke-dasharray:7,7;"/><polygon fill="#181818" points="506.5,252.8203,502.5,261.8203,506.5,257.8203,510.5,261.8203,506.5,252.8203" style="stroke:#181818;stroke-width:1;"/><text fill="#000000" font-family="sans-serif" font-size="13" lengthAdjust="spacing" textLength="64.8831" x="560.72" y="326.5073">replication</text></g><!--link N2P2 to N1P2--><g class="link" data-entity-1="ent0011" data-entity-2="ent0006" data-link-type="dependency" data-source-line="35" id="lnk20"><path d="M1154,252.7803 C1154,317.9603 1154,453.6103 1154,453.6103 C1154,453.6103 1026.96,453.6103 950.31,453.6103" fill="none" id="N2P2-to-N1P2" style="stroke:#181818;stroke-width:1;stroke-dasharray:7,7;"/><polygon fill="#181818" points="944.31,453.6103,953.31,457.6103,949.31,453.6103,953.31,449.6103,944.31,453.6103" style="stroke:#181818;stroke-width:1;"/><text fill="#000000" font-family="sans-serif" font-size="13" lengthAdjust="spacing" textLength="64.8831" x="1084.57" y="449.5073">replication</text></g><!--link N2P2 to N3P2--><g class="link" data-entity-1="ent0011" data-entity-2="ent0016" data-link-type="dependency" data-source-line="36" id="lnk21"><path d="M1119,252.7203 C1119,258.9903 1119,263.6103 1119,263.6103 C1119,263.6103 681.5,263.6103 681.5,263.6103 C681.5,263.6103 681.5,264.9903 681.5,258.7203" fill="none" id="N2P2-to-N3P2" style="stroke:#181818;stroke-width:1;stroke-dasharray:7,7;"/><polygon fill="#181818" points="681.5,252.7203,677.5,261.7203,681.5,257.7203,685.5,261.7203,681.5,252.7203" style="stroke:#181818;stroke-width:1;"/><text fill="#000000" font-family="sans-serif" font-size="13" lengthAdjust="spacing" textLength="64.8831" x="835.25" y="278.5073">replication</text></g><!--link N3P3 to N1P3--><g class="link" data-entity-1="ent0017" data-entity-2="ent0007" data-link-type="dependency" data-source-line="38" id="lnk22"><path d="M384,252.7803 C384,317.9603 384,453.6103 384,453.6103 C384,453.6103 485.53,453.6103 552.74,453.6103" fill="none" id="N3P3-to-N1P3" style="stroke:#181818;stroke-width:1;stroke-dasharray:7,7;"/><polygon fill="#181818" points="558.74,453.6103,549.74,449.6103,553.74,453.6103,549.74,457.6103,558.74,453.6103" style="stroke:#181818;stroke-width:1;"/><text fill="#000000" font-family="sans-serif" font-size="13" lengthAdjust="spacing" textLength="64.8831" x="319" y="436.4573">replication</text></g><!--link N3P3 to N2P3--><g class="link" data-entity-1="ent0017" data-entity-2="ent0012" data-link-type="dependency" data-source-line="39" id="lnk23"><path d="M349,252.8003 C349,264.4603 349,274.6103 349,274.6103 C349,274.6103 821.5,274.6103 821.5,274.6103 C821.5,274.6103 821.5,270.4603 821.5,258.8003" fill="none" id="N3P3-to-N2P3" style="stroke:#181818;stroke-width:1;stroke-dasharray:7,7;"/><polygon fill="#181818" points="821.5,252.8003,817.5,261.8003,821.5,257.8003,825.5,261.8003,821.5,252.8003" style="stroke:#181818;stroke-width:1;"/><text fill="#000000" font-family="sans-serif" font-size="13" lengthAdjust="spacing" textLength="64.8831" x="520.25" y="270.5073">replication</text></g><?plantuml-src bPGnQyCm48Lt_uh3eqiBbhQGPkdGeL1AwL1eEoZo9H6HTKPIMaB9VwyiEsvi79COuy7VUwTxTyPkgqmbh2X1AuD-No6GzHjA4jSHIML51es7tmJ2jHHokxQqCyK3QRBpkKPHe5qiuD4YckIG95BJhe1KETB2Ap8fj5wBqWkprWYfeG8X_pHpISPRqXejtC3IqZRKIa4uUCvRry3fgL8ItgFcBU-fwkiZjErLVMp-1IVTnOel-HajgxKMAwsawCJiZ9YFYNadFYJDSpGocupCBehCfYFtEsFJcNlpOTT4PfT6vfEH-KMH-JMH-JLhvjEPU_FXvoBNNnRStItYk6VGdb0N6M0-n0qFWszu-EX6x1tcGzpmqDVHpaVi7MP37Detv14qhdpKPjdJgrXva7hdV5ZMZ_8Ru53lqSsoB6fk0R_HxkDBK0v6TjlgJew2bP2UBDm3Rs4tPmTLi3OB_yUbCX1kjpVoMCS5p5gSGxEPwErAjL1etRGSAuYoRhFz5oLe2gWp_m40?></g></svg>