<?plantuml 1.2026.2?><svg xmlns="http://www.w3.org/2000/svg" xmlns:xlink="http://www.w3.org/1999/xlink" contentStyleType="text/css" data-diagram-type="SEQUENCE" height="1507px" preserveAspectRatio="none" style="width:780px;height:1507px;background:#FFFFFF;" version="1.1" viewBox="0 0 780 1507" width="780px" zoomAndPan="magnify"><defs/><g><rect fill="none" height="204.2361" style="stroke:#000000;stroke-width:1.5;" width="306.2039" x="136.5331" y="132.7739"/><rect fill="none" height="921.4201" style="stroke:#000000;stroke-width:1.5;" width="765.5544" x="9" y="382.716"/><rect fill="none" height="850.0081" style="stroke:#000000;stroke-width:1.5;" width="745.5544" x="19" y="447.1281"/><rect fill="none" height="597.36" style="stroke:#000000;stroke-width:1.5;" width="481.9833" x="49" y="692.7762"/><rect fill="none" height="400.848" style="stroke:#000000;stroke-width:1.5;" width="461.4303" x="59" y="882.2882"/><rect fill="none" height="106.0999" style="stroke:#000000;stroke-width:1.5;" width="373.8971" x="136.5331" y="1170.0363"/><rect fill="none" height="89.118" style="stroke:#000000;stroke-width:1.5;" width="447.2269" x="59" y="1318.1362"/><g class="participant-lifeline" data-entity-uid="part1" data-qualified-name="U" id="part1-lifeline"><g><title>USER</title><rect fill="#000000" fill-opacity="0.00000" height="1340.1863" width="8" x="89.2059" y="84.0679"/><line style="stroke:#181818;stroke-width:0.5;stroke-dasharray:5,5;" x1="93" x2="93" y1="84.0679" y2="1424.2542"/></g></g><g class="participant-lifeline" data-entity-uid="part2" data-qualified-name="API" id="part2-lifeline"><g><title>ORDER_API</title><rect fill="#000000" fill-opacity="0.00000" height="1340.1863" width="8" x="182.899" y="84.0679"/><line style="stroke:#181818;stroke-width:0.5;stroke-dasharray:5,5;" x1="186.5331" x2="186.5331" y1="84.0679" y2="1424.2542"/></g></g><g class="participant-lifeline" data-entity-uid="part3" data-qualified-name="DB" id="part3-lifeline"><g><title>DATABASE</title><rect fill="#000000" fill-opacity="0.00000" height="1340.1863" width="8" x="391.0312" y="84.0679"/><line style="stroke:#181818;stroke-width:0.5;stroke-dasharray:5,5;" x1="394.3253" x2="394.3253" y1="84.0679" y2="1424.2542"/></g></g><g class="participant-lifeline" data-entity-uid="part4" data-qualified-name="K" id="part4-lifeline"><g><title>KAFKA</title><rect fill="#000000" fill-opacity="0.00000" height="1340.1863" width="8" x="469.982" y="84.0679"/><line style="stroke:#181818;stroke-width:0.5;stroke-dasharray:5,5;" x1="473.7371" x2="473.7371" y1="84.0679" y2="1424.2542"/></g></g><g class="participant participant-head" data-entity-uid="part1" data-qualified-name="U" id="part1-head"><text fill="#000000" font-family="sans-serif" font-size="14" lengthAdjust="spacing" textLength="34.4119" x="73" y="79.9659">USER</text><ellipse cx="93.2059" cy="13.5" fill="#E2E2F0" rx="8" ry="8" style="stroke:#181818;stroke-width:0.5;"/><path d="M93.2059,21.5 L93.2059,48.5 M80.2059,29.5 L106.2059,29.5 M93.2059,48.5 L80.2059,63.5 M93.2059,48.5 L106.2059,63.5" fill="none" style="stroke:#181818;stroke-width:0.5;"/></g><g class="participant participant-tail" data-entity-uid="part1" data-qualified-name="U" id="part1-tail"><text fill="#000000" font-family="sans-serif" font-size="14" lengthAdjust="spacing" textLength="34.4119" x="73" y="1438.2202">USER</text><ellipse cx="93.2059" cy="1450.8222" fill="#E2E2F0" rx="8" ry="8" style="stroke:#181818;stroke-width:0.5;"/><path d="M93.2059,1458.8222 L93.2059,1485.8222 M80.2059,1466.8222 L106.2059,1466.8222 M93.2059,1485.8222 L80.2059,1500.8222 M93.2059,1485.8222 L106.2059,1500.8222" fill="none" style="stroke:#181818;stroke-width:0.5;"/></g><g class="participant participant-head" data-entity-uid="part2" data-qualified-name="API" id="part2-head"><text fill="#000000" font-family="sans-serif" font-size="14" lengthAdjust="spacing" textLength="74.7317" x="146.5331" y="79.9659">ORDER_API</text><path d="M166.399,37 L166.399,61 M166.399,49 L183.399,49" fill="none" style="stroke:#181818;stroke-width:0.5;"/><ellipse cx="195.399" cy="49" fill="#E2E2F0" rx="12" ry="12" style="stroke:#181818;stroke-width:0.5;"/></g><g class="participant participant-tail" data-entity-uid="part2" data-qualified-name="API" id="part2-tail"><text fill="#000000" font-family="sans-serif" font-size="14" lengthAdjust="spacing" textLength="74.7317" x="146.5331" y="1438.2202">ORDER_API</text><path d="M166.399,1446.3222 L166.399,1470.3222 M166.399,1458.3222 L183.399,1458.3222" fill="none" style="stroke:#181818;stroke-width:0.5;"/><ellipse cx="195.399" cy="1458.3222" fill="#E2E2F0" rx="12" ry="12" style="stroke:#181818;stroke-width:0.5;"/></g><g class="participant participant-head" data-entity-uid="part3" data-qualified-name="DB" id="part3-head"><text fill="#000000" font-family="sans-serif" font-size="14" lengthAdjust="spacing" textLength="69.4117" x="357.3253" y="79.9659">DATABASE</text><path d="M377.0312,29 C377.0312,19 395.0312,19 395.0312,19 C395.0312,19 413.0312,19 413.0312,29 L413.0312,55 C413.0312,65 395.0312,65 395.0312,65 C395.0312,65 377.0312,65 377.0312,55 L377.0312,29" fill="#E2E2F0" style="stroke:#181818;stroke-width:0.5;"/><path d="M377.0312,29 C377.0312,39 395.0312,39 395.0312,39 C395.0312,39 413.0312,39 413.0312,29" fill="none" style="stroke:#181818;stroke-width:0.5;"/></g><g class="participant participant-tail" data-entity-uid="part3" data-qualified-name="DB" id="part3-tail"><text fill="#000000" font-family="sans-serif" font-size="14" lengthAdjust="spacing" textLength="69.4117" x="357.3253" y="1438.2202">DATABASE</text><path d="M377.0312,1452.3222 C377.0312,1442.3222 395.0312,1442.3222 395.0312,1442.3222 C395.0312,1442.3222 413.0312,1442.3222 413.0312,1452.3222 L413.0312,1478.3222 C413.0312,1488.3222 395.0312,1488.3222 395.0312,1488.3222 C395.0312,1488.3222 377.0312,1488.3222 377.0312,1478.3222 L377.0312,1452.3222" fill="#E2E2F0" style="stroke:#181818;stroke-width:0.5;"/><path d="M377.0312,1452.3222 C377.0312,1462.3222 395.0312,1462.3222 395.0312,1462.3222 C395.0312,1462.3222 413.0312,1462.3222 413.0312,1452.3222" fill="none" style="stroke:#181818;stroke-width:0.5;"/></g><g class="participant participant-head" data-entity-uid="part4" data-qualified-name="K" id="part4-head"><path d="M447.7371,55 L500.2269,55 C505.2269,55 505.2269,69.534 505.2269,69.534 C505.2269,69.534 505.2269,84.0679 500.2269,84.0679 L447.7371,84.0679 C442.7371,84.0679 442.7371,69.534 442.7371,69.534 C442.7371,69.534 442.7371,55 447.7371,55" fill="#E2E2F0" style="stroke:#181818;stroke-width:0.5;"/><path d="M500.2269,55 C495.2269,55 495.2269,69.534 495.2269,69.534 C495.2269,84.0679 500.2269,84.0679 500.2269,84.0679" fill="none" style="stroke:#181818;stroke-width:0.5;"/><text fill="#000000" font-family="sans-serif" font-size="14" lengthAdjust="spacing" textLength="42.4899" x="447.7371" y="74.9659">KAFKA</text></g><g class="participant participant-tail" data-entity-uid="part4" data-qualified-name="K" id="part4-tail"><path d="M447.7371,1423.2542 L500.2269,1423.2542 C505.2269,1423.2542 505.2269,1437.7882 505.2269,1437.7882 C505.2269,1437.7882 505.2269,1452.3222 500.2269,1452.3222 L447.7371,1452.3222 C442.7371,1452.3222 442.7371,1437.7882 442.7371,1437.7882 C442.7371,1437.7882 442.7371,1423.2542 447.7371,1423.2542" fill="#E2E2F0" style="stroke:#181818;stroke-width:0.5;"/><path d="M500.2269,1423.2542 C495.2269,1423.2542 495.2269,1437.7882 495.2269,1437.7882 C495.2269,1452.3222 500.2269,1452.3222 500.2269,1452.3222" fill="none" style="stroke:#181818;stroke-width:0.5;"/><text fill="#000000" font-family="sans-serif" font-size="14" lengthAdjust="spacing" textLength="42.4899" x="447.7371" y="1443.2202">KAFKA</text></g><g class="message" data-entity-1="part1" data-entity-2="part2" id="msg1"><polygon fill="#181818" points="174.899,113.7739,184.899,117.7739,174.899,121.7739,178.899,117.7739" style="stroke:#181818;stroke-width:1;"/><line style="stroke:#181818;stroke-width:1;" x1="93.2059" x2="180.899" y1="117.7739" y2="117.7739"/><text fill="#000000" font-family="sans-serif" font-size="13" lengthAdjust="spacing" textLength="69.6931" x="105.2059" y="111.9649">POST order</text></g><path d="M136.5331,132.7739 L268.4772,132.7739 L268.4772,142.4799 L258.4772,152.4799 L136.5331,152.4799 L136.5331,132.7739" fill="#EEEEEE" style="stroke:#000000;stroke-width:1.5;"/><rect fill="none" height="204.2361" style="stroke:#000000;stroke-width:1.5;" width="306.2039" x="136.5331" y="132.7739"/><text fill="#000000" font-family="sans-serif" font-size="13" font-weight="bold" lengthAdjust="spacing" textLength="86.944" x="151.5331" y="147.6709">transactional</text><g class="message" data-entity-1="part2" data-entity-2="part3" id="msg2"><polygon fill="#181818" points="383.0312,172.186,393.0312,176.186,383.0312,180.186,387.0312,176.186" style="stroke:#181818;stroke-width:1;"/><line style="stroke:#181818;stroke-width:1;stroke-dasharray:2,2;" x1="186.899" x2="389.0312" y1="176.186" y2="176.186"/><text fill="#000000" font-family="sans-serif" font-size="13" lengthAdjust="spacing" textLength="64.766" x="258.5821" y="170.377">save order</text></g><g class="message" data-entity-1="part3" data-entity-2="part2" id="msg3"><polygon fill="#181818" points="197.899,203.892,187.899,207.892,197.899,211.892,193.899,207.892" style="stroke:#181818;stroke-width:1;"/><line style="stroke:#181818;stroke-width:1;stroke-dasharray:2,2;" x1="191.899" x2="394.0312" y1="207.892" y2="207.892"/><text fill="#000000" font-family="sans-serif" font-size="13" lengthAdjust="spacing" textLength="33.93" x="274.0001" y="202.083">order</text></g><g class="message" data-entity-1="part2" data-entity-2="part2" id="msg4"><line style="stroke:#181818;stroke-width:1;stroke-dasharray:2,2;" x1="186.899" x2="228.899" y1="239.598" y2="239.598"/><line style="stroke:#181818;stroke-width:1;stroke-dasharray:2,2;" x1="228.899" x2="228.899" y1="239.598" y2="252.598"/><line style="stroke:#181818;stroke-width:1;stroke-dasharray:2,2;" x1="187.899" x2="228.899" y1="252.598" y2="252.598"/><polygon fill="#181818" points="197.899,248.598,187.899,252.598,197.899,256.598,193.899,252.598" style="stroke:#181818;stroke-width:1;"/><text fill="#000000" font-family="sans-serif" font-size="13" lengthAdjust="spacing" textLength="75.634" x="193.899" y="233.789">create event</text></g><g class="message" data-entity-1="part2" data-entity-2="part2" id="msg5"><line style="stroke:#181818;stroke-width:1;stroke-dasharray:2,2;" x1="186.899" x2="228.899" y1="284.304" y2="284.304"/><line style="stroke:#181818;stroke-width:1;stroke-dasharray:2,2;" x1="228.899" x2="228.899" y1="284.304" y2="297.304"/><line style="stroke:#181818;stroke-width:1;stroke-dasharray:2,2;" x1="187.899" x2="228.899" y1="297.304" y2="297.304"/><polygon fill="#181818" points="197.899,293.304,187.899,297.304,197.899,301.304,193.899,297.304" style="stroke:#181818;stroke-width:1;"/><text fill="#000000" font-family="sans-serif" font-size="13" lengthAdjust="spacing" textLength="84.9681" x="193.899" y="278.495">create outbox</text></g><g class="message" data-entity-1="part2" data-entity-2="part3" id="msg6"><polygon fill="#181818" points="383.0312,325.01,393.0312,329.01,383.0312,333.01,387.0312,329.01" style="stroke:#181818;stroke-width:1;"/><line style="stroke:#181818;stroke-width:1;stroke-dasharray:2,2;" x1="186.899" x2="389.0312" y1="329.01" y2="329.01"/><text fill="#000000" font-family="sans-serif" font-size="13" lengthAdjust="spacing" textLength="74.1651" x="253.8826" y="323.201">save outbox</text></g><g class="message" data-entity-1="part2" data-entity-2="part1" id="msg7"><polygon fill="#181818" points="104.2059,363.716,94.2059,367.716,104.2059,371.716,100.2059,367.716" style="stroke:#181818;stroke-width:1;"/><line style="stroke:#181818;stroke-width:1;" x1="98.2059" x2="185.899" y1="367.716" y2="367.716"/><text fill="#000000" font-family="sans-serif" font-size="13" lengthAdjust="spacing" textLength="33.93" x="123.0875" y="361.907">order</text></g><path d="M9,382.716 L239.7701,382.716 L239.7701,392.4221 L229.7701,402.4221 L9,402.4221 L9,382.716" fill="#EEEEEE" style="stroke:#000000;stroke-width:1.5;"/><rect fill="none" height="921.4201" style="stroke:#000000;stroke-width:1.5;" width="765.5544" x="9" y="382.716"/><text fill="#000000" font-family="sans-serif" font-size="13" font-weight="bold" lengthAdjust="spacing" textLength="185.7701" x="24" y="397.6131">listener on `outbox_channel`</text><g class="message" data-entity-1="part2" data-entity-2="part3" id="msg8"><polygon fill="#181818" points="197.899,428.1281,187.899,432.1281,197.899,436.1281,193.899,432.1281" style="stroke:#181818;stroke-width:1;"/><polygon fill="#181818" points="383.0312,428.1281,393.0312,432.1281,383.0312,436.1281,387.0312,432.1281" style="stroke:#181818;stroke-width:1;"/><line style="stroke:#181818;stroke-width:1;stroke-dasharray:2,2;" x1="191.899" x2="389.0312" y1="432.1281" y2="432.1281"/><text fill="#000000" font-family="sans-serif" font-size="13" lengthAdjust="spacing" textLength="72.8781" x="254.5261" y="426.3191">listen/notify</text></g><path d="M85,407.4221 L85,434.4221 L181,434.4221 L181,417.4221 L171,407.4221 L85,407.4221" fill="#FEFFDD" style="stroke:#181818;stroke-width:0.5;"/><path d="M171,407.4221 L171,417.4221 L181,417.4221 L171,407.4221" fill="#FEFFDD" style="stroke:#181818;stroke-width:0.5;"/><text fill="#000000" font-family="sans-serif" font-size="13" lengthAdjust="spacing" textLength="75.4651" x="91" y="426.3191">manual CDC</text><path d="M400,407.4221 L400,434.4221 L703,434.4221 L703,417.4221 L693,407.4221 L400,407.4221" fill="#FEFFDD" style="stroke:#181818;stroke-width:0.5;"/><path d="M693,407.4221 L693,417.4221 L703,417.4221 L693,407.4221" fill="#FEFFDD" style="stroke:#181818;stroke-width:0.5;"/><text fill="#000000" font-family="sans-serif" font-size="13" lengthAdjust="spacing" textLength="166.2962" x="406" y="426.3191">trigger on insert that notify</text><text fill="#000000" font-family="sans-serif" font-size="13" font-weight="bold" lengthAdjust="spacing" textLength="112.5801" x="575.6762" y="426.3191">`outbox_channel`</text><path d="M19,447.1281 L92.288,447.1281 L92.288,456.8341 L82.288,466.8341 L19,466.8341 L19,447.1281" fill="#EEEEEE" style="stroke:#000000;stroke-width:1.5;"/><rect fill="none" height="850.0081" style="stroke:#000000;stroke-width:1.5;" width="745.5544" x="19" y="447.1281"/><text fill="#000000" font-family="sans-serif" font-size="13" font-weight="bold" lengthAdjust="spacing" textLength="28.288" x="34" y="462.0251">loop</text><text fill="#000000" font-family="sans-serif" font-size="11" font-weight="bold" lengthAdjust="spacing" textLength="228.6334" x="107.288" y="460.887">[until no unpublished outbox is retrieved]</text><path d="M29,471.8341 L29,498.8341 L536,498.8341 L536,481.8341 L526,471.8341 L29,471.8341" fill="#FEFFDD" style="stroke:#181818;stroke-width:0.5;"/><path d="M526,471.8341 L526,481.8341 L536,481.8341 L526,471.8341" fill="#FEFFDD" style="stroke:#181818;stroke-width:0.5;"/><text fill="#000000" font-family="sans-serif" font-size="13" font-weight="bold" lengthAdjust="spacing" textLength="83.6421" x="35" y="490.7311">drain service</text><text fill="#000000" font-family="sans-serif" font-size="13" lengthAdjust="spacing" textLength="399.4513" x="122.0221" y="490.7311">keep draining unpublished outboxes until none is left then sleeps</text><g class="message" data-entity-1="part2" data-entity-2="part3" id="msg10"><polygon fill="#181818" points="383.0312,544.9521,393.0312,548.9521,383.0312,552.9521,387.0312,548.9521" style="stroke:#181818;stroke-width:1;"/><line style="stroke:#181818;stroke-width:1;stroke-dasharray:2,2;" x1="186.899" x2="389.0312" y1="548.9521" y2="548.9521"/><text fill="#000000" font-family="sans-serif" font-size="13" lengthAdjust="spacing" textLength="184.1322" x="198.899" y="543.1431">get unpublished outbox batch</text></g><path d="M400,509.5401 L400,572.5401 L749,572.5401 L749,519.5401 L739,509.5401 L400,509.5401" fill="#FEFFDD" style="stroke:#181818;stroke-width:0.5;"/><path d="M739,509.5401 L739,519.5401 L749,519.5401 L739,509.5401" fill="#FEFFDD" style="stroke:#181818;stroke-width:0.5;"/><text fill="#000000" font-family="sans-serif" font-size="13" font-weight="bold" lengthAdjust="spacing" textLength="328.5232" x="406" y="528.4371">publishedAt == null AND attempts &lt; max_attempts</text><text fill="#000000" font-family="sans-serif" font-size="13" lengthAdjust="spacing" textLength="309.9593" x="406" y="546.1431">will lock current batch in DB in case of concurrency</text><text fill="#000000" font-family="sans-serif" font-size="13" lengthAdjust="spacing" textLength="212.0692" x="406" y="563.8492">any concurrent will pick next batch</text><g class="message" data-entity-1="part3" data-entity-2="part2" id="msg12"><polygon fill="#181818" points="197.899,597.3642,187.899,601.3642,197.899,605.3642,193.899,601.3642" style="stroke:#181818;stroke-width:1;"/><line style="stroke:#181818;stroke-width:1;stroke-dasharray:2,2;" x1="191.899" x2="394.0312" y1="601.3642" y2="601.3642"/><text fill="#000000" font-family="sans-serif" font-size="13" lengthAdjust="spacing" textLength="80.9641" x="250.4831" y="595.5552">outbox batch</text></g><g class="message" data-entity-1="part2" data-entity-2="part2" id="msg13"><line style="stroke:#181818;stroke-width:1;stroke-dasharray:2,2;" x1="186.899" x2="228.899" y1="633.0702" y2="633.0702"/><line style="stroke:#181818;stroke-width:1;stroke-dasharray:2,2;" x1="228.899" x2="228.899" y1="633.0702" y2="646.0702"/><line style="stroke:#181818;stroke-width:1;stroke-dasharray:2,2;" x1="187.899" x2="228.899" y1="646.0702" y2="646.0702"/><polygon fill="#181818" points="197.899,642.0702,187.899,646.0702,197.899,650.0702,193.899,646.0702" style="stroke:#181818;stroke-width:1;"/><text fill="#000000" font-family="sans-serif" font-size="13" lengthAdjust="spacing" textLength="86.0991" x="193.899" y="627.2612">extract events</text></g><g class="message" data-entity-1="part2" data-entity-2="part4" id="msg14"><polygon fill="#181818" points="461.982,673.7762,471.982,677.7762,461.982,681.7762,465.982,677.7762" style="stroke:#181818;stroke-width:1;"/><line style="stroke:#181818;stroke-width:1;stroke-dasharray:2,2;" x1="186.899" x2="467.982" y1="677.7762" y2="677.7762"/><text fill="#000000" font-family="sans-serif" font-size="13" lengthAdjust="spacing" textLength="126.2301" x="267.3254" y="671.9672">publish events batch</text></g><path d="M49,692.7762 L111.459,692.7762 L111.459,702.4822 L101.459,712.4822 L49,712.4822 L49,692.7762" fill="#EEEEEE" style="stroke:#000000;stroke-width:1.5;"/><rect fill="none" height="597.36" style="stroke:#000000;stroke-width:1.5;" width="481.9833" x="49" y="692.7762"/><text fill="#000000" font-family="sans-serif" font-size="13" font-weight="bold" lengthAdjust="spacing" textLength="17.459" x="64" y="707.6732">alt</text><text fill="#000000" font-family="sans-serif" font-size="11" font-weight="bold" lengthAdjust="spacing" textLength="106.9743" x="126.459" y="706.5351">[successful publish]</text><g class="message" data-entity-1="part4" data-entity-2="part2" id="msg15"><polygon fill="#008000" points="197.899,732.1882,187.899,736.1882,197.899,740.1882,193.899,736.1882" style="stroke:#008000;stroke-width:1;"/><line style="stroke:#008000;stroke-width:1;stroke-dasharray:2,2;" x1="191.899" x2="472.982" y1="736.1882" y2="736.1882"/><text fill="#000000" font-family="sans-serif" font-size="13" lengthAdjust="spacing" textLength="72.9431" x="293.969" y="730.3792">ACK publish</text></g><g class="message" data-entity-1="part2" data-entity-2="part3" id="msg16"><polygon fill="#181818" points="383.0312,766.8943,393.0312,770.8943,383.0312,774.8943,387.0312,770.8943" style="stroke:#181818;stroke-width:1;"/><line style="stroke:#181818;stroke-width:1;stroke-dasharray:2,2;" x1="186.899" x2="389.0312" y1="770.8943" y2="770.8943"/><text fill="#000000" font-family="sans-serif" font-size="13" lengthAdjust="spacing" textLength="150.4231" x="215.7535" y="765.0853">flag outbox as published</text></g><path d="M400,749.1882 L400,776.1882 L515,776.1882 L515,759.1882 L505,749.1882 L400,749.1882" fill="#FEFFDD" style="stroke:#181818;stroke-width:0.5;"/><path d="M505,749.1882 L505,759.1882 L515,759.1882 L505,749.1882" fill="#FEFFDD" style="stroke:#181818;stroke-width:0.5;"/><text fill="#000000" font-family="sans-serif" font-size="13" lengthAdjust="spacing" textLength="94.9521" x="406" y="768.0853">set publishedAt</text><line style="stroke:#000000;stroke-width:1;stroke-dasharray:2,2;" x1="49" x2="530.9833" y1="782.8943" y2="782.8943"/><text fill="#000000" font-family="sans-serif" font-size="11" font-weight="bold" lengthAdjust="spacing" textLength="78.9904" x="54" y="794.6532">[error publish]</text><g class="message" data-entity-1="part4" data-entity-2="part2" id="msg18"><polygon fill="#FF0000" points="197.899,818.5822,187.899,822.5822,197.899,826.5822,193.899,822.5822" style="stroke:#FF0000;stroke-width:1;"/><line style="stroke:#FF0000;stroke-width:1;stroke-dasharray:2,2;" x1="191.899" x2="472.982" y1="822.5822" y2="822.5822"/><text fill="#000000" font-family="sans-serif" font-size="13" lengthAdjust="spacing" textLength="41.6391" x="309.621" y="816.7732">ERROR</text></g><g class="message" data-entity-1="part2" data-entity-2="part2" id="msg19"><line style="stroke:#FF0000;stroke-width:1;stroke-dasharray:2,2;" x1="186.899" x2="228.899" y1="854.2882" y2="854.2882"/><line style="stroke:#FF0000;stroke-width:1;stroke-dasharray:2,2;" x1="228.899" x2="228.899" y1="854.2882" y2="867.2882"/><line style="stroke:#FF0000;stroke-width:1;stroke-dasharray:2,2;" x1="187.899" x2="228.899" y1="867.2882" y2="867.2882"/><polygon fill="#FF0000" points="197.899,863.2882,187.899,867.2882,197.899,871.2882,193.899,867.2882" style="stroke:#FF0000;stroke-width:1;"/><text fill="#000000" font-family="sans-serif" font-size="13" lengthAdjust="spacing" textLength="58.2531" x="193.899" y="848.4792">or ERROR</text></g><path d="M59,882.2882 L121.459,882.2882 L121.459,891.9942 L111.459,901.9942 L59,901.9942 L59,882.2882" fill="#EEEEEE" style="stroke:#000000;stroke-width:1.5;"/><rect fill="none" height="400.848" style="stroke:#000000;stroke-width:1.5;" width="461.4303" x="59" y="882.2882"/><text fill="#000000" font-family="sans-serif" font-size="13" font-weight="bold" lengthAdjust="spacing" textLength="17.459" x="74" y="897.1852">alt</text><text fill="#000000" font-family="sans-serif" font-size="11" font-weight="bold" lengthAdjust="spacing" textLength="103.6082" x="136.459" y="896.0471">[recoverable error]</text><path d="M69,906.9942 L69,1004.9942 L496,1004.9942 L496,916.9942 L486,906.9942 L69,906.9942" fill="#FEFFDD" style="stroke:#181818;stroke-width:0.5;"/><path d="M486,906.9942 L486,916.9942 L496,916.9942 L486,906.9942" fill="#FEFFDD" style="stroke:#181818;stroke-width:0.5;"/><text fill="#000000" font-family="sans-serif" font-size="13" font-weight="bold" lengthAdjust="spacing" textLength="189.6052" x="183.3109" y="925.8912">recoverable/transient errors:</text><text fill="#000000" font-family="sans-serif" font-size="13" lengthAdjust="spacing" textLength="48.1261" x="183.3109" y="943.5972">timeout</text><text fill="#000000" font-family="sans-serif" font-size="13" lengthAdjust="spacing" textLength="120.7311" x="183.3109" y="961.3032">election in progress</text><text fill="#000000" font-family="sans-serif" font-size="13" lengthAdjust="spacing" textLength="78.3641" x="183.3109" y="979.0093">broker down</text><text fill="#000000" font-family="sans-serif" font-size="13" lengthAdjust="spacing" textLength="28.717" x="183.3109" y="996.7153">...etc</text><g class="message" data-entity-1="part2" data-entity-2="part2" id="msg20"><line style="stroke:#181818;stroke-width:1;stroke-dasharray:2,2;" x1="186.899" x2="228.899" y1="1034.2303" y2="1034.2303"/><line style="stroke:#181818;stroke-width:1;stroke-dasharray:2,2;" x1="228.899" x2="228.899" y1="1034.2303" y2="1047.2303"/><line style="stroke:#181818;stroke-width:1;stroke-dasharray:2,2;" x1="187.899" x2="228.899" y1="1047.2303" y2="1047.2303"/><polygon fill="#181818" points="197.899,1043.2303,187.899,1047.2303,197.899,1051.2303,193.899,1047.2303" style="stroke:#181818;stroke-width:1;"/><text fill="#000000" font-family="sans-serif" font-size="13" lengthAdjust="spacing" textLength="67.2491" x="193.899" y="1028.4213">do nothing</text></g><line style="stroke:#000000;stroke-width:1;stroke-dasharray:2,2;" x1="59" x2="520.4303" y1="1056.2303" y2="1056.2303"/><text fill="#000000" font-family="sans-serif" font-size="11" font-weight="bold" lengthAdjust="spacing" textLength="127.731" x="64" y="1067.9892">[non recoverable error]</text><path d="M69,1077.2122 L69,1157.2122 L496,1157.2122 L496,1087.2122 L486,1077.2122 L69,1077.2122" fill="#FEFFDD" style="stroke:#181818;stroke-width:0.5;"/><path d="M486,1077.2122 L486,1087.2122 L496,1087.2122 L486,1077.2122" fill="#FEFFDD" style="stroke:#181818;stroke-width:0.5;"/><text fill="#000000" font-family="sans-serif" font-size="13" font-weight="bold" lengthAdjust="spacing" textLength="230.7242" x="162.7514" y="1096.1092">non recoverable/permanent errors:</text><text fill="#000000" font-family="sans-serif" font-size="13" lengthAdjust="spacing" textLength="48.425" x="162.7514" y="1113.8152">payload</text><text fill="#000000" font-family="sans-serif" font-size="13" lengthAdjust="spacing" textLength="73.632" x="162.7514" y="1131.5212">serialization</text><text fill="#000000" font-family="sans-serif" font-size="13" lengthAdjust="spacing" textLength="28.717" x="162.7514" y="1149.2273">...etc</text><path d="M136.5331,1170.0363 L198.9921,1170.0363 L198.9921,1179.7423 L188.9921,1189.7423 L136.5331,1189.7423 L136.5331,1170.0363" fill="#EEEEEE" style="stroke:#000000;stroke-width:1.5;"/><rect fill="none" height="106.0999" style="stroke:#000000;stroke-width:1.5;" width="373.8971" x="136.5331" y="1170.0363"/><text fill="#000000" font-family="sans-serif" font-size="13" font-weight="bold" lengthAdjust="spacing" textLength="17.459" x="151.5331" y="1184.9333">alt</text><text fill="#000000" font-family="sans-serif" font-size="11" font-weight="bold" lengthAdjust="spacing" textLength="149.016" x="213.9921" y="1183.7952">[attempts &lt; max_attempts]</text><g class="message" data-entity-1="part2" data-entity-2="part3" id="msg21"><polygon fill="#181818" points="383.0312,1209.4483,393.0312,1213.4483,383.0312,1217.4483,387.0312,1213.4483" style="stroke:#181818;stroke-width:1;"/><line style="stroke:#181818;stroke-width:1;stroke-dasharray:2,2;" x1="186.899" x2="389.0312" y1="1213.4483" y2="1213.4483"/><text fill="#000000" font-family="sans-serif" font-size="13" lengthAdjust="spacing" textLength="76.0891" x="252.9206" y="1207.6393">inc attempts</text></g><line style="stroke:#000000;stroke-width:1;stroke-dasharray:2,2;" x1="136.5331" x2="510.4303" y1="1222.4483" y2="1222.4483"/><text fill="#000000" font-family="sans-serif" font-size="11" font-weight="bold" lengthAdjust="spacing" textLength="155.3079" x="141.5331" y="1234.2072">[attempts &gt;= max_attempts]</text><g class="message" data-entity-1="part2" data-entity-2="part3" id="msg22"><polygon fill="#181818" points="383.0312,1261.1362,393.0312,1265.1362,383.0312,1269.1362,387.0312,1265.1362" style="stroke:#181818;stroke-width:1;"/><line style="stroke:#181818;stroke-width:1;stroke-dasharray:2,2;" x1="186.899" x2="389.0312" y1="1265.1362" y2="1265.1362"/><text fill="#000000" font-family="sans-serif" font-size="13" lengthAdjust="spacing" textLength="156.8711" x="212.5295" y="1259.3272">flag outbox as dead letter</text></g><path d="M400,1243.4302 L400,1270.4302 L495,1270.4302 L495,1253.4302 L485,1243.4302 L400,1243.4302" fill="#FEFFDD" style="stroke:#181818;stroke-width:0.5;"/><path d="M485,1243.4302 L485,1253.4302 L495,1253.4302 L485,1243.4302" fill="#FEFFDD" style="stroke:#181818;stroke-width:0.5;"/><text fill="#000000" font-family="sans-serif" font-size="13" lengthAdjust="spacing" textLength="74.3991" x="406" y="1262.3272">set lastError</text><path d="M59,1318.1362 L287.3652,1318.1362 L287.3652,1327.8422 L277.3652,1337.8422 L59,1337.8422 L59,1318.1362" fill="#EEEEEE" style="stroke:#000000;stroke-width:1.5;"/><rect fill="none" height="89.118" style="stroke:#000000;stroke-width:1.5;" width="447.2269" x="59" y="1318.1362"/><text fill="#000000" font-family="sans-serif" font-size="13" font-weight="bold" lengthAdjust="spacing" textLength="183.3652" x="74" y="1333.0332">low freq rescue periodic poll</text><g class="message" data-entity-1="part2" data-entity-2="part3" id="msg24"><polygon fill="#181818" points="383.0312,1339.8422,393.0312,1343.8422,383.0312,1347.8422,387.0312,1343.8422" style="stroke:#181818;stroke-width:1;"/><line style="stroke:#181818;stroke-width:1;stroke-dasharray:2,2;" x1="186.899" x2="389.0312" y1="1343.8422" y2="1343.8422"/></g><path d="M69,1356.8422 L69,1401.8422 L496,1401.8422 L496,1366.8422 L486,1356.8422 L69,1356.8422" fill="#FEFFDD" style="stroke:#181818;stroke-width:0.5;"/><path d="M486,1356.8422 L486,1366.8422 L496,1366.8422 L486,1356.8422" fill="#FEFFDD" style="stroke:#181818;stroke-width:0.5;"/><text fill="#000000" font-family="sans-serif" font-size="13" lengthAdjust="spacing" textLength="51.194" x="192.7489" y="1375.7392">wake up</text><text fill="#000000" font-family="sans-serif" font-size="13" font-weight="bold" lengthAdjust="spacing" textLength="83.6421" x="247.3229" y="1375.7392">drain service</text><text fill="#000000" font-family="sans-serif" font-size="13" lengthAdjust="spacing" textLength="170.7291" x="192.7489" y="1393.4452">(rescue in case listener fails)</text><?plantuml-src hLLjQzim4FxkNt6mBviXxVVG5jmcWn6sbdJvj8xs8byS4KLo9JbfzkjtiXsdVWbZK45YM_VSSwTxazj8dQF5BJXwBKWB-axEOKQ9afa6GTgJZI8KtbXOF4xdW0uMqT8KEaLxWFlvP3f_JXw-XNr-H2bwNA8Zc2G_azlaSHe4azk8oGk2MV9rbeITMHGjO7GJL60C3_UFFy7Ob4rbrXGvU8lQiL5fDAe8U0NWY1KcjuntkACQ7sIyDsguJjj7bMfVM49FG3i-qdcnAVpIl9spM0b9fr4fl855Ox1sN4ddIPC5e-6bmZ-BDMfDwgLXlQfenpNwKXilLuTIpAy4YbP-35lK1IguczoT95PcQnPvVcQL4QaTMGz-ZHug7eZZhkKuBYcKCJaKsal5K7x9YoLxiAQqFXb81vQOd8EKbXgDOHJME3TcxjIYr5mjTYS5nJ5iY78eDwNE1aZ9DIOr1GlXTEmlCObYNTSOQWKy8p_auHAzMBTTgsCInmquyN1z3RfG2f8V4q3lQPjx1rSSqxVdusSSF-czP8moOWEYi9OhepB0KGrUyBy8fMnM88ok4EBmf54VJXiUIf9SCeccDzzniLsRGuTero4pM2xygaxxiPanf3vd3UcmeVBW2Y6uYrU5Ec8RSLWp6Ftwb5aY_RinczpD1h6jdAmKPiSpS0ytyMvflC-9uoI-oqg38yLH9Mjvffnrq59wScywdz_F-uvrK4pN1uQ0M19cHnQNgZRRGdIAl2SBAuxVSLoMuqc6t9TiRbmtM7TvkIMErw2C59NpBLHPRWtduupffJKRxlNKxFMW_EBYWhpeYNXAbQVg2Thrbfg0MdFlHctlE4FSiHyIkWxFPKwMXzk_mvVZGHbC1sKyW2Gg-GT333yaBg5GpeoAGVvMQqWju2ow36P3VNFzdzoTjai9KnwYtfCTrEqse4BdfuEP2nVPkU_ZUtY6t_5-CtjOMNhbV3h15pgdKffK2iYDwbxKKU_ssEE6W5bwjyYJ_bmJ7cTkSv6kK2ht9VZm5m00?></g></svg>