<?plantuml 1.2026.2?><svg xmlns="http://www.w3.org/2000/svg" xmlns:xlink="http://www.w3.org/1999/xlink" contentStyleType="text/css" data-diagram-type="SEQUENCE" height="1802px" preserveAspectRatio="none" style="width:790px;height:1802px;background:#FFFFFF;" version="1.1" viewBox="0 0 790 1802" width="790px" zoomAndPan="magnify"><defs/><g><rect fill="none" height="204.2361" style="stroke:#000000;stroke-width:1.5;" width="306.2039" x="136.5331" y="132.7739"/><rect fill="none" height="1203.0683" style="stroke:#000000;stroke-width:1.5;" width="775.5544" x="9" y="382.716"/><rect fill="none" height="1086.9502" style="stroke:#000000;stroke-width:1.5;" width="755.5544" x="19" y="491.8341"/><rect fill="none" height="997.8322" style="stroke:#000000;stroke-width:1.5;" width="735.5544" x="29" y="573.9521"/><rect fill="none" height="693.478" style="stroke:#000000;stroke-width:1.5;" width="501.9833" x="39" y="871.3063"/><rect fill="none" height="615.066" style="stroke:#000000;stroke-width:1.5;" width="481.9833" x="49" y="942.7183"/><rect fill="none" height="418.554" style="stroke:#000000;stroke-width:1.5;" width="461.4303" x="59" y="1132.2303"/><rect fill="none" height="106.0999" style="stroke:#000000;stroke-width:1.5;" width="373.8971" x="136.5331" y="1437.6844"/><rect fill="none" height="102.118" style="stroke:#000000;stroke-width:1.5;" width="447.2269" x="59" y="1599.7843"/><g class="participant-lifeline" data-entity-uid="part1" data-qualified-name="U" id="part1-lifeline"><g><title>USER</title><rect fill="#000000" fill-opacity="0.00000" height="1634.8345" width="8" x="89.2059" y="84.0679"/><line style="stroke:#181818;stroke-width:0.5;stroke-dasharray:5,5;" x1="93" x2="93" y1="84.0679" y2="1718.9024"/></g></g><g class="participant-lifeline" data-entity-uid="part2" data-qualified-name="API" id="part2-lifeline"><g><title>ORDER_API</title><rect fill="#000000" fill-opacity="0.00000" height="1634.8345" width="8" x="182.899" y="84.0679"/><line style="stroke:#181818;stroke-width:0.5;stroke-dasharray:5,5;" x1="186.5331" x2="186.5331" y1="84.0679" y2="1718.9024"/></g></g><g class="participant-lifeline" data-entity-uid="part3" data-qualified-name="DB" id="part3-lifeline"><g><title>DATABASE</title><rect fill="#000000" fill-opacity="0.00000" height="1634.8345" width="8" x="391.0312" y="84.0679"/><line style="stroke:#181818;stroke-width:0.5;stroke-dasharray:5,5;" x1="394.3253" x2="394.3253" y1="84.0679" y2="1718.9024"/></g></g><g class="participant-lifeline" data-entity-uid="part4" data-qualified-name="K" id="part4-lifeline"><g><title>KAFKA</title><rect fill="#000000" fill-opacity="0.00000" height="1634.8345" width="8" x="469.982" y="84.0679"/><line style="stroke:#181818;stroke-width:0.5;stroke-dasharray:5,5;" x1="473.7371" x2="473.7371" y1="84.0679" y2="1718.9024"/></g></g><g class="participant participant-head" data-entity-uid="part1" data-qualified-name="U" id="part1-head"><text fill="#000000" font-family="sans-serif" font-size="14" lengthAdjust="spacing" textLength="34.4119" x="73" y="79.9659">USER</text><ellipse cx="93.2059" cy="13.5" fill="#E2E2F0" rx="8" ry="8" style="stroke:#181818;stroke-width:0.5;"/><path d="M93.2059,21.5 L93.2059,48.5 M80.2059,29.5 L106.2059,29.5 M93.2059,48.5 L80.2059,63.5 M93.2059,48.5 L106.2059,63.5" fill="none" style="stroke:#181818;stroke-width:0.5;"/></g><g class="participant participant-tail" data-entity-uid="part1" data-qualified-name="U" id="part1-tail"><text fill="#000000" font-family="sans-serif" font-size="14" lengthAdjust="spacing" textLength="34.4119" x="73" y="1732.8683">USER</text><ellipse cx="93.2059" cy="1745.4703" fill="#E2E2F0" rx="8" ry="8" style="stroke:#181818;stroke-width:0.5;"/><path d="M93.2059,1753.4703 L93.2059,1780.4703 M80.2059,1761.4703 L106.2059,1761.4703 M93.2059,1780.4703 L80.2059,1795.4703 M93.2059,1780.4703 L106.2059,1795.4703" fill="none" style="stroke:#181818;stroke-width:0.5;"/></g><g class="participant participant-head" data-entity-uid="part2" data-qualified-name="API" id="part2-head"><text fill="#000000" font-family="sans-serif" font-size="14" lengthAdjust="spacing" textLength="74.7317" x="146.5331" y="79.9659">ORDER_API</text><path d="M166.399,37 L166.399,61 M166.399,49 L183.399,49" fill="none" style="stroke:#181818;stroke-width:0.5;"/><ellipse cx="195.399" cy="49" fill="#E2E2F0" rx="12" ry="12" style="stroke:#181818;stroke-width:0.5;"/></g><g class="participant participant-tail" data-entity-uid="part2" data-qualified-name="API" id="part2-tail"><text fill="#000000" font-family="sans-serif" font-size="14" lengthAdjust="spacing" textLength="74.7317" x="146.5331" y="1732.8683">ORDER_API</text><path d="M166.399,1740.9703 L166.399,1764.9703 M166.399,1752.9703 L183.399,1752.9703" fill="none" style="stroke:#181818;stroke-width:0.5;"/><ellipse cx="195.399" cy="1752.9703" fill="#E2E2F0" rx="12" ry="12" style="stroke:#181818;stroke-width:0.5;"/></g><g class="participant participant-head" data-entity-uid="part3" data-qualified-name="DB" id="part3-head"><text fill="#000000" font-family="sans-serif" font-size="14" lengthAdjust="spacing" textLength="69.4117" x="357.3253" y="79.9659">DATABASE</text><path d="M377.0312,29 C377.0312,19 395.0312,19 395.0312,19 C395.0312,19 413.0312,19 413.0312,29 L413.0312,55 C413.0312,65 395.0312,65 395.0312,65 C395.0312,65 377.0312,65 377.0312,55 L377.0312,29" fill="#E2E2F0" style="stroke:#181818;stroke-width:0.5;"/><path d="M377.0312,29 C377.0312,39 395.0312,39 395.0312,39 C395.0312,39 413.0312,39 413.0312,29" fill="none" style="stroke:#181818;stroke-width:0.5;"/></g><g class="participant participant-tail" data-entity-uid="part3" data-qualified-name="DB" id="part3-tail"><text fill="#000000" font-family="sans-serif" font-size="14" lengthAdjust="spacing" textLength="69.4117" x="357.3253" y="1732.8683">DATABASE</text><path d="M377.0312,1746.9703 C377.0312,1736.9703 395.0312,1736.9703 395.0312,1736.9703 C395.0312,1736.9703 413.0312,1736.9703 413.0312,1746.9703 L413.0312,1772.9703 C413.0312,1782.9703 395.0312,1782.9703 395.0312,1782.9703 C395.0312,1782.9703 377.0312,1782.9703 377.0312,1772.9703 L377.0312,1746.9703" fill="#E2E2F0" style="stroke:#181818;stroke-width:0.5;"/><path d="M377.0312,1746.9703 C377.0312,1756.9703 395.0312,1756.9703 395.0312,1756.9703 C395.0312,1756.9703 413.0312,1756.9703 413.0312,1746.9703" fill="none" style="stroke:#181818;stroke-width:0.5;"/></g><g class="participant participant-head" data-entity-uid="part4" data-qualified-name="K" id="part4-head"><path d="M447.7371,55 L500.2269,55 C505.2269,55 505.2269,69.534 505.2269,69.534 C505.2269,69.534 505.2269,84.0679 500.2269,84.0679 L447.7371,84.0679 C442.7371,84.0679 442.7371,69.534 442.7371,69.534 C442.7371,69.534 442.7371,55 447.7371,55" fill="#E2E2F0" style="stroke:#181818;stroke-width:0.5;"/><path d="M500.2269,55 C495.2269,55 495.2269,69.534 495.2269,69.534 C495.2269,84.0679 500.2269,84.0679 500.2269,84.0679" fill="none" style="stroke:#181818;stroke-width:0.5;"/><text fill="#000000" font-family="sans-serif" font-size="14" lengthAdjust="spacing" textLength="42.4899" x="447.7371" y="74.9659">KAFKA</text></g><g class="participant participant-tail" data-entity-uid="part4" data-qualified-name="K" id="part4-tail"><path d="M447.7371,1717.9024 L500.2269,1717.9024 C505.2269,1717.9024 505.2269,1732.4363 505.2269,1732.4363 C505.2269,1732.4363 505.2269,1746.9703 500.2269,1746.9703 L447.7371,1746.9703 C442.7371,1746.9703 442.7371,1732.4363 442.7371,1732.4363 C442.7371,1732.4363 442.7371,1717.9024 447.7371,1717.9024" fill="#E2E2F0" style="stroke:#181818;stroke-width:0.5;"/><path d="M500.2269,1717.9024 C495.2269,1717.9024 495.2269,1732.4363 495.2269,1732.4363 C495.2269,1746.9703 500.2269,1746.9703 500.2269,1746.9703" fill="none" style="stroke:#181818;stroke-width:0.5;"/><text fill="#000000" font-family="sans-serif" font-size="14" lengthAdjust="spacing" textLength="42.4899" x="447.7371" y="1737.8683">KAFKA</text></g><g class="message" data-entity-1="part1" data-entity-2="part2" id="msg1"><polygon fill="#181818" points="174.899,113.7739,184.899,117.7739,174.899,121.7739,178.899,117.7739" style="stroke:#181818;stroke-width:1;"/><line style="stroke:#181818;stroke-width:1;" x1="93.2059" x2="180.899" y1="117.7739" y2="117.7739"/><text fill="#000000" font-family="sans-serif" font-size="13" lengthAdjust="spacing" textLength="69.6931" x="105.2059" y="111.9649">POST order</text></g><path d="M136.5331,132.7739 L268.4772,132.7739 L268.4772,142.4799 L258.4772,152.4799 L136.5331,152.4799 L136.5331,132.7739" fill="#EEEEEE" style="stroke:#000000;stroke-width:1.5;"/><rect fill="none" height="204.2361" style="stroke:#000000;stroke-width:1.5;" width="306.2039" x="136.5331" y="132.7739"/><text fill="#000000" font-family="sans-serif" font-size="13" font-weight="bold" lengthAdjust="spacing" textLength="86.944" x="151.5331" y="147.6709">transactional</text><g class="message" data-entity-1="part2" data-entity-2="part3" id="msg2"><polygon fill="#181818" points="383.0312,172.186,393.0312,176.186,383.0312,180.186,387.0312,176.186" style="stroke:#181818;stroke-width:1;"/><line style="stroke:#181818;stroke-width:1;stroke-dasharray:2,2;" x1="186.899" x2="389.0312" y1="176.186" y2="176.186"/><text fill="#000000" font-family="sans-serif" font-size="13" lengthAdjust="spacing" textLength="64.766" x="258.5821" y="170.377">save order</text></g><g class="message" data-entity-1="part3" data-entity-2="part2" id="msg3"><polygon fill="#181818" points="197.899,203.892,187.899,207.892,197.899,211.892,193.899,207.892" style="stroke:#181818;stroke-width:1;"/><line style="stroke:#181818;stroke-width:1;stroke-dasharray:2,2;" x1="191.899" x2="394.0312" y1="207.892" y2="207.892"/><text fill="#000000" font-family="sans-serif" font-size="13" lengthAdjust="spacing" textLength="33.93" x="274.0001" y="202.083">order</text></g><g class="message" data-entity-1="part2" data-entity-2="part2" id="msg4"><line style="stroke:#181818;stroke-width:1;stroke-dasharray:2,2;" x1="186.899" x2="228.899" y1="239.598" y2="239.598"/><line style="stroke:#181818;stroke-width:1;stroke-dasharray:2,2;" x1="228.899" x2="228.899" y1="239.598" y2="252.598"/><line style="stroke:#181818;stroke-width:1;stroke-dasharray:2,2;" x1="187.899" x2="228.899" y1="252.598" y2="252.598"/><polygon fill="#181818" points="197.899,248.598,187.899,252.598,197.899,256.598,193.899,252.598" style="stroke:#181818;stroke-width:1;"/><text fill="#000000" font-family="sans-serif" font-size="13" lengthAdjust="spacing" textLength="38.259" x="193.899" y="233.789">create</text><text fill="#000000" font-family="sans-serif" font-size="13" font-weight="bold" lengthAdjust="spacing" textLength="122.1091" x="235.538" y="233.789">order placed event</text></g><g class="message" data-entity-1="part2" data-entity-2="part2" id="msg5"><line style="stroke:#181818;stroke-width:1;stroke-dasharray:2,2;" x1="186.899" x2="228.899" y1="284.304" y2="284.304"/><line style="stroke:#181818;stroke-width:1;stroke-dasharray:2,2;" x1="228.899" x2="228.899" y1="284.304" y2="297.304"/><line style="stroke:#181818;stroke-width:1;stroke-dasharray:2,2;" x1="187.899" x2="228.899" y1="297.304" y2="297.304"/><polygon fill="#181818" points="197.899,293.304,187.899,297.304,197.899,301.304,193.899,297.304" style="stroke:#181818;stroke-width:1;"/><text fill="#000000" font-family="sans-serif" font-size="13" lengthAdjust="spacing" textLength="84.9681" x="193.899" y="278.495">create outbox</text></g><g class="message" data-entity-1="part2" data-entity-2="part3" id="msg6"><polygon fill="#181818" points="383.0312,325.01,393.0312,329.01,383.0312,333.01,387.0312,329.01" style="stroke:#181818;stroke-width:1;"/><line style="stroke:#181818;stroke-width:1;stroke-dasharray:2,2;" x1="186.899" x2="389.0312" y1="329.01" y2="329.01"/><text fill="#000000" font-family="sans-serif" font-size="13" lengthAdjust="spacing" textLength="74.1651" x="253.8826" y="323.201">save outbox</text></g><g class="message" data-entity-1="part2" data-entity-2="part1" id="msg7"><polygon fill="#181818" points="104.2059,363.716,94.2059,367.716,104.2059,371.716,100.2059,367.716" style="stroke:#181818;stroke-width:1;"/><line style="stroke:#181818;stroke-width:1;" x1="98.2059" x2="185.899" y1="367.716" y2="367.716"/><text fill="#000000" font-family="sans-serif" font-size="13" lengthAdjust="spacing" textLength="33.93" x="123.0875" y="361.907">order</text></g><path d="M9,382.716 L261.5061,382.716 L261.5061,392.4221 L251.5061,402.4221 L9,402.4221 L9,382.716" fill="#EEEEEE" style="stroke:#000000;stroke-width:1.5;"/><rect fill="none" height="1203.0683" style="stroke:#000000;stroke-width:1.5;" width="775.5544" x="9" y="382.716"/><text fill="#000000" font-family="sans-serif" font-size="13" font-weight="bold" lengthAdjust="spacing" textLength="207.5061" x="24" y="397.6131">listener on DB `outbox_channel`</text><g class="message" data-entity-1="part2" data-entity-2="part3" id="msg8"><polygon fill="#181818" points="197.899,428.1281,187.899,432.1281,197.899,436.1281,193.899,432.1281" style="stroke:#181818;stroke-width:1;"/><polygon fill="#181818" points="383.0312,428.1281,393.0312,432.1281,383.0312,436.1281,387.0312,432.1281" style="stroke:#181818;stroke-width:1;"/><line style="stroke:#181818;stroke-width:1;stroke-dasharray:2,2;" x1="191.899" x2="389.0312" y1="432.1281" y2="432.1281"/><text fill="#000000" font-family="sans-serif" font-size="13" lengthAdjust="spacing" textLength="72.8781" x="254.5261" y="426.3191">listen/notify</text></g><path d="M85,407.4221 L85,434.4221 L181,434.4221 L181,417.4221 L171,407.4221 L85,407.4221" fill="#FEFFDD" style="stroke:#181818;stroke-width:0.5;"/><path d="M171,407.4221 L171,417.4221 L181,417.4221 L171,407.4221" fill="#FEFFDD" style="stroke:#181818;stroke-width:0.5;"/><text fill="#000000" font-family="sans-serif" font-size="13" lengthAdjust="spacing" textLength="75.4651" x="91" y="426.3191">manual CDC</text><path d="M400,407.4221 L400,434.4221 L746,434.4221 L746,417.4221 L736,407.4221 L400,407.4221" fill="#FEFFDD" style="stroke:#181818;stroke-width:0.5;"/><path d="M736,407.4221 L736,417.4221 L746,417.4221 L736,407.4221" fill="#FEFFDD" style="stroke:#181818;stroke-width:0.5;"/><text fill="#000000" font-family="sans-serif" font-size="13" lengthAdjust="spacing" textLength="61.3861" x="406" y="426.3191">trigger on</text><text fill="#000000" font-family="sans-serif" font-size="13" font-weight="bold" lengthAdjust="spacing" textLength="87.9191" x="470.7661" y="426.3191">outbox.insert</text><text fill="#000000" font-family="sans-serif" font-size="13" lengthAdjust="spacing" textLength="63.1411" x="562.0651" y="426.3191">that notify</text><text fill="#000000" font-family="sans-serif" font-size="13" font-weight="bold" lengthAdjust="spacing" textLength="103.1681" x="628.5862" y="426.3191">outbox_channel</text><g class="message" data-entity-1="part2" data-entity-2="part2" id="msg10"><line style="stroke:#181818;stroke-width:1;stroke-dasharray:2,2;" x1="186.899" x2="228.899" y1="463.8341" y2="463.8341"/><line style="stroke:#181818;stroke-width:1;stroke-dasharray:2,2;" x1="228.899" x2="228.899" y1="463.8341" y2="476.8341"/><line style="stroke:#181818;stroke-width:1;stroke-dasharray:2,2;" x1="187.899" x2="228.899" y1="476.8341" y2="476.8341"/><polygon fill="#181818" points="197.899,472.8341,187.899,476.8341,197.899,480.8341,193.899,476.8341" style="stroke:#181818;stroke-width:1;"/><text fill="#000000" font-family="sans-serif" font-size="13" lengthAdjust="spacing" textLength="123.3701" x="193.899" y="458.0251">trigger drain service</text></g><path d="M19,491.8341 L92.288,491.8341 L92.288,501.5401 L82.288,511.5401 L19,511.5401 L19,491.8341" fill="#EEEEEE" style="stroke:#000000;stroke-width:1.5;"/><rect fill="none" height="1086.9502" style="stroke:#000000;stroke-width:1.5;" width="755.5544" x="19" y="491.8341"/><text fill="#000000" font-family="sans-serif" font-size="13" font-weight="bold" lengthAdjust="spacing" textLength="28.288" x="34" y="506.7311">loop</text><text fill="#000000" font-family="sans-serif" font-size="11" font-weight="bold" lengthAdjust="spacing" textLength="228.6334" x="107.288" y="505.593">[until no unpublished outbox is retrieved]</text><path d="M48,516.5401 L48,561.5401 L519,561.5401 L519,526.5401 L509,516.5401 L48,516.5401" fill="#FEFFDD" style="stroke:#181818;stroke-width:0.5;"/><path d="M509,516.5401 L509,526.5401 L519,526.5401 L509,516.5401" fill="#FEFFDD" style="stroke:#181818;stroke-width:0.5;"/><text fill="#000000" font-family="sans-serif" font-size="13" lengthAdjust="spacing" textLength="450.0603" x="54" y="535.4371">keep draining unpublished outbox messages until none is left then sleeps</text><text fill="#000000" font-family="sans-serif" font-size="13" lengthAdjust="spacing" textLength="351.7932" x="54" y="553.1431">is gated by a linear back off in case kafka env is unhealthy</text><path d="M29,573.9521 L160.944,573.9521 L160.944,583.6582 L150.944,593.6582 L29,593.6582 L29,573.9521" fill="#EEEEEE" style="stroke:#000000;stroke-width:1.5;"/><rect fill="none" height="997.8322" style="stroke:#000000;stroke-width:1.5;" width="735.5544" x="29" y="573.9521"/><text fill="#000000" font-family="sans-serif" font-size="13" font-weight="bold" lengthAdjust="spacing" textLength="86.944" x="44" y="588.8492">transactional</text><path d="M69,598.6582 L69,643.6582 L496,643.6582 L496,608.6582 L486,598.6582 L69,598.6582" fill="#FEFFDD" style="stroke:#181818;stroke-width:0.5;"/><path d="M486,598.6582 L486,608.6582 L496,608.6582 L486,598.6582" fill="#FEFFDD" style="stroke:#181818;stroke-width:0.5;"/><text fill="#000000" font-family="sans-serif" font-size="13" lengthAdjust="spacing" textLength="406.1593" x="75.0338" y="617.5552">transaction here to lock current batch in DB in case of concurrency</text><text fill="#000000" font-family="sans-serif" font-size="13" lengthAdjust="spacing" textLength="212.0692" x="75.0338" y="635.2612">any concurrent will pick next batch</text><g class="message" data-entity-1="part2" data-entity-2="part3" id="msg11"><polygon fill="#181818" points="383.0312,671.7762,393.0312,675.7762,383.0312,679.7762,387.0312,675.7762" style="stroke:#181818;stroke-width:1;"/><line style="stroke:#181818;stroke-width:1;stroke-dasharray:2,2;" x1="186.899" x2="389.0312" y1="675.7762" y2="675.7762"/><text fill="#000000" font-family="sans-serif" font-size="13" lengthAdjust="spacing" textLength="184.1322" x="198.899" y="669.9672">get unpublished outbox batch</text></g><path d="M400,654.0702 L400,681.0702 L749,681.0702 L749,664.0702 L739,654.0702 L400,654.0702" fill="#FEFFDD" style="stroke:#181818;stroke-width:0.5;"/><path d="M739,654.0702 L739,664.0702 L749,664.0702 L739,654.0702" fill="#FEFFDD" style="stroke:#181818;stroke-width:0.5;"/><text fill="#000000" font-family="sans-serif" font-size="13" font-weight="bold" lengthAdjust="spacing" textLength="328.5232" x="406" y="672.9672">publishedAt == null AND attempts &lt; max_attempts</text><g class="message" data-entity-1="part3" data-entity-2="part2" id="msg13"><polygon fill="#181818" points="197.899,706.4822,187.899,710.4822,197.899,714.4822,193.899,710.4822" style="stroke:#181818;stroke-width:1;"/><line style="stroke:#181818;stroke-width:1;stroke-dasharray:2,2;" x1="191.899" x2="394.0312" y1="710.4822" y2="710.4822"/><text fill="#000000" font-family="sans-serif" font-size="13" lengthAdjust="spacing" textLength="80.9641" x="250.4831" y="704.6732">outbox batch</text></g><g class="message" data-entity-1="part2" data-entity-2="part2" id="msg14"><line style="stroke:#181818;stroke-width:1;stroke-dasharray:2,2;" x1="186.899" x2="228.899" y1="742.1882" y2="742.1882"/><line style="stroke:#181818;stroke-width:1;stroke-dasharray:2,2;" x1="228.899" x2="228.899" y1="742.1882" y2="755.1882"/><line style="stroke:#181818;stroke-width:1;stroke-dasharray:2,2;" x1="187.899" x2="228.899" y1="755.1882" y2="755.1882"/><polygon fill="#181818" points="197.899,751.1882,187.899,755.1882,197.899,759.1882,193.899,755.1882" style="stroke:#181818;stroke-width:1;"/><text fill="#000000" font-family="sans-serif" font-size="13" lengthAdjust="spacing" textLength="86.0991" x="193.899" y="736.3792">extract events</text></g><path d="M69,768.1882 L69,795.1882 L496,795.1882 L496,778.1882 L486,768.1882 L69,768.1882" fill="#FEFFDD" style="stroke:#181818;stroke-width:0.5;"/><path d="M486,768.1882 L486,778.1882 L496,778.1882 L486,768.1882" fill="#FEFFDD" style="stroke:#181818;stroke-width:0.5;"/><text fill="#000000" font-family="sans-serif" font-size="13" lengthAdjust="spacing" textLength="249.4962" x="153.3653" y="787.0853">detach from any transaction, not needed</text><g class="message" data-entity-1="part2" data-entity-2="part4" id="msg15"><polygon fill="#181818" points="461.982,820.6003,471.982,824.6003,461.982,828.6003,465.982,824.6003" style="stroke:#181818;stroke-width:1;"/><line style="stroke:#181818;stroke-width:1;stroke-dasharray:2,2;" x1="186.899" x2="467.982" y1="824.6003" y2="824.6003"/><text fill="#000000" font-family="sans-serif" font-size="13" lengthAdjust="spacing" textLength="82.6281" x="289.1264" y="818.7913">publish batch</text></g><g class="message" data-entity-1="part4" data-entity-2="part2" id="msg16"><polygon fill="#181818" points="197.899,852.3063,187.899,856.3063,197.899,860.3063,193.899,856.3063" style="stroke:#181818;stroke-width:1;"/><line style="stroke:#181818;stroke-width:1;stroke-dasharray:2,2;" x1="191.899" x2="472.982" y1="856.3063" y2="856.3063"/><text fill="#000000" font-family="sans-serif" font-size="13" lengthAdjust="spacing" textLength="86.3721" x="287.2545" y="850.4973">return futures</text></g><path d="M39,871.3063 L112.288,871.3063 L112.288,881.0123 L102.288,891.0123 L39,891.0123 L39,871.3063" fill="#EEEEEE" style="stroke:#000000;stroke-width:1.5;"/><rect fill="none" height="693.478" style="stroke:#000000;stroke-width:1.5;" width="501.9833" x="39" y="871.3063"/><text fill="#000000" font-family="sans-serif" font-size="13" font-weight="bold" lengthAdjust="spacing" textLength="28.288" x="54" y="886.2033">loop</text><text fill="#000000" font-family="sans-serif" font-size="11" font-weight="bold" lengthAdjust="spacing" textLength="90.0673" x="127.288" y="885.0652">[for each future]</text><g class="message" data-entity-1="part2" data-entity-2="part2" id="msg17"><line style="stroke:#181818;stroke-width:1;stroke-dasharray:2,2;" x1="186.899" x2="228.899" y1="914.7183" y2="914.7183"/><line style="stroke:#181818;stroke-width:1;stroke-dasharray:2,2;" x1="228.899" x2="228.899" y1="914.7183" y2="927.7183"/><line style="stroke:#181818;stroke-width:1;stroke-dasharray:2,2;" x1="187.899" x2="228.899" y1="927.7183" y2="927.7183"/><polygon fill="#181818" points="197.899,923.7183,187.899,927.7183,197.899,931.7183,193.899,927.7183" style="stroke:#181818;stroke-width:1;"/><text fill="#000000" font-family="sans-serif" font-size="13" lengthAdjust="spacing" textLength="125.3201" x="193.899" y="908.9093">acquire future result</text></g><path d="M49,942.7183 L111.459,942.7183 L111.459,952.4243 L101.459,962.4243 L49,962.4243 L49,942.7183" fill="#EEEEEE" style="stroke:#000000;stroke-width:1.5;"/><rect fill="none" height="615.066" style="stroke:#000000;stroke-width:1.5;" width="481.9833" x="49" y="942.7183"/><text fill="#000000" font-family="sans-serif" font-size="13" font-weight="bold" lengthAdjust="spacing" textLength="17.459" x="64" y="957.6153">alt</text><text fill="#000000" font-family="sans-serif" font-size="11" font-weight="bold" lengthAdjust="spacing" textLength="106.9743" x="126.459" y="956.4772">[successful publish]</text><g class="message" data-entity-1="part4" data-entity-2="part2" id="msg18"><polygon fill="#008000" points="197.899,982.1304,187.899,986.1304,197.899,990.1304,193.899,986.1304" style="stroke:#008000;stroke-width:1;"/><line style="stroke:#008000;stroke-width:1;stroke-dasharray:2,2;" x1="191.899" x2="472.982" y1="986.1304" y2="986.1304"/><text fill="#000000" font-family="sans-serif" font-size="13" lengthAdjust="spacing" textLength="72.9431" x="293.969" y="980.3214">ACK publish</text></g><g class="message" data-entity-1="part2" data-entity-2="part3" id="msg19"><polygon fill="#181818" points="383.0312,1016.8364,393.0312,1020.8364,383.0312,1024.8364,387.0312,1020.8364" style="stroke:#181818;stroke-width:1;"/><line style="stroke:#181818;stroke-width:1;stroke-dasharray:2,2;" x1="186.899" x2="389.0312" y1="1020.8364" y2="1020.8364"/><text fill="#000000" font-family="sans-serif" font-size="13" lengthAdjust="spacing" textLength="150.4231" x="215.7535" y="1015.0274">flag outbox as published</text></g><path d="M400,999.1304 L400,1026.1304 L515,1026.1304 L515,1009.1304 L505,999.1304 L400,999.1304" fill="#FEFFDD" style="stroke:#181818;stroke-width:0.5;"/><path d="M505,999.1304 L505,1009.1304 L515,1009.1304 L505,999.1304" fill="#FEFFDD" style="stroke:#181818;stroke-width:0.5;"/><text fill="#000000" font-family="sans-serif" font-size="13" lengthAdjust="spacing" textLength="94.9521" x="406" y="1018.0274">set publishedAt</text><line style="stroke:#000000;stroke-width:1;stroke-dasharray:2,2;" x1="49" x2="530.9833" y1="1032.8364" y2="1032.8364"/><text fill="#000000" font-family="sans-serif" font-size="11" font-weight="bold" lengthAdjust="spacing" textLength="121.4281" x="54" y="1044.5953">[unsuccessful publish]</text><g class="message" data-entity-1="part4" data-entity-2="part2" id="msg21"><polygon fill="#FF0000" points="197.899,1068.5243,187.899,1072.5243,197.899,1076.5243,193.899,1072.5243" style="stroke:#FF0000;stroke-width:1;"/><line style="stroke:#FF0000;stroke-width:1;stroke-dasharray:2,2;" x1="191.899" x2="472.982" y1="1072.5243" y2="1072.5243"/><text fill="#000000" font-family="sans-serif" font-size="13" lengthAdjust="spacing" textLength="41.6391" x="309.621" y="1066.7153">ERROR</text></g><g class="message" data-entity-1="part2" data-entity-2="part2" id="msg22"><line style="stroke:#FF0000;stroke-width:1;stroke-dasharray:2,2;" x1="186.899" x2="228.899" y1="1104.2303" y2="1104.2303"/><line style="stroke:#FF0000;stroke-width:1;stroke-dasharray:2,2;" x1="228.899" x2="228.899" y1="1104.2303" y2="1117.2303"/><line style="stroke:#FF0000;stroke-width:1;stroke-dasharray:2,2;" x1="187.899" x2="228.899" y1="1117.2303" y2="1117.2303"/><polygon fill="#FF0000" points="197.899,1113.2303,187.899,1117.2303,197.899,1121.2303,193.899,1117.2303" style="stroke:#FF0000;stroke-width:1;"/><text fill="#000000" font-family="sans-serif" font-size="13" lengthAdjust="spacing" textLength="58.2531" x="193.899" y="1098.4213">or ERROR</text></g><path d="M59,1132.2303 L121.459,1132.2303 L121.459,1141.9363 L111.459,1151.9363 L59,1151.9363 L59,1132.2303" fill="#EEEEEE" style="stroke:#000000;stroke-width:1.5;"/><rect fill="none" height="418.554" style="stroke:#000000;stroke-width:1.5;" width="461.4303" x="59" y="1132.2303"/><text fill="#000000" font-family="sans-serif" font-size="13" font-weight="bold" lengthAdjust="spacing" textLength="17.459" x="74" y="1147.1273">alt</text><text fill="#000000" font-family="sans-serif" font-size="11" font-weight="bold" lengthAdjust="spacing" textLength="103.6082" x="136.459" y="1145.9892">[recoverable error]</text><path d="M69,1156.9363 L69,1254.9363 L496,1254.9363 L496,1166.9363 L486,1156.9363 L69,1156.9363" fill="#FEFFDD" style="stroke:#181818;stroke-width:0.5;"/><path d="M486,1156.9363 L486,1166.9363 L496,1166.9363 L486,1156.9363" fill="#FEFFDD" style="stroke:#181818;stroke-width:0.5;"/><text fill="#000000" font-family="sans-serif" font-size="13" font-weight="bold" lengthAdjust="spacing" textLength="189.6052" x="183.3109" y="1175.8333">recoverable/transient errors:</text><text fill="#000000" font-family="sans-serif" font-size="13" lengthAdjust="spacing" textLength="48.1261" x="183.3109" y="1193.5393">timeout</text><text fill="#000000" font-family="sans-serif" font-size="13" lengthAdjust="spacing" textLength="120.7311" x="183.3109" y="1211.2454">election in progress</text><text fill="#000000" font-family="sans-serif" font-size="13" lengthAdjust="spacing" textLength="78.3641" x="183.3109" y="1228.9514">broker down</text><text fill="#000000" font-family="sans-serif" font-size="13" lengthAdjust="spacing" textLength="177.3201" x="183.3109" y="1246.6574">schema registry unreachable</text><g class="message" data-entity-1="part2" data-entity-2="part2" id="msg23"><line style="stroke:#181818;stroke-width:1;stroke-dasharray:2,2;" x1="186.899" x2="228.899" y1="1284.1724" y2="1284.1724"/><line style="stroke:#181818;stroke-width:1;stroke-dasharray:2,2;" x1="228.899" x2="228.899" y1="1284.1724" y2="1297.1724"/><line style="stroke:#181818;stroke-width:1;stroke-dasharray:2,2;" x1="187.899" x2="228.899" y1="1297.1724" y2="1297.1724"/><polygon fill="#181818" points="197.899,1293.1724,187.899,1297.1724,197.899,1301.1724,193.899,1297.1724" style="stroke:#181818;stroke-width:1;"/><text fill="#000000" font-family="sans-serif" font-size="13" lengthAdjust="spacing" textLength="67.2491" x="193.899" y="1278.3634">do nothing</text></g><line style="stroke:#000000;stroke-width:1;stroke-dasharray:2,2;" x1="59" x2="520.4303" y1="1306.1724" y2="1306.1724"/><text fill="#000000" font-family="sans-serif" font-size="11" font-weight="bold" lengthAdjust="spacing" textLength="127.731" x="64" y="1317.9313">[non recoverable error]</text><path d="M69,1327.1543 L69,1425.1543 L496,1425.1543 L496,1337.1543 L486,1327.1543 L69,1327.1543" fill="#FEFFDD" style="stroke:#181818;stroke-width:0.5;"/><path d="M486,1327.1543 L486,1337.1543 L496,1337.1543 L486,1327.1543" fill="#FEFFDD" style="stroke:#181818;stroke-width:0.5;"/><text fill="#000000" font-family="sans-serif" font-size="13" font-weight="bold" lengthAdjust="spacing" textLength="230.7242" x="162.7514" y="1346.0513">non recoverable/permanent errors:</text><text fill="#000000" font-family="sans-serif" font-size="13" lengthAdjust="spacing" textLength="75.0881" x="162.7514" y="1363.7573">bad payload</text><text fill="#000000" font-family="sans-serif" font-size="13" lengthAdjust="spacing" textLength="73.632" x="162.7514" y="1381.4634">serialization</text><text fill="#000000" font-family="sans-serif" font-size="13" lengthAdjust="spacing" textLength="130.3251" x="162.7514" y="1399.1694">incompatible schema</text><text fill="#000000" font-family="sans-serif" font-size="13" lengthAdjust="spacing" textLength="66.1051" x="162.7514" y="1416.8754">unhandled</text><path d="M136.5331,1437.6844 L198.9921,1437.6844 L198.9921,1447.3904 L188.9921,1457.3904 L136.5331,1457.3904 L136.5331,1437.6844" fill="#EEEEEE" style="stroke:#000000;stroke-width:1.5;"/><rect fill="none" height="106.0999" style="stroke:#000000;stroke-width:1.5;" width="373.8971" x="136.5331" y="1437.6844"/><text fill="#000000" font-family="sans-serif" font-size="13" font-weight="bold" lengthAdjust="spacing" textLength="17.459" x="151.5331" y="1452.5814">alt</text><text fill="#000000" font-family="sans-serif" font-size="11" font-weight="bold" lengthAdjust="spacing" textLength="149.016" x="213.9921" y="1451.4433">[attempts &lt; max_attempts]</text><g class="message" data-entity-1="part2" data-entity-2="part3" id="msg24"><polygon fill="#181818" points="383.0312,1477.0964,393.0312,1481.0964,383.0312,1485.0964,387.0312,1481.0964" style="stroke:#181818;stroke-width:1;"/><line style="stroke:#181818;stroke-width:1;stroke-dasharray:2,2;" x1="186.899" x2="389.0312" y1="1481.0964" y2="1481.0964"/><text fill="#000000" font-family="sans-serif" font-size="13" lengthAdjust="spacing" textLength="76.0891" x="252.9206" y="1475.2874">inc attempts</text></g><line style="stroke:#000000;stroke-width:1;stroke-dasharray:2,2;" x1="136.5331" x2="510.4303" y1="1490.0964" y2="1490.0964"/><text fill="#000000" font-family="sans-serif" font-size="11" font-weight="bold" lengthAdjust="spacing" textLength="155.3079" x="141.5331" y="1501.8553">[attempts &gt;= max_attempts]</text><g class="message" data-entity-1="part2" data-entity-2="part3" id="msg25"><polygon fill="#181818" points="383.0312,1528.7843,393.0312,1532.7843,383.0312,1536.7843,387.0312,1532.7843" style="stroke:#181818;stroke-width:1;"/><line style="stroke:#181818;stroke-width:1;stroke-dasharray:2,2;" x1="186.899" x2="389.0312" y1="1532.7843" y2="1532.7843"/><text fill="#000000" font-family="sans-serif" font-size="13" lengthAdjust="spacing" textLength="156.8711" x="212.5295" y="1526.9753">flag outbox as dead letter</text></g><path d="M400,1511.0783 L400,1538.0783 L495,1538.0783 L495,1521.0783 L485,1511.0783 L400,1511.0783" fill="#FEFFDD" style="stroke:#181818;stroke-width:0.5;"/><path d="M485,1511.0783 L485,1521.0783 L495,1521.0783 L485,1511.0783" fill="#FEFFDD" style="stroke:#181818;stroke-width:0.5;"/><text fill="#000000" font-family="sans-serif" font-size="13" lengthAdjust="spacing" textLength="74.3991" x="406" y="1529.9753">set lastError</text><path d="M59,1599.7843 L287.3652,1599.7843 L287.3652,1609.4903 L277.3652,1619.4903 L59,1619.4903 L59,1599.7843" fill="#EEEEEE" style="stroke:#000000;stroke-width:1.5;"/><rect fill="none" height="102.118" style="stroke:#000000;stroke-width:1.5;" width="447.2269" x="59" y="1599.7843"/><text fill="#000000" font-family="sans-serif" font-size="13" font-weight="bold" lengthAdjust="spacing" textLength="183.3652" x="74" y="1614.6813">low freq rescue periodic poll</text><path d="M69,1624.4903 L69,1651.4903 L496,1651.4903 L496,1634.4903 L486,1624.4903 L69,1624.4903" fill="#FEFFDD" style="stroke:#181818;stroke-width:0.5;"/><path d="M486,1624.4903 L486,1634.4903 L496,1634.4903 L486,1624.4903" fill="#FEFFDD" style="stroke:#181818;stroke-width:0.5;"/><text fill="#000000" font-family="sans-serif" font-size="13" lengthAdjust="spacing" textLength="279.4352" x="138.3959" y="1643.3874">rescue in case listener fails or back off kicks in</text><g class="message" data-entity-1="part2" data-entity-2="part2" id="msg27"><line style="stroke:#181818;stroke-width:1;stroke-dasharray:2,2;" x1="186.899" x2="228.899" y1="1680.9024" y2="1680.9024"/><line style="stroke:#181818;stroke-width:1;stroke-dasharray:2,2;" x1="228.899" x2="228.899" y1="1680.9024" y2="1693.9024"/><line style="stroke:#181818;stroke-width:1;stroke-dasharray:2,2;" x1="187.899" x2="228.899" y1="1693.9024" y2="1693.9024"/><polygon fill="#181818" points="197.899,1689.9024,187.899,1693.9024,197.899,1697.9024,193.899,1693.9024" style="stroke:#181818;stroke-width:1;"/><text fill="#000000" font-family="sans-serif" font-size="13" lengthAdjust="spacing" textLength="123.3701" x="193.899" y="1675.0934">trigger drain service</text></g><?plantuml-src jLRRRjiu47tNLmomRqQxUJUQ04hi0WjZcy9fdhQBT4ID9C8qgV3YnFlrEvGiHRv8pHPO0OPapfdxuP1k8tMD5hVWw3cG5lGdEOSbfKgM6WHfJpP9K7XZuV5XkGPqy9Xa9kWSxHxkrulb-Ydz-aTSvrUIeySC7S4Y_PRUfW_BA5ZS9cmy4ApIpwiqhgoIv14-taILENozV_W6nkRigRGcrE0jQiS-fT6e4k0dUlZ8-CNj71pkw02FeiLj8sailQrs2isoi8IUO3Phv50h59G3xJYxsMmKReBFpEk8-rP6EayQsGqyTjuFEIZfF6dsPdGCyKUhyIGgr9hKZzxifyvkgt2bZPV5lX7p9u6YmizXYpgWWhl5tPl4oh9YaUTtsVhX11illqljo79ku2lqq9hifLqCbrBlZEKMfMPEs9qKrC2KCJK4xQLYU_nHXumZhhYEhLMG3YonFfSrRpJwG55OuzmSDaHrQrdgyfA9RSizr_lH5Ct64d0cn04fDk6-QruikKKvP7j0hfmcj92Xs80f2k38HQJW1eiD0kbTD19qHQXyjUzZ6-FQnTW7CAZ84dZ39M678bZBF6BlNbJHDJUx2y0K88nk4MB_NQFUloruU95AGItPYARNWuMZ28QqAybVAjcvqf0Rircla7gulWOTs6NwPG7eFMrhx-0JS-lrgVjxu4Jt7EsjCOT71E94B9UftLnkl9uvUUHw5TPi8PPbKDyF4SabeNn0fA6ZrHmEQLs8PlKM2zCnM0r5u1STnzAmkU2PHaqK3U88S9OOYkSWkUyjbcsxeFoP2ZCCN122YLm4rOLv1Zi4-jTlfINIVtS-qhlLfCgG3uN2iki93zI-pnSLXvnmJAG1Ayxmf9YvGV-NB2pbVGxBzVf-FHxzCPWRC8wFjRGap8uiPeg0h3Ns8lA4NQEO-Cnc0vjN3Urat8oDTJS_sG2dZvTRug9FOaXHEoTu3DJMS8j_4b9cpIRENFEY9t5ELBH5had9HmKVla7RID-OoAWUdr1DQKO1HoJFJGHNF9wJovanDNWg_ozjER5xLPFbK-_zhSamXnhtoc0-NKMo4fNy1sEF9f5I2xEj6HVJR8i_YUSZ1dMkAF_rRaJEZupcITV3oS1Xmq-LcbRsdcwkVytLoH3AYNkWo7koaoPEnv52vvUJD8eNhVUkdwuD_tVVyHr_tMNDlF1HHCznh0k-fpBtfCcbWDeebPmTNWTKTyptLxq2fN9ngFLNaGsVxew1xxrfSKp_0W00?></g></svg>