<?plantuml 1.2026.2?><svg xmlns="http://www.w3.org/2000/svg" xmlns:xlink="http://www.w3.org/1999/xlink" contentStyleType="text/css" data-diagram-type="SEQUENCE" height="2526px" preserveAspectRatio="none" style="width:815px;height:2526px;background:#FFFFFF;" version="1.1" viewBox="0 0 815 2526" width="815px" zoomAndPan="magnify"><defs/><g><rect fill="none" height="307.3541" style="stroke:#000000;stroke-width:1.5;" width="491.9193" x="63" y="101.0679"/><rect fill="none" height="210.2361" style="stroke:#000000;stroke-width:1.5;" width="390.7842" x="154.1352" y="159.4799"/><rect fill="none" height="1171.3623" style="stroke:#000000;stroke-width:1.5;" width="793.1564" x="9" y="422.4221"/><rect fill="none" height="1055.2442" style="stroke:#000000;stroke-width:1.5;" width="773.1564" x="19" y="531.5401"/><rect fill="none" height="966.1262" style="stroke:#000000;stroke-width:1.5;" width="753.1564" x="29" y="613.6582"/><rect fill="none" height="693.478" style="stroke:#000000;stroke-width:1.5;" width="519.5853" x="39" y="879.3063"/><rect fill="none" height="615.066" style="stroke:#000000;stroke-width:1.5;" width="499.5853" x="49" y="950.7183"/><rect fill="none" height="418.554" style="stroke:#000000;stroke-width:1.5;" width="479.0323" x="59" y="1140.2303"/><rect fill="none" height="106.0999" style="stroke:#000000;stroke-width:1.5;" width="373.8971" x="154.1352" y="1445.6844"/><rect fill="none" height="102.118" style="stroke:#000000;stroke-width:1.5;" width="464.8289" x="59" y="1607.7843"/><rect fill="none" height="576.9842" style="stroke:#000000;stroke-width:1.5;" width="770.5062" x="39" y="1723.9024"/><rect fill="none" height="543.2782" style="stroke:#000000;stroke-width:1.5;" width="750.5062" x="49" y="1750.6084"/><rect fill="none" height="402.4541" style="stroke:#000000;stroke-width:1.5;" width="730.5062" x="59" y="1884.4325"/><rect fill="none" height="267.63" style="stroke:#000000;stroke-width:1.5;" width="625.3711" x="154.1352" y="2012.2565"/><rect fill="none" height="111.118" style="stroke:#000000;stroke-width:1.5;" width="397.3391" x="63" y="2314.8865"/><g class="participant-lifeline" data-entity-uid="part1" data-qualified-name="U" id="part1-lifeline"><g><title>USER</title><rect fill="#000000" fill-opacity="0.00000" height="2358.9367" width="8" x="89.2059" y="84.0679"/><line style="stroke:#181818;stroke-width:0.5;stroke-dasharray:5,5;" x1="93" x2="93" y1="84.0679" y2="2443.0046"/></g></g><g class="participant-lifeline" data-entity-uid="part2" data-qualified-name="API" id="part2-lifeline"><g><title>ORDER_API</title><rect fill="#000000" fill-opacity="0.00000" height="2358.9367" width="8" x="200.501" y="84.0679"/><line style="stroke:#181818;stroke-width:0.5;stroke-dasharray:5,5;" x1="204.1352" x2="204.1352" y1="84.0679" y2="2443.0046"/></g></g><g class="participant-lifeline" data-entity-uid="part3" data-qualified-name="DB" id="part3-lifeline"><g><title>DATABASE</title><rect fill="#000000" fill-opacity="0.00000" height="2358.9367" width="8" x="408.6332" y="84.0679"/><line style="stroke:#181818;stroke-width:0.5;stroke-dasharray:5,5;" x1="411.9273" x2="411.9273" y1="84.0679" y2="2443.0046"/></g></g><g class="participant-lifeline" data-entity-uid="part4" data-qualified-name="K" id="part4-lifeline"><g><title>KAFKA</title><rect fill="#000000" fill-opacity="0.00000" height="2358.9367" width="8" x="487.584" y="84.0679"/><line style="stroke:#181818;stroke-width:0.5;stroke-dasharray:5,5;" x1="491.3391" x2="491.3391" y1="84.0679" y2="2443.0046"/></g></g><g class="participant participant-head" data-entity-uid="part1" data-qualified-name="U" id="part1-head"><text fill="#000000" font-family="sans-serif" font-size="14" lengthAdjust="spacing" textLength="34.4119" x="73" y="79.9659">USER</text><ellipse cx="93.2059" cy="13.5" fill="#E2E2F0" rx="8" ry="8" style="stroke:#181818;stroke-width:0.5;"/><path d="M93.2059,21.5 L93.2059,48.5 M80.2059,29.5 L106.2059,29.5 M93.2059,48.5 L80.2059,63.5 M93.2059,48.5 L106.2059,63.5" fill="none" style="stroke:#181818;stroke-width:0.5;"/></g><g class="participant participant-tail" data-entity-uid="part1" data-qualified-name="U" id="part1-tail"><text fill="#000000" font-family="sans-serif" font-size="14" lengthAdjust="spacing" textLength="34.4119" x="73" y="2456.9705">USER</text><ellipse cx="93.2059" cy="2469.5725" fill="#E2E2F0" rx="8" ry="8" style="stroke:#181818;stroke-width:0.5;"/><path d="M93.2059,2477.5725 L93.2059,2504.5725 M80.2059,2485.5725 L106.2059,2485.5725 M93.2059,2504.5725 L80.2059,2519.5725 M93.2059,2504.5725 L106.2059,2519.5725" fill="none" style="stroke:#181818;stroke-width:0.5;"/></g><g class="participant participant-head" data-entity-uid="part2" data-qualified-name="API" id="part2-head"><text fill="#000000" font-family="sans-serif" font-size="14" lengthAdjust="spacing" textLength="74.7317" x="164.1352" y="79.9659">ORDER_API</text><path d="M184.001,37 L184.001,61 M184.001,49 L201.001,49" fill="none" style="stroke:#181818;stroke-width:0.5;"/><ellipse cx="213.001" cy="49" fill="#E2E2F0" rx="12" ry="12" style="stroke:#181818;stroke-width:0.5;"/></g><g class="participant participant-tail" data-entity-uid="part2" data-qualified-name="API" id="part2-tail"><text fill="#000000" font-family="sans-serif" font-size="14" lengthAdjust="spacing" textLength="74.7317" x="164.1352" y="2456.9705">ORDER_API</text><path d="M184.001,2465.0725 L184.001,2489.0725 M184.001,2477.0725 L201.001,2477.0725" fill="none" style="stroke:#181818;stroke-width:0.5;"/><ellipse cx="213.001" cy="2477.0725" fill="#E2E2F0" rx="12" ry="12" style="stroke:#181818;stroke-width:0.5;"/></g><g class="participant participant-head" data-entity-uid="part3" data-qualified-name="DB" id="part3-head"><text fill="#000000" font-family="sans-serif" font-size="14" lengthAdjust="spacing" textLength="69.4117" x="374.9273" y="79.9659">DATABASE</text><path d="M394.6332,29 C394.6332,19 412.6332,19 412.6332,19 C412.6332,19 430.6332,19 430.6332,29 L430.6332,55 C430.6332,65 412.6332,65 412.6332,65 C412.6332,65 394.6332,65 394.6332,55 L394.6332,29" fill="#E2E2F0" style="stroke:#181818;stroke-width:0.5;"/><path d="M394.6332,29 C394.6332,39 412.6332,39 412.6332,39 C412.6332,39 430.6332,39 430.6332,29" fill="none" style="stroke:#181818;stroke-width:0.5;"/></g><g class="participant participant-tail" data-entity-uid="part3" data-qualified-name="DB" id="part3-tail"><text fill="#000000" font-family="sans-serif" font-size="14" lengthAdjust="spacing" textLength="69.4117" x="374.9273" y="2456.9705">DATABASE</text><path d="M394.6332,2471.0725 C394.6332,2461.0725 412.6332,2461.0725 412.6332,2461.0725 C412.6332,2461.0725 430.6332,2461.0725 430.6332,2471.0725 L430.6332,2497.0725 C430.6332,2507.0725 412.6332,2507.0725 412.6332,2507.0725 C412.6332,2507.0725 394.6332,2507.0725 394.6332,2497.0725 L394.6332,2471.0725" fill="#E2E2F0" style="stroke:#181818;stroke-width:0.5;"/><path d="M394.6332,2471.0725 C394.6332,2481.0725 412.6332,2481.0725 412.6332,2481.0725 C412.6332,2481.0725 430.6332,2481.0725 430.6332,2471.0725" fill="none" style="stroke:#181818;stroke-width:0.5;"/></g><g class="participant participant-head" data-entity-uid="part4" data-qualified-name="K" id="part4-head"><path d="M465.3391,55 L517.8289,55 C522.8289,55 522.8289,69.534 522.8289,69.534 C522.8289,69.534 522.8289,84.0679 517.8289,84.0679 L465.3391,84.0679 C460.3391,84.0679 460.3391,69.534 460.3391,69.534 C460.3391,69.534 460.3391,55 465.3391,55" fill="#E2E2F0" style="stroke:#181818;stroke-width:0.5;"/><path d="M517.8289,55 C512.8289,55 512.8289,69.534 512.8289,69.534 C512.8289,84.0679 517.8289,84.0679 517.8289,84.0679" fill="none" style="stroke:#181818;stroke-width:0.5;"/><text fill="#000000" font-family="sans-serif" font-size="14" lengthAdjust="spacing" textLength="42.4899" x="465.3391" y="74.9659">KAFKA</text></g><g class="participant participant-tail" data-entity-uid="part4" data-qualified-name="K" id="part4-tail"><path d="M465.3391,2442.0046 L517.8289,2442.0046 C522.8289,2442.0046 522.8289,2456.5386 522.8289,2456.5386 C522.8289,2456.5386 522.8289,2471.0725 517.8289,2471.0725 L465.3391,2471.0725 C460.3391,2471.0725 460.3391,2456.5386 460.3391,2456.5386 C460.3391,2456.5386 460.3391,2442.0046 465.3391,2442.0046" fill="#E2E2F0" style="stroke:#181818;stroke-width:0.5;"/><path d="M517.8289,2442.0046 C512.8289,2442.0046 512.8289,2456.5386 512.8289,2456.5386 C512.8289,2471.0725 517.8289,2471.0725 517.8289,2471.0725" fill="none" style="stroke:#181818;stroke-width:0.5;"/><text fill="#000000" font-family="sans-serif" font-size="14" lengthAdjust="spacing" textLength="42.4899" x="465.3391" y="2461.9705">KAFKA</text></g><path d="M63,101.0679 L138.55,101.0679 L138.55,110.7739 L128.55,120.7739 L63,120.7739 L63,101.0679" fill="#EEEEEE" style="stroke:#000000;stroke-width:1.5;"/><rect fill="none" height="307.3541" style="stroke:#000000;stroke-width:1.5;" width="491.9193" x="63" y="101.0679"/><text fill="#000000" font-family="sans-serif" font-size="13" font-weight="bold" lengthAdjust="spacing" textLength="30.55" x="78" y="115.9649">REST</text><g class="message" data-entity-1="part1" data-entity-2="part2" id="msg1"><polygon fill="#181818" points="192.501,140.4799,202.501,144.4799,192.501,148.4799,196.501,144.4799" style="stroke:#181818;stroke-width:1;"/><line style="stroke:#181818;stroke-width:1;" x1="93.2059" x2="198.501" y1="144.4799" y2="144.4799"/><text fill="#000000" font-family="sans-serif" font-size="13" lengthAdjust="spacing" textLength="69.6931" x="114.0069" y="138.6709">POST order</text></g><path d="M154.1352,159.4799 L286.0792,159.4799 L286.0792,169.186 L276.0792,179.186 L154.1352,179.186 L154.1352,159.4799" fill="#EEEEEE" style="stroke:#000000;stroke-width:1.5;"/><rect fill="none" height="210.2361" style="stroke:#000000;stroke-width:1.5;" width="390.7842" x="154.1352" y="159.4799"/><text fill="#000000" font-family="sans-serif" font-size="13" font-weight="bold" lengthAdjust="spacing" textLength="86.944" x="169.1352" y="174.377">transactional</text><g class="message" data-entity-1="part2" data-entity-2="part3" id="msg2"><polygon fill="#181818" points="400.6332,201.892,410.6332,205.892,400.6332,209.892,404.6332,205.892" style="stroke:#181818;stroke-width:1;"/><line style="stroke:#181818;stroke-width:1;stroke-dasharray:2,2;" x1="204.501" x2="406.6332" y1="205.892" y2="205.892"/><text fill="#000000" font-family="sans-serif" font-size="13" lengthAdjust="spacing" textLength="64.766" x="276.1841" y="200.083">save order</text></g><path d="M417,184.186 L417,211.186 L529,211.186 L529,194.186 L519,184.186 L417,184.186" fill="#FEFFDD" style="stroke:#181818;stroke-width:0.5;"/><path d="M519,184.186 L519,194.186 L529,194.186 L519,184.186" fill="#FEFFDD" style="stroke:#181818;stroke-width:0.5;"/><text fill="#000000" font-family="sans-serif" font-size="13" lengthAdjust="spacing" textLength="91.2861" x="423" y="203.083">status pending</text><g class="message" data-entity-1="part3" data-entity-2="part2" id="msg4"><polygon fill="#181818" points="215.501,236.598,205.501,240.598,215.501,244.598,211.501,240.598" style="stroke:#181818;stroke-width:1;"/><line style="stroke:#181818;stroke-width:1;stroke-dasharray:2,2;" x1="209.501" x2="411.6332" y1="240.598" y2="240.598"/><text fill="#000000" font-family="sans-serif" font-size="13" lengthAdjust="spacing" textLength="33.93" x="291.6021" y="234.789">order</text></g><g class="message" data-entity-1="part2" data-entity-2="part2" id="msg5"><line style="stroke:#181818;stroke-width:1;stroke-dasharray:2,2;" x1="204.501" x2="246.501" y1="272.304" y2="272.304"/><line style="stroke:#181818;stroke-width:1;stroke-dasharray:2,2;" x1="246.501" x2="246.501" y1="272.304" y2="285.304"/><line style="stroke:#181818;stroke-width:1;stroke-dasharray:2,2;" x1="205.501" x2="246.501" y1="285.304" y2="285.304"/><polygon fill="#181818" points="215.501,281.304,205.501,285.304,215.501,289.304,211.501,285.304" style="stroke:#181818;stroke-width:1;"/><text fill="#000000" font-family="sans-serif" font-size="13" lengthAdjust="spacing" textLength="156.5331" x="211.501" y="266.495">create order placed event</text></g><g class="message" data-entity-1="part2" data-entity-2="part2" id="msg6"><line style="stroke:#181818;stroke-width:1;stroke-dasharray:2,2;" x1="204.501" x2="246.501" y1="317.01" y2="317.01"/><line style="stroke:#181818;stroke-width:1;stroke-dasharray:2,2;" x1="246.501" x2="246.501" y1="317.01" y2="330.01"/><line style="stroke:#181818;stroke-width:1;stroke-dasharray:2,2;" x1="205.501" x2="246.501" y1="330.01" y2="330.01"/><polygon fill="#181818" points="215.501,326.01,205.501,330.01,215.501,334.01,211.501,330.01" style="stroke:#181818;stroke-width:1;"/><text fill="#000000" font-family="sans-serif" font-size="13" lengthAdjust="spacing" textLength="84.9681" x="211.501" y="311.201">create outbox</text></g><g class="message" data-entity-1="part2" data-entity-2="part3" id="msg7"><polygon fill="#181818" points="400.6332,357.716,410.6332,361.716,400.6332,365.716,404.6332,361.716" style="stroke:#181818;stroke-width:1;"/><line style="stroke:#181818;stroke-width:1;stroke-dasharray:2,2;" x1="204.501" x2="406.6332" y1="361.716" y2="361.716"/><text fill="#000000" font-family="sans-serif" font-size="13" lengthAdjust="spacing" textLength="74.1651" x="271.4846" y="355.907">save outbox</text></g><g class="message" data-entity-1="part2" data-entity-2="part1" id="msg8"><polygon fill="#181818" points="104.2059,396.4221,94.2059,400.4221,104.2059,404.4221,100.2059,400.4221" style="stroke:#181818;stroke-width:1;"/><line style="stroke:#181818;stroke-width:1;" x1="98.2059" x2="203.501" y1="400.4221" y2="400.4221"/><text fill="#000000" font-family="sans-serif" font-size="13" lengthAdjust="spacing" textLength="33.93" x="131.8885" y="394.6131">order</text></g><path d="M9,422.4221 L261.5061,422.4221 L261.5061,432.1281 L251.5061,442.1281 L9,442.1281 L9,422.4221" fill="#EEEEEE" style="stroke:#000000;stroke-width:1.5;"/><rect fill="none" height="1171.3623" style="stroke:#000000;stroke-width:1.5;" width="793.1564" x="9" y="422.4221"/><text fill="#000000" font-family="sans-serif" font-size="13" font-weight="bold" lengthAdjust="spacing" textLength="207.5061" x="24" y="437.3191">listener on DB `outbox_channel`</text><g class="message" data-entity-1="part2" data-entity-2="part3" id="msg9"><polygon fill="#181818" points="215.501,467.8341,205.501,471.8341,215.501,475.8341,211.501,471.8341" style="stroke:#181818;stroke-width:1;"/><polygon fill="#181818" points="400.6332,467.8341,410.6332,471.8341,400.6332,475.8341,404.6332,471.8341" style="stroke:#181818;stroke-width:1;"/><line style="stroke:#181818;stroke-width:1;stroke-dasharray:2,2;" x1="209.501" x2="406.6332" y1="471.8341" y2="471.8341"/><text fill="#000000" font-family="sans-serif" font-size="13" lengthAdjust="spacing" textLength="72.8781" x="272.1281" y="466.0251">listen/notify</text></g><path d="M103,447.1281 L103,474.1281 L199,474.1281 L199,457.1281 L189,447.1281 L103,447.1281" fill="#FEFFDD" style="stroke:#181818;stroke-width:0.5;"/><path d="M189,447.1281 L189,457.1281 L199,457.1281 L189,447.1281" fill="#FEFFDD" style="stroke:#181818;stroke-width:0.5;"/><text fill="#000000" font-family="sans-serif" font-size="13" lengthAdjust="spacing" textLength="75.4651" x="109" y="466.0251">manual CDC</text><path d="M417,447.1281 L417,474.1281 L763,474.1281 L763,457.1281 L753,447.1281 L417,447.1281" fill="#FEFFDD" style="stroke:#181818;stroke-width:0.5;"/><path d="M753,447.1281 L753,457.1281 L763,457.1281 L753,447.1281" fill="#FEFFDD" style="stroke:#181818;stroke-width:0.5;"/><text fill="#000000" font-family="sans-serif" font-size="13" lengthAdjust="spacing" textLength="61.3861" x="423" y="466.0251">trigger on</text><text fill="#000000" font-family="sans-serif" font-size="13" font-weight="bold" lengthAdjust="spacing" textLength="87.9191" x="487.7661" y="466.0251">outbox.insert</text><text fill="#000000" font-family="sans-serif" font-size="13" lengthAdjust="spacing" textLength="63.1411" x="579.0651" y="466.0251">that notify</text><text fill="#000000" font-family="sans-serif" font-size="13" font-weight="bold" lengthAdjust="spacing" textLength="103.1681" x="645.5862" y="466.0251">outbox_channel</text><g class="message" data-entity-1="part2" data-entity-2="part2" id="msg11"><line style="stroke:#181818;stroke-width:1;stroke-dasharray:2,2;" x1="204.501" x2="246.501" y1="503.5401" y2="503.5401"/><line style="stroke:#181818;stroke-width:1;stroke-dasharray:2,2;" x1="246.501" x2="246.501" y1="503.5401" y2="516.5401"/><line style="stroke:#181818;stroke-width:1;stroke-dasharray:2,2;" x1="205.501" x2="246.501" y1="516.5401" y2="516.5401"/><polygon fill="#181818" points="215.501,512.5401,205.501,516.5401,215.501,520.5401,211.501,516.5401" style="stroke:#181818;stroke-width:1;"/><text fill="#000000" font-family="sans-serif" font-size="13" lengthAdjust="spacing" textLength="123.3701" x="211.501" y="497.7311">trigger drain service</text></g><path d="M19,531.5401 L92.288,531.5401 L92.288,541.2461 L82.288,551.2461 L19,551.2461 L19,531.5401" fill="#EEEEEE" style="stroke:#000000;stroke-width:1.5;"/><rect fill="none" height="1055.2442" style="stroke:#000000;stroke-width:1.5;" width="773.1564" x="19" y="531.5401"/><text fill="#000000" font-family="sans-serif" font-size="13" font-weight="bold" lengthAdjust="spacing" textLength="28.288" x="34" y="546.4371">loop</text><text fill="#000000" font-family="sans-serif" font-size="11" font-weight="bold" lengthAdjust="spacing" textLength="228.6334" x="107.288" y="545.299">[until no unpublished outbox is retrieved]</text><path d="M56,556.2461 L56,601.2461 L527,601.2461 L527,566.2461 L517,556.2461 L56,556.2461" fill="#FEFFDD" style="stroke:#181818;stroke-width:0.5;"/><path d="M517,556.2461 L517,566.2461 L527,566.2461 L517,556.2461" fill="#FEFFDD" style="stroke:#181818;stroke-width:0.5;"/><text fill="#000000" font-family="sans-serif" font-size="13" lengthAdjust="spacing" textLength="450.0603" x="62" y="575.1431">keep draining unpublished outbox messages until none is left then sleeps</text><text fill="#000000" font-family="sans-serif" font-size="13" lengthAdjust="spacing" textLength="351.7932" x="62" y="592.8492">is gated by a linear back off in case kafka env is unhealthy</text><path d="M29,613.6582 L160.944,613.6582 L160.944,623.3642 L150.944,633.3642 L29,633.3642 L29,613.6582" fill="#EEEEEE" style="stroke:#000000;stroke-width:1.5;"/><rect fill="none" height="966.1262" style="stroke:#000000;stroke-width:1.5;" width="753.1564" x="29" y="613.6582"/><text fill="#000000" font-family="sans-serif" font-size="13" font-weight="bold" lengthAdjust="spacing" textLength="86.944" x="44" y="628.5552">transactional</text><path d="M69,638.3642 L69,683.3642 L513,683.3642 L513,648.3642 L503,638.3642 L69,638.3642" fill="#FEFFDD" style="stroke:#181818;stroke-width:0.5;"/><path d="M503,638.3642 L503,648.3642 L513,648.3642 L503,638.3642" fill="#FEFFDD" style="stroke:#181818;stroke-width:0.5;"/><text fill="#000000" font-family="sans-serif" font-size="13" lengthAdjust="spacing" textLength="406.1593" x="83.8348" y="657.2612">transaction here to lock current batch in DB in case of concurrency</text><text fill="#000000" font-family="sans-serif" font-size="13" lengthAdjust="spacing" textLength="212.0692" x="83.8348" y="674.9672">any concurrent will pick next batch</text><g class="message" data-entity-1="part2" data-entity-2="part3" id="msg12"><polygon fill="#181818" points="400.6332,711.4822,410.6332,715.4822,400.6332,719.4822,404.6332,715.4822" style="stroke:#181818;stroke-width:1;"/><line style="stroke:#181818;stroke-width:1;stroke-dasharray:2,2;" x1="204.501" x2="406.6332" y1="715.4822" y2="715.4822"/><text fill="#000000" font-family="sans-serif" font-size="13" lengthAdjust="spacing" textLength="184.1322" x="216.501" y="709.6732">get unpublished outbox batch</text></g><path d="M417,693.7762 L417,720.7762 L766,720.7762 L766,703.7762 L756,693.7762 L417,693.7762" fill="#FEFFDD" style="stroke:#181818;stroke-width:0.5;"/><path d="M756,693.7762 L756,703.7762 L766,703.7762 L756,693.7762" fill="#FEFFDD" style="stroke:#181818;stroke-width:0.5;"/><text fill="#000000" font-family="sans-serif" font-size="13" font-weight="bold" lengthAdjust="spacing" textLength="328.5232" x="423" y="712.6732">publishedAt == null AND attempts &lt; max_attempts</text><g class="message" data-entity-1="part3" data-entity-2="part2" id="msg14"><polygon fill="#181818" points="215.501,746.1882,205.501,750.1882,215.501,754.1882,211.501,750.1882" style="stroke:#181818;stroke-width:1;"/><line style="stroke:#181818;stroke-width:1;stroke-dasharray:2,2;" x1="209.501" x2="411.6332" y1="750.1882" y2="750.1882"/><text fill="#000000" font-family="sans-serif" font-size="13" lengthAdjust="spacing" textLength="80.9641" x="268.0851" y="744.3792">outbox batch</text></g><g class="message" data-entity-1="part2" data-entity-2="part2" id="msg15"><line style="stroke:#181818;stroke-width:1;stroke-dasharray:2,2;" x1="204.501" x2="246.501" y1="781.8943" y2="781.8943"/><line style="stroke:#181818;stroke-width:1;stroke-dasharray:2,2;" x1="246.501" x2="246.501" y1="781.8943" y2="794.8943"/><line style="stroke:#181818;stroke-width:1;stroke-dasharray:2,2;" x1="205.501" x2="246.501" y1="794.8943" y2="794.8943"/><polygon fill="#181818" points="215.501,790.8943,205.501,794.8943,215.501,798.8943,211.501,794.8943" style="stroke:#181818;stroke-width:1;"/><text fill="#000000" font-family="sans-serif" font-size="13" lengthAdjust="spacing" textLength="86.0991" x="211.501" y="776.0853">extract events</text></g><g class="message" data-entity-1="part2" data-entity-2="part4" id="msg16"><polygon fill="#181818" points="479.584,825.6003,489.584,829.6003,479.584,833.6003,483.584,829.6003" style="stroke:#181818;stroke-width:1;"/><line style="stroke:#181818;stroke-width:1;stroke-dasharray:2,2;" x1="204.501" x2="485.584" y1="829.6003" y2="829.6003"/><text fill="#000000" font-family="sans-serif" font-size="13" lengthAdjust="spacing" textLength="82.6281" x="306.7285" y="823.7913">publish batch</text></g><path d="M496,807.8943 L496,834.8943 L628,834.8943 L628,817.8943 L618,807.8943 L496,807.8943" fill="#FEFFDD" style="stroke:#181818;stroke-width:0.5;"/><path d="M618,807.8943 L618,817.8943 L628,817.8943 L618,807.8943" fill="#FEFFDD" style="stroke:#181818;stroke-width:0.5;"/><text fill="#000000" font-family="sans-serif" font-size="13" lengthAdjust="spacing" textLength="111.1501" x="502" y="826.7913">order.placed topic</text><g class="message" data-entity-1="part4" data-entity-2="part2" id="msg18"><polygon fill="#181818" points="215.501,860.3063,205.501,864.3063,215.501,868.3063,211.501,864.3063" style="stroke:#181818;stroke-width:1;"/><line style="stroke:#181818;stroke-width:1;stroke-dasharray:2,2;" x1="209.501" x2="490.584" y1="864.3063" y2="864.3063"/><text fill="#000000" font-family="sans-serif" font-size="13" lengthAdjust="spacing" textLength="86.3721" x="304.8565" y="858.4973">return futures</text></g><path d="M39,879.3063 L112.288,879.3063 L112.288,889.0123 L102.288,899.0123 L39,899.0123 L39,879.3063" fill="#EEEEEE" style="stroke:#000000;stroke-width:1.5;"/><rect fill="none" height="693.478" style="stroke:#000000;stroke-width:1.5;" width="519.5853" x="39" y="879.3063"/><text fill="#000000" font-family="sans-serif" font-size="13" font-weight="bold" lengthAdjust="spacing" textLength="28.288" x="54" y="894.2033">loop</text><text fill="#000000" font-family="sans-serif" font-size="11" font-weight="bold" lengthAdjust="spacing" textLength="90.0673" x="127.288" y="893.0652">[for each future]</text><g class="message" data-entity-1="part2" data-entity-2="part2" id="msg19"><line style="stroke:#181818;stroke-width:1;stroke-dasharray:2,2;" x1="204.501" x2="246.501" y1="922.7183" y2="922.7183"/><line style="stroke:#181818;stroke-width:1;stroke-dasharray:2,2;" x1="246.501" x2="246.501" y1="922.7183" y2="935.7183"/><line style="stroke:#181818;stroke-width:1;stroke-dasharray:2,2;" x1="205.501" x2="246.501" y1="935.7183" y2="935.7183"/><polygon fill="#181818" points="215.501,931.7183,205.501,935.7183,215.501,939.7183,211.501,935.7183" style="stroke:#181818;stroke-width:1;"/><text fill="#000000" font-family="sans-serif" font-size="13" lengthAdjust="spacing" textLength="125.3201" x="211.501" y="916.9093">acquire future result</text></g><path d="M49,950.7183 L111.459,950.7183 L111.459,960.4243 L101.459,970.4243 L49,970.4243 L49,950.7183" fill="#EEEEEE" style="stroke:#000000;stroke-width:1.5;"/><rect fill="none" height="615.066" style="stroke:#000000;stroke-width:1.5;" width="499.5853" x="49" y="950.7183"/><text fill="#000000" font-family="sans-serif" font-size="13" font-weight="bold" lengthAdjust="spacing" textLength="17.459" x="64" y="965.6153">alt</text><text fill="#000000" font-family="sans-serif" font-size="11" font-weight="bold" lengthAdjust="spacing" textLength="106.9743" x="126.459" y="964.4772">[successful publish]</text><g class="message" data-entity-1="part4" data-entity-2="part2" id="msg20"><polygon fill="#008000" points="215.501,990.1304,205.501,994.1304,215.501,998.1304,211.501,994.1304" style="stroke:#008000;stroke-width:1;"/><line style="stroke:#008000;stroke-width:1;stroke-dasharray:2,2;" x1="209.501" x2="490.584" y1="994.1304" y2="994.1304"/><text fill="#000000" font-family="sans-serif" font-size="13" lengthAdjust="spacing" textLength="72.9431" x="311.571" y="988.3214">ACK publish</text></g><g class="message" data-entity-1="part2" data-entity-2="part3" id="msg21"><polygon fill="#181818" points="400.6332,1024.8364,410.6332,1028.8364,400.6332,1032.8364,404.6332,1028.8364" style="stroke:#181818;stroke-width:1;"/><line style="stroke:#181818;stroke-width:1;stroke-dasharray:2,2;" x1="204.501" x2="406.6332" y1="1028.8364" y2="1028.8364"/><text fill="#000000" font-family="sans-serif" font-size="13" lengthAdjust="spacing" textLength="150.4231" x="233.3555" y="1023.0274">flag outbox as published</text></g><path d="M417,1007.1304 L417,1034.1304 L532,1034.1304 L532,1017.1304 L522,1007.1304 L417,1007.1304" fill="#FEFFDD" style="stroke:#181818;stroke-width:0.5;"/><path d="M522,1007.1304 L522,1017.1304 L532,1017.1304 L522,1007.1304" fill="#FEFFDD" style="stroke:#181818;stroke-width:0.5;"/><text fill="#000000" font-family="sans-serif" font-size="13" lengthAdjust="spacing" textLength="94.9521" x="423" y="1026.0274">set publishedAt</text><line style="stroke:#000000;stroke-width:1;stroke-dasharray:2,2;" x1="49" x2="548.5853" y1="1040.8364" y2="1040.8364"/><text fill="#000000" font-family="sans-serif" font-size="11" font-weight="bold" lengthAdjust="spacing" textLength="121.4281" x="54" y="1052.5953">[unsuccessful publish]</text><g class="message" data-entity-1="part4" data-entity-2="part2" id="msg23"><polygon fill="#FF0000" points="215.501,1076.5243,205.501,1080.5243,215.501,1084.5243,211.501,1080.5243" style="stroke:#FF0000;stroke-width:1;"/><line style="stroke:#FF0000;stroke-width:1;stroke-dasharray:2,2;" x1="209.501" x2="490.584" y1="1080.5243" y2="1080.5243"/><text fill="#000000" font-family="sans-serif" font-size="13" lengthAdjust="spacing" textLength="41.6391" x="327.223" y="1074.7153">ERROR</text></g><g class="message" data-entity-1="part2" data-entity-2="part2" id="msg24"><line style="stroke:#FF0000;stroke-width:1;stroke-dasharray:2,2;" x1="204.501" x2="246.501" y1="1112.2303" y2="1112.2303"/><line style="stroke:#FF0000;stroke-width:1;stroke-dasharray:2,2;" x1="246.501" x2="246.501" y1="1112.2303" y2="1125.2303"/><line style="stroke:#FF0000;stroke-width:1;stroke-dasharray:2,2;" x1="205.501" x2="246.501" y1="1125.2303" y2="1125.2303"/><polygon fill="#FF0000" points="215.501,1121.2303,205.501,1125.2303,215.501,1129.2303,211.501,1125.2303" style="stroke:#FF0000;stroke-width:1;"/><text fill="#000000" font-family="sans-serif" font-size="13" lengthAdjust="spacing" textLength="58.2531" x="211.501" y="1106.4213">or ERROR</text></g><path d="M59,1140.2303 L121.459,1140.2303 L121.459,1149.9363 L111.459,1159.9363 L59,1159.9363 L59,1140.2303" fill="#EEEEEE" style="stroke:#000000;stroke-width:1.5;"/><rect fill="none" height="418.554" style="stroke:#000000;stroke-width:1.5;" width="479.0323" x="59" y="1140.2303"/><text fill="#000000" font-family="sans-serif" font-size="13" font-weight="bold" lengthAdjust="spacing" textLength="17.459" x="74" y="1155.1273">alt</text><text fill="#000000" font-family="sans-serif" font-size="11" font-weight="bold" lengthAdjust="spacing" textLength="103.6082" x="136.459" y="1153.9892">[recoverable error]</text><path d="M69,1164.9363 L69,1262.9363 L513,1262.9363 L513,1174.9363 L503,1164.9363 L69,1164.9363" fill="#FEFFDD" style="stroke:#181818;stroke-width:0.5;"/><path d="M503,1164.9363 L503,1174.9363 L513,1174.9363 L503,1164.9363" fill="#FEFFDD" style="stroke:#181818;stroke-width:0.5;"/><text fill="#000000" font-family="sans-serif" font-size="13" font-weight="bold" lengthAdjust="spacing" textLength="189.6052" x="192.1119" y="1183.8333">recoverable/transient errors:</text><text fill="#000000" font-family="sans-serif" font-size="13" lengthAdjust="spacing" textLength="48.1261" x="192.1119" y="1201.5393">timeout</text><text fill="#000000" font-family="sans-serif" font-size="13" lengthAdjust="spacing" textLength="120.7311" x="192.1119" y="1219.2454">election in progress</text><text fill="#000000" font-family="sans-serif" font-size="13" lengthAdjust="spacing" textLength="78.3641" x="192.1119" y="1236.9514">broker down</text><text fill="#000000" font-family="sans-serif" font-size="13" lengthAdjust="spacing" textLength="177.3201" x="192.1119" y="1254.6574">schema registry unreachable</text><g class="message" data-entity-1="part2" data-entity-2="part2" id="msg25"><line style="stroke:#181818;stroke-width:1;stroke-dasharray:2,2;" x1="204.501" x2="246.501" y1="1292.1724" y2="1292.1724"/><line style="stroke:#181818;stroke-width:1;stroke-dasharray:2,2;" x1="246.501" x2="246.501" y1="1292.1724" y2="1305.1724"/><line style="stroke:#181818;stroke-width:1;stroke-dasharray:2,2;" x1="205.501" x2="246.501" y1="1305.1724" y2="1305.1724"/><polygon fill="#181818" points="215.501,1301.1724,205.501,1305.1724,215.501,1309.1724,211.501,1305.1724" style="stroke:#181818;stroke-width:1;"/><text fill="#000000" font-family="sans-serif" font-size="13" lengthAdjust="spacing" textLength="67.2491" x="211.501" y="1286.3634">do nothing</text></g><line style="stroke:#000000;stroke-width:1;stroke-dasharray:2,2;" x1="59" x2="538.0323" y1="1314.1724" y2="1314.1724"/><text fill="#000000" font-family="sans-serif" font-size="11" font-weight="bold" lengthAdjust="spacing" textLength="127.731" x="64" y="1325.9313">[non recoverable error]</text><path d="M69,1335.1543 L69,1433.1543 L513,1433.1543 L513,1345.1543 L503,1335.1543 L69,1335.1543" fill="#FEFFDD" style="stroke:#181818;stroke-width:0.5;"/><path d="M503,1335.1543 L503,1345.1543 L513,1345.1543 L503,1335.1543" fill="#FEFFDD" style="stroke:#181818;stroke-width:0.5;"/><text fill="#000000" font-family="sans-serif" font-size="13" font-weight="bold" lengthAdjust="spacing" textLength="230.7242" x="171.5524" y="1354.0513">non recoverable/permanent errors:</text><text fill="#000000" font-family="sans-serif" font-size="13" lengthAdjust="spacing" textLength="75.0881" x="171.5524" y="1371.7573">bad payload</text><text fill="#000000" font-family="sans-serif" font-size="13" lengthAdjust="spacing" textLength="73.632" x="171.5524" y="1389.4634">serialization</text><text fill="#000000" font-family="sans-serif" font-size="13" lengthAdjust="spacing" textLength="130.3251" x="171.5524" y="1407.1694">incompatible schema</text><text fill="#000000" font-family="sans-serif" font-size="13" lengthAdjust="spacing" textLength="66.1051" x="171.5524" y="1424.8754">unhandled</text><path d="M154.1352,1445.6844 L216.5942,1445.6844 L216.5942,1455.3904 L206.5942,1465.3904 L154.1352,1465.3904 L154.1352,1445.6844" fill="#EEEEEE" style="stroke:#000000;stroke-width:1.5;"/><rect fill="none" height="106.0999" style="stroke:#000000;stroke-width:1.5;" width="373.8971" x="154.1352" y="1445.6844"/><text fill="#000000" font-family="sans-serif" font-size="13" font-weight="bold" lengthAdjust="spacing" textLength="17.459" x="169.1352" y="1460.5814">alt</text><text fill="#000000" font-family="sans-serif" font-size="11" font-weight="bold" lengthAdjust="spacing" textLength="149.016" x="231.5942" y="1459.4433">[attempts &lt; max_attempts]</text><g class="message" data-entity-1="part2" data-entity-2="part3" id="msg26"><polygon fill="#181818" points="400.6332,1485.0964,410.6332,1489.0964,400.6332,1493.0964,404.6332,1489.0964" style="stroke:#181818;stroke-width:1;"/><line style="stroke:#181818;stroke-width:1;stroke-dasharray:2,2;" x1="204.501" x2="406.6332" y1="1489.0964" y2="1489.0964"/><text fill="#000000" font-family="sans-serif" font-size="13" lengthAdjust="spacing" textLength="76.0891" x="270.5226" y="1483.2874">inc attempts</text></g><line style="stroke:#000000;stroke-width:1;stroke-dasharray:2,2;" x1="154.1352" x2="528.0323" y1="1498.0964" y2="1498.0964"/><text fill="#000000" font-family="sans-serif" font-size="11" font-weight="bold" lengthAdjust="spacing" textLength="155.3079" x="159.1352" y="1509.8553">[attempts &gt;= max_attempts]</text><g class="message" data-entity-1="part2" data-entity-2="part3" id="msg27"><polygon fill="#181818" points="400.6332,1536.7843,410.6332,1540.7843,400.6332,1544.7843,404.6332,1540.7843" style="stroke:#181818;stroke-width:1;"/><line style="stroke:#181818;stroke-width:1;stroke-dasharray:2,2;" x1="204.501" x2="406.6332" y1="1540.7843" y2="1540.7843"/><text fill="#000000" font-family="sans-serif" font-size="13" lengthAdjust="spacing" textLength="156.8711" x="230.1315" y="1534.9753">flag outbox as dead letter</text></g><path d="M417,1519.0783 L417,1546.0783 L512,1546.0783 L512,1529.0783 L502,1519.0783 L417,1519.0783" fill="#FEFFDD" style="stroke:#181818;stroke-width:0.5;"/><path d="M502,1519.0783 L502,1529.0783 L512,1529.0783 L502,1519.0783" fill="#FEFFDD" style="stroke:#181818;stroke-width:0.5;"/><text fill="#000000" font-family="sans-serif" font-size="13" lengthAdjust="spacing" textLength="74.3991" x="423" y="1537.9753">set lastError</text><path d="M59,1607.7843 L287.3652,1607.7843 L287.3652,1617.4903 L277.3652,1627.4903 L59,1627.4903 L59,1607.7843" fill="#EEEEEE" style="stroke:#000000;stroke-width:1.5;"/><rect fill="none" height="102.118" style="stroke:#000000;stroke-width:1.5;" width="464.8289" x="59" y="1607.7843"/><text fill="#000000" font-family="sans-serif" font-size="13" font-weight="bold" lengthAdjust="spacing" textLength="183.3652" x="74" y="1622.6813">low freq rescue periodic poll</text><path d="M69,1632.4903 L69,1659.4903 L513,1659.4903 L513,1642.4903 L503,1632.4903 L69,1632.4903" fill="#FEFFDD" style="stroke:#181818;stroke-width:0.5;"/><path d="M503,1632.4903 L503,1642.4903 L513,1642.4903 L503,1632.4903" fill="#FEFFDD" style="stroke:#181818;stroke-width:0.5;"/><text fill="#000000" font-family="sans-serif" font-size="13" lengthAdjust="spacing" textLength="279.4352" x="147.1969" y="1651.3874">rescue in case listener fails or back off kicks in</text><g class="message" data-entity-1="part2" data-entity-2="part2" id="msg29"><line style="stroke:#181818;stroke-width:1;stroke-dasharray:2,2;" x1="204.501" x2="246.501" y1="1688.9024" y2="1688.9024"/><line style="stroke:#181818;stroke-width:1;stroke-dasharray:2,2;" x1="246.501" x2="246.501" y1="1688.9024" y2="1701.9024"/><line style="stroke:#181818;stroke-width:1;stroke-dasharray:2,2;" x1="205.501" x2="246.501" y1="1701.9024" y2="1701.9024"/><polygon fill="#181818" points="215.501,1697.9024,205.501,1701.9024,215.501,1705.9024,211.501,1701.9024" style="stroke:#181818;stroke-width:1;"/><text fill="#000000" font-family="sans-serif" font-size="13" lengthAdjust="spacing" textLength="123.3701" x="211.501" y="1683.0934">trigger drain service</text></g><path d="M39,1723.9024 L155.084,1723.9024 L155.084,1733.6084 L145.084,1743.6084 L39,1743.6084 L39,1723.9024" fill="#EEEEEE" style="stroke:#000000;stroke-width:1.5;"/><rect fill="none" height="576.9842" style="stroke:#000000;stroke-width:1.5;" width="770.5062" x="39" y="1723.9024"/><text fill="#000000" font-family="sans-serif" font-size="13" font-weight="bold" lengthAdjust="spacing" textLength="71.084" x="54" y="1738.7994">consumers</text><path d="M49,1750.6084 L122.288,1750.6084 L122.288,1760.3144 L112.288,1770.3144 L49,1770.3144 L49,1750.6084" fill="#EEEEEE" style="stroke:#000000;stroke-width:1.5;"/><rect fill="none" height="543.2782" style="stroke:#000000;stroke-width:1.5;" width="750.5062" x="49" y="1750.6084"/><text fill="#000000" font-family="sans-serif" font-size="13" font-weight="bold" lengthAdjust="spacing" textLength="28.288" x="64" y="1765.5054">loop</text><path d="M69,1775.3144 L69,1802.3144 L513,1802.3144 L513,1785.3144 L503,1775.3144 L69,1775.3144" fill="#FEFFDD" style="stroke:#181818;stroke-width:0.5;"/><path d="M503,1775.3144 L503,1785.3144 L513,1785.3144 L503,1775.3144" fill="#FEFFDD" style="stroke:#181818;stroke-width:0.5;"/><text fill="#000000" font-family="sans-serif" font-size="13" lengthAdjust="spacing" textLength="223.9512" x="174.9389" y="1794.2114">N concurrent listener: 1 per partition</text><g class="message" data-entity-1="part2" data-entity-2="part4" id="msg30"><polygon fill="#181818" points="479.584,1830.7264,489.584,1834.7264,479.584,1838.7264,483.584,1834.7264" style="stroke:#181818;stroke-width:1;"/><line style="stroke:#181818;stroke-width:1;stroke-dasharray:2,2;" x1="204.501" x2="485.584" y1="1834.7264" y2="1834.7264"/><text fill="#000000" font-family="sans-serif" font-size="13" lengthAdjust="spacing" textLength="32.994" x="331.5455" y="1828.9174">listen</text></g><path d="M496,1813.0204 L496,1840.0204 L714,1840.0204 L714,1823.0204 L704,1813.0204 L496,1813.0204" fill="#FEFFDD" style="stroke:#181818;stroke-width:0.5;"/><path d="M704,1813.0204 L704,1823.0204 L714,1823.0204 L704,1813.0204" fill="#FEFFDD" style="stroke:#181818;stroke-width:0.5;"/><text fill="#000000" font-family="sans-serif" font-size="13" lengthAdjust="spacing" textLength="197.6522" x="502" y="1831.9174">order.[accepted|rejected] topics</text><g class="message" data-entity-1="part4" data-entity-2="part2" id="msg32"><polygon fill="#181818" points="215.501,1865.4325,205.501,1869.4325,215.501,1873.4325,211.501,1869.4325" style="stroke:#181818;stroke-width:1;"/><line style="stroke:#181818;stroke-width:1;stroke-dasharray:2,2;" x1="209.501" x2="490.584" y1="1869.4325" y2="1869.4325"/><text fill="#000000" font-family="sans-serif" font-size="13" lengthAdjust="spacing" textLength="93.2621" x="301.4115" y="1863.6235">consume event</text></g><path d="M59,1884.4325 L190.944,1884.4325 L190.944,1894.1385 L180.944,1904.1385 L59,1904.1385 L59,1884.4325" fill="#EEEEEE" style="stroke:#000000;stroke-width:1.5;"/><rect fill="none" height="402.4541" style="stroke:#000000;stroke-width:1.5;" width="730.5062" x="59" y="1884.4325"/><text fill="#000000" font-family="sans-serif" font-size="13" font-weight="bold" lengthAdjust="spacing" textLength="86.944" x="74" y="1899.3295">transactional</text><path d="M69,1909.1385 L69,1936.1385 L513,1936.1385 L513,1919.1385 L503,1909.1385 L69,1909.1385" fill="#FEFFDD" style="stroke:#181818;stroke-width:0.5;"/><path d="M503,1909.1385 L503,1919.1385 L513,1919.1385 L503,1909.1385" fill="#FEFFDD" style="stroke:#181818;stroke-width:0.5;"/><text fill="#000000" font-family="sans-serif" font-size="13" lengthAdjust="spacing" textLength="250.6532" x="161.5878" y="1928.0355">idempotency check: only consumed once</text><g class="message" data-entity-1="part2" data-entity-2="part3" id="msg33"><polygon fill="#181818" points="400.6332,1961.5505,410.6332,1965.5505,400.6332,1969.5505,404.6332,1965.5505" style="stroke:#181818;stroke-width:1;"/><line style="stroke:#181818;stroke-width:1;stroke-dasharray:2,2;" x1="204.501" x2="406.6332" y1="1965.5505" y2="1965.5505"/><text fill="#000000" font-family="sans-serif" font-size="13" lengthAdjust="spacing" textLength="107.1331" x="255.0006" y="1959.7415">dedup by eventId</text></g><g class="message" data-entity-1="part3" data-entity-2="part2" id="msg34"><polygon fill="#181818" points="215.501,1993.2565,205.501,1997.2565,215.501,2001.2565,211.501,1997.2565" style="stroke:#181818;stroke-width:1;"/><line style="stroke:#181818;stroke-width:1;stroke-dasharray:2,2;" x1="209.501" x2="411.6332" y1="1997.2565" y2="1997.2565"/><text fill="#000000" font-family="sans-serif" font-size="13" lengthAdjust="spacing" textLength="56.381" x="280.3766" y="1991.4475">response</text></g><path d="M154.1352,2012.2565 L216.5942,2012.2565 L216.5942,2021.9625 L206.5942,2031.9625 L154.1352,2031.9625 L154.1352,2012.2565" fill="#EEEEEE" style="stroke:#000000;stroke-width:1.5;"/><rect fill="none" height="267.63" style="stroke:#000000;stroke-width:1.5;" width="625.3711" x="154.1352" y="2012.2565"/><text fill="#000000" font-family="sans-serif" font-size="13" font-weight="bold" lengthAdjust="spacing" textLength="17.459" x="169.1352" y="2027.1535">alt</text><text fill="#000000" font-family="sans-serif" font-size="11" font-weight="bold" lengthAdjust="spacing" textLength="137.158" x="231.5942" y="2026.0154">[never consumed before]</text><g class="message" data-entity-1="part2" data-entity-2="part2" id="msg35"><line style="stroke:#181818;stroke-width:1;stroke-dasharray:2,2;" x1="204.501" x2="246.501" y1="2055.6686" y2="2055.6686"/><line style="stroke:#181818;stroke-width:1;stroke-dasharray:2,2;" x1="246.501" x2="246.501" y1="2055.6686" y2="2068.6686"/><line style="stroke:#181818;stroke-width:1;stroke-dasharray:2,2;" x1="205.501" x2="246.501" y1="2068.6686" y2="2068.6686"/><polygon fill="#181818" points="215.501,2064.6686,205.501,2068.6686,215.501,2072.6686,211.501,2068.6686" style="stroke:#181818;stroke-width:1;"/><text fill="#000000" font-family="sans-serif" font-size="13" lengthAdjust="spacing" textLength="75.7641" x="211.501" y="2049.8596">create inbox</text></g><g class="message" data-entity-1="part2" data-entity-2="part3" id="msg36"><polygon fill="#181818" points="400.6332,2099.3746,410.6332,2103.3746,400.6332,2107.3746,404.6332,2103.3746" style="stroke:#181818;stroke-width:1;"/><line style="stroke:#181818;stroke-width:1;stroke-dasharray:2,2;" x1="204.501" x2="406.6332" y1="2103.3746" y2="2103.3746"/><text fill="#000000" font-family="sans-serif" font-size="13" lengthAdjust="spacing" textLength="64.961" x="276.0866" y="2097.5656">save inbox</text></g><path d="M417,2081.6686 L417,2108.6686 L511,2108.6686 L511,2091.6686 L501,2081.6686 L417,2081.6686" fill="#FEFFDD" style="stroke:#181818;stroke-width:0.5;"/><path d="M501,2081.6686 L501,2091.6686 L511,2091.6686 L501,2081.6686" fill="#FEFFDD" style="stroke:#181818;stroke-width:0.5;"/><text fill="#000000" font-family="sans-serif" font-size="13" lengthAdjust="spacing" textLength="73.3981" x="423" y="2100.5656">dedup table</text><g class="message" data-entity-1="part2" data-entity-2="part3" id="msg38"><polygon fill="#181818" points="400.6332,2137.0806,410.6332,2141.0806,400.6332,2145.0806,404.6332,2141.0806" style="stroke:#181818;stroke-width:1;"/><line style="stroke:#181818;stroke-width:1;stroke-dasharray:2,2;" x1="204.501" x2="406.6332" y1="2141.0806" y2="2141.0806"/><text fill="#000000" font-family="sans-serif" font-size="13" lengthAdjust="spacing" textLength="121.1991" x="247.9676" y="2135.2716">update order status</text></g><path d="M417,2119.3746 L417,2146.3746 L575,2146.3746 L575,2129.3746 L565,2119.3746 L417,2119.3746" fill="#FEFFDD" style="stroke:#181818;stroke-width:0.5;"/><path d="M565,2119.3746 L565,2129.3746 L575,2129.3746 L565,2119.3746" fill="#FEFFDD" style="stroke:#181818;stroke-width:0.5;"/><text fill="#000000" font-family="sans-serif" font-size="13" lengthAdjust="spacing" textLength="137.6701" x="423" y="2138.2716">topic determine status</text><g class="message" data-entity-1="part2" data-entity-2="part4" id="msg40"><polygon fill="#181818" points="479.584,2183.6396,489.584,2187.6396,479.584,2191.6396,483.584,2187.6396" style="stroke:#181818;stroke-width:1;"/><line style="stroke:#181818;stroke-width:1;stroke-dasharray:2,2;" x1="204.501" x2="485.584" y1="2187.6396" y2="2187.6396"/><text fill="#000000" font-family="sans-serif" font-size="13" lengthAdjust="spacing" textLength="24.57" x="335.7575" y="2181.8306">ACK</text></g><path d="M496,2157.0806 L496,2202.0806 L763,2202.0806 L763,2167.0806 L753,2157.0806 L496,2157.0806" fill="#FEFFDD" style="stroke:#181818;stroke-width:0.5;"/><path d="M753,2157.0806 L753,2167.0806 L763,2167.0806 L753,2157.0806" fill="#FEFFDD" style="stroke:#181818;stroke-width:0.5;"/><text fill="#000000" font-family="sans-serif" font-size="13" lengthAdjust="spacing" textLength="116.2721" x="502" y="2175.9776">commit read offset</text><text fill="#000000" font-family="sans-serif" font-size="13" lengthAdjust="spacing" textLength="246.9222" x="502" y="2193.6836">if it fails idempotency check will ignore it</text><line style="stroke:#000000;stroke-width:1;stroke-dasharray:2,2;" x1="154.1352" x2="779.5062" y1="2208.4926" y2="2208.4926"/><text fill="#000000" font-family="sans-serif" font-size="11" font-weight="bold" lengthAdjust="spacing" textLength="108.1512" x="159.1352" y="2220.2515">[already consumed]</text><g class="message" data-entity-1="part2" data-entity-2="part4" id="msg42"><polygon fill="#181818" points="479.584,2256.0335,489.584,2260.0335,479.584,2264.0335,483.584,2260.0335" style="stroke:#181818;stroke-width:1;"/><line style="stroke:#181818;stroke-width:1;stroke-dasharray:2,2;" x1="204.501" x2="485.584" y1="2260.0335" y2="2260.0335"/><text fill="#000000" font-family="sans-serif" font-size="13" lengthAdjust="spacing" textLength="24.57" x="335.7575" y="2254.2245">ACK</text></g><path d="M496,2229.4745 L496,2274.4745 L763,2274.4745 L763,2239.4745 L753,2229.4745 L496,2229.4745" fill="#FEFFDD" style="stroke:#181818;stroke-width:0.5;"/><path d="M753,2229.4745 L753,2239.4745 L763,2239.4745 L753,2229.4745" fill="#FEFFDD" style="stroke:#181818;stroke-width:0.5;"/><text fill="#000000" font-family="sans-serif" font-size="13" lengthAdjust="spacing" textLength="116.2721" x="502" y="2248.3715">commit read offset</text><text fill="#000000" font-family="sans-serif" font-size="13" lengthAdjust="spacing" textLength="246.9222" x="502" y="2266.0775">if it fails idempotency check will ignore it</text><path d="M63,2314.8865 L138.55,2314.8865 L138.55,2324.5926 L128.55,2334.5926 L63,2334.5926 L63,2314.8865" fill="#EEEEEE" style="stroke:#000000;stroke-width:1.5;"/><rect fill="none" height="111.118" style="stroke:#000000;stroke-width:1.5;" width="397.3391" x="63" y="2314.8865"/><text fill="#000000" font-family="sans-serif" font-size="13" font-weight="bold" lengthAdjust="spacing" textLength="30.55" x="78" y="2329.7836">REST</text><g class="message" data-entity-1="part1" data-entity-2="part2" id="msg44"><polygon fill="#181818" points="192.501,2354.2986,202.501,2358.2986,192.501,2362.2986,196.501,2358.2986" style="stroke:#181818;stroke-width:1;"/><line style="stroke:#181818;stroke-width:1;" x1="93.2059" x2="198.501" y1="2358.2986" y2="2358.2986"/><text fill="#000000" font-family="sans-serif" font-size="13" lengthAdjust="spacing" textLength="87.2951" x="105.2059" y="2352.4896">GET order/{id}</text></g><g class="message" data-entity-1="part2" data-entity-2="part3" id="msg45"><polygon fill="#181818" points="400.6332,2368.2986,410.6332,2372.2986,400.6332,2376.2986,404.6332,2372.2986" style="stroke:#181818;stroke-width:1;"/><line style="stroke:#181818;stroke-width:1;stroke-dasharray:2,2;" x1="204.501" x2="406.6332" y1="2372.2986" y2="2372.2986"/></g><g class="message" data-entity-1="part3" data-entity-2="part2" id="msg46"><polygon fill="#181818" points="215.501,2382.2986,205.501,2386.2986,215.501,2390.2986,211.501,2386.2986" style="stroke:#181818;stroke-width:1;"/><line style="stroke:#181818;stroke-width:1;stroke-dasharray:2,2;" x1="209.501" x2="411.6332" y1="2386.2986" y2="2386.2986"/></g><g class="message" data-entity-1="part2" data-entity-2="part1" id="msg47"><polygon fill="#181818" points="104.2059,2414.0046,94.2059,2418.0046,104.2059,2422.0046,100.2059,2418.0046" style="stroke:#181818;stroke-width:1;"/><line style="stroke:#181818;stroke-width:1;" x1="98.2059" x2="203.501" y1="2418.0046" y2="2418.0046"/><text fill="#000000" font-family="sans-serif" font-size="13" lengthAdjust="spacing" textLength="33.93" x="131.8885" y="2412.1956">order</text></g><?plantuml-src pLTDRziu4BthLmomDmDji5UZ2U34taKHR5CuoQbTf3GrihccIOMaadW__li-IfOisPQI5bXWTP5DlVdWp9lXqA-LoOKJ6_ByMB2H_1jxBvOyqMffIB89x994o60TtT_EvYGytISBMvXKk2tTpAUp-SFayyUuZbUIYY0MmZDD9tUJoydjB7wONYPGNZ1TJtwvdiILwoHPEblaD9_TtYM4vvxUNKGDO_fyStj7rgKm73zKkE24yN13MIDqkHwVQFWTvAQNO_BYYLjYyJ4sC3crN0Ly3Y8Kdd8sgJBB1ZAzB1MKXhl2jUxoatGimauzvLf8JecV49rXU14MzcN0s_rtk9Kqc0kwhxs9wxjGQUK36zYt9hhzhP9-a2jX3EjlZVY7saObS8Oeg6oRD07Hd24U6s4AeUbgUfKSXYhWlQpiZ4QLbVVAU7PXDAAm4e4gbStNseVHA3aAHQqiTK8PiCmzASabJ5kRKs62qj277tcnWCShHBRIIigJOyWZq6atfq8ww_sOrinvfHavFQLYKx7PDtOCHxKn1DW9mo4D5VwhmU8IAKjfiIM1o1aMZXP2hibc6S5p6Kcz5jbQ85TFKKbXLYnqM6qRtuQeUkHx2qOhTap18YGmA0ldm2nO3t8LJIFPjGCs8sbDXP3RhqQOxNuXqBFIcd859OPVTXew7hGfkEHmAcJ7GcrkZ4QDm2JG-JcP0YOddwOaGk1D7Znz0BTU7kg_EqwShBS-Wnq2OICEOQhApP_4NOzfvzKhtfSrzNvNly4YKXtezTugY5SuGrc15tUjbhpDq0zP83yLeWCuseAGZuL2XYiiTFj2XoCHS8by8IKecnMwtj4HREVebv-MZjdyNjkON5qFYhGpdscnhAEFPjnazAHWfuc2Cgty7-5PWwE5-PvTE4wRFSpcyvjvl_TTC1BGZu-nT2pj4pknq4pid7KdaGTrsOk9psZKqdbM5h2APLTgz-C3gXy-GMqOGH_4iEQg8w3WSsUHubTSMZYxZjtLFfj1d9ShtWZ4P8b30GTtOLoaRzn8hnpEdZ8qlO0EoLCRmQlsuNf43VJV_oGj1thFSdOutzwUceL8AHTRRKKw74LsIcZrfuWv6aGg8-qc1ovkimh-81w7YJ2fvlJ7in4vtzE41qstEmFSfbU5obGsbYxEVypKGHDA6JdG70AxGHM7xKWB7sQ3DAf7gxUi7wwr_zU_uxizbjbdoXm_nhOkCUE2UygcIb9kjKwEZlqTgZxGcw4k4qhxsDIQeMEDSzm3-DQPgkKJHW9VRDZvPj0wFJzzQWyFjIjZ-Zbk0WNXWkeGlNNULk2a_v3z8d06v9Ye_dRy1veQEdTrukuPqZfkTmuVpDJVDK-f5Fp30kOYGht9DJmnUbkhndnZ9FSEGocdC8NXh_JWOzexj21_EJHsDSNICv1qUsiBneZmobomkoOeqxubzDuMJiFQaQys4KuszRQw8a_tjvdgOZIejymRjACsDvYC-qHQzC0qCgWHpN6ZuX6DeWVNKSWOmJ5dXrqT72Mp6crn9qLG0KkE-v6EolRf_lzuzteBEN49_dMskmEV_QNIVv9k1fCkAVikZly2?></g></svg>