<?plantuml 1.2026.2?><svg xmlns="http://www.w3.org/2000/svg" xmlns:xlink="http://www.w3.org/1999/xlink" contentStyleType="text/css" data-diagram-type="SEQUENCE" height="568px" preserveAspectRatio="none" style="width:541px;height:568px;background:#FFFFFF;" version="1.1" viewBox="0 0 541 568" width="541px" zoomAndPan="magnify"><defs/><g><g class="participant-lifeline" data-entity-uid="part1" data-qualified-name="U" id="part1-lifeline"><g><title>USER</title><rect fill="#000000" fill-opacity="0.00000" height="400.4722" width="8" x="21.2059" y="84.0679"/><line style="stroke:#181818;stroke-width:0.5;stroke-dasharray:5,5;" x1="25" x2="25" y1="84.0679" y2="484.5401"/></g></g><g class="participant-lifeline" data-entity-uid="part2" data-qualified-name="API" id="part2-lifeline"><g><title>ORDER_API</title><rect fill="#000000" fill-opacity="0.00000" height="400.4722" width="8" x="91.7777" y="84.0679"/><line style="stroke:#181818;stroke-width:0.5;stroke-dasharray:5,5;" x1="95.4119" x2="95.4119" y1="84.0679" y2="484.5401"/></g></g><g class="participant-lifeline" data-entity-uid="part3" data-qualified-name="SERVICE" id="part3-lifeline"><g><title>INVENTORY_SERVICE</title><rect fill="#000000" fill-opacity="0.00000" height="400.4722" width="8" x="214.0093" y="84.0679"/><line style="stroke:#181818;stroke-width:0.5;stroke-dasharray:5,5;" x1="217.1436" x2="217.1436" y1="84.0679" y2="484.5401"/></g></g><g class="participant-lifeline" data-entity-uid="part4" data-qualified-name="DB" id="part4-lifeline"><g><title>DATABASE</title><rect fill="#000000" fill-opacity="0.00000" height="400.4722" width="8" x="333.5809" y="84.0679"/><line style="stroke:#181818;stroke-width:0.5;stroke-dasharray:5,5;" x1="336.875" x2="336.875" y1="84.0679" y2="484.5401"/></g></g><g class="participant-lifeline" data-entity-uid="part5" data-qualified-name="Z" id="part5-lifeline"><g><title>DEBEZIUM</title><rect fill="#000000" fill-opacity="0.00000" height="400.4722" width="8" x="419.5736" y="84.0679"/><line style="stroke:#181818;stroke-width:0.5;stroke-dasharray:5,5;" x1="423.2867" x2="423.2867" y1="84.0679" y2="484.5401"/></g></g><g class="participant-lifeline" data-entity-uid="part6" data-qualified-name="K" id="part6-lifeline"><g><title>KAFKA</title><rect fill="#000000" fill-opacity="0.00000" height="400.4722" width="8" x="499.1054" y="84.0679"/><line style="stroke:#181818;stroke-width:0.5;stroke-dasharray:5,5;" x1="502.8604" x2="502.8604" y1="84.0679" y2="484.5401"/></g></g><g class="participant participant-head" data-entity-uid="part1" data-qualified-name="U" id="part1-head"><text fill="#000000" font-family="sans-serif" font-size="14" lengthAdjust="spacing" textLength="34.4119" x="5" y="79.9659">USER</text><ellipse cx="25.2059" cy="13.5" fill="#E2E2F0" rx="8" ry="8" style="stroke:#181818;stroke-width:0.5;"/><path d="M25.2059,21.5 L25.2059,48.5 M12.2059,29.5 L38.2059,29.5 M25.2059,48.5 L12.2059,63.5 M25.2059,48.5 L38.2059,63.5" fill="none" style="stroke:#181818;stroke-width:0.5;"/></g><g class="participant participant-tail" data-entity-uid="part1" data-qualified-name="U" id="part1-tail"><text fill="#000000" font-family="sans-serif" font-size="14" lengthAdjust="spacing" textLength="34.4119" x="5" y="498.5061">USER</text><ellipse cx="25.2059" cy="511.108" fill="#E2E2F0" rx="8" ry="8" style="stroke:#181818;stroke-width:0.5;"/><path d="M25.2059,519.108 L25.2059,546.108 M12.2059,527.108 L38.2059,527.108 M25.2059,546.108 L12.2059,561.108 M25.2059,546.108 L38.2059,561.108" fill="none" style="stroke:#181818;stroke-width:0.5;"/></g><g class="participant participant-head" data-entity-uid="part2" data-qualified-name="API" id="part2-head"><text fill="#000000" font-family="sans-serif" font-size="14" lengthAdjust="spacing" textLength="74.7317" x="55.4119" y="79.9659">ORDER_API</text><path d="M75.2777,37 L75.2777,61 M75.2777,49 L92.2777,49" fill="none" style="stroke:#181818;stroke-width:0.5;"/><ellipse cx="104.2777" cy="49" fill="#E2E2F0" rx="12" ry="12" style="stroke:#181818;stroke-width:0.5;"/></g><g class="participant participant-tail" data-entity-uid="part2" data-qualified-name="API" id="part2-tail"><text fill="#000000" font-family="sans-serif" font-size="14" lengthAdjust="spacing" textLength="74.7317" x="55.4119" y="498.5061">ORDER_API</text><path d="M75.2777,506.608 L75.2777,530.608 M75.2777,518.608 L92.2777,518.608" fill="none" style="stroke:#181818;stroke-width:0.5;"/><ellipse cx="104.2777" cy="518.608" fill="#E2E2F0" rx="12" ry="12" style="stroke:#181818;stroke-width:0.5;"/></g><g class="participant participant-head" data-entity-uid="part3" data-qualified-name="SERVICE" id="part3-head"><text fill="#000000" font-family="sans-serif" font-size="14" lengthAdjust="spacing" textLength="137.7314" x="146.1436" y="79.9659">INVENTORY_SERVICE</text><ellipse cx="218.0093" cy="49" fill="#E2E2F0" rx="12" ry="12" style="stroke:#181818;stroke-width:0.5;"/><polygon fill="#181818" points="214.0093,37,220.0093,32,218.0093,37,220.0093,42,214.0093,37" style="stroke:#181818;stroke-width:1;"/></g><g class="participant participant-tail" data-entity-uid="part3" data-qualified-name="SERVICE" id="part3-tail"><text fill="#000000" font-family="sans-serif" font-size="14" lengthAdjust="spacing" textLength="137.7314" x="146.1436" y="498.5061">INVENTORY_SERVICE</text><ellipse cx="218.0093" cy="518.608" fill="#E2E2F0" rx="12" ry="12" style="stroke:#181818;stroke-width:0.5;"/><polygon fill="#181818" points="214.0093,506.608,220.0093,501.608,218.0093,506.608,220.0093,511.608,214.0093,506.608" style="stroke:#181818;stroke-width:1;"/></g><g class="participant participant-head" data-entity-uid="part4" data-qualified-name="DB" id="part4-head"><text fill="#000000" font-family="sans-serif" font-size="14" lengthAdjust="spacing" textLength="69.4117" x="299.875" y="79.9659">DATABASE</text><path d="M319.5809,29 C319.5809,19 337.5809,19 337.5809,19 C337.5809,19 355.5809,19 355.5809,29 L355.5809,55 C355.5809,65 337.5809,65 337.5809,65 C337.5809,65 319.5809,65 319.5809,55 L319.5809,29" fill="#E2E2F0" style="stroke:#181818;stroke-width:0.5;"/><path d="M319.5809,29 C319.5809,39 337.5809,39 337.5809,39 C337.5809,39 355.5809,39 355.5809,29" fill="none" style="stroke:#181818;stroke-width:0.5;"/></g><g class="participant participant-tail" data-entity-uid="part4" data-qualified-name="DB" id="part4-tail"><text fill="#000000" font-family="sans-serif" font-size="14" lengthAdjust="spacing" textLength="69.4117" x="299.875" y="498.5061">DATABASE</text><path d="M319.5809,512.608 C319.5809,502.608 337.5809,502.608 337.5809,502.608 C337.5809,502.608 355.5809,502.608 355.5809,512.608 L355.5809,538.608 C355.5809,548.608 337.5809,548.608 337.5809,548.608 C337.5809,548.608 319.5809,548.608 319.5809,538.608 L319.5809,512.608" fill="#E2E2F0" style="stroke:#181818;stroke-width:0.5;"/><path d="M319.5809,512.608 C319.5809,522.608 337.5809,522.608 337.5809,522.608 C337.5809,522.608 355.5809,522.608 355.5809,512.608" fill="none" style="stroke:#181818;stroke-width:0.5;"/></g><g class="participant participant-head" data-entity-uid="part5" data-qualified-name="Z" id="part5-head"><text fill="#000000" font-family="sans-serif" font-size="14" lengthAdjust="spacing" textLength="70.5737" x="385.2867" y="79.9659">DEBEZIUM</text><ellipse cx="423.5736" cy="49" fill="#E2E2F0" rx="12" ry="12" style="stroke:#181818;stroke-width:0.5;"/><polygon fill="#181818" points="419.5736,37,425.5736,32,423.5736,37,425.5736,42,419.5736,37" style="stroke:#181818;stroke-width:1;"/></g><g class="participant participant-tail" data-entity-uid="part5" data-qualified-name="Z" id="part5-tail"><text fill="#000000" font-family="sans-serif" font-size="14" lengthAdjust="spacing" textLength="70.5737" x="385.2867" y="498.5061">DEBEZIUM</text><ellipse cx="423.5736" cy="518.608" fill="#E2E2F0" rx="12" ry="12" style="stroke:#181818;stroke-width:0.5;"/><polygon fill="#181818" points="419.5736,506.608,425.5736,501.608,423.5736,506.608,425.5736,511.608,419.5736,506.608" style="stroke:#181818;stroke-width:1;"/></g><g class="participant participant-head" data-entity-uid="part6" data-qualified-name="K" id="part6-head"><path d="M476.8604,55 L529.3503,55 C534.3503,55 534.3503,69.534 534.3503,69.534 C534.3503,69.534 534.3503,84.0679 529.3503,84.0679 L476.8604,84.0679 C471.8604,84.0679 471.8604,69.534 471.8604,69.534 C471.8604,69.534 471.8604,55 476.8604,55" fill="#E2E2F0" style="stroke:#181818;stroke-width:0.5;"/><path d="M529.3503,55 C524.3503,55 524.3503,69.534 524.3503,69.534 C524.3503,84.0679 529.3503,84.0679 529.3503,84.0679" fill="none" style="stroke:#181818;stroke-width:0.5;"/><text fill="#000000" font-family="sans-serif" font-size="14" lengthAdjust="spacing" textLength="42.4899" x="476.8604" y="74.9659">KAFKA</text></g><g class="participant participant-tail" data-entity-uid="part6" data-qualified-name="K" id="part6-tail"><path d="M476.8604,483.5401 L529.3503,483.5401 C534.3503,483.5401 534.3503,498.0741 534.3503,498.0741 C534.3503,498.0741 534.3503,512.608 529.3503,512.608 L476.8604,512.608 C471.8604,512.608 471.8604,498.0741 471.8604,498.0741 C471.8604,498.0741 471.8604,483.5401 476.8604,483.5401" fill="#E2E2F0" style="stroke:#181818;stroke-width:0.5;"/><path d="M529.3503,483.5401 C524.3503,483.5401 524.3503,498.0741 524.3503,498.0741 C524.3503,512.608 529.3503,512.608 529.3503,512.608" fill="none" style="stroke:#181818;stroke-width:0.5;"/><text fill="#000000" font-family="sans-serif" font-size="14" lengthAdjust="spacing" textLength="42.4899" x="476.8604" y="503.5061">KAFKA</text></g><g class="message" data-entity-1="part1" data-entity-2="part2" id="msg1"><polygon fill="#181818" points="83.7777,113.7739,93.7777,117.7739,83.7777,121.7739,87.7777,117.7739" style="stroke:#181818;stroke-width:1;"/><line style="stroke:#181818;stroke-width:1;stroke-dasharray:2,2;" x1="25.2059" x2="89.7777" y1="117.7739" y2="117.7739"/><text fill="#000000" font-family="sans-serif" font-size="13" lengthAdjust="spacing" textLength="7.436" x="32.2059" y="111.9649">1</text></g><g class="message" data-entity-1="part2" data-entity-2="part4" id="msg2"><polygon fill="#181818" points="325.5809,145.4799,335.5809,149.4799,325.5809,153.4799,329.5809,149.4799" style="stroke:#181818;stroke-width:1;"/><line style="stroke:#181818;stroke-width:1;stroke-dasharray:2,2;" x1="95.7777" x2="331.5809" y1="149.4799" y2="149.4799"/><text fill="#000000" font-family="sans-serif" font-size="13" lengthAdjust="spacing" textLength="7.436" x="102.7777" y="143.6709">2</text></g><g class="message" data-entity-1="part2" data-entity-2="part6" id="msg3"><polygon fill="#181818" points="491.1054,177.186,501.1054,181.186,491.1054,185.186,495.1054,181.186" style="stroke:#181818;stroke-width:1;"/><line style="stroke:#181818;stroke-width:1;stroke-dasharray:2,2;" x1="95.7777" x2="497.1054" y1="181.186" y2="181.186"/><text fill="#000000" font-family="sans-serif" font-size="13" lengthAdjust="spacing" textLength="7.436" x="102.7777" y="175.377">3</text></g><g class="message" data-entity-1="part2" data-entity-2="part1" id="msg4"><polygon fill="#181818" points="36.2059,208.892,26.2059,212.892,36.2059,216.892,32.2059,212.892" style="stroke:#181818;stroke-width:1;"/><line style="stroke:#181818;stroke-width:1;stroke-dasharray:2,2;" x1="30.2059" x2="94.7777" y1="212.892" y2="212.892"/><text fill="#000000" font-family="sans-serif" font-size="13" lengthAdjust="spacing" textLength="7.436" x="42.2059" y="207.083">4</text></g><g class="message" data-entity-1="part6" data-entity-2="part3" id="msg5"><polygon fill="#181818" points="229.0093,240.598,219.0093,244.598,229.0093,248.598,225.0093,244.598" style="stroke:#181818;stroke-width:1;"/><line style="stroke:#181818;stroke-width:1;stroke-dasharray:2,2;" x1="223.0093" x2="502.1054" y1="244.598" y2="244.598"/><text fill="#000000" font-family="sans-serif" font-size="13" lengthAdjust="spacing" textLength="7.436" x="235.0093" y="238.789">5</text></g><g class="message" data-entity-1="part3" data-entity-2="part4" id="msg6"><polygon fill="#181818" points="325.5809,272.304,335.5809,276.304,325.5809,280.304,329.5809,276.304" style="stroke:#181818;stroke-width:1;"/><line style="stroke:#181818;stroke-width:1;stroke-dasharray:2,2;" x1="218.0093" x2="331.5809" y1="276.304" y2="276.304"/><text fill="#000000" font-family="sans-serif" font-size="13" lengthAdjust="spacing" textLength="7.436" x="225.0093" y="270.495">6</text></g><g class="message" data-entity-1="part4" data-entity-2="part5" id="msg7"><polygon fill="#181818" points="411.5736,304.01,421.5736,308.01,411.5736,312.01,415.5736,308.01" style="stroke:#181818;stroke-width:1;"/><line style="stroke:#181818;stroke-width:1;stroke-dasharray:2,2;" x1="337.5809" x2="417.5736" y1="308.01" y2="308.01"/><text fill="#000000" font-family="sans-serif" font-size="13" lengthAdjust="spacing" textLength="7.436" x="344.5809" y="302.201">7</text></g><g class="message" data-entity-1="part5" data-entity-2="part6" id="msg8"><polygon fill="#181818" points="491.1054,335.716,501.1054,339.716,491.1054,343.716,495.1054,339.716" style="stroke:#181818;stroke-width:1;"/><line style="stroke:#181818;stroke-width:1;stroke-dasharray:2,2;" x1="423.5736" x2="497.1054" y1="339.716" y2="339.716"/><text fill="#000000" font-family="sans-serif" font-size="13" lengthAdjust="spacing" textLength="7.436" x="430.5736" y="333.907">8</text></g><g class="message" data-entity-1="part6" data-entity-2="part2" id="msg9"><polygon fill="#181818" points="106.7777,367.4221,96.7777,371.4221,106.7777,375.4221,102.7777,371.4221" style="stroke:#181818;stroke-width:1;"/><line style="stroke:#181818;stroke-width:1;stroke-dasharray:2,2;" x1="100.7777" x2="502.1054" y1="371.4221" y2="371.4221"/><text fill="#000000" font-family="sans-serif" font-size="13" lengthAdjust="spacing" textLength="7.436" x="112.7777" y="365.6131">9</text></g><g class="message" data-entity-1="part2" data-entity-2="part4" id="msg10"><polygon fill="#181818" points="325.5809,399.1281,335.5809,403.1281,325.5809,407.1281,329.5809,403.1281" style="stroke:#181818;stroke-width:1;"/><line style="stroke:#181818;stroke-width:1;stroke-dasharray:2,2;" x1="95.7777" x2="331.5809" y1="403.1281" y2="403.1281"/><text fill="#000000" font-family="sans-serif" font-size="13" lengthAdjust="spacing" textLength="14.872" x="102.7777" y="397.3191">10</text></g><g class="message" data-entity-1="part1" data-entity-2="part2" id="msg11"><polygon fill="#181818" points="83.7777,430.8341,93.7777,434.8341,83.7777,438.8341,87.7777,434.8341" style="stroke:#181818;stroke-width:1;"/><line style="stroke:#181818;stroke-width:1;stroke-dasharray:2,2;" x1="25.2059" x2="89.7777" y1="434.8341" y2="434.8341"/><text fill="#000000" font-family="sans-serif" font-size="13" lengthAdjust="spacing" textLength="14.872" x="32.2059" y="429.0251">11</text></g><g class="message" data-entity-1="part2" data-entity-2="part1" id="msg12"><polygon fill="#181818" points="36.2059,462.5401,26.2059,466.5401,36.2059,470.5401,32.2059,466.5401" style="stroke:#181818;stroke-width:1;"/><line style="stroke:#181818;stroke-width:1;stroke-dasharray:2,2;" x1="30.2059" x2="94.7777" y1="466.5401" y2="466.5401"/><text fill="#000000" font-family="sans-serif" font-size="13" lengthAdjust="spacing" textLength="14.872" x="42.2059" y="460.7311">12</text></g><?plantuml-src LOxB2eCm44NtynNp0uLgtraKaYO52TKIZL0t4X-xejJ7edzV8ofrDNDlvkPSatTrWpeK2asB6hAwhmhJV35GNAYKFZth3mFokkgQ-esU7mi_2jGh7KAnTnFsO5gXC9t9J5iYfn5bD1mVELl2N32HUFfXxGG-VTcNAEbTKcj808sRpTNY23fWuLPoHj1Tb2IuMuGck0SvhbC5WWUOYytX8t0sYeJW2PBvc_EK776N5SxPhgeu_q37_G40?></g></svg>